<svg width="400" height="300" viewBox="0 0 400 300" fill="none" xmlns="http://www.w3.org/2000/svg">
<path d="M278 157.5L256 134L287.5 125L283.5 131.5L281 134L283.5 136V156.5L278 157.5Z" fill="white"/>
<path d="M320.764 66.8742L332.129 58C335.854 67.7711 332.789 75.0876 330.573 78.1558" fill="white"/>
<path d="M320.764 66.8742L332.129 58C335.854 67.7711 332.789 75.0876 330.573 78.1558" stroke="black" stroke-width="1.4154" stroke-miterlimit="10" stroke-linecap="round"/>
<path d="M292.8 67.0631C300.534 61.4459 309.729 61.7763 318.217 65.5526C327.649 69.8009 332.836 79.7135 333.308 89.3902" fill="white"/>
<path d="M117.329 111.34C161.656 66.9686 244.181 72.161 271.061 84.4338L275.399 81.8376" fill="white"/>
<path d="M330.148 88.3518C331.163 88.5709 332.216 88.9624 333.264 89.489C337.181 91.4579 341.025 95.3154 342.55 99.1141" fill="white"/>
<path d="M319.585 107.847C332.506 114.266 339.674 109.924 342.55 102.135Z" fill="white"/>
<path d="M319.585 107.847C314.916 118.184 302.42 125.737 286.669 126.398Z" fill="white"/>
<path d="M200.891 151.274C214.095 153.492 231.92 148.064 241.305 139.378Z" fill="white"/>
<path d="M292.8 67.0631C300.534 61.4459 309.729 61.7763 318.217 65.5526C327.649 69.8009 332.836 79.7135 333.308 89.3902L333.264 89.489C337.181 91.4579 341.025 95.3154 342.55 99.1141L342.55 102.135C339.674 109.924 332.506 114.266 319.585 107.847C314.916 118.184 302.42 125.737 286.669 126.398L241.305 139.378C231.92 148.064 214.095 153.492 200.891 151.274L117.329 134.469C88.5634 130.221 16.2719 203.008 117.329 246.341L119.263 247.427C124.073 250.07 122.752 257.339 117.329 258.142C76.8212 258.142 44 225.288 44 184.741C44 144.193 76.8212 111.34 117.329 111.34C161.656 66.9686 244.181 72.161 271.061 84.4338L275.399 81.8376L292.8 67.0631Z" fill="white"/>
<path d="M292.8 67.0631L292.384 66.4905L292.362 66.5062L292.342 66.5236L292.8 67.0631ZM318.217 65.5526L318.508 64.9073L318.505 64.906L318.217 65.5526ZM333.308 89.3902L333.954 89.6776L334.023 89.5238L334.014 89.3558L333.308 89.3902ZM117.329 111.34V112.047H117.622L117.83 111.84L117.329 111.34ZM271.061 84.4338L270.767 85.0776L271.105 85.232L271.424 85.0411L271.061 84.4338ZM275.399 81.8376L275.762 82.4449L275.812 82.4149L275.857 82.3771L275.399 81.8376ZM330.298 87.66C329.915 87.5775 329.539 87.8204 329.456 88.2024C329.374 88.5845 329.617 88.961 329.999 89.0435L330.298 87.66ZM342.55 99.1141L343.258 99.1141L343.258 98.9773L343.207 98.8504L342.55 99.1141ZM319.585 107.847L319.9 107.213L319.242 106.886L318.94 107.555L319.585 107.847ZM342.55 102.135L343.214 102.38L343.258 102.262L343.258 102.135L342.55 102.135ZM286.669 126.398L286.64 125.69L286.556 125.694L286.475 125.717L286.669 126.398ZM117.329 258.142V258.85H117.381L117.433 258.842L117.329 258.142ZM117.329 134.469L117.469 133.776L117.451 133.772L117.433 133.769L117.329 134.469ZM117.329 246.341L117.676 245.724L117.643 245.706L117.608 245.691L117.329 246.341ZM119.263 247.427L118.916 248.044L118.922 248.047L119.263 247.427ZM200.891 151.274L200.752 151.968L200.763 151.97L200.774 151.972L200.891 151.274ZM241.305 139.378L241.11 138.698L240.948 138.745L240.824 138.859L241.305 139.378ZM333.264 89.489L332.946 90.1213L332.946 90.1213L333.264 89.489ZM293.216 67.6357C300.686 62.2095 309.598 62.4924 317.93 66.1992L318.505 64.906C309.861 61.0602 300.381 60.6823 292.384 66.4905L293.216 67.6357ZM317.927 66.1978C327.061 70.3122 332.139 79.9476 332.601 89.4247L334.014 89.3558C333.533 79.4795 328.237 69.2895 318.508 64.9073L317.927 66.1978ZM117.83 111.84C139.832 89.8162 171.359 80.0561 200.803 77.35C230.259 74.6428 257.475 79.0089 270.767 85.0776L271.354 83.7901C257.766 77.5859 230.281 73.2194 200.673 75.9406C171.053 78.6628 139.154 88.4921 116.828 110.84L117.83 111.84ZM271.424 85.0411L275.762 82.4449L275.036 81.2304L270.697 83.8266L271.424 85.0411ZM319.27 108.48C325.821 111.735 331.047 112.329 335.058 110.99C339.086 109.646 341.725 106.411 343.214 102.38L341.886 101.89C340.499 105.647 338.116 108.478 334.61 109.648C331.089 110.823 326.27 110.378 319.9 107.213L319.27 108.48ZM318.94 107.555C314.413 117.58 302.208 125.037 286.64 125.69L286.699 127.105C302.632 126.436 315.42 118.788 320.23 108.138L318.94 107.555ZM117.329 257.434C77.2127 257.434 44.7077 224.898 44.7077 184.741H43.2923C43.2923 225.679 76.4297 258.85 117.329 258.85V257.434ZM44.7077 184.741C44.7077 144.583 77.2127 112.047 117.329 112.047V110.632C76.4297 110.632 43.2923 143.803 43.2923 184.741H44.7077ZM117.433 133.769C109.962 132.666 99.8564 136.553 90.5589 143.496C81.2298 150.464 72.5613 160.619 67.9865 172.304C63.4046 184.008 62.9293 197.258 70.0286 210.321C77.1162 223.362 91.7026 236.123 117.05 246.992L117.608 245.691C92.427 234.893 78.1534 222.306 71.2722 209.645C64.4028 197.005 64.8499 184.199 69.3045 172.82C73.7662 161.424 82.248 151.47 91.4059 144.63C100.595 137.767 110.313 134.149 117.226 135.169L117.433 133.769ZM116.983 246.958L118.916 248.044L119.609 246.81L117.676 245.724L116.983 246.958ZM118.922 248.047C123.134 250.362 121.981 256.738 117.225 257.442L117.433 258.842C123.523 257.941 125.011 249.778 119.603 246.807L118.922 248.047ZM200.774 151.972C207.508 153.103 215.377 152.281 222.732 150.093C230.086 147.906 236.993 144.333 241.785 139.898L240.824 138.859C236.231 143.11 229.534 146.593 222.328 148.737C215.124 150.88 207.478 151.663 201.008 150.576L200.774 151.972ZM117.19 135.163L200.752 151.968L201.031 150.58L117.469 133.776L117.19 135.163ZM286.475 125.717L241.11 138.698L241.499 140.059L286.864 127.078L286.475 125.717ZM341.843 99.1141L341.843 102.135L343.258 102.135L343.258 99.1141L341.843 99.1141ZM329.999 89.0435C330.945 89.2477 331.941 89.6161 332.946 90.1213L333.582 88.8567C332.491 88.3088 331.382 87.8941 330.298 87.66L329.999 89.0435ZM332.946 90.1213C336.736 92.0263 340.443 95.7651 341.894 99.3778L343.207 98.8504C341.607 94.8657 337.626 90.8896 333.582 88.8567L332.946 90.1213ZM332.661 89.1028L332.617 89.2016L333.91 89.7764L333.954 89.6776L332.661 89.1028ZM292.342 66.5236L274.941 81.2982L275.857 82.3771L293.258 67.6025L292.342 66.5236Z" fill="black"/>
<path d="M294.686 144.099L306.9 147.356L304.165 157.599L291.998 154.389" fill="white"/>
<path d="M294.686 144.099L306.9 147.356L304.165 157.599L291.998 154.389" stroke="black" stroke-width="1.4154" stroke-miterlimit="10" stroke-linecap="round"/>
<path d="M188.63 190.688V199.421H178.02V190.688" fill="white"/>
<path d="M188.63 190.688V199.421H178.02V190.688" stroke="black" stroke-width="1.4154" stroke-miterlimit="10" stroke-linecap="round"/>
<path d="M318.5 94.9602C320.87 94.9602 322.792 93.037 322.792 90.6647C322.792 88.2924 320.87 86.3692 318.5 86.3692C316.13 86.3692 314.209 88.2924 314.209 90.6647C314.209 93.037 316.13 94.9602 318.5 94.9602Z" stroke="black" stroke-width="1.4154" stroke-miterlimit="10" stroke-linecap="round"/>
<path d="M318.63 91.792C319.253 91.7437 319.719 91.1989 319.671 90.5751C319.623 89.9513 319.078 89.4847 318.455 89.533C317.832 89.5813 317.366 90.1262 317.414 90.75C317.463 91.3738 318.007 91.8403 318.63 91.792Z" fill="black" stroke="black" stroke-width="1.4154" stroke-miterlimit="10" stroke-linecap="round"/>
<path d="M321.943 93.2609L324.489 94.9602" stroke="black" stroke-width="1.4154" stroke-miterlimit="10" stroke-linecap="round"/>
<path d="M341.419 98.8308C340.523 98.7836 339.721 99.4916 339.674 100.388C339.721 99.4916 339.014 98.6892 338.118 98.642C336.514 98.5948 336.373 100.247 336.373 100.247C336.279 102.088 337.693 103.646 339.532 103.74C341.372 103.834 342.928 102.465 343.022 100.625C343.022 100.625 343.069 98.9252 341.419 98.8308Z" fill="white" stroke="black" stroke-width="1.4154" stroke-miterlimit="10" stroke-linecap="round"/>
<path d="M312.794 88.7766C313.832 85.6139 317.274 83.9146 320.434 84.9531C323.593 85.9916 325.291 89.4374 324.254 92.6" stroke="black" stroke-width="1.4154" stroke-miterlimit="10" stroke-linecap="round"/>
<path d="M312.794 88.7765L293.743 99.35C298.506 108.838 310.059 112.661 319.538 107.894" stroke="black" stroke-width="1.4154" stroke-miterlimit="10" stroke-linecap="round"/>
<path d="M325.904 104.59C330.856 105.675 330.478 108.98 335.854 109.924" stroke="black" stroke-width="1.4154" stroke-miterlimit="10" stroke-linecap="round"/>
<path d="M280.916 160.809L287.565 169.872L278.983 176.15L272.334 167.087" fill="white"/>
<path d="M280.916 160.809L287.565 169.872L278.983 176.15L272.334 167.087" stroke="black" stroke-width="1.4154" stroke-miterlimit="10" stroke-linecap="round"/>
<path d="M279.643 157.174C281.718 157.127 283.84 156.938 285.868 156.56C299.072 154.483 302.137 145.892 295.724 143.249C288.839 140.842 285.255 138.718 280.775 133.62" fill="white"/>
<path d="M279.643 157.174C281.718 157.127 283.84 156.938 285.868 156.56C299.072 154.483 302.137 145.892 295.724 143.249C288.839 140.842 285.255 138.718 280.775 133.62" stroke="black" stroke-width="1.4154" stroke-miterlimit="10" stroke-linecap="round"/>
<path d="M239.418 128.663C239.513 143.343 250.877 159.817 265.92 165.482C278.276 170.58 285.349 164.821 281.246 159.251C275.446 152.171 273.796 148.205 272.711 137.537" fill="white"/>
<path d="M239.418 128.663C239.513 143.343 250.877 159.817 265.92 165.482C278.276 170.58 285.349 164.821 281.246 159.251C275.446 152.171 273.796 148.205 272.711 137.537" stroke="black" stroke-width="1.4154" stroke-miterlimit="10" stroke-linecap="round"/>
<path d="M238.711 128.663C238.711 129.054 239.027 129.371 239.418 129.371C239.809 129.371 240.126 129.054 240.126 128.663H238.711ZM265.92 102.796C266.311 102.796 266.628 102.479 266.628 102.088C266.628 101.697 266.311 101.38 265.92 101.38V102.796ZM289.216 117.354C289.2 116.963 288.871 116.659 288.481 116.675C288.09 116.69 287.786 117.019 287.801 117.41L289.216 117.354ZM269.854 136.83C269.463 136.846 269.159 137.175 269.174 137.566C269.19 137.956 269.519 138.26 269.91 138.245L269.854 136.83ZM240.126 128.663C240.126 114.372 251.694 102.796 265.92 102.796V101.38C250.909 101.38 238.711 113.594 238.711 128.663H240.126ZM287.801 117.41C288.21 127.734 280.168 136.421 269.854 136.83L269.91 138.245C281.004 137.804 289.656 128.46 289.216 117.354L287.801 117.41Z" fill="black"/>
<path d="M190.752 197.061C180.425 197.061 171.984 202.489 171.041 209.428C170.993 209.759 170.946 210.042 170.946 210.372C170.946 210.419 170.946 210.467 170.946 210.514C170.946 210.561 170.946 210.608 170.946 210.703C171.088 213.676 173.587 216.084 176.605 216.084C178.256 216.084 179.717 215.376 180.755 214.243H200.184L200.419 214.148C201.457 215.47 203.06 216.367 204.899 216.367C208.012 216.367 210.558 213.818 210.558 210.703C210.558 203.15 201.693 197.061 190.752 197.061Z" fill="white" stroke="black" stroke-width="1.4154" stroke-miterlimit="10" stroke-linecap="round"/>
<path d="M205.182 202.112C208.719 202.112 217.066 204.189 218.197 205.133C219.141 205.841 219.612 206.785 219.188 207.87C218.716 209.003 217.537 209.57 216.17 209.145C216.17 209.145 216.123 209.098 216.075 209.098C215.415 208.814 212.633 207.162 209.992 207.351" fill="white"/>
<path d="M205.182 202.112C208.719 202.112 217.066 204.189 218.197 205.133C219.141 205.841 219.612 206.785 219.188 207.87C218.716 209.003 217.537 209.57 216.17 209.145C216.17 209.145 216.123 209.098 216.075 209.098C215.415 208.814 212.633 207.162 209.992 207.351" stroke="black" stroke-width="1.4154" stroke-miterlimit="10" stroke-linecap="round"/>
<path d="M210.369 210.183C213.01 210.419 217.962 212.827 218.622 213.252L218.716 213.299C219.989 213.912 221.263 213.535 221.876 212.496C222.489 211.458 222.159 210.467 221.31 209.617C220.602 209.003 210.7 205.369 208.153 205.18" fill="white"/>
<path d="M210.369 210.183C213.01 210.419 217.962 212.827 218.622 213.252L218.716 213.299C219.989 213.912 221.263 213.535 221.876 212.496C222.489 211.458 222.159 210.467 221.31 209.617C220.602 209.003 210.7 205.369 208.153 205.18" stroke="black" stroke-width="1.4154" stroke-miterlimit="10" stroke-linecap="round"/>
<path d="M208.813 212.166C211.454 212.402 218.811 216.697 219.471 217.075L219.565 217.122C220.838 217.736 222.112 217.358 222.725 216.32C223.338 215.281 223.008 214.29 222.159 213.44C221.451 212.827 211.926 208.531 208.436 208.437" fill="white"/>
<path d="M208.813 212.166C211.454 212.402 218.811 216.697 219.471 217.075L219.565 217.122C220.838 217.736 222.112 217.358 222.725 216.32C223.338 215.281 223.008 214.29 222.159 213.44C221.451 212.827 211.926 208.531 208.436 208.437" stroke="black" stroke-width="1.4154" stroke-miterlimit="10" stroke-linecap="round"/>
<path d="M206.502 215.895C209.143 216.131 213.906 219.01 214.519 219.388L214.613 219.435C215.887 220.049 217.16 219.671 217.773 218.633C218.386 217.594 218.056 216.603 217.207 215.753C216.594 215.234 212.539 213.016 209.803 212.308C209.426 212.213 209.096 212.166 208.813 212.119" fill="white"/>
<path d="M206.502 215.895C209.143 216.131 213.906 219.01 214.519 219.388L214.613 219.435C215.887 220.049 217.16 219.671 217.773 218.633C218.386 217.594 218.056 216.603 217.207 215.753C216.594 215.234 212.539 213.016 209.803 212.308C209.426 212.213 209.096 212.166 208.813 212.119" stroke="black" stroke-width="1.4154" stroke-miterlimit="10" stroke-linecap="round"/>
<path d="M188.63 151.226L212.539 151.746C204.617 167.512 190.8 193.332 190.8 193.332C187.876 194.134 185.235 194.276 182.877 193.804" fill="white"/>
<path d="M188.63 151.226L212.539 151.746C204.617 167.512 190.8 193.332 190.8 193.332C187.876 194.134 185.235 194.276 182.877 193.804" stroke="black" stroke-width="1.4154" stroke-miterlimit="10" stroke-linecap="round"/>
<path d="M174.719 154.814C168.777 162.13 159.77 166.756 149.631 166.756C131.806 166.756 117.329 152.265 117.329 134.422C117.329 116.579 131.806 102.088 149.631 102.088C158.025 102.088 165.665 105.298 171.418 110.537" fill="white"/>
<path d="M174.719 154.814C168.777 162.13 159.77 166.756 149.631 166.756C131.806 166.756 117.329 152.265 117.329 134.422C117.329 116.579 131.806 102.088 149.631 102.088C158.025 102.088 165.665 105.298 171.418 110.537" stroke="black" stroke-width="1.4154" stroke-miterlimit="10" stroke-linecap="round"/>
<path d="M172.833 205.463V214.196H162.222V205.463" fill="white"/>
<path d="M172.833 205.463V214.196H162.222V205.463" stroke="black" stroke-width="1.4154" stroke-miterlimit="10" stroke-linecap="round"/>
<path d="M166.561 161.989C145.623 177.188 152.461 214.715 175.191 208.248C175.191 208.248 178.444 202.159 182.736 194.04C189.479 181.295 198.722 163.594 201.504 157.174C202.259 155.475 202.164 153.492 201.268 151.887C196.93 144.004 183.302 120.261 170.664 109.876" fill="white"/>
<path d="M166.561 161.989C145.623 177.188 152.461 214.715 175.191 208.248C175.191 208.248 178.444 202.159 182.736 194.04C189.479 181.295 198.722 163.594 201.504 157.174C202.259 155.475 202.164 153.492 201.268 151.887C196.93 144.004 183.302 120.261 170.664 109.876" stroke="black" stroke-width="1.4154" stroke-miterlimit="10" stroke-linecap="round"/>
<path d="M273.749 79.9495C270.165 74.6628 270.636 67.6767 275.635 63.7116C280.633 59.7465 287.896 60.5962 291.857 65.5997C293.319 67.4879 301.948 82.7345 301.948 82.7345C301.948 82.7345 280.445 89.815 273.749 79.9495Z" fill="white" stroke="black" stroke-width="1.4154" stroke-miterlimit="10" stroke-linecap="round"/>
<path d="M285.255 70.8865C291.998 77.1645 292.988 84.7643 292.988 84.7643" stroke="black" stroke-width="1.4154" stroke-miterlimit="10" stroke-linecap="round"/>
<path d="M173.446 211.835C163.118 211.835 154.677 217.264 153.734 224.203C153.687 224.533 153.64 224.816 153.64 225.147C153.64 225.194 153.64 225.241 153.64 225.288C153.64 225.336 153.64 225.383 153.64 225.477C153.781 228.451 156.281 230.858 159.299 230.858C160.949 230.858 162.411 230.15 163.449 229.017H182.877L183.113 228.923C184.15 230.245 185.754 231.142 187.593 231.142C190.705 231.142 193.252 228.593 193.252 225.477C193.252 217.925 184.386 211.835 173.446 211.835Z" fill="white" stroke="black" stroke-width="1.4154" stroke-miterlimit="10" stroke-linecap="round"/>
<path d="M187.876 216.886C191.413 216.886 199.759 218.963 200.891 219.907C201.834 220.615 202.306 221.559 201.881 222.645C201.41 223.778 200.231 224.344 198.863 223.92C198.863 223.92 198.816 223.872 198.769 223.872C198.109 223.589 195.327 221.937 192.686 222.126" fill="white"/>
<path d="M187.876 216.886C191.413 216.886 199.759 218.963 200.891 219.907C201.834 220.615 202.306 221.559 201.881 222.645C201.41 223.778 200.231 224.344 198.863 223.92C198.863 223.92 198.816 223.872 198.769 223.872C198.109 223.589 195.327 221.937 192.686 222.126" stroke="black" stroke-width="1.4154" stroke-miterlimit="10" stroke-linecap="round"/>
<path d="M193.063 224.958C195.704 225.194 200.655 227.601 201.316 228.026L201.41 228.073C202.683 228.687 203.956 228.31 204.569 227.271C205.182 226.233 204.852 225.241 204.003 224.392C203.296 223.778 193.393 220.143 190.847 219.955" fill="white"/>
<path d="M193.063 224.958C195.704 225.194 200.655 227.601 201.316 228.026L201.41 228.073C202.683 228.687 203.956 228.31 204.569 227.271C205.182 226.233 204.852 225.241 204.003 224.392C203.296 223.778 193.393 220.143 190.847 219.955" stroke="black" stroke-width="1.4154" stroke-miterlimit="10" stroke-linecap="round"/>
<path d="M191.46 226.941C194.1 227.177 201.457 231.472 202.117 231.85L202.211 231.897C203.485 232.511 204.758 232.133 205.371 231.094C205.984 230.056 205.654 229.065 204.805 228.215C204.098 227.601 194.572 223.306 191.082 223.212" fill="white"/>
<path d="M191.46 226.941C194.1 227.177 201.457 231.472 202.117 231.85L202.211 231.897C203.485 232.511 204.758 232.133 205.371 231.094C205.984 230.056 205.654 229.065 204.805 228.215C204.098 227.601 194.572 223.306 191.082 223.212" stroke="black" stroke-width="1.4154" stroke-miterlimit="10" stroke-linecap="round"/>
<path d="M189.149 230.67C191.79 230.906 196.553 233.785 197.166 234.163L197.26 234.21C198.533 234.824 199.806 234.446 200.419 233.407C201.032 232.369 200.702 231.378 199.854 230.528C199.241 230.009 195.185 227.79 192.45 227.082C192.073 226.988 191.743 226.941 191.46 226.893" fill="white"/>
<path d="M189.149 230.67C191.79 230.906 196.553 233.785 197.166 234.163L197.26 234.21C198.533 234.824 199.806 234.446 200.419 233.407C201.032 232.369 200.702 231.378 199.854 230.528C199.241 230.009 195.185 227.79 192.45 227.082C192.073 226.988 191.743 226.941 191.46 226.893" stroke="black" stroke-width="1.4154" stroke-miterlimit="10" stroke-linecap="round"/>
<path d="M321.235 144.854C317.982 139.992 311.097 139.284 306.664 142.447C302.278 145.562 299.92 150.802 304.117 157.032C304.353 157.363 303.882 156.702 304.117 157.032C305.768 159.345 308.927 159.865 311.238 158.26C312.889 157.08 313.643 155.097 313.313 153.209L316.991 150.377C318.076 150.802 319.349 150.66 320.387 149.952C321.99 148.772 322.367 146.506 321.235 144.854Z" fill="white" stroke="black" stroke-width="1.4154" stroke-miterlimit="10" stroke-linecap="round"/>
<path d="M299.732 178.132C300.487 172.326 295.771 167.276 290.348 166.709C285.019 166.143 279.785 168.55 278.794 176.008C278.747 176.433 278.842 175.583 278.794 176.008C278.511 178.84 280.539 181.342 283.369 181.625C285.396 181.814 287.235 180.823 288.273 179.171L292.894 179.454C293.46 180.492 294.498 181.248 295.724 181.389C297.751 181.578 299.449 180.115 299.732 178.132Z" fill="white" stroke="black" stroke-width="1.4154" stroke-miterlimit="10" stroke-linecap="round"/>
<path d="M296.478 168.786C302.09 166.52 309.493 167.323 312.134 171.382C312.747 172.326 312.417 173.648 311.427 174.262C310.625 174.734 309.635 174.639 308.975 174.026C308.975 174.026 305.155 172.09 300.911 172.846C300.345 172.94 299.779 173.082 299.213 173.318" stroke="black" stroke-width="1.4154" stroke-miterlimit="10" stroke-linecap="round"/>
<path d="M297.28 171.807C302.986 169.872 310.389 171.099 312.747 175.253C313.313 176.244 312.889 177.519 311.898 178.085C311.05 178.51 310.059 178.368 309.446 177.708C309.446 177.708 304.683 174.923 299.779 176.433" fill="white"/>
<path d="M297.28 171.807C302.986 169.872 310.389 171.099 312.747 175.253C313.313 176.244 312.889 177.519 311.898 178.085C311.05 178.51 310.059 178.368 309.446 177.708C309.446 177.708 304.683 174.923 299.779 176.433" stroke="black" stroke-width="1.4154" stroke-miterlimit="10" stroke-linecap="round"/>
<path d="M298.977 179.879C303.787 178.132 308.692 180.587 308.692 180.587C309.352 181.201 310.342 181.295 311.144 180.823C312.134 180.209 312.464 178.888 311.851 177.944C309.21 173.884 301.807 173.082 296.195 175.347" fill="white"/>
<path d="M298.977 179.879C303.787 178.132 308.692 180.587 308.692 180.587C309.352 181.201 310.342 181.295 311.144 180.823C312.134 180.209 312.464 178.888 311.851 177.944C309.21 173.884 301.807 173.082 296.195 175.347" stroke="black" stroke-width="1.4154" stroke-miterlimit="10" stroke-linecap="round"/>
<path d="M314.634 140.323C319.019 136.169 326.187 134.139 330.148 136.924C331.044 137.585 331.28 138.906 330.573 139.85C330.007 140.606 329.016 140.889 328.215 140.559C328.215 140.559 323.923 140.181 320.292 142.399C319.821 142.683 319.679 142.73 319.255 143.155" stroke="black" stroke-width="1.4154" stroke-miterlimit="10" stroke-linecap="round"/>
<path d="M316.473 142.824C321.094 138.906 328.356 137.302 332.129 140.323C333.025 141.031 333.119 142.399 332.365 143.249C331.752 143.957 330.761 144.193 329.96 143.816C329.96 143.816 325.432 143.155 321.566 145.42" fill="white"/>
<path d="M316.473 142.824C321.094 138.906 328.356 137.302 332.129 140.323C333.025 141.031 333.119 142.399 332.365 143.249C331.752 143.957 330.761 144.193 329.96 143.816C329.96 143.816 325.432 143.155 321.566 145.42" stroke="black" stroke-width="1.4154" stroke-miterlimit="10" stroke-linecap="round"/>
<path d="M320.481 148.63C321.471 148.63 322.273 147.827 322.273 146.837C322.273 145.846 321.471 145.043 320.481 145.043C319.491 145.043 318.689 145.846 318.689 146.837C318.689 147.827 319.491 148.63 320.481 148.63Z" fill="white" stroke="white" stroke-width="1.4154" stroke-miterlimit="10" stroke-linecap="round"/>
<path d="M320.34 149.905C325.385 149.15 329.724 152.548 329.724 152.548C330.243 153.256 331.233 153.587 332.129 153.256C333.213 152.879 333.779 151.604 333.355 150.566C331.893 146.884 326.8 144.712 321.754 144.665" fill="white"/>
<path d="M320.34 149.905C325.385 149.15 329.724 152.548 329.724 152.548C330.243 153.256 331.233 153.587 332.129 153.256C333.213 152.879 333.779 151.604 333.355 150.566C331.893 146.884 326.8 144.712 321.754 144.665" stroke="black" stroke-width="1.4154" stroke-miterlimit="10" stroke-linecap="round"/>
<path d="M56.0723 155.333C57.8642 153.539 61.6839 154.011 62.7214 156.608" stroke="black" stroke-width="1.4154" stroke-miterlimit="10" stroke-linecap="round"/>
<path d="M112 129.655C116.622 128.569 116.574 124.368 116.574 124.368" stroke="black" stroke-width="1.4154" stroke-miterlimit="10" stroke-linecap="round"/>
<path d="M70.4079 128.994C71.7283 131.26 70.3136 133.384 70.3136 133.384" stroke="black" stroke-width="1.4154" stroke-miterlimit="10" stroke-linecap="round"/>
<path d="M67.2012 173.034C64.3717 173.082 62.957 171.949 62.957 171.949" stroke="black" stroke-width="1.4154" stroke-miterlimit="10" stroke-linecap="round"/>
<path d="M63.806 176.527C64.6548 179.454 62.3441 180.823 62.3441 180.823" stroke="black" stroke-width="1.4154" stroke-miterlimit="10" stroke-linecap="round"/>
<path d="M57.0152 150.99C54.3744 150.282 54.5631 145.751 57.1095 144.854" stroke="black" stroke-width="1.4154" stroke-miterlimit="10" stroke-linecap="round"/>
<path d="M57.1567 186.912C58.147 184.174 62.1554 184.127 63.24 186.535" stroke="black" stroke-width="1.4154" stroke-miterlimit="10" stroke-linecap="round"/>
<path d="M56.2135 169.447C56.1664 172.185 51.7336 173.082 50.2246 170.816" stroke="black" stroke-width="1.4154" stroke-miterlimit="10" stroke-linecap="round"/>
<path d="M53.7144 177.991C55.3177 176.055 59.1846 176.15 60.4578 178.604" stroke="black" stroke-width="1.4154" stroke-miterlimit="10" stroke-linecap="round"/>
<path d="M61.9669 164.113C63.4287 166.19 62.297 169.872 59.609 170.485" stroke="black" stroke-width="1.4154" stroke-miterlimit="10" stroke-linecap="round"/>
<path d="M110.444 119.742C105.87 120.969 106.011 125.17 106.011 125.17" stroke="black" stroke-width="1.4154" stroke-miterlimit="10" stroke-linecap="round"/>
<path d="M103.465 123.235C102.097 121.016 103.418 118.845 103.418 118.845" stroke="black" stroke-width="1.4154" stroke-miterlimit="10" stroke-linecap="round"/>
<path d="M68.3801 153.775C71.0681 154.436 70.9738 158.921 68.4744 159.912" stroke="black" stroke-width="1.4154" stroke-miterlimit="10" stroke-linecap="round"/>
<path d="M66.2108 164.255C67.5784 161.847 71.7282 162.414 71.964 165.151" stroke="black" stroke-width="1.4154" stroke-miterlimit="10" stroke-linecap="round"/>
<path d="M65.4565 160.195C62.6743 160.762 61.0709 159.912 61.0709 159.912" stroke="black" stroke-width="1.4154" stroke-miterlimit="10" stroke-linecap="round"/>
<path d="M51.6866 188.139C52.1111 185.543 54.5632 184.788 54.5632 184.788" stroke="black" stroke-width="1.4154" stroke-miterlimit="10" stroke-linecap="round"/>
<path d="M51.7337 181.531C49.6117 183.513 46.0278 181.767 46.1221 179.076" stroke="black" stroke-width="1.4154" stroke-miterlimit="10" stroke-linecap="round"/>
<path d="M97.2401 132.298C101.861 131.212 101.814 127.011 101.814 127.011" stroke="black" stroke-width="1.4154" stroke-miterlimit="10" stroke-linecap="round"/>
<path d="M104.361 128.994C105.681 131.26 104.267 133.384 104.267 133.384" stroke="black" stroke-width="1.4154" stroke-miterlimit="10" stroke-linecap="round"/>
<path d="M56.308 217.83C54.0916 216.886 54.1388 214.762 54.1388 214.762" stroke="black" stroke-width="1.4154" stroke-miterlimit="10" stroke-linecap="round"/>
<path d="M98.372 123.093C97.6646 126.02 94.9767 126.114 94.9767 126.114" stroke="black" stroke-width="1.4154" stroke-miterlimit="10" stroke-linecap="round"/>
<path d="M109.642 131.637C108.558 130.315 109.029 127.578 110.538 127.153" stroke="black" stroke-width="1.4154" stroke-miterlimit="10" stroke-linecap="round"/>
<path d="M87.4786 128.852C89.695 126.964 93.2318 128.899 92.9488 131.543" stroke="black" stroke-width="1.4154" stroke-miterlimit="10" stroke-linecap="round"/>
<path d="M62.3439 191.68C62.2968 194.417 57.864 195.314 56.355 193.049" stroke="black" stroke-width="1.4154" stroke-miterlimit="10" stroke-linecap="round"/>
<path d="M88.8933 119.411C91.2512 118.515 94.5521 120.497 94.4578 123.282" stroke="black" stroke-width="1.4154" stroke-miterlimit="10" stroke-linecap="round"/>
<path d="M50.0361 174.214C48.9515 176.008 47.301 176.811 44.7074 176.48" stroke="black" stroke-width="1.4154" stroke-miterlimit="10" stroke-linecap="round"/>
<path d="M82.1029 125.17C83.7534 123.14 86.2527 123.707 86.2527 123.707" stroke="black" stroke-width="1.4154" stroke-miterlimit="10" stroke-linecap="round"/>
<path d="M53.1484 193.426C51.0264 195.409 47.5367 193.521 46.9237 190.688" stroke="black" stroke-width="1.4154" stroke-miterlimit="10" stroke-linecap="round"/>
<path d="M76.774 143.202C77.4814 140.795 81.0653 139.378 83.2345 141.125" stroke="black" stroke-width="1.4154" stroke-miterlimit="10" stroke-linecap="round"/>
<path d="M64.8905 152.029C68.4273 148.866 66.3995 145.184 66.3995 145.184" stroke="black" stroke-width="1.4154" stroke-miterlimit="10" stroke-linecap="round"/>
<path d="M82.1029 145.184C84.3193 146.506 84.1307 149.102 84.1307 149.102" stroke="black" stroke-width="1.4154" stroke-miterlimit="10" stroke-linecap="round"/>
<path d="M109.925 116.579C107.096 116.579 105.681 115.399 105.681 115.399" stroke="black" stroke-width="1.4154" stroke-miterlimit="10" stroke-linecap="round"/>
<path d="M62.6271 144.618C63.3816 147.545 61.118 148.914 61.118 148.914" stroke="black" stroke-width="1.4154" stroke-miterlimit="10" stroke-linecap="round"/>
<path d="M76.8684 149.48C74.6521 149.527 72.7658 146.742 74.039 144.052" stroke="black" stroke-width="1.4154" stroke-miterlimit="10" stroke-linecap="round"/>
<path d="M71.7754 138.151C71.6811 140.889 67.2012 141.739 65.7865 139.426" stroke="black" stroke-width="1.4154" stroke-miterlimit="10" stroke-linecap="round"/>
<path d="M77.7171 126.492C79.1318 128.569 77.9529 132.251 75.2178 132.817" stroke="black" stroke-width="1.4154" stroke-miterlimit="10" stroke-linecap="round"/>
<path d="M92.3358 135.508C95.1652 135.413 96.6271 136.546 96.6271 136.546" stroke="black" stroke-width="1.4154" stroke-miterlimit="10" stroke-linecap="round"/>
<path d="M82.0555 128.994C84.6963 128.286 86.8184 132.251 85.0736 134.328" stroke="black" stroke-width="1.4154" stroke-miterlimit="10" stroke-linecap="round"/>
<path d="M85.1208 139.237C85.168 136.499 89.5536 135.555 91.0626 137.774" stroke="black" stroke-width="1.4154" stroke-miterlimit="10" stroke-linecap="round"/>
<path d="M82.0086 135.083C79.8394 136.924 78.0002 136.924 78.0002 136.924" stroke="black" stroke-width="1.4154" stroke-miterlimit="10" stroke-linecap="round"/>
<path d="M115.113 119.978C112.472 119.27 112.661 114.738 115.207 113.842" stroke="black" stroke-width="1.4154" stroke-miterlimit="10" stroke-linecap="round"/>
<path d="M98.7019 118.184C97.3344 115.966 98.6548 113.794 98.6548 113.794" stroke="black" stroke-width="1.4154" stroke-miterlimit="10" stroke-linecap="round"/>
<path d="M121.62 117.287C119.31 116.06 119.357 113.511 119.357 113.511" stroke="black" stroke-width="1.4154" stroke-miterlimit="10" stroke-linecap="round"/>
<path d="M51.7809 211.552C53.7615 209.853 56.1193 210.891 56.1193 210.891" stroke="black" stroke-width="1.4154" stroke-miterlimit="10" stroke-linecap="round"/>
<path d="M55.1291 205.935C51.781 206.69 49.9419 201.781 52.4412 199.374" stroke="black" stroke-width="1.4154" stroke-miterlimit="10" stroke-linecap="round"/>
<path d="M59.7505 197.061C57.2983 199.421 55.1763 199.421 55.1763 199.421" stroke="black" stroke-width="1.4154" stroke-miterlimit="10" stroke-linecap="round"/>
<path d="M62.8627 199.751C63.1456 202.914 62.1082 204.566 62.1082 204.566" stroke="black" stroke-width="1.4154" stroke-miterlimit="10" stroke-linecap="round"/>
<path d="M46.9237 164.632C49.5645 161.989 51.828 163.594 51.828 163.594" stroke="black" stroke-width="1.4154" stroke-miterlimit="10" stroke-linecap="round"/>
<path d="M57.4397 162.839C56.4966 165.529 54.9404 166.473 54.9404 166.473" stroke="black" stroke-width="1.4154" stroke-miterlimit="10" stroke-linecap="round"/>
<path d="M87.5259 243.745C85.6867 242.046 86.0168 238.175 88.5633 237.042" stroke="black" stroke-width="1.4154" stroke-miterlimit="10" stroke-linecap="round"/>
<path d="M60.7407 230.386C62.9571 228.97 65.1263 230.339 65.1263 230.339" stroke="black" stroke-width="1.4154" stroke-miterlimit="10" stroke-linecap="round"/>
<path d="M86.064 246.86C84.3664 249.032 80.2637 247.096 80.4523 244.359" stroke="black" stroke-width="1.4154" stroke-miterlimit="10" stroke-linecap="round"/>
<path d="M101.579 243.131C104.314 243.084 105.398 247.474 103.182 249.032" stroke="black" stroke-width="1.4154" stroke-miterlimit="10" stroke-linecap="round"/>
<path d="M81.4426 229.678C82.6215 227.177 87.0071 228.121 87.4787 230.811" stroke="black" stroke-width="1.4154" stroke-miterlimit="10" stroke-linecap="round"/>
<path d="M92.9016 233.596C93.0902 236.428 92.0056 237.892 92.0056 237.892" stroke="black" stroke-width="1.4154" stroke-miterlimit="10" stroke-linecap="round"/>
<path d="M108.228 254.932C105.634 254.602 104.785 252.194 104.785 252.194" stroke="black" stroke-width="1.4154" stroke-miterlimit="10" stroke-linecap="round"/>
<path d="M113.792 247.144C115.867 249.173 114.217 252.855 111.529 252.855" stroke="black" stroke-width="1.4154" stroke-miterlimit="10" stroke-linecap="round"/>
<path d="M59.9391 213.299C57.9585 211.175 59.7976 207.587 62.4384 207.729" stroke="black" stroke-width="1.4154" stroke-miterlimit="10" stroke-linecap="round"/>
<path d="M74.6522 223.495C72.2 222.881 70.6438 219.341 72.3415 217.122" stroke="black" stroke-width="1.4154" stroke-miterlimit="10" stroke-linecap="round"/>
<path d="M83.8947 235.06C80.5937 231.614 77.0098 233.832 77.0098 233.832" stroke="black" stroke-width="1.4154" stroke-miterlimit="10" stroke-linecap="round"/>
<path d="M76.5854 237.608C79.462 236.712 80.9239 238.977 80.9239 238.977" stroke="black" stroke-width="1.4154" stroke-miterlimit="10" stroke-linecap="round"/>
<path d="M80.4524 223.164C80.5939 225.383 77.9059 227.365 75.1237 226.185" stroke="black" stroke-width="1.4154" stroke-miterlimit="10" stroke-linecap="round"/>
<path d="M69.7948 228.687C72.5299 228.687 73.5202 233.124 71.2567 234.635" stroke="black" stroke-width="1.4154" stroke-miterlimit="10" stroke-linecap="round"/>
<path d="M57.9586 223.164C59.9864 221.701 63.7118 222.739 64.372 225.43" stroke="black" stroke-width="1.4154" stroke-miterlimit="10" stroke-linecap="round"/>
<path d="M66.3996 208.201C66.211 205.369 67.2956 203.905 67.2956 203.905" stroke="black" stroke-width="1.4154" stroke-miterlimit="10" stroke-linecap="round"/>
<path d="M60.2692 218.727C59.4675 216.084 63.3816 213.818 65.5036 215.517" stroke="black" stroke-width="1.4154" stroke-miterlimit="10" stroke-linecap="round"/>
<path d="M70.4077 215.281C67.6726 215.328 66.5409 210.986 68.7572 209.381" stroke="black" stroke-width="1.4154" stroke-miterlimit="10" stroke-linecap="round"/>
<path d="M66.3995 218.538C68.333 220.615 68.3801 222.456 68.3801 222.456" stroke="black" stroke-width="1.4154" stroke-miterlimit="10" stroke-linecap="round"/>
<path d="M116.103 255.027C119.262 254.602 120.96 255.593 120.96 255.593" stroke="black" stroke-width="1.4154" stroke-miterlimit="10" stroke-linecap="round"/>
<path d="M91.6284 246.435C93.8448 248.843 93.892 250.92 93.892 250.92" stroke="black" stroke-width="1.4154" stroke-miterlimit="10" stroke-linecap="round"/>
<path d="M94.0336 245.633C96.863 245.208 98.372 246.199 98.372 246.199" stroke="black" stroke-width="1.4154" stroke-miterlimit="10" stroke-linecap="round"/>
<path d="M97.6646 240.866C99.7395 238.93 101.579 238.836 101.579 238.836" stroke="black" stroke-width="1.4154" stroke-miterlimit="10" stroke-linecap="round"/>
<path d="M54.0918 160.337C52.2526 158.165 52.2998 156.324 52.2998 156.324" stroke="black" stroke-width="1.4154" stroke-miterlimit="10" stroke-linecap="round"/>
<path d="M317.746 90.1454C318.189 90.1454 318.547 89.7861 318.547 89.343C318.547 88.8998 318.189 88.5405 317.746 88.5405C317.303 88.5405 316.944 88.8998 316.944 89.343C316.944 89.7861 317.303 90.1454 317.746 90.1454Z" fill="white"/>
<path d="M286.3 125.5L285.25 127.6L262 135.5L256 134L286.3 125.5Z" fill="white"/>
</svg>
