<svg width="400" height="300" viewBox="0 0 400 300" fill="none" xmlns="http://www.w3.org/2000/svg">
<path d="M200.427 138.439L195.889 130.492L212.907 123.114V129.357L215.176 136.169L219.146 144.115L222.55 149.224L212.907 152.062L204.965 145.25L200.427 138.439Z" fill="white"/>
<path d="M163.556 145.25H159.585L114.772 140.709L108.532 145.25L101.158 150.359L92.0819 157.17L84.7076 163.982L77.3334 172.496L70.5263 183.28L67.1228 192.362L65.4211 202.012V212.229L68.8246 220.175L71.6608 226.987L77.3334 233.798L83.0059 238.906L89.2456 242.312L95.4854 244.583L103.427 247.421H110.801L121.579 246.285L128.386 244.583L135.193 242.312L146.538 236.068L153.345 230.392L160.152 224.716L164.69 221.878L166.959 223.013V228.122L163.556 233.798L159.585 238.906L153.345 244.583L147.673 248.556L140.866 252.529L129.521 257.07L121.579 259.34L110.801 261.611L101.158 262.179L93.2164 261.611L83.0059 259.34L74.4971 254.8L67.6901 250.259L61.4503 244.583L56.9123 239.474L52.9415 233.23L48.9708 225.851L46.1345 217.337L45 209.958V203.714L46.1345 195.2L48.4035 186.686L52.9415 175.901L60.3158 165.117L67.1228 157.17L77.3334 147.521L86.9766 140.709L96.6199 133.898L236.164 70.8931L254.883 67.4874L273.602 70.8931L271.901 106.653L199.293 132.763L163.556 145.25Z" fill="white"/>
<path d="M309.339 116.302H307.07L257.152 76.0017L281.544 66.9199L284.948 67.4875H286.649L291.187 65.7846L296.293 64.6494L301.965 64.0818L306.503 64.6494L311.608 65.7846L315.012 67.4875L303.1 78.2721L318.415 104.382L318.983 107.788L316.714 111.194L314.445 114.032L312.176 115.735L309.339 116.302Z" fill="white"/>
<path d="M96.0086 134.57C141.468 74.8104 193.812 67.5883 254.833 67.5883Z" fill="white"/>
<path d="M96.0086 134.57L96.3814 135.171L96.4927 135.102L96.5719 134.998L96.0086 134.57ZM101.195 151.139C101.508 150.905 101.572 150.462 101.339 150.149C101.105 149.835 100.662 149.771 100.348 150.004L101.195 151.139ZM108.788 247.291L108.771 247.999L108.771 247.999L108.788 247.291ZM166.65 222.415L167.15 221.915L167.148 221.913L166.65 222.415ZM99.3568 262.066L99.354 261.358L99.3538 261.358L99.3568 262.066ZM96.5719 134.998C119.223 105.222 143.562 88.5638 169.82 79.337C196.098 70.1029 224.34 68.296 254.833 68.296V66.8806C224.305 66.8806 195.864 68.6848 169.351 78.0016C142.816 87.3257 118.254 104.158 95.4454 134.141L96.5719 134.998ZM100.348 150.004C68.2003 173.985 60.6119 198.217 66.063 216.709C71.4951 235.136 89.8048 247.544 108.771 247.999L108.805 246.584C90.3761 246.142 72.6579 234.075 67.4207 216.309C62.2026 198.607 69.3036 174.928 101.195 151.139L100.348 150.004ZM108.771 247.999C128.958 248.476 142.166 240.761 151.018 233.652C153.227 231.878 155.164 230.143 156.864 228.589C158.573 227.027 160.023 225.666 161.292 224.608C162.572 223.54 163.584 222.855 164.402 222.581C164.798 222.448 165.113 222.424 165.373 222.474C165.627 222.523 165.883 222.651 166.151 222.917L167.148 221.913C166.709 221.477 166.206 221.193 165.639 221.084C165.079 220.977 164.511 221.051 163.952 221.239C162.861 221.605 161.674 222.447 160.385 223.521C159.084 224.606 157.594 226.004 155.909 227.544C154.216 229.092 152.306 230.803 150.132 232.549C141.453 239.519 128.56 247.051 108.805 246.584L108.771 247.999ZM166.149 222.915C166.629 223.396 166.885 224.269 166.686 225.636C166.49 226.987 165.864 228.687 164.775 230.627C162.602 234.5 158.66 239.195 153.002 243.742C141.697 252.828 123.613 261.264 99.354 261.358L99.3595 262.774C123.955 262.678 142.347 254.122 153.889 244.845C159.655 240.211 163.73 235.383 166.01 231.32C167.148 229.292 167.858 227.421 168.087 225.839C168.314 224.272 168.085 222.851 167.15 221.915L166.149 222.915ZM99.3538 261.358C77.367 261.451 54.0558 243.903 47.5078 219.342C40.989 194.889 51.0648 163.249 96.3814 135.171L95.6359 133.968C49.9868 162.252 39.4079 194.453 46.1402 219.706C52.8432 244.85 76.6889 262.869 99.3598 262.774L99.3538 261.358Z" fill="black"/>
<path d="M212.628 151.988L212.194 152.547L212.48 152.769L212.827 152.667L212.628 151.988ZM224.777 69.3134C225.157 69.2185 225.387 68.8342 225.292 68.455C225.197 68.0759 224.813 67.8454 224.434 67.9403L224.777 69.3134ZM217.993 107.941C218.198 107.609 218.095 107.173 217.762 106.967C217.43 106.762 216.994 106.865 216.788 107.198L217.993 107.941ZM222.908 148.967L223.108 149.646L224.22 149.319L223.421 148.479L222.908 148.967ZM213.062 151.429C195.683 137.945 191.256 119.268 194.851 103.026C198.455 86.7425 210.096 72.9874 224.777 69.3134L224.434 67.9403C209.123 71.7716 197.162 86.0316 193.469 102.72C189.766 119.449 194.346 138.7 212.194 152.547L213.062 151.429ZM216.788 107.198C211.413 115.909 211.125 124.715 213.026 132.212C214.923 139.691 218.998 145.886 222.395 149.455L223.421 148.479C220.169 145.062 216.227 139.078 214.398 131.865C212.574 124.67 212.853 116.271 217.993 107.941L216.788 107.198ZM212.827 152.667L223.108 149.646L222.708 148.288L212.428 151.309L212.827 152.667Z" fill="black"/>
<path d="M321.843 131.691L343.724 134.428C343.724 134.428 343.771 138.677 338.159 138.205" fill="white"/>
<path d="M321.843 131.691L343.724 134.428C343.724 134.428 343.771 138.677 338.159 138.205L325.222 140.71L321.843 131.691Z" fill="white"/>
<path d="M321.843 131.691L343.724 134.428C343.724 134.428 343.771 138.677 338.159 138.205" stroke="black" stroke-width="1.4154" stroke-miterlimit="10" stroke-linecap="round"/>
<path d="M321.843 131.691L343.724 134.428C343.724 134.428 343.771 138.677 338.159 138.205L325.222 140.71L321.843 131.691Z" stroke="black" stroke-width="1.4154" stroke-miterlimit="10" stroke-linecap="round"/>
<path d="M316.043 132.446C292.842 130.133 277.421 123.619 277.516 112.951C277.516 112.668 277.327 112.432 277.044 112.337C274.026 111.487 271.055 108.702 270.159 107.853C269.97 107.711 269.735 107.617 269.546 107.711L238.705 118.426C255.21 113.234 267.471 123.194 269.452 134.57C269.593 135.467 270.489 136.08 271.432 136.175C271.432 136.175 290.35 138.782 303.1 141.158C303.474 141.228 331.071 146.974 331.434 147.043" fill="white"/>
<path d="M316.043 132.446C292.842 130.133 277.421 123.619 277.516 112.951C277.516 112.668 277.327 112.432 277.044 112.337C274.026 111.487 271.055 108.702 270.159 107.853C269.97 107.711 269.735 107.617 269.546 107.711L238.705 118.426C255.21 113.234 267.471 123.194 269.452 134.57C269.593 135.467 270.489 136.08 271.432 136.175C271.432 136.175 290.35 138.782 303.1 141.158C303.474 141.228 331.071 146.974 331.434 147.043" stroke="black" stroke-width="1.4154" stroke-miterlimit="10" stroke-linecap="round"/>
<path d="M309.347 140.848C309.299 135.656 313.874 132.115 319.721 131.69C324.201 131.313 327.879 133.39 329.624 136.6" fill="white"/>
<path d="M309.347 140.848C309.299 135.656 313.874 132.115 319.721 131.69C324.201 131.313 327.879 133.39 329.624 136.6" stroke="black" stroke-width="1.4154" stroke-miterlimit="10" stroke-linecap="round"/>
<path d="M85.8227 204.242C83.8893 205.328 81.9087 206.461 80.0224 207.593Z" fill="white"/>
<path d="M157.124 173.89C139.44 179.932 121.992 187.013 104.733 194.612Z" fill="white"/>
<path d="M209.751 158.408C198.622 161.287 187.54 164.355 176.553 167.707Z" fill="white"/>
<path d="M317.269 140.281C288.315 142.17 259.549 146.89 231.255 153.357Z" fill="white"/>
<path d="M354.476 139.385C349.053 139.243 343.63 139.243 338.207 139.337Z" fill="white"/>
<path d="M339.338 150.761C343.818 150.713 348.345 150.713 352.825 150.855Z" fill="white"/>
<path d="M233.801 165.394C261.577 159.163 288.928 154.442 317.363 151.799Z" fill="white"/>
<path d="M180.702 178.847C191.501 175.778 202.395 172.946 213.335 170.208Z" fill="white"/>
<path d="M110.061 205.375C122.181 198.436 155.945 186.541 159.812 185.313Z" fill="white"/>
<path d="M84.6438 218.214C86.5301 217.176 88.4163 216.137 90.3026 215.146Z" fill="white"/>
<path d="M79.9753 207.641C82.569 208.962 82.4747 211.606 82.4747 212.927C82.569 215.476 83.0877 217.27 84.5967 218.214" fill="white"/>
<path d="M354.617 139.385C352.542 141.414 353.391 143.869 353.768 145.191C354.428 147.645 354.428 149.486 353.297 150.855" fill="white"/>
<path d="M85.8227 204.242C83.8893 205.328 81.9087 206.461 80.0224 207.593L79.9753 207.641C82.569 208.962 82.4747 211.606 82.4747 212.927C82.569 215.476 83.0877 217.27 84.5967 218.214L84.6438 218.214C86.5301 217.176 88.4163 216.137 90.3026 215.146L110.061 205.375C122.181 198.436 155.945 186.541 159.812 185.313L180.702 178.847C191.501 175.778 202.395 172.946 213.335 170.208L233.801 165.394C261.577 159.163 288.928 154.442 317.363 151.799L339.338 150.761C343.818 150.713 348.345 150.713 352.825 150.855L353.297 150.855C354.428 149.486 354.428 147.645 353.768 145.191C353.391 143.869 352.542 141.414 354.617 139.385L354.476 139.385C349.053 139.243 343.63 139.243 338.207 139.337L317.269 140.281C288.315 142.17 259.549 146.89 231.255 153.357L209.751 158.408C198.622 161.287 187.54 164.355 176.553 167.707L157.124 173.89C139.44 179.932 121.992 187.013 104.733 194.612L85.8227 204.242Z" fill="white"/>
<path d="M85.8227 204.242L85.5016 203.611L85.4888 203.618L85.4762 203.625L85.8227 204.242ZM80.0224 207.593L79.6581 206.987L79.5833 207.032L79.5217 207.093L80.0224 207.593ZM157.124 173.89L156.909 173.216L156.902 173.218L156.895 173.221L157.124 173.89ZM104.733 194.612L104.448 193.965L104.429 193.973L104.412 193.982L104.733 194.612ZM209.751 158.408L209.589 157.719L209.581 157.72L209.574 157.722L209.751 158.408ZM176.553 167.707L176.346 167.03L176.338 167.032L176.553 167.707ZM317.269 140.281L317.237 139.575L317.23 139.575L317.223 139.575L317.269 140.281ZM231.255 153.357L231.097 152.667L231.093 152.668L231.255 153.357ZM354.476 139.385L354.457 140.092L354.466 140.092L354.476 140.092L354.476 139.385ZM338.207 139.337L338.194 138.63L338.184 138.63L338.175 138.63L338.207 139.337ZM339.338 150.761L339.331 150.053L339.318 150.053L339.305 150.054L339.338 150.761ZM352.825 150.855L352.803 151.562L352.814 151.563L352.825 151.563L352.825 150.855ZM233.801 165.394L233.646 164.703L233.639 164.705L233.801 165.394ZM317.363 151.799L317.33 151.092L317.314 151.093L317.298 151.094L317.363 151.799ZM180.702 178.847L180.509 178.166L180.501 178.168L180.493 178.171L180.702 178.847ZM213.335 170.208L213.173 169.519L213.163 169.522L213.335 170.208ZM110.061 205.375L110.375 206.009L110.394 206L110.413 205.989L110.061 205.375ZM159.812 185.313L159.603 184.637L159.598 184.639L159.812 185.313ZM84.6438 218.214L84.6443 218.922L84.826 218.922L84.9851 218.834L84.6438 218.214ZM90.3026 215.146L89.9889 214.511L89.9811 214.515L89.9734 214.519L90.3026 215.146ZM79.9753 207.641L79.4746 207.141L78.7869 207.829L79.654 208.271L79.9753 207.641ZM82.4747 212.927H81.767V212.94L81.7674 212.954L82.4747 212.927ZM84.5967 218.214L84.2214 218.814L84.3938 218.922L84.5972 218.922L84.5967 218.214ZM354.617 139.385L355.112 139.891L356.352 138.677L354.617 138.677L354.617 139.385ZM353.768 145.191L354.452 145.007L354.449 144.996L353.768 145.191ZM353.297 150.855L353.297 151.563L353.63 151.563L353.842 151.306L353.297 150.855ZM85.4762 203.625C83.54 204.712 81.5527 205.849 79.6581 206.987L80.3868 208.2C82.2647 207.072 84.2387 205.943 86.1692 204.859L85.4762 203.625ZM156.895 173.221C139.187 179.271 121.719 186.36 104.448 193.965L105.018 195.26C122.265 187.666 139.694 180.593 157.353 174.56L156.895 173.221ZM209.574 157.722C198.437 160.604 187.345 163.675 176.346 167.03L176.759 168.384C187.735 165.036 198.807 161.97 209.928 159.093L209.574 157.722ZM317.223 139.575C288.223 141.466 259.419 146.194 231.097 152.667L231.412 154.047C259.678 147.586 288.406 142.873 317.315 140.988L317.223 139.575ZM354.494 138.677C349.059 138.535 343.625 138.535 338.194 138.63L338.219 140.045C343.634 139.951 349.046 139.951 354.457 140.092L354.494 138.677ZM339.346 151.468C343.821 151.421 348.337 151.421 352.803 151.562L352.848 150.148C348.353 150.006 343.815 150.006 339.331 150.053L339.346 151.468ZM233.956 166.084C261.709 159.858 289.029 155.144 317.429 152.504L317.298 151.094C288.826 153.741 261.444 158.467 233.646 164.703L233.956 166.084ZM180.896 179.527C191.685 176.462 202.57 173.632 213.507 170.895L213.163 169.522C202.219 172.261 191.318 175.095 180.509 178.166L180.896 179.527ZM110.413 205.989C116.417 202.551 127.837 197.861 138.284 193.863C148.718 189.871 158.112 186.596 160.026 185.988L159.598 184.639C157.645 185.259 148.223 188.545 137.778 192.541C127.347 196.533 115.825 201.26 109.71 204.761L110.413 205.989ZM84.9851 218.834C86.8724 217.795 88.7527 216.76 90.6318 215.772L89.9734 214.519C88.08 215.514 86.1877 216.556 84.3025 217.594L84.9851 218.834ZM79.654 208.271C81.8137 209.372 81.767 211.534 81.767 212.927H83.1824C83.1824 211.678 83.3242 208.553 80.2967 207.01L79.654 208.271ZM81.7674 212.954C81.8628 215.531 82.3865 217.666 84.2214 218.814L84.9721 217.614C83.7889 216.874 83.2751 215.422 83.1819 212.901L81.7674 212.954ZM354.122 138.879C351.704 141.244 352.733 144.143 353.088 145.385L354.449 144.996C354.049 143.595 353.38 141.585 355.112 139.891L354.122 138.879ZM353.085 145.374C353.733 147.785 353.65 149.317 352.751 150.404L353.842 151.306C355.207 149.655 355.124 147.506 354.452 145.007L353.085 145.374ZM86.1439 204.873L105.054 195.243L104.412 193.982L85.5016 203.611L86.1439 204.873ZM109.748 204.74L89.9889 214.511L90.6163 215.78L110.375 206.009L109.748 204.74ZM157.339 174.565L176.767 168.381L176.338 167.032L156.909 173.216L157.339 174.565ZM180.493 178.171L159.603 184.637L160.021 185.989L180.912 179.523L180.493 178.171ZM233.639 164.705L213.173 169.52L213.497 170.897L233.963 166.083L233.639 164.705ZM209.913 159.097L231.416 154.046L231.093 152.668L209.589 157.719L209.913 159.097ZM317.301 140.988L338.238 140.044L338.175 138.63L317.237 139.575L317.301 140.988ZM339.305 150.054L317.33 151.092L317.397 152.506L339.372 151.468L339.305 150.054ZM354.476 140.092L354.617 140.092L354.617 138.677L354.476 138.677L354.476 140.092ZM352.825 151.563L353.297 151.563L353.297 150.147L352.825 150.147L352.825 151.563ZM84.6433 217.506L84.5962 217.506L84.5972 218.922L84.6443 218.922L84.6433 217.506ZM79.5217 207.093L79.4746 207.141L80.4761 208.141L80.5232 208.093L79.5217 207.093Z" fill="black"/>
<path d="M165.141 165.724C160.849 167.187 155.898 171.435 157.171 177.525L160.472 187.249L160.991 188.334C161.698 189.562 163.254 189.986 164.433 189.278C165.659 188.617 166.084 187.107 165.376 185.88C165.471 186.021 165.707 186.446 165.848 186.682C166.555 187.909 168.112 188.334 169.29 187.626C170.469 186.965 170.894 185.502 170.281 184.322C170.281 184.322 170.611 184.841 170.752 185.077C171.46 186.305 173.016 186.729 174.195 186.021C175.327 185.36 175.751 183.992 175.279 182.859C175.279 182.859 175.515 183.236 175.657 183.472C176.364 184.7 177.92 185.124 179.099 184.416C182.683 181.867 180.891 160.296 165.141 165.724Z" fill="white" stroke="black" stroke-width="1.4154" stroke-miterlimit="10" stroke-linecap="round" stroke-linejoin="bevel"/>
<path d="M212.863 127.537C227.718 122.344 242.761 116.869 257.662 111.724C261.859 110.26 265.679 108.986 269.876 107.617" stroke="black" stroke-width="1.4154" stroke-miterlimit="10" stroke-linecap="round"/>
<path d="M160.519 146.276C172.403 141.556 184.994 137.733 197.019 133.39" stroke="black" stroke-width="1.4154" stroke-miterlimit="10" stroke-linecap="round"/>
<path d="M266.292 82.363C260.539 104.69 274.167 115.075 285.344 112.904C285.815 112.809 286.287 112.998 286.57 113.376C294.634 123.949 304.112 120.975 308.403 116.633" fill="white"/>
<path d="M266.292 82.363C260.539 104.69 274.167 115.075 285.344 112.904C285.815 112.809 286.287 112.998 286.57 113.376C294.634 123.949 304.112 120.975 308.403 116.633" stroke="black" stroke-width="1.4154" stroke-miterlimit="10" stroke-linecap="round"/>
<path d="M293.643 86.6113C291.757 86.6113 291.333 84.3455 292.37 83.3071C292.04 83.1655 291.663 83.071 291.285 83.071C289.729 83.071 288.503 84.2983 288.503 85.856C288.503 87.4137 289.729 88.641 291.285 88.641C292.606 88.641 293.69 87.7442 293.973 86.5169C293.879 86.6113 293.785 86.6113 293.643 86.6113Z" fill="black" stroke="black" stroke-width="1.4154" stroke-miterlimit="10" stroke-linecap="round"/>
<path d="M281.099 66.7859C283.316 67.1164 313.308 74.008 318.636 106.767Z" fill="white"/>
<path d="M281.099 66.7859C283.316 67.1164 313.308 74.008 318.636 106.767" stroke="black" stroke-width="1.4154" stroke-miterlimit="10" stroke-linecap="round"/>
<path d="M277.751 75.0937L283.599 71.6479C283.504 71.3174 272.8 46.3941 260.02 58.1477C244.789 72.1199 267.895 82.9294 268.508 83.1183L272.045 79.2004C271.715 78.7284 269.404 74.7633 271.621 72.8279C274.497 70.3262 277.751 75.0937 277.751 75.0937Z" fill="white" stroke="black" stroke-width="1.4154" stroke-miterlimit="10" stroke-linecap="round"/>
<path d="M303.263 78.2091L314.958 67.258C304.348 61.1216 289.682 65.9835 285.674 68.0604" stroke="black" stroke-width="1.4154" stroke-miterlimit="10" stroke-linecap="round"/>
<path d="M316.42 104.454C315.43 104.171 314.487 104.407 313.732 104.973C313.402 104.124 312.695 103.368 311.704 103.132C310.101 102.66 308.403 103.604 307.932 105.257C307.46 106.861 308.403 108.561 310.054 109.033C311.044 109.316 313.826 110.071 314.77 110.355C316.373 110.827 318.071 109.883 318.542 108.23C318.967 106.625 318.023 104.926 316.42 104.454Z" stroke="black" stroke-width="1.4154" stroke-miterlimit="10" stroke-linecap="round"/>
<path d="M318.165 109.033C309.818 124.28 298.925 111.11 298.925 111.11" stroke="black" stroke-width="1.4154" stroke-miterlimit="10" stroke-linecap="round"/>
<path d="M304.867 115.594C310.856 114.933 312.695 109.788 312.695 109.788" stroke="black" stroke-width="1.4154" stroke-miterlimit="10" stroke-linecap="round"/>
<path d="M281.618 91.0958C284.542 95.6745 289.541 97.9874 295.718 95.8161L297.84 98.7899" stroke="black" stroke-width="1.4154" stroke-miterlimit="10" stroke-linecap="round"/>
<path d="M164.292 144.86C164.763 150.666 163.915 155.103 160.519 160.296Z" fill="white"/>
<path d="M96.1501 187.343C97.0933 182.717 98.1779 177.666 98.8852 174.74C99.121 173.843 99.8284 173.04 100.772 172.852C111.052 170.775 122.605 157.133 114.258 141.131L119.877 135.033H141.433L164.292 144.86C164.763 150.666 163.915 155.103 160.519 160.296L152.786 167.093C146.749 171.294 138.544 169.264 130.009 170.02C116.522 171.2 107.751 172.096 106.289 185.974L96.1501 187.343Z" fill="white"/>
<path d="M96.1501 187.343L95.4567 187.202L95.2577 188.178L96.2448 188.044L96.1501 187.343ZM98.8852 174.74L98.2007 174.56L98.1974 174.574L98.8852 174.74ZM100.772 172.852L100.91 173.546L100.912 173.545L100.772 172.852ZM114.258 141.131L113.738 140.651L113.401 141.017L113.631 141.458L114.258 141.131ZM152.786 167.093L153.19 167.674L153.223 167.651L153.253 167.624L152.786 167.093ZM130.009 170.02L130.07 170.725L130.071 170.724L130.009 170.02ZM106.289 185.974L106.384 186.676L106.934 186.601L106.993 186.048L106.289 185.974ZM164.292 144.86L164.997 144.803L164.963 144.378L164.571 144.21L164.292 144.86ZM160.519 160.296L160.987 160.827L161.059 160.764L161.112 160.683L160.519 160.296ZM119.877 135.033V134.326H119.567L119.357 134.554L119.877 135.033ZM141.433 135.033L141.712 134.383L141.579 134.326H141.433V135.033ZM96.8436 187.484C97.7864 182.86 98.8689 177.82 99.5731 174.906L98.1974 174.574C97.4869 177.513 96.4002 182.574 95.4567 187.202L96.8436 187.484ZM99.5697 174.92C99.7509 174.231 100.283 173.671 100.91 173.546L100.633 172.158C99.374 172.41 98.4912 173.455 98.2008 174.56L99.5697 174.92ZM100.912 173.545C106.272 172.462 111.898 168.392 115.12 162.555C118.36 156.685 119.173 149.022 114.886 140.804L113.631 141.458C117.691 149.242 116.9 156.401 113.881 161.871C110.842 167.375 105.551 171.164 100.631 172.158L100.912 173.545ZM152.381 166.512C149.536 168.492 146.148 169.03 142.314 169.141C140.395 169.197 138.406 169.145 136.326 169.127C134.257 169.108 132.116 169.123 129.946 169.315L130.071 170.724C132.17 170.539 134.255 170.524 136.313 170.542C138.361 170.56 140.401 170.612 142.355 170.556C146.267 170.443 149.999 169.895 153.19 167.674L152.381 166.512ZM129.947 169.315C123.252 169.9 117.526 170.422 113.314 172.607C111.179 173.714 109.422 175.25 108.109 177.427C106.802 179.595 105.958 182.361 105.585 185.9L106.993 186.048C107.351 182.648 108.151 180.098 109.321 178.158C110.486 176.227 112.039 174.863 113.965 173.863C117.875 171.836 123.279 171.319 130.07 170.725L129.947 169.315ZM163.587 144.917C164.047 150.588 163.225 154.864 159.927 159.908L161.112 160.683C164.604 155.342 165.48 150.744 164.997 144.803L163.587 144.917ZM153.253 167.624L160.987 160.827L160.052 159.764L152.318 166.561L153.253 167.624ZM96.2448 188.044L106.384 186.676L106.194 185.273L96.0555 186.642L96.2448 188.044ZM114.779 141.611L120.398 135.513L119.357 134.554L113.738 140.651L114.779 141.611ZM119.877 135.741H141.433V134.326H119.877V135.741ZM141.153 135.684L164.012 145.51L164.571 144.21L141.712 134.383L141.153 135.684Z" fill="black"/>
<path d="M91.906 198.011C91.01 193.291 93.3678 188.429 97.9421 186.305C103.271 183.85 109.59 185.974 112.042 191.308" fill="white"/>
<path d="M91.906 198.011C91.01 193.291 93.3678 188.429 97.9421 186.305C103.271 183.85 109.59 185.974 112.042 191.308" stroke="black" stroke-width="1.4154" stroke-miterlimit="10" stroke-linecap="round"/>
<path d="M147.315 107.947C163.82 115.453 169.102 140.281 153.823 154.678C153.446 155.056 153.493 155.67 153.917 155.953C156.558 157.841 163.254 162.184 166.933 164.874C161.321 166.29 158.256 170.114 158.256 170.114C153.729 167.376 145.052 161.523 145.052 161.523C144.58 161.287 144.344 160.768 144.486 160.248C149.72 142.689 131.188 131.124 116.711 139.337L100.771 150.572" fill="white"/>
<path d="M147.315 107.947C163.82 115.453 169.102 140.281 153.823 154.678C153.446 155.056 153.493 155.67 153.917 155.953C156.558 157.841 163.254 162.184 166.933 164.874C161.321 166.29 158.256 170.114 158.256 170.114C153.729 167.376 145.052 161.523 145.052 161.523C144.58 161.287 144.344 160.768 144.486 160.248C149.72 142.689 131.188 131.124 116.711 139.337L100.771 150.572" stroke="black" stroke-width="1.4154" stroke-miterlimit="10" stroke-linecap="round"/>
<path d="M218.947 149.25C223.474 148.259 230.123 149.203 231.773 155.386L233.801 165.441L233.895 166.621C233.895 168.037 232.764 169.17 231.396 169.17C230.029 169.217 228.897 168.084 228.85 166.715C228.85 166.904 228.85 167.376 228.85 167.659C228.85 169.075 227.718 170.208 226.35 170.208C225.03 170.208 223.898 169.217 223.804 167.895C223.804 167.895 223.804 168.509 223.804 168.792C223.804 170.208 222.672 171.341 221.305 171.341C219.984 171.341 219.714 170.793 218.805 169.831C218.805 171.247 217.721 172.002 216.306 172.049C212.203 172.852 202.678 152.79 218.947 149.25Z" fill="white" stroke="black" stroke-width="1.4154" stroke-miterlimit="10" stroke-linecap="round"/>
<path d="M218.579 169.658C216.221 166.873 215.976 162.325 216.494 160.862" stroke="black" stroke-width="1.4154" stroke-miterlimit="10" stroke-linecap="round"/>
<path d="M223.851 168.226C221.493 165.441 220.974 161.24 221.493 159.776" stroke="black" stroke-width="1.4154" stroke-miterlimit="10" stroke-linecap="round"/>
<path d="M228.897 167.046C226.539 164.261 226.02 160.059 226.539 158.596" stroke="black" stroke-width="1.4154" stroke-miterlimit="10" stroke-linecap="round"/>
<path d="M317.552 152.932L317.363 151.752C317.646 147.409 317.269 139.243 317.269 139.243L317.505 138.063C317.835 136.694 319.202 135.891 320.57 136.222C321.937 136.552 322.739 137.874 322.409 139.243C322.456 139.054 322.598 138.582 322.645 138.299C322.975 136.93 324.342 136.127 325.71 136.458C327.03 136.788 327.832 138.063 327.549 139.337C327.549 139.337 327.69 138.771 327.785 138.488C328.115 137.119 329.482 136.316 330.85 136.647C332.123 136.93 332.878 138.157 332.736 139.432C332.736 139.432 332.878 138.96 332.925 138.771C333.255 137.402 334.623 136.599 335.99 136.93C340.14 137.449 340.093 153.923 336.037 154.301C334.67 154.631 333.302 153.781 333.019 152.413C332.972 152.177 332.965 152.413 332.965 152.413C332.597 153.764 332.027 154.358 330.895 154.631C329.527 154.962 328.162 153.97 327.879 152.601C327.832 152.318 327.643 151.752 327.643 151.752C327.879 153.073 327.03 154.348 325.71 154.631C324.342 154.962 322.975 154.112 322.692 152.743C322.645 152.46 322.503 151.988 322.456 151.799C322.739 153.121 321.89 154.49 320.57 154.773C319.249 155.103 317.882 154.301 317.552 152.932Z" fill="white" stroke="black" stroke-width="1.4154" stroke-miterlimit="10" stroke-linecap="round"/>
<path d="M332.736 139.29C334.293 142.594 333.774 146.795 332.878 148.023" stroke="black" stroke-width="1.4154" stroke-miterlimit="10" stroke-linecap="round"/>
<path d="M327.596 139.101C329.152 142.406 328.634 146.607 327.738 147.834" stroke="black" stroke-width="1.4154" stroke-miterlimit="10" stroke-linecap="round"/>
<path d="M322.456 138.96C324.012 142.264 323.494 146.465 322.598 147.692" stroke="black" stroke-width="1.4154" stroke-miterlimit="10" stroke-linecap="round"/>
<path d="M89.9726 150.241C89.9726 150.241 86.1057 153.451 87.8505 160.862" stroke="black" stroke-width="1.4154" stroke-miterlimit="10" stroke-linecap="round"/>
<path d="M81.3429 150.949C84.3609 153.97 84.3609 159.446 81.5315 162.373" stroke="black" stroke-width="1.4154" stroke-miterlimit="10" stroke-linecap="round"/>
<path d="M78.8907 158.549C76.0141 156.661 71.5342 158.407 68.8934 162.467" stroke="black" stroke-width="1.4154" stroke-miterlimit="10" stroke-linecap="round"/>
<path d="M69.8838 169.547C69.6952 173.276 66.347 176.109 62.3859 175.92" stroke="black" stroke-width="1.4154" stroke-miterlimit="10" stroke-linecap="round"/>
<path d="M78.8436 161.523C76.3442 163.128 74.7409 166.668 75.4483 171.86" stroke="black" stroke-width="1.4154" stroke-miterlimit="10" stroke-linecap="round"/>
<path d="M61.9613 187.579C64.1305 190.222 64.272 195.698 62.1499 199.002" stroke="black" stroke-width="1.4154" stroke-miterlimit="10" stroke-linecap="round"/>
<path d="M58.8019 194.612C54.605 194.235 51.5869 196.076 49.8893 200.56" stroke="black" stroke-width="1.4154" stroke-miterlimit="10" stroke-linecap="round"/>
<path d="M52.9544 205.705C53.0015 205.705 49.6534 206.555 47.9086 210.709" stroke="black" stroke-width="1.4154" stroke-miterlimit="10" stroke-linecap="round"/>
<path d="M56.8685 198.153C56.8685 198.153 55.1708 203.817 58.3303 208.915" stroke="black" stroke-width="1.4154" stroke-miterlimit="10" stroke-linecap="round"/>
<path d="M55.1708 209.529C55.1708 209.529 49.8421 211.983 49.9364 218.875" stroke="black" stroke-width="1.4154" stroke-miterlimit="10" stroke-linecap="round"/>
<path d="M56.5855 211.275C56.5855 211.275 55.1708 218.167 62.1971 220.433" stroke="black" stroke-width="1.4154" stroke-miterlimit="10" stroke-linecap="round"/>
<path d="M70.3081 237.567C69.8365 239.219 70.0723 242.382 72.1 243.704" stroke="black" stroke-width="1.4154" stroke-miterlimit="10" stroke-linecap="round"/>
<path d="M79.8337 243.94C77.9474 245.97 78.7962 249.84 81.437 251.681" stroke="black" stroke-width="1.4154" stroke-miterlimit="10" stroke-linecap="round"/>
<path d="M74.8824 240.069C76.0142 240.966 80.9185 242.901 85.7285 240.4" stroke="black" stroke-width="1.4154" stroke-miterlimit="10" stroke-linecap="round"/>
<path d="M87.9921 250.407C87.9921 250.407 91.6232 256.26 97.3763 255.882" stroke="black" stroke-width="1.4154" stroke-miterlimit="10" stroke-linecap="round"/>
<path d="M87.8976 148.542C85.0682 148.873 83.5592 147.834 83.5592 147.834" stroke="black" stroke-width="1.4154" stroke-miterlimit="10" stroke-linecap="round"/>
<path d="M56.8213 191.308C54.039 191.922 52.4357 191.072 52.4357 191.072" stroke="black" stroke-width="1.4154" stroke-miterlimit="10" stroke-linecap="round"/>
<path d="M102.894 248.943C102.705 251.256 100.064 252.295 100.064 252.295" stroke="black" stroke-width="1.4154" stroke-miterlimit="10" stroke-linecap="round"/>
<path d="M91.1987 245.875C88.9823 247.338 86.8131 245.875 86.8131 245.875" stroke="black" stroke-width="1.4154" stroke-miterlimit="10" stroke-linecap="round"/>
<path d="M59.1791 182.245C62.0085 181.773 63.1874 180.404 63.1874 180.404" stroke="black" stroke-width="1.4154" stroke-miterlimit="10" stroke-linecap="round"/>
<path d="M76.3441 154.962C77.6645 152.46 77.2873 150.666 77.2873 150.666" stroke="black" stroke-width="1.4154" stroke-miterlimit="10" stroke-linecap="round"/>
<path d="M58.0945 171.341C57.0099 175.448 60.4995 177.714 60.4995 177.714" stroke="black" stroke-width="1.4154" stroke-miterlimit="10" stroke-linecap="round"/>
<path d="M108.27 261.452C108.27 257.204 104.308 255.882 104.308 255.882" stroke="black" stroke-width="1.4154" stroke-miterlimit="10" stroke-linecap="round"/>
<path d="M97.7062 145.379C93.745 146.843 93.8865 151.044 93.8865 151.044" stroke="black" stroke-width="1.4154" stroke-miterlimit="10" stroke-linecap="round"/>
<path d="M51.8698 186.682C55.8309 188.193 58.4717 184.936 58.4717 184.936" stroke="black" stroke-width="1.4154" stroke-miterlimit="10" stroke-linecap="round"/>
<path d="M69.2234 165.724C71.4869 163.977 73.326 164.072 73.326 164.072" stroke="black" stroke-width="1.4154" stroke-miterlimit="10" stroke-linecap="round"/>
<path d="M96.4802 245.969C96.999 247.999 94.7826 250.029 94.7826 250.029" stroke="black" stroke-width="1.4154" stroke-miterlimit="10" stroke-linecap="round"/>
<path d="M100.819 261.311C99.8282 258.62 100.488 256.921 100.488 256.921" stroke="black" stroke-width="1.4154" stroke-miterlimit="10" stroke-linecap="round"/>
<path d="M94.0753 143.255C92.8492 141.461 92.8964 140.14 92.8964 140.14" stroke="black" stroke-width="1.4154" stroke-miterlimit="10" stroke-linecap="round"/>
<path d="M118.361 259.234C115.673 258.242 114.777 256.637 114.777 256.637" stroke="black" stroke-width="1.4154" stroke-miterlimit="10" stroke-linecap="round"/>
<path d="M111.853 254.513C109.071 255.08 107.468 254.23 107.468 254.23" stroke="black" stroke-width="1.4154" stroke-miterlimit="10" stroke-linecap="round"/>
<path d="M97.1404 141.603C101.243 140.612 101.62 136.458 101.62 136.458" stroke="black" stroke-width="1.4154" stroke-miterlimit="10" stroke-linecap="round"/>
<path d="M68.9405 186.541C66.5355 185.03 65.9696 183.284 65.9696 183.284" stroke="black" stroke-width="1.4154" stroke-miterlimit="10" stroke-linecap="round"/>
<path d="M65.2151 205.139C62.8101 203.628 62.2443 201.882 62.2443 201.882" stroke="black" stroke-width="1.4154" stroke-miterlimit="10" stroke-linecap="round"/>
<path d="M61.4897 169.642C65.5924 168.651 65.9697 164.497 65.9697 164.497" stroke="black" stroke-width="1.4154" stroke-miterlimit="10" stroke-linecap="round"/>
<path d="M73.1375 177.95C69.3178 176.675 67.1486 177.714 67.1486 177.714" stroke="black" stroke-width="1.4154" stroke-miterlimit="10" stroke-linecap="round"/>
<path d="M72.4301 234.31C72.4772 232.564 71.4869 229.59 69.2234 228.788" stroke="black" stroke-width="1.4154" stroke-miterlimit="10" stroke-linecap="round"/>
<path d="M62.9988 230.109C64.3192 227.655 62.5744 224.114 59.5564 222.982" stroke="black" stroke-width="1.4154" stroke-miterlimit="10" stroke-linecap="round"/>
<path d="M68.752 232.658C67.4316 232.092 62.1972 231.384 58.1417 235.018" stroke="black" stroke-width="1.4154" stroke-miterlimit="10" stroke-linecap="round"/>
<path d="M141.279 251.823C141.279 251.823 136.328 247.055 130.858 248.802" stroke="black" stroke-width="1.4154" stroke-miterlimit="10" stroke-linecap="round"/>
<path d="M126.283 256.26C127.792 253.853 129.584 253.333 129.584 253.333" stroke="black" stroke-width="1.4154" stroke-miterlimit="10" stroke-linecap="round"/>
<path d="M51.4926 231.053C53.9447 229.637 55.7367 229.968 55.7367 229.968" stroke="black" stroke-width="1.4154" stroke-miterlimit="10" stroke-linecap="round"/>
<path d="M123.36 251.115C120.294 248.235 116.616 250.218 116.616 250.218" stroke="black" stroke-width="1.4154" stroke-miterlimit="10" stroke-linecap="round"/>
<path d="M134.489 255.033C133.593 252.342 134.3 250.643 134.3 250.643" stroke="black" stroke-width="1.4154" stroke-miterlimit="10" stroke-linecap="round"/>
<path d="M125.199 246.253C127.462 247.952 127.887 249.746 127.887 249.746" stroke="black" stroke-width="1.4154" stroke-miterlimit="10" stroke-linecap="round"/>
<path d="M109.684 250.737C112.514 251.02 113.787 252.342 113.787 252.342" stroke="black" stroke-width="1.4154" stroke-miterlimit="10" stroke-linecap="round"/>
<path d="M117.182 253.711C119.729 252.484 121.521 252.909 121.521 252.909" stroke="black" stroke-width="1.4154" stroke-miterlimit="10" stroke-linecap="round"/>
<path d="M138.025 242.146C138.025 242.099 138.78 245.45 142.835 247.338" stroke="black" stroke-width="1.4154" stroke-miterlimit="10" stroke-linecap="round"/>
<path d="M141.94 240.069C141.94 240.069 144.203 245.498 151.135 245.592" stroke="black" stroke-width="1.4154" stroke-miterlimit="10" stroke-linecap="round"/>
<path d="M164.245 231.856C162.783 230.912 159.718 230.204 157.879 231.761" stroke="black" stroke-width="1.4154" stroke-miterlimit="10" stroke-linecap="round"/>
<path d="M155.804 237.756C154.389 235.349 150.475 235.018 147.928 237.001" stroke="black" stroke-width="1.4154" stroke-miterlimit="10" stroke-linecap="round"/>
<path d="M154.672 240.636C152.597 242.571 150.758 242.665 150.758 242.665" stroke="black" stroke-width="1.4154" stroke-miterlimit="10" stroke-linecap="round"/>
<path d="M150.428 238.653C148.353 240.588 146.514 240.683 146.514 240.683" stroke="black" stroke-width="1.4154" stroke-miterlimit="10" stroke-linecap="round"/>
<path d="M67.29 241.013C65.2151 242.949 63.376 243.043 63.376 243.043" stroke="black" stroke-width="1.4154" stroke-miterlimit="10" stroke-linecap="round"/>
<path d="M61.0183 237.143C58.9434 239.078 57.1042 239.172 57.1042 239.172" stroke="black" stroke-width="1.4154" stroke-miterlimit="10" stroke-linecap="round"/>
<path d="M73.7506 251.634C70.9683 252.2 69.365 251.351 69.365 251.351" stroke="black" stroke-width="1.4154" stroke-miterlimit="10" stroke-linecap="round"/>
<path d="M70.6383 246.914C73.4677 247.197 74.741 248.519 74.741 248.519" stroke="black" stroke-width="1.4154" stroke-miterlimit="10" stroke-linecap="round"/>
<path d="M89.0294 255.835C87.7562 255.08 82.7104 253.805 78.2305 256.873" stroke="black" stroke-width="1.4154" stroke-miterlimit="10" stroke-linecap="round"/>
<path d="M91.2931 261.311C92.4249 259.47 94.0282 258.62 94.0282 258.62" stroke="black" stroke-width="1.4154" stroke-miterlimit="10" stroke-linecap="round"/>
<path d="M163.537 227.135C161.368 226.994 159.859 226.003 159.859 226.003" stroke="black" stroke-width="1.4154" stroke-miterlimit="10" stroke-linecap="round"/>
<path d="M55.5008 224.114C53.3315 223.973 51.8225 222.982 51.8225 222.982" stroke="black" stroke-width="1.4154" stroke-miterlimit="10" stroke-linecap="round"/>
<path d="M65.8755 212.975C62.6216 212.03 60.7354 212.975 60.7354 212.975" stroke="black" stroke-width="1.4154" stroke-miterlimit="10" stroke-linecap="round"/>
<path d="M291.285 94.2581C295.895 94.2581 299.632 90.5175 299.632 85.9031C299.632 81.2888 295.895 77.5482 291.285 77.5482C286.676 77.5482 282.939 81.2888 282.939 85.9031C282.939 90.5175 286.676 94.2581 291.285 94.2581Z" stroke="black" stroke-width="1.4154" stroke-miterlimit="10" stroke-linecap="round"/>
<path d="M115.437 202.59L110.061 205.328C107.939 201.504 104.827 194.707 104.827 194.707L104.12 193.763C103.224 192.677 101.62 192.535 100.536 193.432C99.4511 194.329 99.3097 195.887 100.158 196.925C100.064 196.784 99.7341 196.406 99.5454 196.217C98.6495 195.132 97.0461 194.99 95.9615 195.887C94.9241 196.737 94.7354 198.247 95.5371 199.286C95.5371 199.286 95.1598 198.861 94.9712 198.625C94.0752 197.539 92.4719 197.397 91.3873 198.294C90.397 199.097 90.2084 200.56 90.8686 201.598C90.8686 201.598 90.5385 201.268 90.397 201.079C89.501 199.994 87.8977 199.852 86.8131 200.749C83.2763 203.015 89.1709 216.656 94.311 216.42C95.9144 216.232 96.5274 214.768 96.2445 213.399C96.1973 213.163 96.103 212.691 96.103 212.691C96.5274 213.871 97.7535 214.627 99.0267 214.343C100.394 214.06 101.243 212.691 100.96 211.322C100.913 211.039 100.772 210.473 100.772 210.473C101.149 211.747 102.422 212.502 103.742 212.219C105.864 211.747 106.336 210.095 105.44 208.301C109.26 210.756 115.626 208.16 115.437 202.59Z" fill="white" stroke="black" stroke-width="1.4154" stroke-miterlimit="10" stroke-linecap="round" stroke-linejoin="bevel"/>
<path d="M90.9159 201.504C90.9631 205.139 93.2266 208.679 94.547 209.481Z" fill="white"/>
<path d="M90.9159 201.504C90.9631 205.139 93.2266 208.679 94.547 209.481" stroke="black" stroke-width="1.4154" stroke-miterlimit="10" stroke-linecap="round"/>
<path d="M95.4427 199.097C95.4899 202.731 97.7534 206.272 99.0738 207.074Z" fill="white"/>
<path d="M95.4427 199.097C95.4899 202.731 97.7534 206.272 99.0738 207.074" stroke="black" stroke-width="1.4154" stroke-miterlimit="10" stroke-linecap="round"/>
<path d="M100.064 196.737C100.111 200.371 102.375 203.911 103.695 204.714Z" fill="white"/>
<path d="M100.064 196.737C100.111 200.371 102.375 203.911 103.695 204.714" stroke="black" stroke-width="1.4154" stroke-miterlimit="10" stroke-linecap="round"/>
<path d="M175.374 183C175.987 179.413 174.336 175.495 173.157 174.551" stroke="black" stroke-width="1.4154" stroke-miterlimit="10" stroke-linecap="round" stroke-linejoin="bevel"/>
<path d="M170.469 184.558C171.082 180.971 169.432 177.053 168.253 176.109" stroke="black" stroke-width="1.4154" stroke-miterlimit="10" stroke-linecap="round" stroke-linejoin="bevel"/>
<path d="M165.518 186.116C166.131 182.528 164.48 178.61 163.302 177.666" stroke="black" stroke-width="1.4154" stroke-miterlimit="10" stroke-linecap="round" stroke-linejoin="bevel"/>
</svg>
