<svg width="400" height="300" viewBox="0 0 400 300" fill="none" xmlns="http://www.w3.org/2000/svg">
<path d="M220.787 139.38C264.426 142.243 293.801 185.314 277.373 240.307L258.058 240.393C258.143 220.182 253.346 205.098 240.993 191.125C239.593 211.55 230.423 241.162 218.919 250.52H195.147L220.787 139.38Z" fill="white" stroke="black" stroke-width="1.4154" stroke-linecap="round" stroke-linejoin="round"/>
<path d="M227.919 79.9432C228.131 79.9432 228.344 79.9005 228.513 79.8578C231.145 79.3023 232.843 76.7385 232.291 74.0893C231.74 71.44 229.193 69.7309 226.561 70.2863C225.414 70.5427 224.438 71.1409 223.716 72.0382C223.122 71.8673 222.528 71.7819 221.891 71.7819C221.721 71.7819 221.552 71.7819 221.339 71.8246C221.127 66.3552 224.183 61.5695 228.81 60.6295C234.074 59.5612 239.381 63.8342 240.654 70.2009C241.928 76.5676 238.701 82.5925 233.48 83.6607C231.103 84.1307 228.726 83.5325 226.688 82.1224C227.24 81.4815 227.664 80.7551 227.919 79.9432Z" fill="white" stroke="black" stroke-width="1.4154" stroke-linecap="round" stroke-linejoin="round"/>
<path d="M221.382 165.616C245.647 165.616 265.318 145.816 265.318 121.391C265.318 96.966 245.647 77.1658 221.382 77.1658C197.117 77.1658 177.446 96.966 177.446 121.391C177.446 145.816 197.117 165.616 221.382 165.616Z" fill="white" stroke="black" stroke-width="1.4154" stroke-linecap="round"/>
<path d="M228.046 70.7563C228.046 56.3138 217.052 37 194.511 37C179.823 37 168.107 45.6314 162.546 60.4585C141.321 60.4585 123.491 69.9872 116.317 97.2487C83.6308 150.789 107.827 231.548 146.033 256.203H194.129C217.901 232.616 229.023 197.108 223.292 165.701C217.264 165.701 209.114 165.231 203.086 161.941L205.717 131.09C220.83 124.895 224.438 106.606 220.915 91.9502C225.372 86.6517 228.768 80.7978 228.046 70.7563Z" fill="white" stroke="black" stroke-width="1.4154" stroke-linecap="round" stroke-linejoin="round"/>
<path d="M218.92 84.9426C218.325 87.3354 215.948 88.7882 213.571 88.19C211.194 87.5918 209.75 85.1989 210.345 82.8061" stroke="black" stroke-width="1.4154" stroke-linecap="round" stroke-linejoin="round"/>
<path d="M221.509 82.2079C223.759 83.1907 225.881 80.6269 224.523 78.5759C222.697 75.8839 219.641 74.0893 216.118 74.0893C212.594 74.0893 209.453 75.9266 207.628 78.6613C206.312 80.6696 208.392 83.1907 210.599 82.2506C211.618 81.2678 213.231 79.9432 216.075 79.9432C218.919 79.9432 220.405 81.3533 221.509 82.2079Z" fill="white" stroke="black" stroke-width="1.4154" stroke-linecap="round"/>
<path d="M223.122 108.786C223.08 117.673 215.99 124.852 207.161 124.852C198.331 124.852 191.199 117.673 191.199 108.786C191.199 97.676 203.043 97.2915 207.118 72.1237C211.321 97.2915 223.164 97.6333 223.122 108.786Z" fill="white" stroke="black" stroke-width="1.4154" stroke-linecap="round" stroke-linejoin="round"/>
<path d="M202.873 82.2079C205.123 83.1907 207.246 80.6269 205.887 78.5759C204.062 75.8839 201.006 74.0893 197.482 74.0893C193.959 74.0893 190.817 75.9266 188.992 78.6613C187.676 80.6696 189.756 83.1907 191.964 82.2506C192.982 81.2678 194.596 79.9432 197.44 79.9432C200.284 79.9432 201.77 81.3533 202.873 82.2079Z" fill="white" stroke="black" stroke-width="1.4154" stroke-linecap="round"/>
<path d="M214.547 83.7034C214.462 83.7034 214.42 83.6607 214.42 83.5752C214.42 83.5325 214.462 83.447 214.547 83.447C214.632 83.447 214.674 83.4898 214.674 83.5752C214.674 83.6607 214.632 83.7034 214.547 83.7034Z" fill="black"/>
<path d="M214.547 82.8488C214.123 82.8488 213.783 83.1906 213.783 83.5752C213.783 84.0025 214.123 84.3443 214.505 84.3443C214.929 84.3443 215.269 84.0025 215.269 83.6179C215.311 83.1906 215.014 82.8488 214.547 82.8488C214.59 82.8488 214.59 82.8488 214.547 82.8488Z" fill="black"/>
<path d="M216.879 83.7154C216.91 82.4178 215.89 81.3406 214.601 81.3094C213.312 81.2782 212.242 82.3048 212.211 83.6023C212.18 84.8999 213.2 85.977 214.489 86.0083C215.778 86.0395 216.848 85.0129 216.879 83.7154Z" stroke="black" stroke-width="1.41539" stroke-linecap="round"/>
<path d="M215.595 82.9794C215.601 82.7435 215.415 82.5477 215.181 82.542C214.947 82.5363 214.752 82.723 214.746 82.9589C214.741 83.1948 214.926 83.3906 215.16 83.3963C215.395 83.402 215.589 83.2154 215.595 82.9794Z" fill="white"/>
<path d="M199.265 83.7034C199.18 83.7034 199.138 83.6607 199.138 83.5752C199.138 83.5325 199.18 83.447 199.265 83.447C199.308 83.447 199.35 83.447 199.35 83.4898C199.35 83.4898 199.393 83.5325 199.393 83.5752C199.393 83.6607 199.35 83.7034 199.265 83.7034Z" fill="black"/>
<path d="M199.265 82.8488C198.841 82.8488 198.501 83.1906 198.501 83.5752C198.501 84.0025 198.841 84.3443 199.223 84.3443C199.647 84.3443 199.987 84.0025 199.987 83.6179C200.029 83.1906 199.69 82.8488 199.265 82.8488Z" fill="black"/>
<path d="M201.583 83.6507C201.614 82.3531 200.594 81.2759 199.305 81.2447C198.016 81.2135 196.946 82.24 196.915 83.5376C196.884 84.8351 197.904 85.9123 199.193 85.9436C200.482 85.9748 201.552 84.9482 201.583 83.6507Z" stroke="black" stroke-width="1.41539" stroke-linecap="round"/>
<path d="M200.317 82.984C200.323 82.7481 200.138 82.5522 199.903 82.5465C199.669 82.5409 199.474 82.7275 199.469 82.9634C199.463 83.1993 199.648 83.3952 199.883 83.4009C200.117 83.4065 200.312 83.2199 200.317 82.984Z" fill="white"/>
<path d="M172.734 81.9088C172.521 81.9088 172.309 81.866 172.139 81.8233C169.507 81.2678 167.809 78.704 168.361 76.0548C168.913 73.4056 171.46 71.6964 174.092 72.2519C175.238 72.5083 176.215 73.1065 176.936 74.0038C177.53 73.8329 178.125 73.7474 178.762 73.7474C178.931 73.7474 179.101 73.7474 179.313 73.7902C179.526 68.3208 176.469 63.5351 171.842 62.595C166.578 61.5268 161.272 65.7997 159.999 72.1664C158.725 78.5331 161.951 84.558 167.173 85.6262C169.55 86.0963 171.927 85.498 173.965 84.088C173.413 83.447 172.988 82.7206 172.734 81.9088Z" fill="white" stroke="black" stroke-width="1.4154" stroke-linecap="round" stroke-linejoin="round"/>
<path d="M195.996 156.685C210.896 181.169 211.788 211.892 189.671 241.632L166.791 241.589C171.29 226.206 176.894 203.987 165.347 180.315" stroke="black" stroke-width="1.4154" stroke-linecap="round"/>
<path d="M183.983 236.462C171.969 236.462 162.121 242.786 161.017 250.904C160.975 251.289 160.932 251.631 160.932 252.015C160.932 252.058 160.932 252.101 160.932 252.143C160.932 252.229 160.932 252.271 160.932 252.357C161.102 255.861 163.989 258.638 167.512 258.638C169.422 258.638 171.163 257.826 172.351 256.502H194.977L195.232 256.416C196.421 257.997 198.331 258.98 200.453 258.98C204.104 258.98 207.033 256.032 207.033 252.357C207.033 243.597 196.718 236.462 183.983 236.462Z" fill="white" stroke="black" stroke-width="1.4154" stroke-linecap="round"/>
<path d="M200.793 242.401C204.911 242.401 214.632 244.837 215.948 245.948C217.051 246.759 217.603 247.87 217.094 249.152C216.584 250.434 215.184 251.161 213.57 250.605L213.486 250.562C212.679 250.22 209.453 248.298 206.396 248.511" fill="white"/>
<path d="M200.793 242.401C204.911 242.401 214.632 244.837 215.948 245.948C217.051 246.759 217.603 247.87 217.094 249.152C216.584 250.434 215.184 251.161 213.57 250.605L213.486 250.562C212.679 250.22 209.453 248.298 206.396 248.511" stroke="black" stroke-width="1.4154" stroke-linecap="round"/>
<path d="M206.821 251.844C209.92 252.101 215.693 254.963 216.415 255.433L216.5 255.476C217.985 256.203 219.471 255.733 220.193 254.536C220.914 253.34 220.532 252.186 219.513 251.203C218.664 250.52 207.16 246.247 204.189 245.99" fill="white"/>
<path d="M206.821 251.844C209.92 252.101 215.693 254.963 216.415 255.433L216.5 255.476C217.985 256.203 219.471 255.733 220.193 254.536C220.914 253.34 220.532 252.186 219.513 251.203C218.664 250.52 207.16 246.247 204.189 245.99" stroke="black" stroke-width="1.4154" stroke-linecap="round"/>
<path d="M204.996 254.152C208.094 254.408 216.627 259.45 217.391 259.92L217.476 259.963C218.962 260.689 220.447 260.219 221.169 259.023C221.891 257.826 221.509 256.673 220.49 255.69C219.641 255.006 208.561 249.964 204.529 249.836" fill="white"/>
<path d="M204.996 254.152C208.094 254.408 216.627 259.45 217.391 259.92L217.476 259.963C218.962 260.689 220.447 260.219 221.169 259.023C221.891 257.826 221.509 256.673 220.49 255.69C219.641 255.006 208.561 249.964 204.529 249.836" stroke="black" stroke-width="1.4154" stroke-linecap="round"/>
<path d="M202.279 258.51C205.378 258.766 210.896 262.142 211.618 262.612L211.703 262.655C213.189 263.381 214.674 262.911 215.396 261.715C216.118 260.518 215.736 259.365 214.717 258.382C213.995 257.784 209.283 255.177 206.142 254.365C205.717 254.28 205.335 254.194 204.953 254.152" fill="white"/>
<path d="M202.279 258.51C205.378 258.766 210.896 262.142 211.618 262.612L211.703 262.655C213.189 263.381 214.674 262.911 215.396 261.715C216.118 260.518 215.736 259.365 214.717 258.382C213.995 257.784 209.283 255.177 206.142 254.365C205.717 254.28 205.335 254.194 204.953 254.152" stroke="black" stroke-width="1.4154" stroke-linecap="round"/>
<path d="M276.185 235.18C264.044 235.137 254.068 241.546 252.965 249.708C252.88 250.092 252.88 250.477 252.837 250.861C252.837 250.904 252.837 250.947 252.837 250.99C252.837 251.075 252.837 251.118 252.837 251.203C253.007 254.75 255.894 257.57 259.459 257.57C261.412 257.57 263.153 256.758 264.341 255.434L287.179 255.476L287.434 255.391C288.665 256.972 290.533 257.997 292.698 257.997C296.391 257.997 299.363 255.006 299.363 251.331C299.447 242.444 289.047 235.222 276.185 235.18Z" fill="white" stroke="black" stroke-width="1.4154" stroke-linecap="round"/>
<path d="M293.122 241.205C297.282 241.205 307.088 243.683 308.447 244.837C309.551 245.691 310.145 246.759 309.593 248.084C309.041 249.409 307.683 250.092 306.07 249.58L305.985 249.537C305.178 249.195 301.91 247.229 298.811 247.443" fill="white"/>
<path d="M293.122 241.205C297.282 241.205 307.088 243.683 308.447 244.837C309.551 245.691 310.145 246.759 309.593 248.084C309.041 249.409 307.683 250.092 306.07 249.58L305.985 249.537C305.178 249.195 301.91 247.229 298.811 247.443" stroke="black" stroke-width="1.4154" stroke-linecap="round"/>
<path d="M299.193 250.776C302.292 251.032 308.15 253.938 308.872 254.408L308.957 254.451C310.485 255.22 311.97 254.707 312.692 253.511C313.414 252.314 313.032 251.118 312.055 250.135C311.206 249.451 299.617 245.093 296.604 244.837" fill="white"/>
<path d="M299.193 250.776C302.292 251.032 308.15 253.938 308.872 254.408L308.957 254.451C310.485 255.22 311.97 254.707 312.692 253.511C313.414 252.314 313.032 251.118 312.055 250.135C311.206 249.451 299.617 245.093 296.604 244.837" stroke="black" stroke-width="1.4154" stroke-linecap="round"/>
<path d="M297.325 253.083C300.424 253.34 309.084 258.467 309.805 258.937L309.89 258.98C311.419 259.749 312.904 259.236 313.626 258.04C314.348 256.844 313.966 255.647 312.989 254.664C312.14 253.981 300.976 248.853 296.858 248.725" fill="white"/>
<path d="M297.325 253.083C300.424 253.34 309.084 258.467 309.805 258.937L309.89 258.98C311.419 259.749 312.904 259.236 313.626 258.04C314.348 256.844 313.966 255.647 312.989 254.664C312.14 253.981 300.976 248.853 296.858 248.725" stroke="black" stroke-width="1.4154" stroke-linecap="round"/>
<path d="M294.608 257.485C297.707 257.741 303.31 261.202 304.032 261.672L304.117 261.715C305.645 262.484 307.131 261.971 307.853 260.775C308.574 259.578 308.192 258.382 307.216 257.399C306.494 256.801 301.74 254.109 298.556 253.34C298.132 253.212 297.749 253.169 297.367 253.126" fill="white"/>
<path d="M294.608 257.485C297.707 257.741 303.31 261.202 304.032 261.672L304.117 261.715C305.645 262.484 307.131 261.971 307.853 260.775C308.574 259.578 308.192 258.382 307.216 257.399C306.494 256.801 301.74 254.109 298.556 253.34C298.132 253.212 297.749 253.169 297.367 253.126" stroke="black" stroke-width="1.4154" stroke-linecap="round"/>
<path d="M127.1 162.454C121.029 169.633 118.525 180.999 123.194 186.895C124.255 188.263 126.378 188.434 127.736 187.28C128.84 186.34 129.18 184.802 128.628 183.52C128.628 183.52 127.651 176.897 130.835 171.043C131.26 170.273 131.769 169.504 132.321 168.778" fill="white"/>
<path d="M127.1 162.454C121.029 169.633 118.525 180.999 123.194 186.895C124.255 188.263 126.378 188.434 127.736 187.28C128.84 186.34 129.18 184.802 128.628 183.52C128.628 183.52 127.651 176.897 130.835 171.043C131.26 170.273 131.769 169.504 132.321 168.778" stroke="black" stroke-width="1.4154" stroke-linecap="round"/>
<path d="M139.198 173.094C130.326 171.342 125.189 161.856 127.015 153.609C128.798 145.448 134.91 138.867 146.33 141.132C146.966 141.303 145.735 141.004 146.33 141.132C150.617 142.115 153.291 146.345 152.315 150.661C151.636 153.78 149.216 156.002 146.33 156.686L144.462 163.65C145.735 164.975 146.33 166.898 145.905 168.821C145.268 171.855 142.254 173.692 139.198 173.094Z" fill="white" stroke="black" stroke-width="1.4154" stroke-linecap="round"/>
<path d="M131.175 166.342C125.529 173.863 123.661 185.357 128.67 190.955C129.816 192.236 131.939 192.322 133.255 191.083C134.316 190.057 134.571 188.519 133.934 187.28C133.934 187.28 132.236 178.862 136.778 172.324" fill="white"/>
<path d="M131.175 166.342C125.529 173.863 123.661 185.357 128.67 190.955C129.816 192.236 131.939 192.322 133.255 191.083C134.316 190.057 134.571 188.519 133.934 187.28C133.934 187.28 132.236 178.862 136.778 172.324" stroke="black" stroke-width="1.4154" stroke-linecap="round"/>
<path d="M142.17 172.837C137.245 179.076 138.476 187.622 138.476 187.622C139.028 188.904 138.689 190.442 137.585 191.382C136.227 192.536 134.104 192.365 133.043 190.997C128.373 185.101 130.878 173.735 136.948 166.556" fill="white"/>
<path d="M142.17 172.837C137.245 179.076 138.476 187.622 138.476 187.622C139.028 188.904 138.689 190.442 137.585 191.382C136.227 192.536 134.104 192.365 133.043 190.997C128.373 185.101 130.878 173.735 136.948 166.556" stroke="black" stroke-width="1.4154" stroke-linecap="round"/>
<path d="M116.317 97.206C107.106 179.161 232.631 192.407 238.531 130.407L169.465 130.62L157.367 96.8641" fill="white"/>
<path d="M116.317 97.206C107.106 179.161 232.631 192.407 238.531 130.407L169.465 130.62L157.367 96.8641" stroke="black" stroke-width="1.4154" stroke-linecap="round" stroke-linejoin="round"/>
<path d="M221.127 110.837C221.127 118.357 215.056 114.597 207.628 114.597C200.156 114.597 194.128 118.314 194.128 110.837" stroke="black" stroke-width="1.4154" stroke-linecap="round"/>
<path d="M213.104 101.137C212.849 101.137 212.594 101.223 212.382 101.393C211.958 101.778 211.915 102.462 212.297 102.932C212.51 103.188 212.807 103.274 213.104 103.274C213.359 103.274 213.613 103.188 213.825 103.017C214.25 102.633 214.292 101.949 213.91 101.479C213.698 101.265 213.401 101.137 213.104 101.137Z" fill="black"/>
<path d="M206.439 101.137C206.184 101.137 205.93 101.223 205.717 101.393C205.293 101.778 205.25 102.462 205.632 102.932C205.845 103.188 206.142 103.274 206.439 103.274C206.694 103.274 206.948 103.188 207.161 103.017C207.585 102.633 207.628 101.949 207.246 101.479C207.033 101.265 206.736 101.137 206.439 101.137Z" fill="black"/>
<path d="M214.505 100.624C211.958 100.923 210.557 102.12 209.75 103.829C208.731 101.693 207.076 100.795 204.996 100.624" stroke="black" stroke-width="1.4154" stroke-linecap="round" stroke-linejoin="round"/>
<path d="M203.51 83.0197C204.062 85.4126 202.534 87.8055 200.157 88.3609C197.779 88.9164 195.402 87.3782 194.85 84.9853" stroke="black" stroke-width="1.4154" stroke-linecap="round" stroke-linejoin="round"/>
<path d="M247.022 128.099C243.626 126.903 240.781 127.672 238.531 130.407Z" fill="white"/>
<path d="M247.022 128.099C243.626 126.903 240.781 127.672 238.531 130.407" stroke="black" stroke-width="1.4154" stroke-linecap="round" stroke-linejoin="round"/>
<path d="M244.39 123.784C240.909 124.681 238.956 126.86 238.531 130.407" stroke="black" stroke-width="1.4154" stroke-linecap="round" stroke-linejoin="round"/>
<path d="M237.513 183.007C236.834 186.553 237.98 189.288 240.994 191.168Z" fill="white"/>
<path d="M237.513 183.007C236.834 186.553 237.98 189.288 240.994 191.168" stroke="black" stroke-width="1.4154" stroke-linecap="round" stroke-linejoin="round"/>
<path d="M240.951 182.323C238.956 185.314 238.956 188.305 241.036 191.168Z" fill="white"/>
<path d="M240.951 182.323C238.956 185.314 238.956 188.305 241.036 191.168" stroke="black" stroke-width="1.4154" stroke-linecap="round" stroke-linejoin="round"/>
<path d="M161.824 172.068C161.145 175.615 162.291 178.349 165.305 180.23Z" fill="white"/>
<path d="M161.824 172.068C161.145 175.615 162.291 178.349 165.305 180.23" stroke="black" stroke-width="1.4154" stroke-linecap="round" stroke-linejoin="round"/>
<path d="M165.262 171.342C163.267 174.333 163.267 177.324 165.347 180.187Z" fill="white"/>
<path d="M165.262 171.342C163.267 174.333 163.267 177.324 165.347 180.187" stroke="black" stroke-width="1.4154" stroke-linecap="round" stroke-linejoin="round"/>
<path d="M159.914 94.3004C161.909 97.2914 161.909 100.282 159.829 103.145Z" fill="white"/>
<path d="M159.914 94.3004C161.909 97.2914 161.909 100.282 159.829 103.145" stroke="black" stroke-width="1.4154" stroke-linecap="round" stroke-linejoin="round"/>
</svg>
