<?xml version="1.0" encoding="UTF-8"?>
<svg width="917px" height="648px" viewBox="0 0 917 648" version="1.1" xmlns="http://www.w3.org/2000/svg" xmlns:xlink="http://www.w3.org/1999/xlink">
    <!-- Generator: Sketch 51.3 (57544) - http://www.bohemiancoding.com/sketch -->
    <title>chimpanzee</title>
    <desc>Created with Sketch.</desc>
    <defs></defs>
    <g id="chimpanzee" stroke="none" stroke-width="1" fill="none" fill-rule="evenodd">
        <g transform="translate(223.951609, 59.000000)">
            <path d="M282.7,239.8 C385.5,246.5 454.7,347.3 416,476 L370.5,476.2 C370.7,428.9 359.4,393.6 330.3,360.9 C327,408.7 305.4,478 278.3,499.9 L222.3,499.9 L282.7,239.8 Z" id="Shape" stroke="#000000" stroke-width="3" fill="#FFFFFF" fill-rule="nonzero" stroke-linecap="round" stroke-linejoin="round"></path>
            <path d="M299.5,100.7 C300,100.7 300.5,100.6 300.9,100.5 C307.1,99.2 311.1,93.2 309.8,87 C308.5,80.8 302.5,76.8 296.3,78.1 C293.6,78.7 291.3,80.1 289.6,82.2 C288.2,81.8 286.8,81.6 285.3,81.6 C284.9,81.6 284.5,81.6 284,81.7 C283.5,68.9 290.7,57.7 301.6,55.5 C314,53 326.5,63 329.5,77.9 C332.5,92.8 324.9,106.9 312.6,109.4 C307,110.5 301.4,109.1 296.6,105.8 C297.9,104.3 298.9,102.6 299.5,100.7 Z" id="Shape" stroke="#000000" stroke-width="3" fill="#FFFFFF" fill-rule="nonzero" stroke-linecap="round" stroke-linejoin="round"></path>
            <circle id="Oval" stroke="#000000" stroke-width="3" fill="#FFFFFF" fill-rule="nonzero" stroke-linecap="round" cx="284.1" cy="197.7" r="103.5"></circle>
            <path d="M299.8,79.2 C299.8,45.4 273.9,0.2 220.8,0.2 C186.2,0.2 158.6,20.4 145.5,55.1 C95.5,55.1 53.5,77.4 36.6,141.2 C-40.4,266.5 16.6,455.5 106.6,513.2 L219.9,513.2 C275.9,458 302.1,374.9 288.6,301.4 C274.4,301.4 255.2,300.3 241,292.6 L247.2,220.4 C282.8,205.9 291.3,163.1 283,128.8 C293.5,116.4 301.5,102.7 299.8,79.2 Z" id="Shape" stroke="#000000" stroke-width="3" fill="#FFFFFF" fill-rule="nonzero" stroke-linecap="round" stroke-linejoin="round"></path>
            <path d="M278.3,112.4 C276.9,118 271.3,121.4 265.7,120 C260.1,118.6 256.7,113 258.1,107.4" id="Shape" stroke="#000000" stroke-width="3" stroke-linecap="round" stroke-linejoin="round"></path>
            <path d="M284.4,106 C289.7,108.3 294.7,102.3 291.5,97.5 C287.2,91.2 280,87 271.7,87 C263.4,87 256,91.3 251.7,97.7 C248.6,102.4 253.5,108.3 258.7,106.1 C261.1,103.8 264.9,100.7 271.6,100.7 C278.3,100.7 281.8,104 284.4,106 Z" id="Shape" stroke="#000000" stroke-width="3" fill="#FFFFFF" fill-rule="nonzero" stroke-linecap="round"></path>
            <path d="M288.2,168.2 C288.1,189 271.4,205.8 250.6,205.8 C229.8,205.8 213,189 213,168.2 C213,142.2 240.9,141.3 250.5,82.4 C260.4,141.3 288.3,142.1 288.2,168.2 Z" id="Shape" stroke="#000000" stroke-width="3" fill="#FFFFFF" fill-rule="nonzero" stroke-linecap="round" stroke-linejoin="round"></path>
            <path d="M240.5,106 C245.8,108.3 250.8,102.3 247.6,97.5 C243.3,91.2 236.1,87 227.8,87 C219.5,87 212.1,91.3 207.8,97.7 C204.7,102.4 209.6,108.3 214.8,106.1 C217.2,103.8 221,100.7 227.7,100.7 C234.4,100.7 237.9,104 240.5,106 Z" id="Shape" stroke="#000000" stroke-width="3" fill="#FFFFFF" fill-rule="nonzero" stroke-linecap="round"></path>
            <g id="Group" transform="translate(266.000000, 107.000000)" fill="#000000" fill-rule="nonzero">
                <path d="M2,2.5 C1.8,2.5 1.7,2.4 1.7,2.2 C1.7,2.1 1.8,1.9 2,1.9 C2.2,1.9 2.3,2 2.3,2.2 C2.3,2.4 2.2,2.5 2,2.5 Z" id="Shape"></path>
                <path d="M2,0.5 C1,0.5 0.2,1.3 0.2,2.2 C0.2,3.2 1,4 1.9,4 C1.9,4 1.9,4 1.9,4 C2.9,4 3.7,3.2 3.7,2.3 C3.8,1.3 3.1,0.5 2,0.5 C2.1,0.5 2.1,0.5 2,0.5 Z" id="Shape"></path>
            </g>
            <circle id="Oval" stroke="#000000" stroke-width="2.99996807" stroke-linecap="round" transform="translate(267.994766, 109.395757) rotate(-88.621623) translate(-267.994766, -109.395757) " cx="267.994766" cy="109.395757" r="5.49994147"></circle>
            <circle id="Oval" fill="#FFFFFF" fill-rule="nonzero" transform="translate(269.469098, 107.781525) rotate(-88.621623) translate(-269.469098, -107.781525) " cx="269.469098" cy="107.781525" r="1"></circle>
            <g id="Group" transform="translate(230.000000, 107.000000)" fill="#000000" fill-rule="nonzero">
                <path d="M2,2.5 C1.8,2.5 1.7,2.4 1.7,2.2 C1.7,2.1 1.8,1.9 2,1.9 C2.1,1.9 2.2,1.9 2.2,2 C2.2,2 2.3,2.1 2.3,2.2 C2.3,2.4 2.2,2.5 2,2.5 Z" id="Shape"></path>
                <path d="M2,0.5 C1,0.5 0.2,1.3 0.2,2.2 C0.2,3.2 1,4 1.9,4 C1.9,4 1.9,4 1.9,4 C2.9,4 3.7,3.2 3.7,2.3 C3.8,1.3 3,0.5 2,0.5 C2,0.5 2,0.5 2,0.5 Z" id="Shape"></path>
            </g>
            <circle id="Oval" stroke="#000000" stroke-width="2.99996807" stroke-linecap="round" transform="translate(231.962229, 109.244151) rotate(-88.621623) translate(-231.962229, -109.244151) " cx="231.962229" cy="109.244151" r="5.49994147"></circle>
            <circle id="Oval" fill="#FFFFFF" fill-rule="nonzero" transform="translate(233.480131, 107.792325) rotate(-88.621623) translate(-233.480131, -107.792325) " cx="233.480131" cy="107.792325" r="1"></circle>
            <path d="M169.5,105.3 C169,105.3 168.5,105.2 168.1,105.1 C161.9,103.8 157.9,97.8 159.2,91.6 C160.5,85.4 166.5,81.4 172.7,82.7 C175.4,83.3 177.7,84.7 179.4,86.8 C180.8,86.4 182.2,86.2 183.7,86.2 C184.1,86.2 184.5,86.2 185,86.3 C185.5,73.5 178.3,62.3 167.4,60.1 C155,57.6 142.5,67.6 139.5,82.5 C136.5,97.4 144.1,111.5 156.4,114 C162,115.1 167.6,113.7 172.4,110.4 C171.1,108.9 170.1,107.2 169.5,105.3 Z" id="Shape" stroke="#000000" stroke-width="3" fill="#FFFFFF" fill-rule="nonzero" stroke-linecap="round" stroke-linejoin="round"></path>
            <path d="M224.3,280.3 C259.4,337.6 261.5,409.5 209.4,479.1 L155.5,479 C166.1,443 179.3,391 152.1,335.6" id="Shape" stroke="#000000" stroke-width="3" stroke-linecap="round"></path>
            <g id="Group" transform="translate(141.000000, 467.000000)" fill="#FFFFFF" fill-rule="nonzero" stroke="#000000" stroke-linecap="round" stroke-width="3">
                <path d="M55,0 C26.7,0 3.5,14.8 0.9,33.8 C0.8,34.7 0.7,35.5 0.7,36.4 C0.7,36.5 0.7,36.6 0.7,36.7 C0.7,36.9 0.7,37 0.7,37.2 C1.1,45.4 7.9,51.9 16.2,51.9 C20.7,51.9 24.8,50 27.6,46.9 L80.9,46.9 L81.5,46.7 C84.3,50.4 88.8,52.7 93.8,52.7 C102.4,52.7 109.3,45.8 109.3,37.2 C109.3,16.7 85,0 55,0 Z" id="Shape"></path>
                <path d="M94.6,13.9 C104.3,13.9 127.2,19.6 130.3,22.2 C132.9,24.1 134.2,26.7 133,29.7 C131.8,32.7 128.5,34.4 124.7,33.1 C124.7,33.1 124.5,33 124.5,33 C122.6,32.2 115,27.7 107.8,28.2" id="Shape"></path>
                <path d="M108.8,36 C116.1,36.6 129.7,43.3 131.4,44.4 C131.4,44.4 131.6,44.5 131.6,44.5 C135.1,46.2 138.6,45.1 140.3,42.3 C142,39.5 141.1,36.8 138.7,34.5 C136.7,32.9 109.6,22.9 102.6,22.3" id="Shape"></path>
                <path d="M104.5,41.4 C111.8,42 131.9,53.8 133.7,54.9 C133.7,54.9 133.9,55 133.9,55 C137.4,56.7 140.9,55.6 142.6,52.8 C144.3,50 143.4,47.3 141,45 C139,43.4 112.9,31.6 103.4,31.3" id="Shape"></path>
                <path d="M98.1,51.6 C105.4,52.2 118.4,60.1 120.1,61.2 C120.1,61.2 120.3,61.3 120.3,61.3 C123.8,63 127.3,61.9 129,59.1 C130.7,56.3 129.8,53.6 127.4,51.3 C125.7,49.9 114.6,43.8 107.2,41.9 C106.2,41.7 105.3,41.5 104.4,41.4" id="Shape"></path>
            </g>
            <g id="Group" transform="translate(358.000000, 464.000000)" fill="#FFFFFF" fill-rule="nonzero" stroke="#000000" stroke-linecap="round" stroke-width="3">
                <path d="M55.2,1.67433341e-15 C26.6,-0.1 3.1,14.9 0.5,34 C0.3,34.9 0.3,35.8 0.2,36.7 C0.2,36.8 0.2,36.9 0.2,37 C0.2,37.2 0.2,37.3 0.2,37.5 C0.6,45.8 7.4,52.4 15.8,52.4 C20.4,52.4 24.5,50.5 27.3,47.4 L81.1,47.5 L81.7,47.3 C84.6,51 89,53.4 94.1,53.4 C102.8,53.4 109.8,46.4 109.8,37.8 C110,17 85.5,0.1 55.2,1.67433341e-15 Z" id="Shape"></path>
                <path d="M95.1,14.1 C104.9,14.1 128,19.9 131.2,22.6 C133.8,24.6 135.2,27.1 133.9,30.2 C132.6,33.3 129.4,34.9 125.6,33.7 C125.6,33.7 125.4,33.6 125.4,33.6 C123.5,32.8 115.8,28.2 108.5,28.7" id="Shape"></path>
                <path d="M109.4,36.5 C116.7,37.1 130.5,43.9 132.2,45 C132.2,45 132.4,45.1 132.4,45.1 C136,46.9 139.5,45.7 141.2,42.9 C142.9,40.1 142,37.3 139.7,35 C137.7,33.4 110.4,23.2 103.3,22.6" id="Shape"></path>
                <path d="M105,41.9 C112.3,42.5 132.7,54.5 134.4,55.6 C134.4,55.6 134.6,55.7 134.6,55.7 C138.2,57.5 141.7,56.3 143.4,53.5 C145.1,50.7 144.2,47.9 141.9,45.6 C139.9,44 113.6,32 103.9,31.7" id="Shape"></path>
                <path d="M98.6,52.2 C105.9,52.8 119.1,60.9 120.8,62 C120.8,62 121,62.1 121,62.1 C124.6,63.9 128.1,62.7 129.8,59.9 C131.5,57.1 130.6,54.3 128.3,52 C126.6,50.6 115.4,44.3 107.9,42.5 C106.9,42.2 106,42.1 105.1,42" id="Shape"></path>
            </g>
            <path d="M62,293.8 C47.7,310.6 41.8,337.2 52.8,351 C55.3,354.2 60.3,354.6 63.5,351.9 C66.1,349.7 66.9,346.1 65.6,343.1 C65.6,343.1 63.3,327.6 70.8,313.9 C71.8,312.1 73,310.3 74.3,308.6" id="Shape" stroke="#000000" stroke-width="3" fill="#FFFFFF" fill-rule="nonzero" stroke-linecap="round"></path>
            <path d="M90.5,318.7 C69.6,314.6 57.5,292.4 61.8,273.1 C66,254 80.4,238.6 107.3,243.9 C108.8,244.3 105.9,243.6 107.3,243.9 C117.4,246.2 123.7,256.1 121.4,266.2 C119.8,273.5 114.1,278.7 107.3,280.3 L102.9,296.6 C105.9,299.7 107.3,304.2 106.3,308.7 C104.8,315.8 97.7,320.1 90.5,318.7 Z" id="Shape" stroke="#000000" stroke-width="3" fill="#FFFFFF" fill-rule="nonzero" stroke-linecap="round"></path>
            <path d="M71.6,302.9 C58.3,320.5 53.9,347.4 65.7,360.5 C68.4,363.5 73.4,363.7 76.5,360.8 C79,358.4 79.6,354.8 78.1,351.9 C78.1,351.9 74.1,332.2 84.8,316.9" id="Shape" stroke="#000000" stroke-width="3" fill="#FFFFFF" fill-rule="nonzero" stroke-linecap="round"></path>
            <path d="M97.5,318.1 C85.9,332.7 88.8,352.7 88.8,352.7 C90.1,355.7 89.3,359.3 86.7,361.5 C83.5,364.2 78.5,363.8 76,360.6 C65,346.8 70.9,320.2 85.2,303.4" id="Shape" stroke="#000000" stroke-width="3" fill="#FFFFFF" fill-rule="nonzero" stroke-linecap="round"></path>
            <path d="M36.6,141.1 C14.9,332.9 310.6,363.9 324.5,218.8 L161.8,219.3 L133.3,140.3" id="Shape" stroke="#000000" stroke-width="3" fill="#FFFFFF" fill-rule="nonzero" stroke-linecap="round" stroke-linejoin="round"></path>
            <path d="M283.5,173 C283.5,190.6 269.2,181.8 251.7,181.8 C234.1,181.8 219.9,190.5 219.9,173" id="Shape" stroke="#000000" stroke-width="3" stroke-linecap="round"></path>
            <g id="Group" transform="translate(245.000000, 149.000000)">
                <path d="M19.6,1.3 C19,1.3 18.4,1.5 17.9,1.9 C16.9,2.8 16.8,4.4 17.7,5.5 C18.2,6.1 18.9,6.3 19.6,6.3 C20.2,6.3 20.8,6.1 21.3,5.7 C22.3,4.8 22.4,3.2 21.5,2.1 C21,1.6 20.3,1.3 19.6,1.3 Z" id="Shape" fill="#000000" fill-rule="nonzero"></path>
                <path d="M3.9,1.3 C3.3,1.3 2.7,1.5 2.2,1.9 C1.2,2.8 1.1,4.4 2,5.5 C2.5,6.1 3.2,6.3 3.9,6.3 C4.5,6.3 5.1,6.1 5.6,5.7 C6.6,4.8 6.7,3.2 5.8,2.1 C5.3,1.6 4.6,1.3 3.9,1.3 Z" id="Shape" fill="#000000" fill-rule="nonzero"></path>
                <path d="M22.9,0.1 C16.9,0.8 13.6,3.6 11.7,7.6 C9.3,2.6 5.4,0.5 0.5,0.1" id="Shape" stroke="#000000" stroke-width="3" stroke-linecap="round" stroke-linejoin="round"></path>
            </g>
            <path d="M242,107.9 C243.3,113.5 239.7,119.1 234.1,120.4 C228.5,121.7 222.9,118.1 221.6,112.5" id="Shape" stroke="#000000" stroke-width="3" stroke-linecap="round" stroke-linejoin="round"></path>
            <path d="M344.5,213.4 C336.5,210.6 329.8,212.4 324.5,218.8" id="Shape" stroke="#000000" stroke-width="3" fill="#FFFFFF" fill-rule="nonzero" stroke-linecap="round" stroke-linejoin="round"></path>
            <path d="M338.3,203.3 C330.1,205.4 325.5,210.5 324.5,218.8" id="Shape" stroke="#000000" stroke-width="3" stroke-linecap="round" stroke-linejoin="round"></path>
            <g id="Group" transform="translate(321.000000, 340.000000)" fill="#FFFFFF" fill-rule="nonzero" stroke="#000000" stroke-linecap="round" stroke-linejoin="round" stroke-width="3">
                <path d="M1.1,1.9 C-0.5,10.2 2.2,16.6 9.3,21" id="Shape"></path>
                <path d="M9.2,0.3 C4.5,7.3 4.5,14.3 9.4,21" id="Shape"></path>
            </g>
            <g id="Group" transform="translate(143.000000, 314.000000)" fill="#FFFFFF" fill-rule="nonzero" stroke="#000000" stroke-linecap="round" stroke-linejoin="round" stroke-width="3">
                <path d="M0.8,2.3 C-0.8,10.6 1.9,17 9,21.4" id="Shape"></path>
                <path d="M8.9,0.6 C4.2,7.6 4.2,14.6 9.1,21.3" id="Shape"></path>
            </g>
            <path d="M139.3,134.3 C144,141.3 144,148.3 139.1,155" id="Shape" stroke="#000000" stroke-width="3" fill="#FFFFFF" fill-rule="nonzero" stroke-linecap="round" stroke-linejoin="round"></path>
        </g>
    </g>
</svg>