<svg width="400" height="300" viewBox="0 0 400 300" fill="none" xmlns="http://www.w3.org/2000/svg">
<path d="M305.864 132.751C320.105 130.58 334.818 128.692 349.107 127.228C344.409 133.624 346.45 138.567 347.911 142.104C347.917 142.118 347.922 142.131 347.928 142.145C350.616 148.753 351.276 153.993 348.777 158.147C336.893 159.327 324.397 161.073 312.607 162.82" fill="white"/>
<path d="M305.864 132.751C228.102 140.209 161.941 158.76 90.9696 180.663Z" fill="white"/>
<path d="M90.9225 180.663C77.0112 184.392 62.7698 188.546 49 192.888C55.8378 196.853 55.4605 204.217 55.5077 208.04C55.602 215.168 57.0638 220.266 60.9779 223.098C72.3427 219.416 84.5092 216.018 96.0626 212.902" fill="white"/>
<path d="M305.864 132.751C320.105 130.58 334.818 128.692 349.107 127.228C344.409 133.624 346.45 138.567 347.911 142.104L347.928 142.145C350.616 148.753 351.276 153.993 348.777 158.147C336.893 159.327 324.397 161.073 312.607 162.82L312.56 162.82C238.429 174.337 167.6 191.472 95.9213 212.95L96.0626 212.902C84.5092 216.018 72.3427 219.416 60.9779 223.098C57.0638 220.266 55.602 215.168 55.5077 208.04C55.4605 204.217 55.8378 196.853 49 192.888C62.7698 188.546 77.0112 184.392 90.9225 180.663L90.9696 180.663C161.941 158.76 228.102 140.209 305.864 132.751Z" fill="white"/>
<path d="M305.864 132.751L305.931 133.456L305.951 133.454L305.971 133.451L305.864 132.751ZM349.107 127.228L349.677 127.647L350.621 126.362L349.035 126.524L349.107 127.228ZM347.928 142.145L348.583 141.878L348.582 141.875L347.928 142.145ZM348.777 158.147L348.847 158.851L349.2 158.816L349.383 158.511L348.777 158.147ZM312.607 162.82L312.608 163.527L312.66 163.527L312.711 163.52L312.607 162.82ZM90.9696 180.663L90.9702 181.37L91.0766 181.37L91.1783 181.339L90.9696 180.663ZM95.9213 212.95L95.6971 212.278L96.1244 213.628L95.9213 212.95ZM312.56 162.82L312.56 162.112L312.505 162.112L312.451 162.12L312.56 162.82ZM90.9225 180.663L90.9219 179.955L90.829 179.955L90.7393 179.979L90.9225 180.663ZM49 192.888L48.7871 192.213L47.2573 192.696L48.645 193.5L49 192.888ZM55.5077 208.04L54.8 208.049L54.8 208.05L55.5077 208.04ZM60.9779 223.098L60.563 223.672L60.8541 223.882L61.196 223.772L60.9779 223.098ZM96.0626 212.902L96.2868 213.574L95.8784 212.219L96.0626 212.902ZM347.911 142.104L347.257 142.374L347.257 142.374L347.911 142.104ZM305.971 133.451C320.201 131.281 334.902 129.394 349.179 127.932L349.035 126.524C334.734 127.989 320.01 129.879 305.757 132.052L305.971 133.451ZM347.272 142.411C349.944 148.979 350.486 153.933 348.17 157.782L349.383 158.511C352.066 154.053 351.288 148.527 348.583 141.878L347.272 142.411ZM348.707 157.442C336.806 158.624 324.295 160.373 312.504 162.12L312.711 163.52C324.498 161.774 336.981 160.029 348.847 158.851L348.707 157.442ZM305.796 132.047C227.959 139.512 161.741 158.081 90.7609 179.986L91.1783 181.339C162.14 159.439 228.245 140.907 305.931 133.456L305.796 132.047ZM96.1244 213.628C167.779 192.157 238.576 175.031 312.669 163.519L312.451 162.12C238.282 173.644 167.421 190.787 95.7181 212.272L96.1244 213.628ZM90.7393 179.979C76.818 183.711 62.5667 187.868 48.7871 192.213L49.2129 193.563C62.9729 189.224 77.2044 185.073 91.1057 181.346L90.7393 179.979ZM48.645 193.5C55.0799 197.232 54.7516 204.127 54.8 208.049L56.2153 208.032C56.1694 204.307 56.5956 196.475 49.355 192.276L48.645 193.5ZM54.8 208.05C54.8949 215.223 56.3604 220.631 60.563 223.672L61.3927 222.525C57.7672 219.902 56.309 215.113 56.2153 208.031L54.8 208.05ZM61.196 223.772C72.5434 220.095 84.6961 216.7 96.2469 213.586L95.8784 212.219C84.3222 215.335 72.1419 218.738 60.7597 222.425L61.196 223.772ZM90.969 179.955L90.9219 179.955L90.9231 181.37L90.9702 181.37L90.969 179.955ZM96.1454 213.621L96.2868 213.574L95.8385 212.231L95.6971 212.278L96.1454 213.621ZM312.607 162.112L312.56 162.112L312.561 163.527L312.608 163.527L312.607 162.112ZM348.536 126.809C346.098 130.129 345.379 133.12 345.492 135.768C345.604 138.386 346.53 140.614 347.257 142.374L348.565 141.834C347.831 140.056 347.006 138.044 346.907 135.708C346.808 133.401 347.418 130.723 349.677 127.647L348.536 126.809ZM347.257 142.375L347.274 142.415L348.582 141.874L348.565 141.834L347.257 142.375ZM347.257 142.374C347.268 142.401 347.263 142.39 347.274 142.415L348.582 141.875C348.581 141.873 348.566 141.835 348.565 141.834L347.257 142.374Z" fill="black"/>
<path d="M119.877 100.087L121.056 101.597C120.82 100.984 120.396 100.511 119.877 100.087Z" fill="white"/>
<path d="M103.325 135.631C104.457 133.459 105.683 131.335 107.05 129.305Z" fill="white"/>
<path d="M103.325 135.631C104.457 133.459 105.683 131.335 107.05 129.305" stroke="black" stroke-width="1.4154" stroke-miterlimit="10" stroke-linecap="round" stroke-linejoin="round"/>
<path d="M171.749 259.256C168.826 260.2 165.761 256.141 167.364 253.403C165.761 256.093 168.826 260.2 171.749 259.256C172.928 253.45 172.315 247.833 169.675 243.018C166.798 244.812 164.629 244.434 164.629 244.434C164.629 244.434 166.798 244.765 169.675 243.018C166.704 237.59 161.186 233.294 152.745 230.981C150.906 230.462 145.53 228.904 138.834 226.072C138.834 226.119 138.834 226.214 138.834 226.261C138.834 226.214 138.834 226.119 138.834 226.072C137.325 225.411 135.769 224.75 134.165 223.948C132.326 225.742 130.676 226.025 130.676 226.025C130.676 226.025 132.326 225.742 134.165 223.948C124.97 219.511 114.36 212.902 106.72 203.462C105.164 205.255 102.004 205.491 100.543 203.509C102.052 205.491 105.164 205.255 106.72 203.462C102.806 198.647 99.6937 193.171 97.9017 186.846C97.383 189.065 94.5064 190.953 92.2901 189.867C94.5536 190.953 97.383 189.065 97.9017 186.846C97.3359 184.816 96.8643 182.692 96.6285 180.474C96.0155 174.243 95.874 168.579 96.1569 163.339C94.5064 162.82 93.0917 161.64 92.7145 159.893C93.0917 161.64 94.5064 162.867 96.1569 163.339C96.2984 160.507 96.5813 157.863 97.0058 155.267C96.1098 155.126 94.978 155.267 93.7048 156.07C94.9309 155.267 96.0626 155.126 97.0058 155.267C97.2415 153.662 97.5716 152.057 97.9017 150.547C94.3178 149.886 92.0543 152.388 92.0543 152.388C92.0543 152.388 94.365 149.886 97.9017 150.547C99.1278 145.166 100.967 140.209 103.325 135.631L107.05 129.305C111.955 121.942 118.415 115.192 126.243 108.206L121.056 101.597C121.15 101.833 121.244 102.116 121.292 102.352C121.244 102.069 121.15 101.833 121.056 101.597L119.877 100.087C118.179 98.8121 115.444 98.8121 114.029 100.795C115.444 98.8121 118.179 98.8121 119.877 100.087L116.057 95.2246C115.538 95.2718 115.255 95.2718 115.255 95.2718C115.255 95.2718 115.538 95.2718 116.057 95.2246L110.493 88.0969C106.767 91.0707 103.278 94.0918 100.024 97.16C102.24 98.0096 105.211 96.7823 105.635 94.0446C105.258 96.7823 102.24 98.0096 100.024 97.16C96.3927 100.606 93.0446 104.099 89.9322 107.639C90.2152 108.583 91.0168 110.424 93.2332 111.132C91.064 110.424 90.2152 108.583 89.9322 107.639C88.7061 109.055 87.5272 110.471 86.3955 111.887C88.6118 112.501 90.3566 115.522 89.0834 117.741C90.3566 115.569 88.6118 112.501 86.3955 111.887C84.4149 114.389 82.5757 116.891 80.8309 119.393C82.8115 118.779 84.462 116.985 84.6035 115.003C84.462 116.938 82.8115 118.732 80.8309 119.393C77.6243 123.452 74.3704 129.4 72.437 133.695C64.7504 149.225 61.308 165.133 61.308 180.427C61.308 183.542 61.4495 186.61 61.6852 189.678C64.4203 190.056 65.9765 194.352 63.8545 196.428C65.9765 194.352 64.4203 190.009 61.6852 189.678C61.9682 193.313 62.4869 196.853 63.0999 200.394C66.0708 216.348 72.5313 231.028 82.0099 243.207C84.1791 243.962 86.9142 243.16 88.0931 241.272C86.9142 243.16 84.1791 243.915 82.0099 243.207C84.1791 246.039 86.5369 248.682 89.0362 251.231C89.8851 250.665 90.4981 249.815 90.6396 248.73C90.4981 249.815 89.8851 250.665 89.0362 251.231C95.5911 257.887 103.23 263.552 111.813 267.894C113.558 266.431 116.434 266.525 117.755 268.461C116.434 266.478 113.558 266.431 111.813 267.894C114.831 269.405 117.943 270.774 121.197 272.001C122.565 271.293 123.602 269.83 123.366 268.13C123.602 269.83 122.565 271.246 121.197 272.001C126.054 273.795 131.195 275.211 136.523 276.202C134.637 275.824 132.798 275.447 130.581 274.928C132.562 275.4 134.543 275.777 136.523 276.202C138.881 276.627 141.286 277.004 143.738 277.24C143.974 274.503 146.379 273.228 146.379 273.228C146.379 273.228 143.974 274.503 143.738 277.24C144.021 277.288 144.304 277.288 144.587 277.335C150.104 277.854 159.819 276.816 166.185 270.302C165.1 270.396 163.969 270.113 163.167 269.31C163.969 270.113 165.053 270.396 166.185 270.302C168.166 268.225 169.863 265.628 170.948 262.371C171.278 261.38 171.514 260.294 171.749 259.256ZM118.651 104.004C117.189 106.931 120.867 110.991 123.791 109.386C120.867 110.991 117.189 106.931 118.651 104.004ZM118.604 114.72C118.604 114.72 117.991 111.651 114.925 110.849C117.943 111.651 118.604 114.72 118.604 114.72ZM99.5994 193.974C99.5994 193.974 96.5342 194.635 95.7797 197.656C96.5342 194.588 99.5994 193.974 99.5994 193.974ZM92.3372 229.66C91.677 226.403 96.6757 224.137 99.0335 226.45C96.6285 224.137 91.677 226.355 92.3372 229.66ZM99.3164 235.843C96.2984 234.899 95.7797 231.831 95.7797 231.831C95.7797 231.831 96.2984 234.899 99.3164 235.843ZM92.9503 214.13C92.9503 214.13 93.469 217.198 96.487 218.142C93.4218 217.198 92.9503 214.13 92.9503 214.13ZM95.5439 203.462C92.2429 203.509 90.3095 208.607 93.0917 210.448C90.3095 208.607 92.2429 203.509 95.5439 203.462ZM92.4787 183.542C90.5453 181.607 91.4412 177.642 94.8837 176.509C91.4412 177.689 90.5453 181.654 92.4787 183.542ZM93.9877 170.183C90.8754 170.608 89.1306 168.059 89.1306 168.059C89.1306 168.059 90.8754 170.608 93.9877 170.183ZM86.5841 191.519C89.8379 190.717 92.7616 194.871 90.5924 197.325C92.7616 194.871 89.7908 190.717 86.5841 191.519ZM86.1597 183.353C86.1597 183.353 86.7256 185.525 89.555 187.46C86.7256 185.525 86.1597 183.353 86.1597 183.353ZM85.4995 179.813C88.6118 179.01 89.3663 174.196 86.3483 172.449C89.3663 174.149 88.6118 179.01 85.4995 179.813ZM88.0459 157.344C85.6409 159.516 87.15 164.141 90.6396 164.283C87.15 164.094 85.5938 159.468 88.0459 157.344ZM85.3108 143.514C86.9613 144.363 89.6493 142.334 89.7908 140.304C89.6964 142.334 87.0085 144.363 85.3108 143.514ZM85.0279 138.51C85.5466 135.111 87.1971 133.648 87.1971 133.648C87.1971 133.648 85.4995 135.111 85.0279 138.51ZM86.7256 198.505C84.1319 200.394 85.2165 205.161 88.659 205.68C85.1694 205.161 84.0848 200.394 86.7256 198.505ZM91.4412 211.817C88.2817 211.958 86.7727 209.221 86.7727 209.221C86.7727 209.221 88.2817 211.958 91.4412 211.817ZM91.4412 148.564C92.1486 145.496 95.1666 144.741 95.1666 144.741C95.1666 144.741 92.1486 145.496 91.4412 148.564ZM92.5259 138.888C94.1292 142.003 98.8449 143.089 100.684 140.115C98.8449 143.089 94.1763 142.003 92.5259 138.888ZM96.77 130.155C96.4399 126.992 99.0807 125.34 99.0807 125.34C99.0807 125.34 96.487 127.04 96.77 130.155ZM111.624 119.723C114.69 114.861 111.059 111.274 111.059 111.274C111.059 111.274 114.69 114.861 111.624 119.723ZM111.86 91.3068C112.002 94.4694 109.267 95.9327 109.267 95.9327C109.267 95.9327 111.955 94.4694 111.86 91.3068ZM105.494 101.739C105.07 105.043 108.842 107.875 111.766 107.025C108.842 107.875 105.07 105.043 105.494 101.739ZM107.286 112.784C109.172 115.947 106.956 118.26 106.956 118.26C106.956 118.26 109.172 115.947 107.286 112.784ZM109.832 124.679C107.758 122.178 103.089 123.547 102.806 127.04C103.089 123.547 107.758 122.178 109.832 124.679ZM96.0155 117.693C97.2887 114.908 101.816 113.823 104.126 116.277C101.816 113.823 97.2887 114.908 96.0155 117.693ZM101.674 104.193C101.674 104.193 99.3165 106.412 101.014 109.669C99.3165 106.412 101.674 104.193 101.674 104.193ZM97.1001 102.447C93.7519 107.12 97.1472 110.943 97.1472 110.943C97.1472 110.943 93.7519 107.167 97.1001 102.447ZM98.0432 134.498C98.0432 134.498 95.874 133.931 92.8088 135.489C95.874 133.979 98.0432 134.498 98.0432 134.498ZM94.7894 122.414C92.9503 125.388 88.1874 124.491 87.4801 121.328C88.1874 124.491 92.9503 125.388 94.7894 122.414ZM90.4038 130.816C89.4135 127.323 85.4523 126.284 83.4717 128.125C85.4523 126.284 89.4135 127.323 90.4038 130.816ZM79.3691 182.928C82.4343 183.023 85.1694 186.799 83.8018 189.867C85.1694 186.799 82.3871 183.023 79.3691 182.928ZM78.9447 211.911C76.2567 210.495 75.4079 205.869 78.0015 203.745C75.4079 205.869 76.2567 210.495 78.9447 211.911ZM74.7005 200.346C77.9544 198.647 80.1707 201.007 80.1707 201.007C80.1707 201.007 77.9544 198.647 74.7005 200.346ZM73.3801 196.523C73.3801 196.523 77.1527 193.124 81.8684 196.428C77.1999 193.077 73.3801 196.523 73.3801 196.523ZM74.7949 170.514C74.7949 170.514 71.1166 174.054 66.3538 170.891C71.1166 174.054 74.7949 170.514 74.7949 170.514ZM67.8628 166.266C67.8628 166.266 70.1735 168.531 73.333 166.738C70.1735 168.531 67.8628 166.266 67.8628 166.266ZM79.652 145.307C82.8587 144.41 85.4523 149.225 83.3774 151.727C85.4995 149.225 82.8587 144.41 79.652 145.307ZM83.0002 155.739C78.0015 152.86 74.5591 156.636 74.5591 156.636C74.5591 156.636 78.0487 152.86 83.0002 155.739ZM76.3982 183.306C74.842 180.379 78.9918 176.792 81.8684 178.302C78.9447 176.792 74.842 180.332 76.3982 183.306ZM81.5855 171.411C78.756 170.278 77.4828 165.746 79.8407 163.386C77.4828 165.746 78.756 170.231 81.5855 171.411ZM76.2567 160.318C79.3219 158.335 81.7741 160.46 81.7741 160.46C81.7741 160.46 79.3219 158.288 76.2567 160.318ZM74.0403 152.765C74.7477 149.697 77.7657 148.942 77.7657 148.942C77.7657 148.942 74.7005 149.65 74.0403 152.765ZM75.125 174.385C74.229 177.406 71.1638 177.972 71.1638 177.972C71.1638 177.972 74.229 177.453 75.125 174.385ZM78.7089 186.327C76.6811 188.64 72.0126 188.357 70.5507 185.336C72.0598 188.357 76.7283 188.593 78.7089 186.327ZM83.8961 121.847C83.8961 121.847 81.7269 122.319 79.652 125.057C81.7269 122.319 83.8961 121.847 83.8961 121.847ZM77.1527 127.748C75.5965 130.627 79.1333 134.828 82.1042 133.27C79.1804 134.781 75.6437 130.627 77.1527 127.748ZM77.9072 141.578C76.2567 138.652 71.5882 138.699 69.7019 141.106C71.541 138.699 76.2567 138.652 77.9072 141.578ZM72.2012 143.938C73.946 146.771 70.032 150.594 67.014 149.272C70.032 150.641 73.946 146.818 72.2012 143.938ZM70.3621 156.022C71.2581 158.949 68.6173 162.82 65.3163 162.489C68.6173 162.82 71.2581 158.949 70.3621 156.022ZM65.4578 187.46C65.4578 187.46 66.4009 184.344 63.3357 182.409C66.4009 184.392 65.4578 187.46 65.4578 187.46ZM65.7407 174.857C63.4772 177.264 65.7879 182.22 69.0417 181.512C65.7879 182.173 63.4772 177.217 65.7407 174.857ZM73.5216 191.661C73.5216 191.661 71.1166 189.537 68.0043 191.519C71.0695 189.49 73.5216 191.661 73.5216 191.661ZM69.6076 201.81C67.014 203.698 68.0986 208.465 71.541 208.985C68.0986 208.465 67.014 203.745 69.6076 201.81ZM74.3233 215.168C71.1638 215.31 69.6548 212.572 69.6548 212.572C69.6548 212.572 71.2109 215.31 74.3233 215.168ZM74.0875 226.733C76.3982 229.046 81.444 226.875 80.7838 223.57C81.444 226.875 76.3982 229.093 74.0875 226.733ZM77.8601 233.861C79.6049 231.217 82.6701 231.595 82.6701 231.595C82.6701 231.595 79.6049 231.217 77.8601 233.861ZM79.4162 219.369C82.9058 219.747 86.3955 216.395 84.9336 213.233C86.4426 216.443 82.9058 219.747 79.4162 219.369ZM87.3858 239.289C85.1222 237.259 85.4523 232.586 88.4704 231.123C85.4523 232.539 85.1222 237.212 87.3858 239.289ZM88.0931 219.133C90.1209 219.416 91.96 222.249 90.9697 223.854C91.9128 222.249 90.1209 219.416 88.0931 219.133ZM90.4038 236.976C93.3747 235.466 96.8643 239.619 95.3081 242.546C96.9114 239.619 93.3747 235.466 90.4038 236.976ZM93.2804 253.025C96.1569 251.09 98.3262 251.373 98.3262 251.373C98.3262 251.373 96.1569 251.09 93.2804 253.025ZM92.6202 244.057C92.9974 247.266 97.666 248.682 99.788 245.897C97.666 248.635 92.9974 247.266 92.6202 244.057ZM100.118 209.362C96.8643 214.13 100.354 217.859 100.354 217.859C100.354 217.859 96.8643 214.13 100.118 209.362ZM158.593 235.418C156.989 238.015 152.321 238.487 150.387 235.749C152.321 238.487 156.989 237.967 158.593 235.418ZM155.433 261.38C157.084 264.637 154.679 266.856 154.679 266.856C154.679 266.856 157.084 264.637 155.433 261.38ZM154.443 250.193C153.783 253.45 157.319 256.518 160.337 255.952C157.319 256.565 153.783 253.497 154.443 250.193ZM155.103 242.546C154.349 245.992 149.539 246.7 147.841 243.915C149.539 246.7 154.396 245.992 155.103 242.546ZM149.35 257.746C147.888 254.394 150.435 252.364 150.435 252.364C150.435 252.364 147.888 254.394 149.35 257.746ZM147.841 233.341C147.841 233.341 145.342 235.371 146.756 238.723C145.294 235.371 147.841 233.341 147.841 233.341ZM146.002 250.335C142.324 254.772 145.436 258.784 145.436 258.784C145.436 258.784 142.324 254.772 146.002 250.335ZM142.135 249.296C140.013 246.794 134.826 248.541 135.203 251.892C134.826 248.541 140.013 246.794 142.135 249.296ZM141.522 258.69C138.598 257.51 138.41 254.394 138.41 254.394C138.41 254.394 138.645 257.51 141.522 258.69ZM137.466 244.765C135.722 241.555 138.032 239.289 138.032 239.289C138.032 239.289 135.722 241.555 137.466 244.765ZM136.995 228.904C134.071 227.299 130.11 229.754 129.78 232.822C130.063 229.754 134.071 227.252 136.995 228.904ZM129.308 261.003C127.233 258.737 128.035 254.111 131.147 252.978C128.035 254.111 127.28 258.737 129.308 261.003ZM128.035 248.777C130.251 245.85 133.269 247.03 133.269 247.03C133.269 247.03 130.251 245.85 128.035 248.777ZM131.477 241.744C134.59 240.516 135.203 235.843 133.081 233.672C135.203 235.843 134.59 240.516 131.477 241.744ZM129.921 235.796C126.856 237.118 123.602 232.728 125.347 229.943C123.602 232.728 126.856 237.118 129.921 235.796ZM127.563 242.971C128.035 246.275 122.895 248.21 120.679 245.756C122.895 248.21 127.988 246.275 127.563 242.971ZM120.961 236.362C123.932 237.448 124.215 240.564 124.215 240.564C124.215 240.564 123.932 237.495 120.961 236.362ZM118.179 217.198C118.368 220.361 115.68 221.918 115.68 221.918C115.68 221.918 118.368 220.361 118.179 217.198ZM111.436 210.306C112.945 212.95 111.2 217.292 107.899 217.717C111.2 217.292 112.945 212.95 111.436 210.306ZM112.049 220.125C111.624 223.618 106.909 224.798 104.928 222.201C106.909 224.75 111.624 223.618 112.049 220.125ZM107.003 234.191C105.258 230.981 107.569 228.716 107.569 228.716C107.569 228.716 105.211 230.934 107.003 234.191ZM104.692 210.967C104.692 210.967 102.382 213.233 104.126 216.443C102.382 213.233 104.692 210.967 104.692 210.967ZM108.371 245.284C108.936 241.98 105.258 239.053 102.287 239.714C105.258 239.053 108.936 241.98 108.371 245.284ZM102.948 227.063C99.6937 231.831 103.183 235.56 103.183 235.56C103.183 235.56 99.6937 231.831 102.948 227.063ZM101.627 255.48C101.627 252.317 104.409 250.948 104.409 250.948C104.409 250.948 101.627 252.317 101.627 255.48ZM104.692 260.2C106.201 257.557 110.87 256.896 112.898 259.586C110.87 256.943 106.201 257.604 104.692 260.2ZM107.899 252.978C108.512 249.532 113.322 248.635 115.114 251.326C113.369 248.635 108.559 249.532 107.899 252.978ZM113.181 237.543C114.737 240.847 112.285 242.971 112.285 242.971C112.285 242.971 114.737 240.894 113.181 237.543ZM115.491 261.899C115.491 261.899 117.943 259.775 116.387 256.471C117.943 259.822 115.491 261.899 115.491 261.899ZM116.765 244.906C120.301 240.375 117.047 236.41 117.047 236.41C117.047 236.41 120.301 240.328 116.765 244.906ZM110.351 230.84C112.52 233.389 117.142 232.445 118.509 229.707C117.095 232.445 112.52 233.389 110.351 230.84ZM127.139 226.45C126.573 223.24 121.81 222.154 119.877 225.081C121.81 222.154 126.573 223.24 127.139 226.45ZM119.971 263.788C123.508 259.256 120.254 255.291 120.254 255.291C120.254 255.291 123.508 259.256 119.971 263.788ZM122.093 250.429C122.093 250.429 122.282 253.544 125.206 254.725C122.282 253.544 122.093 250.429 122.093 250.429ZM126.998 271.623C129.261 269.027 131.477 268.697 131.477 268.697C131.477 268.697 129.261 269.027 126.998 271.623ZM125.253 265.628C128.129 267.328 132.185 264.968 132.609 261.947C132.185 265.015 128.129 267.375 125.253 265.628ZM132.562 258.973C135.674 257.746 138.74 262.23 136.948 264.968C138.787 262.277 135.674 257.746 132.562 258.973ZM135.061 268.413C135.533 271.623 140.249 272.898 142.276 270.018C140.249 272.898 135.533 271.623 135.061 268.413ZM142.842 239.761C142.842 239.761 139.73 235.749 143.408 231.312C139.73 235.749 142.842 239.761 142.842 239.761ZM143.833 265.44C145.294 262.749 149.916 261.994 151.991 264.59C149.869 261.994 145.247 262.749 143.833 265.44ZM149.916 275.258C150.435 271.812 155.197 270.774 157.084 273.417C155.245 270.774 150.482 271.765 149.916 275.258ZM159.206 268.602C162.601 263.976 159.253 260.106 159.253 260.106C159.253 260.106 162.648 263.929 159.206 268.602ZM158.546 244.67C158.546 244.67 161.375 243.396 161.469 240.233C161.422 243.396 158.546 244.67 158.546 244.67ZM170.146 251.987C169.863 248.777 165.242 247.219 163.025 249.91C165.242 247.172 169.863 248.73 170.146 251.987ZM163.167 259.964C166.138 261.003 166.562 264.071 166.562 264.071C166.562 264.071 166.138 260.955 163.167 259.964Z" fill="white"/>
<path d="M171.749 259.256C168.826 260.2 165.761 256.141 167.364 253.403C165.761 256.093 168.826 260.2 171.749 259.256ZM171.749 259.256C172.928 253.45 172.315 247.833 169.675 243.018C166.798 244.812 164.629 244.434 164.629 244.434C164.629 244.434 166.798 244.765 169.675 243.018C166.704 237.59 161.186 233.294 152.745 230.981C150.906 230.462 145.53 228.904 138.834 226.072C138.834 226.119 138.834 226.214 138.834 226.261C138.834 226.214 138.834 226.119 138.834 226.072C137.325 225.411 135.769 224.75 134.165 223.948C132.326 225.742 130.676 226.025 130.676 226.025C130.676 226.025 132.326 225.742 134.165 223.948C124.97 219.511 114.36 212.902 106.72 203.462C105.164 205.255 102.004 205.491 100.543 203.509C102.052 205.491 105.164 205.255 106.72 203.462C102.806 198.647 99.6937 193.171 97.9017 186.846C97.383 189.065 94.5064 190.953 92.2901 189.867C94.5536 190.953 97.383 189.065 97.9017 186.846C97.3359 184.816 96.8643 182.692 96.6285 180.474C96.0155 174.243 95.874 168.579 96.1569 163.339C94.5064 162.82 93.0917 161.64 92.7145 159.893C93.0917 161.64 94.5064 162.867 96.1569 163.339C96.2984 160.507 96.5813 157.863 97.0058 155.267C96.1098 155.126 94.978 155.267 93.7048 156.07C94.9309 155.267 96.0626 155.126 97.0058 155.267C97.2415 153.662 97.5716 152.057 97.9017 150.547C94.3178 149.886 92.0543 152.388 92.0543 152.388C92.0543 152.388 94.365 149.886 97.9017 150.547C99.1278 145.166 100.967 140.209 103.325 135.631L107.05 129.305C111.955 121.942 118.415 115.192 126.243 108.206L121.056 101.597C121.15 101.833 121.244 102.116 121.292 102.352C121.244 102.069 121.15 101.833 121.056 101.597L119.877 100.087C118.179 98.8121 115.444 98.8121 114.029 100.795C115.444 98.8121 118.179 98.8121 119.877 100.087L116.057 95.2246C115.538 95.2718 115.255 95.2718 115.255 95.2718C115.255 95.2718 115.538 95.2718 116.057 95.2246L110.493 88.0969C106.767 91.0707 103.278 94.0918 100.024 97.16C102.24 98.0096 105.211 96.7823 105.635 94.0446C105.258 96.7823 102.24 98.0096 100.024 97.16C96.3927 100.606 93.0446 104.099 89.9322 107.639C90.2152 108.583 91.0168 110.424 93.2332 111.132C91.064 110.424 90.2152 108.583 89.9322 107.639C88.7061 109.055 87.5272 110.471 86.3955 111.887C88.6118 112.501 90.3566 115.522 89.0834 117.741C90.3566 115.569 88.6118 112.501 86.3955 111.887C84.4149 114.389 82.5757 116.891 80.8309 119.393C82.8115 118.779 84.462 116.985 84.6035 115.003C84.462 116.938 82.8115 118.732 80.8309 119.393C77.6243 123.452 74.3704 129.4 72.437 133.695C64.7504 149.225 61.308 165.133 61.308 180.427C61.308 183.542 61.4495 186.61 61.6852 189.678C64.4203 190.056 65.9765 194.352 63.8545 196.428C65.9765 194.352 64.4203 190.009 61.6852 189.678C61.9682 193.313 62.4869 196.853 63.0999 200.394C66.0708 216.348 72.5313 231.028 82.0099 243.207C84.1791 243.962 86.9142 243.16 88.0931 241.272C86.9142 243.16 84.1791 243.915 82.0099 243.207C84.1791 246.039 86.5369 248.682 89.0362 251.231C89.8851 250.665 90.4981 249.815 90.6396 248.73C90.4981 249.815 89.8851 250.665 89.0362 251.231C95.5911 257.887 103.23 263.552 111.813 267.894C113.558 266.431 116.434 266.525 117.755 268.461C116.434 266.478 113.558 266.431 111.813 267.894C114.831 269.405 117.943 270.774 121.197 272.001C122.565 271.293 123.602 269.83 123.366 268.13C123.602 269.83 122.565 271.246 121.197 272.001C126.054 273.795 131.195 275.211 136.523 276.202C134.637 275.824 132.798 275.447 130.581 274.928C132.562 275.4 134.543 275.777 136.523 276.202C138.881 276.627 141.286 277.004 143.738 277.24C143.974 274.503 146.379 273.228 146.379 273.228C146.379 273.228 143.974 274.503 143.738 277.24C144.021 277.288 144.304 277.288 144.587 277.335C150.104 277.854 159.819 276.816 166.185 270.302C165.1 270.396 163.969 270.113 163.167 269.31C163.969 270.113 165.053 270.396 166.185 270.302C168.166 268.225 169.863 265.628 170.948 262.371C171.278 261.38 171.514 260.294 171.749 259.256ZM118.651 104.004C117.189 106.931 120.867 110.991 123.791 109.386C120.867 110.991 117.189 106.931 118.651 104.004ZM118.604 114.72C118.604 114.72 117.991 111.651 114.925 110.849C117.943 111.651 118.604 114.72 118.604 114.72ZM99.5994 193.974C99.5994 193.974 96.5342 194.635 95.7797 197.656C96.5342 194.588 99.5994 193.974 99.5994 193.974ZM92.3372 229.66C91.677 226.403 96.6757 224.137 99.0335 226.45C96.6285 224.137 91.677 226.355 92.3372 229.66ZM99.3164 235.843C96.2984 234.899 95.7797 231.831 95.7797 231.831C95.7797 231.831 96.2984 234.899 99.3164 235.843ZM92.9503 214.13C92.9503 214.13 93.469 217.198 96.487 218.142C93.4218 217.198 92.9503 214.13 92.9503 214.13ZM95.5439 203.462C92.2429 203.509 90.3095 208.607 93.0917 210.448C90.3095 208.607 92.2429 203.509 95.5439 203.462ZM92.4787 183.542C90.5453 181.607 91.4412 177.642 94.8837 176.509C91.4412 177.689 90.5453 181.654 92.4787 183.542ZM93.9877 170.183C90.8754 170.608 89.1306 168.059 89.1306 168.059C89.1306 168.059 90.8754 170.608 93.9877 170.183ZM86.5841 191.519C89.8379 190.717 92.7616 194.871 90.5924 197.325C92.7616 194.871 89.7908 190.717 86.5841 191.519ZM86.1597 183.353C86.1597 183.353 86.7256 185.525 89.555 187.46C86.7256 185.525 86.1597 183.353 86.1597 183.353ZM85.4995 179.813C88.6118 179.01 89.3663 174.196 86.3483 172.449C89.3663 174.149 88.6118 179.01 85.4995 179.813ZM88.0459 157.344C85.6409 159.516 87.15 164.141 90.6396 164.283C87.15 164.094 85.5938 159.468 88.0459 157.344ZM85.3108 143.514C86.9613 144.363 89.6493 142.334 89.7908 140.304C89.6964 142.334 87.0085 144.363 85.3108 143.514ZM85.0279 138.51C85.5466 135.111 87.1971 133.648 87.1971 133.648C87.1971 133.648 85.4995 135.111 85.0279 138.51ZM86.7256 198.505C84.1319 200.394 85.2165 205.161 88.659 205.68C85.1694 205.161 84.0848 200.394 86.7256 198.505ZM91.4412 211.817C88.2817 211.958 86.7727 209.221 86.7727 209.221C86.7727 209.221 88.2817 211.958 91.4412 211.817ZM91.4412 148.564C92.1486 145.496 95.1666 144.741 95.1666 144.741C95.1666 144.741 92.1486 145.496 91.4412 148.564ZM92.5259 138.888C94.1292 142.003 98.8449 143.089 100.684 140.115C98.8449 143.089 94.1763 142.003 92.5259 138.888ZM96.77 130.155C96.4399 126.992 99.0807 125.34 99.0807 125.34C99.0807 125.34 96.487 127.04 96.77 130.155ZM111.624 119.723C114.69 114.861 111.059 111.274 111.059 111.274C111.059 111.274 114.69 114.861 111.624 119.723ZM111.86 91.3068C112.002 94.4694 109.267 95.9327 109.267 95.9327C109.267 95.9327 111.955 94.4694 111.86 91.3068ZM105.494 101.739C105.07 105.043 108.842 107.875 111.766 107.025C108.842 107.875 105.07 105.043 105.494 101.739ZM107.286 112.784C109.172 115.947 106.956 118.26 106.956 118.26C106.956 118.26 109.172 115.947 107.286 112.784ZM109.832 124.679C107.758 122.178 103.089 123.547 102.806 127.04C103.089 123.547 107.758 122.178 109.832 124.679ZM96.0155 117.693C97.2887 114.908 101.816 113.823 104.126 116.277C101.816 113.823 97.2887 114.908 96.0155 117.693ZM101.674 104.193C101.674 104.193 99.3165 106.412 101.014 109.669C99.3165 106.412 101.674 104.193 101.674 104.193ZM97.1001 102.447C93.7519 107.12 97.1472 110.943 97.1472 110.943C97.1472 110.943 93.7519 107.167 97.1001 102.447ZM98.0432 134.498C98.0432 134.498 95.874 133.931 92.8088 135.489C95.874 133.979 98.0432 134.498 98.0432 134.498ZM94.7894 122.414C92.9503 125.388 88.1874 124.491 87.4801 121.328C88.1874 124.491 92.9503 125.388 94.7894 122.414ZM90.4038 130.816C89.4135 127.323 85.4523 126.284 83.4717 128.125C85.4523 126.284 89.4135 127.323 90.4038 130.816ZM79.3691 182.928C82.4343 183.023 85.1694 186.799 83.8018 189.867C85.1694 186.799 82.3871 183.023 79.3691 182.928ZM78.9447 211.911C76.2567 210.495 75.4079 205.869 78.0015 203.745C75.4079 205.869 76.2567 210.495 78.9447 211.911ZM74.7005 200.346C77.9544 198.647 80.1707 201.007 80.1707 201.007C80.1707 201.007 77.9544 198.647 74.7005 200.346ZM73.3801 196.523C73.3801 196.523 77.1527 193.124 81.8684 196.428C77.1999 193.077 73.3801 196.523 73.3801 196.523ZM74.7949 170.514C74.7949 170.514 71.1166 174.054 66.3538 170.891C71.1166 174.054 74.7949 170.514 74.7949 170.514ZM67.8628 166.266C67.8628 166.266 70.1735 168.531 73.333 166.738C70.1735 168.531 67.8628 166.266 67.8628 166.266ZM79.652 145.307C82.8587 144.41 85.4523 149.225 83.3774 151.727C85.4995 149.225 82.8587 144.41 79.652 145.307ZM83.0002 155.739C78.0015 152.86 74.5591 156.636 74.5591 156.636C74.5591 156.636 78.0487 152.86 83.0002 155.739ZM76.3982 183.306C74.842 180.379 78.9918 176.792 81.8684 178.302C78.9447 176.792 74.842 180.332 76.3982 183.306ZM81.5855 171.411C78.756 170.278 77.4828 165.746 79.8407 163.386C77.4828 165.746 78.756 170.231 81.5855 171.411ZM76.2567 160.318C79.3219 158.335 81.7741 160.46 81.7741 160.46C81.7741 160.46 79.3219 158.288 76.2567 160.318ZM74.0403 152.765C74.7477 149.697 77.7657 148.942 77.7657 148.942C77.7657 148.942 74.7005 149.65 74.0403 152.765ZM75.125 174.385C74.229 177.406 71.1638 177.972 71.1638 177.972C71.1638 177.972 74.229 177.453 75.125 174.385ZM78.7089 186.327C76.6811 188.64 72.0126 188.357 70.5507 185.336C72.0598 188.357 76.7283 188.593 78.7089 186.327ZM83.8961 121.847C83.8961 121.847 81.7269 122.319 79.652 125.057C81.7269 122.319 83.8961 121.847 83.8961 121.847ZM77.1527 127.748C75.5965 130.627 79.1333 134.828 82.1042 133.27C79.1804 134.781 75.6437 130.627 77.1527 127.748ZM77.9072 141.578C76.2567 138.652 71.5882 138.699 69.7019 141.106C71.541 138.699 76.2567 138.652 77.9072 141.578ZM72.2012 143.938C73.946 146.771 70.032 150.594 67.014 149.272C70.032 150.641 73.946 146.818 72.2012 143.938ZM70.3621 156.022C71.2581 158.949 68.6173 162.82 65.3163 162.489C68.6173 162.82 71.2581 158.949 70.3621 156.022ZM65.4578 187.46C65.4578 187.46 66.4009 184.344 63.3357 182.409C66.4009 184.392 65.4578 187.46 65.4578 187.46ZM65.7407 174.857C63.4772 177.264 65.7879 182.22 69.0417 181.512C65.7879 182.173 63.4772 177.217 65.7407 174.857ZM73.5216 191.661C73.5216 191.661 71.1166 189.537 68.0043 191.519C71.0695 189.49 73.5216 191.661 73.5216 191.661ZM69.6076 201.81C67.014 203.698 68.0986 208.465 71.541 208.985C68.0986 208.465 67.014 203.745 69.6076 201.81ZM74.3233 215.168C71.1638 215.31 69.6548 212.572 69.6548 212.572C69.6548 212.572 71.2109 215.31 74.3233 215.168ZM74.0875 226.733C76.3982 229.046 81.444 226.875 80.7838 223.57C81.444 226.875 76.3982 229.093 74.0875 226.733ZM77.8601 233.861C79.6049 231.217 82.6701 231.595 82.6701 231.595C82.6701 231.595 79.6049 231.217 77.8601 233.861ZM79.4162 219.369C82.9058 219.747 86.3955 216.395 84.9336 213.233C86.4426 216.443 82.9058 219.747 79.4162 219.369ZM87.3858 239.289C85.1222 237.259 85.4523 232.586 88.4704 231.123C85.4523 232.539 85.1222 237.212 87.3858 239.289ZM88.0931 219.133C90.1209 219.416 91.96 222.249 90.9697 223.854C91.9128 222.249 90.1209 219.416 88.0931 219.133ZM90.4038 236.976C93.3747 235.466 96.8643 239.619 95.3081 242.546C96.9114 239.619 93.3747 235.466 90.4038 236.976ZM93.2804 253.025C96.1569 251.09 98.3262 251.373 98.3262 251.373C98.3262 251.373 96.1569 251.09 93.2804 253.025ZM92.6202 244.057C92.9974 247.266 97.666 248.682 99.788 245.897C97.666 248.635 92.9974 247.266 92.6202 244.057ZM100.118 209.362C96.8643 214.13 100.354 217.859 100.354 217.859C100.354 217.859 96.8643 214.13 100.118 209.362ZM158.593 235.418C156.989 238.015 152.321 238.487 150.387 235.749C152.321 238.487 156.989 237.967 158.593 235.418ZM155.433 261.38C157.084 264.637 154.679 266.856 154.679 266.856C154.679 266.856 157.084 264.637 155.433 261.38ZM154.443 250.193C153.783 253.45 157.319 256.518 160.337 255.952C157.319 256.565 153.783 253.497 154.443 250.193ZM155.103 242.546C154.349 245.992 149.539 246.7 147.841 243.915C149.539 246.7 154.396 245.992 155.103 242.546ZM149.35 257.746C147.888 254.394 150.435 252.364 150.435 252.364C150.435 252.364 147.888 254.394 149.35 257.746ZM147.841 233.341C147.841 233.341 145.342 235.371 146.756 238.723C145.294 235.371 147.841 233.341 147.841 233.341ZM146.002 250.335C142.324 254.772 145.436 258.784 145.436 258.784C145.436 258.784 142.324 254.772 146.002 250.335ZM142.135 249.296C140.013 246.794 134.826 248.541 135.203 251.892C134.826 248.541 140.013 246.794 142.135 249.296ZM141.522 258.69C138.598 257.51 138.41 254.394 138.41 254.394C138.41 254.394 138.645 257.51 141.522 258.69ZM137.466 244.765C135.722 241.555 138.032 239.289 138.032 239.289C138.032 239.289 135.722 241.555 137.466 244.765ZM136.995 228.904C134.071 227.299 130.11 229.754 129.78 232.822C130.063 229.754 134.071 227.252 136.995 228.904ZM129.308 261.003C127.233 258.737 128.035 254.111 131.147 252.978C128.035 254.111 127.28 258.737 129.308 261.003ZM128.035 248.777C130.251 245.85 133.269 247.03 133.269 247.03C133.269 247.03 130.251 245.85 128.035 248.777ZM131.477 241.744C134.59 240.516 135.203 235.843 133.081 233.672C135.203 235.843 134.59 240.516 131.477 241.744ZM129.921 235.796C126.856 237.118 123.602 232.728 125.347 229.943C123.602 232.728 126.856 237.118 129.921 235.796ZM127.563 242.971C128.035 246.275 122.895 248.21 120.679 245.756C122.895 248.21 127.988 246.275 127.563 242.971ZM120.961 236.362C123.932 237.448 124.215 240.564 124.215 240.564C124.215 240.564 123.932 237.495 120.961 236.362ZM118.179 217.198C118.368 220.361 115.68 221.918 115.68 221.918C115.68 221.918 118.368 220.361 118.179 217.198ZM111.436 210.306C112.945 212.95 111.2 217.292 107.899 217.717C111.2 217.292 112.945 212.95 111.436 210.306ZM112.049 220.125C111.624 223.618 106.909 224.798 104.928 222.201C106.909 224.75 111.624 223.618 112.049 220.125ZM107.003 234.191C105.258 230.981 107.569 228.716 107.569 228.716C107.569 228.716 105.211 230.934 107.003 234.191ZM104.692 210.967C104.692 210.967 102.382 213.233 104.126 216.443C102.382 213.233 104.692 210.967 104.692 210.967ZM108.371 245.284C108.936 241.98 105.258 239.053 102.287 239.714C105.258 239.053 108.936 241.98 108.371 245.284ZM102.948 227.063C99.6937 231.831 103.183 235.56 103.183 235.56C103.183 235.56 99.6937 231.831 102.948 227.063ZM101.627 255.48C101.627 252.317 104.409 250.948 104.409 250.948C104.409 250.948 101.627 252.317 101.627 255.48ZM104.692 260.2C106.201 257.557 110.87 256.896 112.898 259.586C110.87 256.943 106.201 257.604 104.692 260.2ZM107.899 252.978C108.512 249.532 113.322 248.635 115.114 251.326C113.369 248.635 108.559 249.532 107.899 252.978ZM113.181 237.543C114.737 240.847 112.285 242.971 112.285 242.971C112.285 242.971 114.737 240.894 113.181 237.543ZM115.491 261.899C115.491 261.899 117.943 259.775 116.387 256.471C117.943 259.822 115.491 261.899 115.491 261.899ZM116.765 244.906C120.301 240.375 117.047 236.41 117.047 236.41C117.047 236.41 120.301 240.328 116.765 244.906ZM110.351 230.84C112.52 233.389 117.142 232.445 118.509 229.707C117.095 232.445 112.52 233.389 110.351 230.84ZM127.139 226.45C126.573 223.24 121.81 222.154 119.877 225.081C121.81 222.154 126.573 223.24 127.139 226.45ZM119.971 263.788C123.508 259.256 120.254 255.291 120.254 255.291C120.254 255.291 123.508 259.256 119.971 263.788ZM122.093 250.429C122.093 250.429 122.282 253.544 125.206 254.725C122.282 253.544 122.093 250.429 122.093 250.429ZM126.998 271.623C129.261 269.027 131.477 268.697 131.477 268.697C131.477 268.697 129.261 269.027 126.998 271.623ZM125.253 265.628C128.129 267.328 132.185 264.968 132.609 261.947C132.185 265.015 128.129 267.375 125.253 265.628ZM132.562 258.973C135.674 257.746 138.74 262.23 136.948 264.968C138.787 262.277 135.674 257.746 132.562 258.973ZM135.061 268.413C135.533 271.623 140.249 272.898 142.276 270.018C140.249 272.898 135.533 271.623 135.061 268.413ZM142.842 239.761C142.842 239.761 139.73 235.749 143.408 231.312C139.73 235.749 142.842 239.761 142.842 239.761ZM143.833 265.44C145.294 262.749 149.916 261.994 151.991 264.59C149.869 261.994 145.247 262.749 143.833 265.44ZM149.916 275.258C150.435 271.812 155.197 270.774 157.084 273.417C155.245 270.774 150.482 271.765 149.916 275.258ZM159.206 268.602C162.601 263.976 159.253 260.106 159.253 260.106C159.253 260.106 162.648 263.929 159.206 268.602ZM158.546 244.67C158.546 244.67 161.375 243.396 161.469 240.233C161.422 243.396 158.546 244.67 158.546 244.67ZM170.146 251.987C169.863 248.777 165.242 247.219 163.025 249.91C165.242 247.172 169.863 248.73 170.146 251.987ZM163.167 259.964C166.138 261.003 166.562 264.071 166.562 264.071C166.562 264.071 166.138 260.955 163.167 259.964Z" stroke="black" stroke-width="1.4154" stroke-miterlimit="10" stroke-linecap="round" stroke-linejoin="round"/>
<path d="M237.722 141.389C244.607 137.613 253.331 137.991 258.235 141.861C262.479 144.835 258.282 149.65 255.028 145.59C252.293 143.23 248.238 142.097 244.135 144.788C244.748 146.487 244.088 148.895 242.626 150.122C240.457 151.916 237.25 151.68 235.458 149.508C233.666 147.337 233.572 143.655 237.722 141.389Z" fill="white" stroke="black" stroke-width="1.4154" stroke-miterlimit="10" stroke-linecap="round" stroke-linejoin="round"/>
<path d="M172.975 161.97C183.727 149.32 202.684 147.762 215.322 158.477C217.491 160.79 221.311 156.589 215.369 154.417C202.731 143.655 183.727 145.213 173.023 157.911L172.975 161.97Z" fill="white" stroke="black" stroke-width="1.4154" stroke-miterlimit="10" stroke-linecap="round" stroke-linejoin="round"/>
<path d="M173.4 163.953C185.047 152.152 204.099 152.01 215.888 163.717C217.916 166.171 222.018 162.253 216.218 159.657C204.429 147.998 185.378 148.092 173.73 159.893L173.4 163.953Z" fill="white" stroke="black" stroke-width="1.4154" stroke-miterlimit="10" stroke-linecap="round" stroke-linejoin="round"/>
<path d="M122.47 168.767C115.727 180.474 119.688 195.437 131.383 202.187C134.165 204.359 130.015 209.079 126.243 203.839C114.548 197.089 110.587 182.126 117.33 170.419L122.47 168.767Z" fill="white" stroke="black" stroke-width="1.4154" stroke-miterlimit="10" stroke-linecap="round" stroke-linejoin="round"/>
<path d="M123.178 170.939C118.321 183.542 124.592 197.703 137.183 202.565C140.296 204.264 136.9 209.551 132.373 205.019C119.782 200.157 113.511 185.996 118.368 173.393L123.178 170.939Z" fill="white" stroke="black" stroke-width="1.4154" stroke-miterlimit="10" stroke-linecap="round" stroke-linejoin="round"/>
<path d="M127.988 169.806C125.347 183.07 133.929 195.956 147.133 198.6C150.482 199.78 148.029 205.539 142.795 201.857C129.591 199.214 121.008 186.327 123.649 173.063L127.988 169.806Z" fill="white" stroke="black" stroke-width="1.4154" stroke-miterlimit="10" stroke-linecap="round" stroke-linejoin="round"/>
<path d="M277.239 135.489C275.447 130.816 255.877 127.087 245.456 106.459L238.241 97.7735L229.328 119.251C250.171 141.248 271.863 142.05 275.494 139.926C277.334 138.888 277.994 137.566 277.239 135.489Z" fill="white" stroke="black" stroke-width="1.4154" stroke-miterlimit="10" stroke-linecap="round"/>
<path d="M298.319 98.8121C302.28 101.644 307.514 102.541 312.466 100.795C318.596 98.5761 322.274 87.5777 323.642 82.6686C324.066 81.2053 323.5 79.6476 322.274 78.7979C318.077 75.8713 308.269 69.6877 302.138 71.9062C297.187 73.7 293.744 77.7122 292.518 82.4326" fill="white"/>
<path d="M298.319 98.8121C302.28 101.644 307.514 102.541 312.466 100.795C318.596 98.5761 322.274 87.5777 323.642 82.6686C324.066 81.2053 323.5 79.6476 322.274 78.7979C318.077 75.8713 308.269 69.6877 302.138 71.9062C297.187 73.7 293.744 77.7122 292.518 82.4326" stroke="black" stroke-width="1.4154" stroke-miterlimit="10" stroke-linecap="round" stroke-linejoin="round"/>
<path d="M155.292 116.985C171.136 127.701 167.175 149.792 159.394 160.601C158.168 162.348 159.206 164.755 161.328 164.944L179.719 166.549C184.434 164.897 184.293 159.893 182.029 157.486H175.852C178.21 151.585 181.558 146.818 186.792 144.458C199.808 140.776 206.928 129.447 206.221 120.337L208.673 92.0621L164.44 103.863L155.292 116.985Z" fill="white" stroke="black" stroke-width="1.4154" stroke-miterlimit="10" stroke-linecap="round"/>
<path d="M126.526 166.36C132.185 160.884 140.673 158.902 146.426 161.309C151.283 163.056 148.548 168.815 144.351 165.794C141.097 164.236 136.853 164.236 133.647 167.965C134.731 169.428 134.684 171.977 133.647 173.488C132.043 175.801 128.884 176.414 126.573 174.809C124.262 173.204 123.084 169.617 126.526 166.36Z" fill="white" stroke="black" stroke-width="1.4154" stroke-miterlimit="10" stroke-linecap="round" stroke-linejoin="round"/>
<path d="M133.269 174.668C136.712 183.07 144.729 189.206 154.396 189.773C157.885 190.481 156.235 196.523 150.529 193.596C140.484 192.983 132.185 186.374 128.978 177.453L127.611 167.729L133.269 174.668Z" fill="white" stroke="black" stroke-width="1.4154" stroke-miterlimit="10" stroke-linecap="round" stroke-linejoin="round"/>
<path d="M287.425 63.976C281.295 60.8134 269.223 59.3501 260.216 67.4219L243.286 54.9602C203.769 22.0123 138.315 39.0999 109.549 88.6634L124.687 107.639L126.714 111.746C134.401 129.777 126.149 148.092 112.332 152.529C110.728 153.049 109.927 154.842 110.587 156.4L116.764 176.084C121.574 179.86 129.497 178.916 132.986 174.243L124.451 157.816C169.486 157.439 180.332 126.284 167.128 106.365C181.134 108.725 190.093 106.081 198.534 97.7736L259.791 105.421C258.094 113.351 263.375 117.505 267.242 118.637C271.015 119.723 278.23 118.401 280.399 111.368C289.877 109.433 294.782 104.571 298.13 99.0953C304.213 89.3714 302.94 72.095 287.425 63.976Z" fill="white" stroke="black" stroke-width="1.4154" stroke-miterlimit="10" stroke-linecap="round"/>
<path d="M267.101 56.8483C269.27 61.6158 268.751 66.9026 266.252 71.1037C260.829 68.0354 257.292 65.2032 254.321 66.5249C251.35 67.8466 251.02 73.039 250.36 78.2786C245.55 77.3817 241.259 74.2663 239.137 69.4987C236.449 63.5511 241.824 53.2608 244.418 48.8709C245.173 47.5492 246.682 46.8884 248.144 47.1716C253.189 48.0685 264.413 50.8535 267.101 56.8483Z" fill="white" stroke="black" stroke-width="1.4154" stroke-miterlimit="10" stroke-linecap="round" stroke-linejoin="round"/>
<path d="M266.9 90.6785C267.121 90.3555 267.038 89.915 266.715 89.6946C266.392 89.4742 265.952 89.5574 265.732 89.8804C265.512 90.2034 265.595 90.6439 265.918 90.8643C266.24 91.0847 266.68 91.0015 266.9 90.6785Z" fill="black" stroke="black" stroke-width="1.4154" stroke-miterlimit="10" stroke-linecap="round"/>
<path d="M270.399 93.5508C272.224 91.2734 271.859 87.9461 269.584 86.1192C267.309 84.2923 263.985 84.6575 262.16 86.935C260.335 89.2124 260.7 92.5397 262.975 94.3666C265.25 96.1935 268.574 95.8283 270.399 93.5508Z" stroke="black" stroke-width="1.4154" stroke-miterlimit="10" stroke-linecap="round"/>
<path d="M266.596 89.5109C266.938 89.0839 266.869 88.46 266.443 88.1175C266.016 87.7749 265.393 87.8434 265.051 88.2704C264.708 88.6974 264.777 89.3213 265.203 89.6638C265.63 90.0064 266.253 89.9379 266.596 89.5109Z" fill="white"/>
<path d="M288.521 99.9373C288.741 99.6143 288.658 99.1738 288.335 98.9534C288.012 98.733 287.572 98.8162 287.352 99.1392C287.132 99.4622 287.215 99.9027 287.538 100.123C287.86 100.343 288.301 100.26 288.521 99.9373Z" fill="black" stroke="black" stroke-width="1.4154" stroke-miterlimit="10" stroke-linecap="round"/>
<path d="M288.288 98.8302C288.63 98.4032 288.562 97.7794 288.135 97.4368C287.709 97.0943 287.085 97.1627 286.743 97.5897C286.401 98.0168 286.469 98.6406 286.896 98.9832C287.323 99.3257 287.946 99.2572 288.288 98.8302Z" fill="white"/>
<path d="M292.059 102.854C293.884 100.577 293.519 97.2496 291.244 95.4226C288.969 93.5957 285.645 93.9609 283.819 96.2384C281.994 98.5158 282.359 101.843 284.634 103.67C286.91 105.497 290.234 105.132 292.059 102.854Z" stroke="black" stroke-width="1.4154" stroke-miterlimit="10" stroke-linecap="round"/>
<path d="M222.867 66.2418C193.866 82.8573 189.905 138.085 233.902 156.73C242.202 159.657 246.446 153.143 242.862 149.744C235.364 144.599 225.32 133.554 225.367 118.732C235.741 120.148 251.775 119.062 260.074 111.746C259.225 108.961 259.65 107.261 259.886 105.468C254.415 100.7 250.737 93.5253 251.492 83.5182" fill="white"/>
<path d="M222.867 66.2418C193.866 82.8573 189.905 138.085 233.902 156.73C242.202 159.657 246.446 153.143 242.862 149.744C235.364 144.599 225.32 133.554 225.367 118.732C235.741 120.148 251.775 119.062 260.074 111.746C259.225 108.961 259.65 107.261 259.886 105.468C254.415 100.7 250.737 93.5253 251.492 83.5182" stroke="black" stroke-width="1.4154" stroke-miterlimit="10" stroke-linecap="round" stroke-linejoin="round"/>
<path d="M301.667 83.1878C301.667 83.1878 307.938 80.7804 315.625 83.3294" stroke="black" stroke-width="1.4154" stroke-miterlimit="10" stroke-linecap="round"/>
<path d="M278.088 109.48C277.003 111.746 274.268 112.69 272.005 111.604C269.741 110.518 268.798 107.781 269.883 105.515" stroke="black" stroke-width="1.4154" stroke-miterlimit="10" stroke-linecap="round" stroke-linejoin="round"/>
<path d="M269.836 105.562L262.856 101.267C268.987 105.043 263.988 110.991 268.657 112.831L271.062 111.038" stroke="black" stroke-width="1.4154" stroke-miterlimit="10" stroke-linecap="round" stroke-linejoin="round"/>
<path d="M272.524 111.604L275.117 106.129L277.664 106.176L275.117 106.129L273.561 104.382" stroke="black" stroke-width="1.4154" stroke-miterlimit="10" stroke-linecap="round" stroke-linejoin="round"/>
<path d="M242.72 151.68C263.375 156.919 275.919 177.972 270.637 198.647" stroke="black" stroke-width="1.4154" stroke-miterlimit="10" stroke-linecap="round"/>
<path d="M233.76 152.813C253.425 161.073 262.715 183.731 254.462 203.415C252.482 207.002 259.131 210.023 259.461 201.857C267.713 182.173 258.424 159.516 238.759 151.255L233.76 152.813Z" fill="white" stroke="black" stroke-width="1.4154" stroke-miterlimit="10" stroke-linecap="round" stroke-linejoin="round"/>
<path d="M238.382 150.122C259.65 148.753 278.041 164.897 279.409 186.233C279.22 190.339 286.482 190.056 283.228 182.645C281.861 161.356 263.47 145.166 242.202 146.535L238.382 150.122Z" fill="white" stroke="black" stroke-width="1.4154" stroke-miterlimit="10" stroke-linecap="round" stroke-linejoin="round"/>
<path d="M233.006 156.825C242.06 164.755 241.825 179.813 232.487 190.528C230.365 193.596 235.364 196.192 237.675 190.009C247.012 179.341 247.248 164.236 238.193 156.306L233.006 156.825Z" fill="white" stroke="black" stroke-width="1.4154" stroke-miterlimit="10" stroke-linecap="round" stroke-linejoin="round"/>
<path d="M270.637 199.544C271.106 199.544 271.486 199.163 271.486 198.694C271.486 198.225 271.106 197.844 270.637 197.844C270.169 197.844 269.789 198.225 269.789 198.694C269.789 199.163 270.169 199.544 270.637 199.544Z" fill="black" stroke="black" stroke-width="1.4154" stroke-miterlimit="10" stroke-linecap="round" stroke-linejoin="round"/>
<path d="M271.819 184.241C272.194 183.958 272.269 183.426 271.987 183.051C271.706 182.676 271.173 182.601 270.799 182.883C270.424 183.165 270.349 183.697 270.631 184.072C270.913 184.447 271.445 184.523 271.819 184.241Z" fill="black" stroke="black" stroke-width="1.4154" stroke-miterlimit="10" stroke-linecap="round" stroke-linejoin="round"/>
<path d="M237.109 159.421C241.38 159.421 244.842 155.955 244.842 151.68C244.842 147.404 241.38 143.938 237.109 143.938C232.837 143.938 229.375 147.404 229.375 151.68C229.375 155.955 232.837 159.421 237.109 159.421Z" fill="white" stroke="black" stroke-width="1.4154" stroke-miterlimit="10" stroke-linecap="round" stroke-linejoin="round"/>
<path d="M230.884 109.669C231.733 113.587 229.234 117.457 225.32 118.307Z" fill="white"/>
<path d="M230.884 109.669C231.733 113.587 229.234 117.457 225.32 118.307" stroke="black" stroke-width="1.4154" stroke-miterlimit="10" stroke-linecap="round" stroke-linejoin="round"/>
<path d="M294.027 115.852C285.256 115.852 277.57 121.942 276.579 131.288L268.798 138.085C272.052 141.484 277.428 141.625 280.871 138.368C283.134 136.197 283.983 133.034 283.276 130.202C284.69 126.804 287.661 124.774 291.575 124.774C297.328 124.774 299.969 130.108 299.969 135.111C299.922 137.802 304.402 138.935 304.543 134.498C304.543 126.379 298.649 120.478 291.387 120.478C291.198 120.478 291.009 120.478 290.821 120.478C291.858 120.195 292.943 120.101 294.075 120.101C301.478 120.101 307.514 126.096 307.514 133.554V133.837C307.986 137.047 311.758 136.527 311.758 133.554C311.664 123.783 303.742 115.852 294.027 115.852Z" fill="white" stroke="black" stroke-width="1.4154" stroke-miterlimit="10" stroke-linecap="round" stroke-linejoin="round"/>
<path d="M272.712 132.09C280.257 129.825 288.698 131.949 292.707 136.764C296.243 140.54 291.15 144.41 288.793 139.785C286.623 136.905 282.851 134.97 278.277 136.764C278.56 138.557 277.381 140.776 275.73 141.673C273.231 142.994 270.166 142.05 268.845 139.596C267.525 137.141 268.185 133.412 272.712 132.09Z" fill="white" stroke="black" stroke-width="1.4154" stroke-miterlimit="10" stroke-linecap="round" stroke-linejoin="round"/>
<path d="M282.191 125.151C285.398 121.753 288.746 120.384 292.613 120.431" stroke="black" stroke-width="1.4154" stroke-miterlimit="10" stroke-linecap="round" stroke-linejoin="round"/>
<path d="M182.171 158.335C189.245 161.781 193.96 169.145 193.63 175.376C193.63 180.568 187.311 179.907 188.726 174.904C189.103 171.316 187.689 167.304 183.067 165.51C182.03 167.021 179.672 167.823 177.88 167.351C175.145 166.596 173.541 163.858 174.249 161.12C174.956 158.383 177.927 156.211 182.171 158.335Z" fill="white" stroke="black" stroke-width="1.4154" stroke-miterlimit="10" stroke-linecap="round" stroke-linejoin="round"/>
<path d="M264.21 166.196C264.584 165.914 264.659 165.381 264.378 165.006C264.096 164.631 263.564 164.556 263.189 164.838C262.814 165.12 262.739 165.653 263.021 166.028C263.303 166.403 263.835 166.478 264.21 166.196Z" fill="black" stroke="black" stroke-width="1.4154" stroke-miterlimit="10" stroke-linecap="round" stroke-linejoin="round"/>
</svg>
