<?xml version="1.0" encoding="utf-8"?>
<!-- Generator: Adobe Illustrator 21.1.0, SVG Export Plug-In . SVG Version: 6.00 Build 0)  -->
<svg version="1.1" id="Слой_2" xmlns="http://www.w3.org/2000/svg" xmlns:xlink="http://www.w3.org/1999/xlink" x="0px" y="0px"
	 viewBox="0 0 841.9 595.3" style="enable-background:new 0 0 841.9 595.3;" xml:space="preserve">
<style type="text/css">
	.st0{fill:#736357;}
	.st1{fill:none;stroke:#000000;stroke-width:3;stroke-miterlimit:10;}
	.st2{stroke:#000000;stroke-width:3;stroke-miterlimit:10;}
	.st3{fill:none;stroke:#000000;stroke-width:3;stroke-linecap:round;stroke-miterlimit:10;}
	.st4{clip-path:url(#SVGID_2_);}
</style>
<path class="st0" d="M346.1,180.5C346.1,180.5,346.1,180.5,346.1,180.5c0,0.4,0,0.8-0.1,1.2C346.1,181.3,346.1,180.9,346.1,180.5z"
	/>
<path class="st0" d="M345.9,181.9c0-0.1,0.1-0.2,0.1-0.3C346,181.8,346,181.9,345.9,181.9z"/>
<path class="st0" d="M341.6,183.4c0.1,0.1,0.2,0.1,0.4,0.2C341.8,183.5,341.7,183.4,341.6,183.4z"/>
<path class="st0" d="M341.3,183.1c0.1,0.1,0.2,0.2,0.3,0.2C341.5,183.3,341.4,183.2,341.3,183.1z"/>
<path class="st0" d="M341.1,182.9c0.1,0.1,0.2,0.2,0.3,0.3C341.2,183.1,341.1,183,341.1,182.9z"/>
<path class="st0" d="M340.8,182.6c0.1,0.1,0.1,0.2,0.2,0.3C341,182.8,340.9,182.7,340.8,182.6z"/>
<path class="st0" d="M340.7,182.2c0,0.1,0.1,0.2,0.2,0.3C340.8,182.5,340.7,182.4,340.7,182.2L340.7,182.2z"/>
<path class="st1" d="M575.6,287.7c-6.5,0-11.7,5.3-11.7,11.7c0,6.5,5.2,11.7,11.7,11.7c6.5,0,11.7-5.2,11.7-11.7
	C587.3,292.9,582.1,287.7,575.6,287.7z"/>
<path class="st1" d="M577.2,295.1c0,0-0.1,0.1-0.1,0.1"/>
<path class="st1" d="M572.7,294.2c-0.8-1.8,0-4.4,2.6-4.4c1.8,0,2.8,1.3,2.9,2.7"/>
<path class="st1" d="M574.9,295.8c-0.1,0-0.1,0-0.2,0"/>
<path class="st2" d="M578.1,292.5C578.1,292.5,578.1,292.5,578.1,292.5c0,0.4,0,0.8-0.1,1.1c0,0.1,0,0.2-0.1,0.3
	c-0.2,0.4-0.4,0.8-0.7,1.1c0,0-0.1,0.1-0.1,0.1c-0.5,0.4-1.1,0.6-1.9,0.6c-0.1,0-0.3,0-0.4,0c-0.1,0-0.1,0-0.2,0
	c-0.3,0-0.5-0.1-0.7-0.2c-0.1-0.1-0.2-0.1-0.4-0.2c-0.1-0.1-0.2-0.1-0.3-0.2c-0.1-0.1-0.2-0.2-0.3-0.3c0,0,0,0,0,0
	c-0.1-0.1-0.1-0.2-0.2-0.3c-0.1-0.1-0.1-0.2-0.2-0.3l0,0c-0.8,0.9-1.3,2.1-1.3,3.4c0,3,2.4,5.4,5.3,5.4c3,0,5.4-2.4,5.4-5.4
	C582.1,295.2,580.4,293.1,578.1,292.5z"/>
<path class="st1" d="M559.9,268.8c6.3-2.7,16-4.6,19.1-2.9c2.9,1.5-8,11.7-9.9,13.4c-0.2,0.2-0.3,0.3-0.3,0.3"/>
<path class="st3" d="M581.5,284.3c5.8-3.5,14-5.5,17.7-4.2c3,2-6.8,8.8-6.8,8.8"/>
<path class="st3" d="M350.8,330c0,0,1.1,54.7-64.4,96.7c-1.7,1.1-3.5,2.2-5.3,3.3c-0.3,0.2-0.6,0.3-0.8,0.5
	c-0.3,0.1-0.5,0.3-0.8,0.4c-1.9,1.1-4-0.9-3.5-2.6c0.1-0.3,0.3-0.6,0.6-0.9c1.5-1.4,3-2.7,4.5-4c35.9-32.7,50.1-60.1,50.8-97"/>
<path class="st3" d="M595.8,291.7c51.4-23.4,178.2-70.3,202.2-79.2c0.8-0.3,1.1-1.1,1-1.8c-0.1-0.5-0.4-0.9-1-1.1
	c-52.7-19.1-138.1-30.4-209.4-14.7"/>
<path class="st3" d="M563.9,257.3c22.3-11.5,112.6-46,235.1-46.6"/>
<path class="st3" d="M236.8,433.4c12.1-6.7,30.7-16.4,43.7-10.6"/>
<path class="st3" d="M240.4,439.7c9.7-6.3,27.9-15.9,35.1-11.5"/>
<path class="st3" d="M283.7,448.6c3.2-5.9,6.6-15.1,2.8-21.6"/>
<path class="st3" d="M274.9,453.2c5.5-9.1,9.8-17.6,6.5-22.6"/>
<path class="st3" d="M243.6,469c13.2-8.7,29.2-22.4,36.9-38.1"/>
<path class="st3" d="M238.6,464.5c14.3-8.7,31.1-25.8,36.3-35.7"/>
<path class="st3" d="M122.2,369.5c8.7-10.2,31.8-33.4,30-48.7"/>
<path class="st3" d="M115,368.1c12.5-14.1,31.3-32.8,31.5-44.8c0-0.1,0-0.2,0-0.3"/>
<path class="st3" d="M104.1,324.1C104.1,324.1,104.1,324.1,104.1,324.1c15.2-7.2,35-12.7,40.5-5.4"/>
<path class="st3" d="M66.8,365.4c24.3-22.2,55.4-39,77.8-46.6"/>
<path class="st3" d="M69.1,370.5c30.2-24.5,53.6-37.2,77.5-47.3c0.4-0.2,0.8-0.3,1.1-0.5"/>
<path class="st3" d="M622.8,132.8c-23,8.3-62,23.9-73.5,17.1"/>
<path class="st3" d="M628.3,124.3c-20.2,7.4-64.5,25.5-72.6,21h0"/>
<path class="st3" d="M580.1,102.8L580.1,102.8c-17.2,13.6-34.9,28.1-32.7,37.8"/>
<path class="st3" d="M637.2,105.2c-25.1,6.7-47.3,14.6-76.6,31.9"/>
<path class="st3" d="M637.2,111c-20.3,6.3-51.1,18.8-75.6,30.7"/>
<path class="st3" d="M597.7,101.9c-15.5,7.7-47.8,24.5-47.8,39.2"/>
<path class="st3" d="M598.1,101.8c-0.1,0.1-0.2,0.1-0.4,0.2"/>
<path class="st3" d="M609.7,101.8c-25.3,13.9-48.1,25.4-52.4,35.8"/>
<path class="st3" d="M549.7,313.8c1.7-12,4.4-24.8,8.1-38.1c0.6-2.3,1.3-4.6,2-6.9c1.1-3.8,2.3-7.7,3.6-11.6
	c6.6-20.2,15.2-41.3,25.2-62.3c10-21,21.6-42,34.1-62.1h0c1.8-2.9,3.6-5.7,5.5-8.6c2.9-4.5,5.9-8.9,8.9-13.3c0.5-0.7,1-1.4,1.5-2.1
	c1.1-1.6,0.7-3.6-0.6-4.7c-0.5-0.4-1-0.7-1.7-0.8c-5.3-0.9-14.4-1.6-26.6-1.6c-3.7,0-7.7,0-12,0.2c0,0,0,0,0,0
	c-5.4,0.2-11.3,0.4-17.6,0.8c-3.3,0.2-6.6,0.5-10.1,0.8c-101.6,8.4-292.8,51.2-453.2,207.9c-4.3,4.2-8.5,8.4-12.7,12.7
	c-11.2,11.5-22.3,23.6-33.1,36.3c-1.4,1.6-2.8,3.3-4.2,5c-1.9,3-0.4,5.8,2.2,6c0.3,0,0.7,0,1.1-0.1c19.9-4.4,34.5-5.1,44.9-3.1
	c2.6,0.5,4.9,1.1,7,1.9c44.3,16.9-17.5,101.3-26.2,120.4c-0.8,2.2-0.2,4.1,1.2,5.2c1.3,1.1,3.3,1.3,5.4,0.2
	c91.2-69.1,124.2-75.5,134.4-62.5c1.4,1.8,2.4,4,3,6.5c1.7,6.8,0.7,15.5-1,23.7c-0.1,0.3-0.1,0.6-0.2,0.9c-0.6,4.1,2.2,5,5,4.6
	c0.8-0.1,1.7-0.4,2.4-0.7"/>
<path class="st3" d="M507.8,266.2c16.5,2.1,33.7,4.8,50.1,9.5c3.8,1.1,7.5,2.3,11.2,3.6c4.2,1.5,8.4,3.2,12.5,5h0
	c3.6,1.6,7,3.4,10.4,5.3c1.3,0.7,2.5,1.5,3.8,2.2c6,3.7,11.6,7.8,16.8,12.6c0,0,0,0,0,0"/>
<path class="st3" d="M455.6,329.3c25.3-5.2,50.4-14.6,76.1-29.2"/>
<path class="st3" d="M294.7,316.9c6.3,1.7,12.5,3.4,18.6,4.9c6.3,1.5,12.5,3,18.6,4.2c6.4,1.3,12.7,2.5,18.9,3.5
	c36.4,6,70.7,6.7,104.8-0.3"/>
<path class="st3" d="M520.1,283.2c2.7,5.9,6.6,11.7,11.6,17c4.9,5.1,10.8,9.8,17.5,13.5c0.1,0.1,0.3,0.2,0.4,0.2
	c16.4,8.9,37.9,12.4,62.2,4.4c7-2.3,14.2-5.5,21.6-9.9"/>
<path class="st3" d="M613.8,301.4c1.4-2.8,5.7-7.1,8.9-4c2,1.8,1.3,5.4,0.7,7.7c3.8-1.5,8.3-0.7,10,3.4"/>
<path class="st3" d="M611.6,317.8c-1.2-4-0.5-9.2,1-13.4c0.3-0.7,0.5-1.4,0.8-2.1"/>
<path class="st3" d="M330,300.2c0,0-99.2-37.4-179,14.1c-1.9,1.2-3.8,2.5-5.7,3.8c-0.3,0.2-0.5,0.5-0.7,0.7c-1.3,2,0.6,5.1,3.1,4
	c1.5-0.7,3.1-1.4,4.6-2c54.2-23.2,102-21.2,142.4-3.9"/>
<path class="st3" d="M495.2,292.3c-7.1-6.2-15.9-15.7-24.7-26.6c-15.1-18.9-30.1-42.1-36.3-60.5c19-17.6,71.9-45.1,106.6-60.1
	c2.5-1.1,4.9-2.1,7.2-3.1c0.7-0.3,1.3-0.5,1.9-0.8v0c2.8-1.1,5.3-2.1,7.7-3c0.2-0.1,0.4-0.1,0.6-0.2c0.9-0.3,1.7-0.4,2.3-0.3
	c1.9,0.4,2.5,2.4,1.1,4c-0.2,0.3-2.4,1.6-5.9,3.7c-2.2,1.3-4.9,2.8-8,4.7c-25.6,14.7-78.8,45.1-94.4,59.2
	c3.7,7.6,14.9,24.3,22.4,31.5c0,0,0.1,0.1,0.1,0.1"/>
<path class="st3" d="M465.7,239.2c3.6,0.3,6.9,0.8,9.9,1.6c23.3,5.9,31.1,25.1,31.1,25.1c0,0,0,0.1,0,0.1
	c-1.7,9.5-6.1,18.4-11.6,26.4c-13.9,20.2-26.3,29.4-39.6,37"/>
<path class="st3" d="M246,468.3c9.7-5,19.3-10.1,29-15.1l0,0c2.9-1.5,5.9-3.1,8.8-4.6v0c88-46,175.8-91.9,265.5-134.9"/>
<path class="st3" d="M313.3,321.8c-63.3,32.3-131.6,81-215.7,173.5c-0.1,0.1-0.3,0.1-0.4,0.1c-0.2-0.1-0.3-0.3-0.2-0.6
	c15.2-22.4,34.9-47.9,53.5-67.6c19.3-20.4,40.2-39.3,62.2-56.7c23.3-18.4,48.1-34.8,74-49.3c2.6-1.4,5.2-2.9,7.9-4.3
	c11.5-6.1,23.3-11.7,35.3-16.8c12.9-5.5,26.1-10.3,39.4-14.7c29.1-9.5,59.1-16.1,89.6-18.9c3.8-0.3,7.6-0.6,11.3-0.9"/>
<path class="st3" d="M116.8,311.4c15.6-3.6,27.4-5.3,33.6,2"/>
<path class="st3" d="M570.1,103.4c0,0-0.1,0.1-0.1,0.1c-20.1,15.2-32.5,30.2-29.6,40.4"/>
<path class="st3" d="M443.5,204.3c3.6,0.1,7.1,2.1,9.4,3.7c0.7,0.5,0.3,1.6-0.6,1.5c-2.4-0.4-5.7-0.8-8.3,0"/>
<path class="st3" d="M219,234.8"/>
<g>
	<defs>
		<path id="SVGID_1_" d="M568.6,103.5C467,112,275.7,154.7,115.4,311.4c15.6-3.6,27.4-5.3,33.6,2l0.6,0.9
			c79.8-51.5,179-14.1,179-14.1l0,0c12.9-5.5,26.1-10.3,39.4-14.7c29.1-9.5,59.1-16.1,89.6-18.9c3.8-0.3,7.6-0.6,11.3-0.8l0.1-0.1
			c-15.1-18.9-30.1-42.1-36.3-60.5c19-17.6,71.9-45.1,106.6-60.1l-0.4-1C536,133.7,548.5,118.7,568.6,103.5z"/>
	</defs>
	<clipPath id="SVGID_2_">
		<use xlink:href="#SVGID_1_"  style="overflow:visible;"/>
	</clipPath>
	<g class="st4">
		<path class="st3" d="M369.5,281.8c-7.8,1.2-13.1,8.9-11.8,17.2"/>
		<path class="st3" d="M371.6,336"/>
		<path class="st3" d="M371.8,323.3c-6,0.1-9-2.3-9-2.3"/>
		<path class="st3" d="M355.8,319.3c-0.5,5.4-6.1,7-6.1,7"/>
		<path class="st3" d="M351.6,306.3c0.3-6.9-6.1-7.1-6.1-7.1"/>
		<path class="st3" d="M344.2,290.6c4.2-4.4,4.4-8.2,4.4-8.2"/>
		<path class="st3" d="M379.7,297.1c-6.1-6.6-14.2-2.9-14.2-2.9"/>
		<path class="st3" d="M334.3,317.9c1,8.9,9.7,10.7,9.7,10.7"/>
		<path class="st3" d="M345.2,314.6c8.8,1.5,13-6.3,13-6.3"/>
		<path class="st3" d="M368.3,313.9c-5-5.1-0.7-9.3-0.7-9.3"/>
		<path class="st3" d="M383.3,288.2c3.6-7.9-3.7-17.1-10.7-17.9"/>
		<path class="st3" d="M368.5,337.5c-5.4-5.8-14.7-5.8-20.9,0"/>
		<path class="st3" d="M388.2,301.1c-8.8,3.4-9.2,13.8-4.3,20.4"/>
		<path class="st3" d="M336.1,310.1c4.7-6,0.9-17.5-5.7-20.1"/>
		<path class="st3" d="M364,276.6c-5.8,4.2-9.3-0.7-9.3-0.7"/>
		<path class="st3" d="M329.4,303.2c-3.1,5.1-6.9,6.3-6.9,6.3"/>
		<path class="st3" d="M397.4,309.5c-4.8,5.4-9.2,1.3-9.2,1.3"/>
		<path class="st3" d="M415.9,323.1c-7.8,1.2-13.1,8.9-11.8,17.2"/>
		<path class="st3" d="M390.7,331.9c4.2-4.4,4.4-8.2,4.4-8.2"/>
		<path class="st3" d="M426.1,338.4c-6.1-6.6-14.2-2.9-14.2-2.9"/>
		<path class="st3" d="M429.8,329.5c3.6-7.9-3.7-17.1-10.7-17.9"/>
		<path class="st3" d="M410.4,317.9c-5.8,4.2-9.3-0.7-9.3-0.7"/>
		<path class="st3" d="M289.6,305.5"/>
		<path class="st3" d="M289.2,318.3c6,0,9,2.5,9,2.5"/>
		<path class="st3" d="M305.1,322.5c0.6-5.4,6.2-6.9,6.2-6.9"/>
		<path class="st3" d="M309.1,335.6c-0.4,6.9,6,7.2,6,7.2"/>
		<path class="st3" d="M326.6,324.2c-0.9-8.9-9.5-10.9-9.5-10.9"/>
		<path class="st3" d="M315.6,327.4c-8.8-1.6-13.1,6.1-13.1,6.1"/>
		<path class="st3" d="M292.6,327.7c5,5.2,0.6,9.3,0.6,9.3"/>
		<path class="st3" d="M292.8,304.1c5.3,5.8,14.6,6,20.9,0.4"/>
		<path class="st3" d="M272.5,340.2c8.8-3.2,9.5-13.6,4.6-20.3"/>
		<path class="st3" d="M331.2,339c3.2-5.1,7-6.2,7-6.2"/>
		<path class="st3" d="M263.4,331.7c4.8-5.3,9.3-1.2,9.3-1.2"/>
		<path class="st3" d="M336.8,165.1c-7.8,1.2-13.1,8.9-11.8,17.2"/>
		<path class="st3" d="M339,219.4"/>
		<path class="st3" d="M339.1,206.6c-6,0.1-9-2.3-9-2.3"/>
		<path class="st3" d="M323.1,202.6c-0.5,5.4-6.1,7-6.1,7"/>
		<path class="st3" d="M319,189.6c0.3-6.9-6.1-7.1-6.1-7.1"/>
		<path class="st3" d="M311.6,173.9c4.2-4.4,4.4-8.2,4.4-8.2"/>
		<path class="st3" d="M347,180.5c-6.1-6.6-14.2-2.9-14.2-2.9"/>
		<path class="st3" d="M301.6,201.3c1,8.9,9.7,10.7,9.7,10.7"/>
		<path class="st3" d="M312.6,197.9c8.8,1.5,13-6.3,13-6.3"/>
		<path class="st3" d="M335.6,197.3c-5-5.1-0.7-9.3-0.7-9.3"/>
		<path class="st3" d="M350.6,171.6c3.6-7.9-3.7-17.1-10.7-17.9"/>
		<path class="st3" d="M335.8,220.8c-5.4-5.8-14.7-5.8-20.9,0"/>
		<path class="st3" d="M355.5,184.4c-8.8,3.4-9.2,13.8-4.3,20.4"/>
		<path class="st3" d="M303.4,193.4c4.7-6,0.9-17.5-5.7-20.1"/>
		<path class="st3" d="M331.3,159.9c-5.8,4.2-9.3-0.7-9.3-0.7"/>
		<path class="st3" d="M296.8,186.6c-3.1,5.1-6.9,6.3-6.9,6.3"/>
		<path class="st3" d="M364.7,192.8c-4.8,5.4-9.2,1.3-9.2,1.3"/>
		<path class="st3" d="M383.3,206.5c-7.8,1.2-13.1,8.9-11.8,17.2"/>
		<path class="st3" d="M385.4,260.7"/>
		<path class="st3" d="M385.6,247.9c-6,0.1-9-2.3-9-2.3"/>
		<path class="st3" d="M369.6,243.9c-0.5,5.4-6.1,7-6.1,7"/>
		<path class="st3" d="M365.4,230.9c0.3-6.9-6.1-7.1-6.1-7.1"/>
		<path class="st3" d="M358,215.2c4.2-4.4,4.4-8.2,4.4-8.2"/>
		<path class="st3" d="M393.5,221.8c-6.1-6.6-14.2-2.9-14.2-2.9"/>
		<path class="st3" d="M348.1,242.6c1,8.9,9.7,10.7,9.7,10.7"/>
		<path class="st3" d="M359,239.2c8.8,1.5,13-6.3,13-6.3"/>
		<path class="st3" d="M382.1,238.6c-5-5.1-0.7-9.3-0.7-9.3"/>
		<path class="st3" d="M397.1,212.9c3.6-7.9-3.7-17.1-10.7-17.9"/>
		<path class="st3" d="M382.3,262.1c-5.4-5.8-14.7-5.8-20.9,0"/>
		<path class="st3" d="M402,225.8c-8.8,3.4-9.2,13.8-4.3,20.4"/>
		<path class="st3" d="M349.9,234.8c4.7-6,0.9-17.5-5.7-20.1"/>
		<path class="st3" d="M377.8,201.2c-5.8,4.2-9.3-0.7-9.3-0.7"/>
		<path class="st3" d="M343.2,227.9c-3.1,5.1-6.9,6.3-6.9,6.3"/>
		<path class="st3" d="M411.2,234.1c-4.8,5.4-9.2,1.3-9.2,1.3"/>
		<path class="st3" d="M304,285.1c7.8-1.1,13.2-8.7,12.1-17"/>
		<path class="st3" d="M302.7,230.9"/>
		<path class="st3" d="M302.3,243.6c6,0,9,2.5,9,2.5"/>
		<path class="st3" d="M318.3,247.9c0.6-5.4,6.2-6.9,6.2-6.9"/>
		<path class="st3" d="M322.2,261c-0.4,6.9,6,7.2,6,7.2"/>
		<path class="st3" d="M329.4,276.7c-4.2,4.3-4.5,8.2-4.5,8.2"/>
		<path class="st3" d="M294,269.7c6,6.7,14.1,3.1,14.1,3.1"/>
		<path class="st3" d="M339.8,249.6c-0.9-8.9-9.5-10.9-9.5-10.9"/>
		<path class="st3" d="M328.8,252.7c-8.8-1.6-13.1,6.1-13.1,6.1"/>
		<path class="st3" d="M305.7,253c5,5.2,0.6,9.3,0.6,9.3"/>
		<path class="st3" d="M290.3,278.5c-3.8,7.8,3.4,17.1,10.4,18.1"/>
		<path class="st3" d="M305.9,229.5c5.3,5.8,14.6,6,20.9,0.4"/>
		<path class="st3" d="M285.6,265.5c8.8-3.2,9.5-13.6,4.6-20.3"/>
		<path class="st3" d="M337.8,257.4c-4.8,6-1.2,17.4,5.4,20.2"/>
		<path class="st3" d="M309.4,290.5c5.8-4.1,9.3,0.8,9.3,0.8"/>
		<path class="st3" d="M344.4,264.4c3.2-5.1,7-6.2,7-6.2"/>
		<path class="st3" d="M276.5,257.1c4.8-5.3,9.3-1.2,9.3-1.2"/>
		<path class="st3" d="M258.2,243.1c7.8-1.1,13.2-8.7,12.1-17"/>
		<path class="st3" d="M256.9,188.9"/>
		<path class="st3" d="M256.5,201.6c6,0,9,2.5,9,2.5"/>
		<path class="st3" d="M272.5,205.8c0.6-5.4,6.2-6.9,6.2-6.9"/>
		<path class="st3" d="M276.5,218.9c-0.4,6.9,6,7.2,6,7.2"/>
		<path class="st3" d="M283.6,234.7c-4.2,4.3-4.5,8.2-4.5,8.2"/>
		<path class="st3" d="M248.2,227.6c6,6.7,14.1,3.1,14.1,3.1"/>
		<path class="st3" d="M294,207.5c-0.9-8.9-9.5-10.9-9.5-10.9"/>
		<path class="st3" d="M283,210.7c-8.8-1.6-13.1,6.1-13.1,6.1"/>
		<path class="st3" d="M259.9,211c5,5.2,0.6,9.3,0.6,9.3"/>
		<path class="st3" d="M244.5,236.5c-3.8,7.8,3.4,17.1,10.4,18.1"/>
		<path class="st3" d="M260.1,187.5c5.3,5.8,14.6,6,20.9,0.4"/>
		<path class="st3" d="M239.8,223.5c8.8-3.2,9.5-13.6,4.6-20.3"/>
		<path class="st3" d="M292,215.3c-4.8,6-1.2,17.4,5.4,20.2"/>
		<path class="st3" d="M263.6,248.4c5.8-4.1,9.3,0.8,9.3,0.8"/>
		<path class="st3" d="M298.6,222.3c3.2-5.1,7-6.2,7-6.2"/>
		<path class="st3" d="M230.7,215c4.8-5.3,9.3-1.2,9.3-1.2"/>
		<path class="st3" d="M491.8,218.4c-7.8,1.2-13.1,8.9-11.8,17.2"/>
		<path class="st3" d="M493.9,272.6"/>
		<path class="st3" d="M494.1,259.8c-6,0.1-9-2.3-9-2.3"/>
		<path class="st3" d="M478.1,255.9c-0.5,5.4-6.1,7-6.1,7"/>
		<path class="st3" d="M473.9,242.8c0.3-6.9-6.1-7.1-6.1-7.1"/>
		<path class="st3" d="M466.5,227.2c4.2-4.4,4.4-8.2,4.4-8.2"/>
		<path class="st3" d="M502,233.7c-6.1-6.6-14.2-2.9-14.2-2.9"/>
		<path class="st3" d="M456.6,254.5c1,8.9,9.7,10.7,9.7,10.7"/>
		<path class="st3" d="M467.5,251.1c8.8,1.5,13-6.3,13-6.3"/>
		<path class="st3" d="M490.6,250.5c-5-5.1-0.7-9.3-0.7-9.3"/>
		<path class="st3" d="M505.6,224.8c3.6-7.9-3.7-17.1-10.7-17.9"/>
		<path class="st3" d="M490.8,274c-5.4-5.8-14.7-5.8-20.9,0"/>
		<path class="st3" d="M510.5,237.7c-8.8,3.4-9.2,13.8-4.3,20.4"/>
		<path class="st3" d="M458.4,246.7c4.7-6,0.9-17.5-5.7-20.1"/>
		<path class="st3" d="M486.3,213.1c-5.8,4.2-9.3-0.7-9.3-0.7"/>
		<path class="st3" d="M451.7,239.8c-3.1,5.1-6.9,6.3-6.9,6.3"/>
		<path class="st3" d="M519.7,246c-4.8,5.4-9.2,1.3-9.2,1.3"/>
		<path class="st3" d="M504.8,288c4.7-6,0.9-17.5-5.7-20.1"/>
		<path class="st3" d="M498.2,281.1c-3.1,5.1-6.9,6.3-6.9,6.3"/>
		<path class="st3" d="M457.7,284.1"/>
		<path class="st3" d="M460.8,282.7c5.3,5.8,14.6,6,20.9,0.4"/>
		<path class="st3" d="M440.6,318.8c8.8-3.2,9.5-13.6,4.6-20.3"/>
		<path class="st3" d="M431.5,310.3c4.8-5.3,9.3-1.2,9.3-1.2"/>
		<path class="st3" d="M413.2,296.3c7.8-1.1,13.2-8.7,12.1-17"/>
		<path class="st3" d="M411.9,242.1"/>
		<path class="st3" d="M411.5,254.8c6,0,9,2.5,9,2.5"/>
		<path class="st3" d="M427.4,259.1c0.6-5.4,6.2-6.9,6.2-6.9"/>
		<path class="st3" d="M431.4,272.1c-0.4,6.9,6,7.2,6,7.2"/>
		<path class="st3" d="M438.5,287.9c-4.2,4.3-4.5,8.2-4.5,8.2"/>
		<path class="st3" d="M403.2,280.8c6,6.7,14.1,3.1,14.1,3.1"/>
		<path class="st3" d="M448.9,260.7c-0.9-8.9-9.5-10.9-9.5-10.9"/>
		<path class="st3" d="M437.9,263.9c-8.8-1.6-13.1,6.1-13.1,6.1"/>
		<path class="st3" d="M414.9,264.2c5,5.2,0.6,9.3,0.6,9.3"/>
		<path class="st3" d="M399.4,289.7c-3.8,7.8,3.4,17.1,10.4,18.1"/>
		<path class="st3" d="M415.1,240.7c5.3,5.8,14.6,6,20.9,0.4"/>
		<path class="st3" d="M394.8,276.7c8.8-3.2,9.5-13.6,4.6-20.3"/>
		<path class="st3" d="M447,268.6c-4.8,6-1.2,17.4,5.4,20.2"/>
		<path class="st3" d="M418.6,301.7c5.8-4.1,9.3,0.8,9.3,0.8"/>
		<path class="st3" d="M453.5,275.6c3.2-5.1,7-6.2,7-6.2"/>
		<path class="st3" d="M385.7,268.2c4.8-5.3,9.3-1.2,9.3-1.2"/>
		<path class="st3" d="M461.6,99.8c-7.8,1.2-13.1,8.9-11.8,17.2"/>
		<path class="st3" d="M463.8,154"/>
		<path class="st3" d="M464,141.3c-6,0.1-9-2.3-9-2.3"/>
		<path class="st3" d="M447.9,137.3c-0.5,5.4-6.1,7-6.1,7"/>
		<path class="st3" d="M443.8,124.3c0.3-6.9-6.1-7.1-6.1-7.1"/>
		<path class="st3" d="M436.4,108.6c4.2-4.4,4.4-8.2,4.4-8.2"/>
		<path class="st3" d="M471.9,115.2c-6.1-6.6-14.2-2.9-14.2-2.9"/>
		<path class="st3" d="M426.4,136c1,8.9,9.7,10.7,9.7,10.7"/>
		<path class="st3" d="M437.4,132.6c8.8,1.5,13-6.3,13-6.3"/>
		<path class="st3" d="M460.4,132c-5-5.1-0.7-9.3-0.7-9.3"/>
		<path class="st3" d="M475.5,106.3c3.6-7.9-3.7-17.1-10.7-17.9"/>
		<path class="st3" d="M460.6,155.5c-5.4-5.8-14.7-5.8-20.9,0"/>
		<path class="st3" d="M480.3,119.1c-8.8,3.4-9.2,13.8-4.3,20.4"/>
		<path class="st3" d="M428.2,128.1c4.7-6,0.9-17.5-5.7-20.1"/>
		<path class="st3" d="M456.1,94.6c-5.8,4.2-9.3-0.7-9.3-0.7"/>
		<path class="st3" d="M421.6,121.2c-3.1,5.1-6.9,6.3-6.9,6.3"/>
		<path class="st3" d="M489.6,127.5c-4.8,5.4-9.2,1.3-9.2,1.3"/>
		<path class="st3" d="M508.1,141.1c-7.8,1.2-13.1,8.9-11.8,17.2"/>
		<path class="st3" d="M510.3,195.4"/>
		<path class="st3" d="M510.4,182.6c-6,0.1-9-2.3-9-2.3"/>
		<path class="st3" d="M494.4,178.6c-0.5,5.4-6.1,7-6.1,7"/>
		<path class="st3" d="M490.2,165.6c0.3-6.9-6.1-7.1-6.1-7.1"/>
		<path class="st3" d="M482.9,149.9c4.2-4.4,4.4-8.2,4.4-8.2"/>
		<path class="st3" d="M518.3,156.5c-6.1-6.6-14.2-2.9-14.2-2.9"/>
		<path class="st3" d="M472.9,177.3c1,8.9,9.7,10.7,9.7,10.7"/>
		<path class="st3" d="M483.8,173.9c8.8,1.5,13-6.3,13-6.3"/>
		<path class="st3" d="M506.9,173.3c-5-5.1-0.7-9.3-0.7-9.3"/>
		<path class="st3" d="M521.9,147.6c3.6-7.9-3.7-17.1-10.7-17.9"/>
		<path class="st3" d="M507.1,196.8c-5.4-5.8-14.7-5.8-20.9,0"/>
		<path class="st3" d="M526.8,160.4c-8.8,3.4-9.2,13.8-4.3,20.4"/>
		<path class="st3" d="M474.7,169.4c4.7-6,0.9-17.5-5.7-20.1"/>
		<path class="st3" d="M502.6,135.9c-5.8,4.2-9.3-0.7-9.3-0.7"/>
		<path class="st3" d="M468.1,162.6c-3.1,5.1-6.9,6.3-6.9,6.3"/>
		<path class="st3" d="M536,168.8c-4.8,5.4-9.2,1.3-9.2,1.3"/>
		<path class="st3" d="M428.8,219.8c7.8-1.1,13.2-8.7,12.1-17"/>
		<path class="st3" d="M427.5,165.6"/>
		<path class="st3" d="M427.2,178.3c6,0,9,2.5,9,2.5"/>
		<path class="st3" d="M443.1,182.6c0.6-5.4,6.2-6.9,6.2-6.9"/>
		<path class="st3" d="M447.1,195.6c-0.4,6.9,6,7.2,6,7.2"/>
		<path class="st3" d="M454.2,211.4c-4.2,4.3-4.5,8.2-4.5,8.2"/>
		<path class="st3" d="M418.8,204.3c6,6.7,14.1,3.1,14.1,3.1"/>
		<path class="st3" d="M464.6,184.3c-0.9-8.9-9.5-10.9-9.5-10.9"/>
		<path class="st3" d="M453.6,187.4c-8.8-1.6-13.1,6.1-13.1,6.1"/>
		<path class="st3" d="M430.5,187.7c5,5.2,0.6,9.3,0.6,9.3"/>
		<path class="st3" d="M415.1,213.2c-3.8,7.8,3.4,17.1,10.4,18.1"/>
		<path class="st3" d="M430.7,164.2c5.3,5.8,14.6,6,20.9,0.4"/>
		<path class="st3" d="M410.4,200.2c8.8-3.2,9.5-13.6,4.6-20.3"/>
		<path class="st3" d="M462.7,192.1c-4.8,6-1.2,17.4,5.4,20.2"/>
		<path class="st3" d="M434.2,225.2c5.8-4.1,9.3,0.8,9.3,0.8"/>
		<path class="st3" d="M469.2,199.1c3.2-5.1,7-6.2,7-6.2"/>
		<path class="st3" d="M401.3,191.7c4.8-5.3,9.3-1.2,9.3-1.2"/>
		<path class="st3" d="M383,177.8c7.8-1.1,13.2-8.7,12.1-17"/>
		<path class="st3" d="M381.7,123.6"/>
		<path class="st3" d="M381.4,136.3c6,0,9,2.5,9,2.5"/>
		<path class="st3" d="M397.3,140.5c0.6-5.4,6.2-6.9,6.2-6.9"/>
		<path class="st3" d="M401.3,153.6c-0.4,6.9,6,7.2,6,7.2"/>
		<path class="st3" d="M408.4,169.4c-4.2,4.3-4.5,8.2-4.5,8.2"/>
		<path class="st3" d="M373.1,162.3c6,6.7,14.1,3.1,14.1,3.1"/>
		<path class="st3" d="M418.8,142.2c-0.9-8.9-9.5-10.9-9.5-10.9"/>
		<path class="st3" d="M407.8,145.4c-8.8-1.6-13.1,6.1-13.1,6.1"/>
		<path class="st3" d="M384.7,145.7c5,5.2,0.6,9.3,0.6,9.3"/>
		<path class="st3" d="M369.3,171.1c-3.8,7.8,3.4,17.1,10.4,18.1"/>
		<path class="st3" d="M384.9,122.2c5.3,5.8,14.6,6,20.9,0.4"/>
		<path class="st3" d="M364.6,158.2c8.8-3.2,9.5-13.6,4.6-20.3"/>
		<path class="st3" d="M416.9,150c-4.8,6-1.2,17.4,5.4,20.2"/>
		<path class="st3" d="M388.5,183.1c5.8-4.1,9.3,0.8,9.3,0.8"/>
		<path class="st3" d="M423.4,157c3.2-5.1,7-6.2,7-6.2"/>
		<path class="st3" d="M355.5,149.7c4.8-5.3,9.3-1.2,9.3-1.2"/>
		<path class="st3" d="M213.9,227.6c-7.8,1.2-13.1,8.9-11.8,17.2"/>
		<path class="st3" d="M216.1,281.8"/>
		<path class="st3" d="M216.2,269.1c-6,0.1-9-2.3-9-2.3"/>
		<path class="st3" d="M200.2,265.1c-0.5,5.4-6.1,7-6.1,7"/>
		<path class="st3" d="M196,252.1c0.3-6.9-6.1-7.1-6.1-7.1"/>
		<path class="st3" d="M188.7,236.4c4.2-4.4,4.4-8.2,4.4-8.2"/>
		<path class="st3" d="M224.1,242.9c-6.1-6.6-14.2-2.9-14.2-2.9"/>
		<path class="st3" d="M178.7,263.7c1,8.9,9.7,10.7,9.7,10.7"/>
		<path class="st3" d="M189.6,260.4c8.8,1.5,13-6.3,13-6.3"/>
		<path class="st3" d="M212.7,259.7c-5-5.1-0.7-9.3-0.7-9.3"/>
		<path class="st3" d="M227.7,234c3.6-7.9-3.7-17.1-10.7-17.9"/>
		<path class="st3" d="M212.9,283.3c-5.4-5.8-14.7-5.8-20.9,0"/>
		<path class="st3" d="M232.6,246.9c-8.8,3.4-9.2,13.8-4.3,20.4"/>
		<path class="st3" d="M180.5,255.9c4.7-6,0.9-17.5-5.7-20.1"/>
		<path class="st3" d="M208.4,222.3c-5.8,4.2-9.3-0.7-9.3-0.7"/>
		<path class="st3" d="M173.9,249c-3.1,5.1-6.9,6.3-6.9,6.3"/>
		<path class="st3" d="M241.8,255.2c-4.8,5.4-9.2,1.3-9.2,1.3"/>
		<path class="st3" d="M260.3,268.9c-7.8,1.2-13.1,8.9-11.8,17.2"/>
		<path class="st3" d="M262.5,323.1"/>
		<path class="st3" d="M262.7,310.4c-6,0.1-9-2.3-9-2.3"/>
		<path class="st3" d="M246.6,306.4c-0.5,5.4-6.1,7-6.1,7"/>
		<path class="st3" d="M242.5,293.4c0.3-6.9-6.1-7.1-6.1-7.1"/>
		<path class="st3" d="M235.1,277.7c4.2-4.4,4.4-8.2,4.4-8.2"/>
		<path class="st3" d="M270.6,284.2c-6.1-6.6-14.2-2.9-14.2-2.9"/>
		<path class="st3" d="M225.1,305.1c1,8.9,9.7,10.7,9.7,10.7"/>
		<path class="st3" d="M236.1,301.7c8.8,1.5,13-6.3,13-6.3"/>
		<path class="st3" d="M259.1,301c-5-5.1-0.7-9.3-0.7-9.3"/>
		<path class="st3" d="M274.2,275.3c3.6-7.9-3.7-17.1-10.7-17.9"/>
		<path class="st3" d="M259.3,324.6c-5.4-5.8-14.7-5.8-20.9,0"/>
		<path class="st3" d="M279,288.2c-8.8,3.4-9.2,13.8-4.3,20.4"/>
		<path class="st3" d="M226.9,297.2c4.7-6,0.9-17.5-5.7-20.1"/>
		<path class="st3" d="M254.8,263.7c-5.8,4.2-9.3-0.7-9.3-0.7"/>
		<path class="st3" d="M220.3,290.3c-3.1,5.1-6.9,6.3-6.9,6.3"/>
		<path class="st3" d="M288.3,296.6c-4.8,5.4-9.2,1.3-9.2,1.3"/>
		<path class="st3" d="M179.8,293.4"/>
		<path class="st3" d="M179.4,306.1c6,0,9,2.5,9,2.5"/>
		<path class="st3" d="M195.3,310.3c0.6-5.4,6.2-6.9,6.2-6.9"/>
		<path class="st3" d="M199.3,323.4c-0.4,6.9,6,7.2,6,7.2"/>
		<path class="st3" d="M216.8,312c-0.9-8.9-9.5-10.9-9.5-10.9"/>
		<path class="st3" d="M205.8,315.2c-8.8-1.6-13.1,6.1-13.1,6.1"/>
		<path class="st3" d="M182.8,315.5c5,5.2,0.6,9.3,0.6,9.3"/>
		<path class="st3" d="M183,292c5.3,5.8,14.6,6,20.9,0.4"/>
		<path class="st3" d="M162.7,328c8.8-3.2,9.5-13.6,4.6-20.3"/>
		<path class="st3" d="M221.4,326.8c3.2-5.1,7-6.2,7-6.2"/>
		<path class="st3" d="M153.6,319.5c4.8-5.3,9.3-1.2,9.3-1.2"/>
		<path class="st3" d="M135.3,305.6c7.8-1.1,13.2-8.7,12.1-17"/>
		<path class="st3" d="M134,251.3"/>
		<path class="st3" d="M133.6,264.1c6,0,9,2.5,9,2.5"/>
		<path class="st3" d="M149.6,268.3c0.6-5.4,6.2-6.9,6.2-6.9"/>
		<path class="st3" d="M153.5,281.4c-0.4,6.9,6,7.2,6,7.2"/>
		<path class="st3" d="M160.6,297.2c-4.2,4.3-4.5,8.2-4.5,8.2"/>
		<path class="st3" d="M125.3,290.1c6,6.7,14.1,3.1,14.1,3.1"/>
		<path class="st3" d="M171,270c-0.9-8.9-9.5-10.9-9.5-10.9"/>
		<path class="st3" d="M160.1,273.2c-8.8-1.6-13.1,6.1-13.1,6.1"/>
		<path class="st3" d="M137,273.5c5,5.2,0.6,9.3,0.6,9.3"/>
		<path class="st3" d="M121.6,298.9c-3.8,7.8,3.4,17.1,10.4,18.1"/>
		<path class="st3" d="M137.2,249.9c5.3,5.8,14.6,6,20.9,0.4"/>
		<path class="st3" d="M116.9,286c8.8-3.2,9.5-13.6,4.6-20.3"/>
		<path class="st3" d="M169.1,277.8c-4.8,6-1.2,17.4,5.4,20.2"/>
		<path class="st3" d="M140.7,310.9c5.8-4.1,9.3,0.8,9.3,0.8"/>
		<path class="st3" d="M175.6,284.8c3.2-5.1,7-6.2,7-6.2"/>
		<path class="st3" d="M107.8,277.5c4.8-5.3,9.3-1.2,9.3-1.2"/>
		<path class="st3" d="M556.9,128.5c-8.6,1.3-12.2,12.5-9,18.9"/>
		<path class="st3" d="M545.5,97c-5.4-5.7-14.7-5.7-20.9,0"/>
		<path class="st3" d="M512.7,122.5c-3.5-4.9-3.2-8.8-3.2-8.8"/>
		<path class="st3" d="M506.9,107.1c-4.7,2.6-9.3-1-9.3-1"/>
		<path class="st3" d="M515.2,96.2c5.8-3.7,2.4-9,2.4-9"/>
		<path class="st3" d="M523.9,81.3c6,1,9.3-1.1,9.3-1.1"/>
		<path class="st3" d="M535.7,117.2c1.9-8.8-5.6-13.3-5.6-13.3"/>
		<path class="st3" d="M504.8,95.7c3.8,8.1,12.6,7.1,12.6,7.1"/>
		<path class="st3" d="M519.4,123.3c1.3-7,7.3-5.9,7.3-5.9"/>
		<path class="st3" d="M544.1,114.1c8.6-1.5,12-12.7,8.7-19"/>
		<path class="st3" d="M499.1,127.8c1.7-7.7-3.6-15.4-11.8-17.2"/>
		<path class="st3" d="M546.7,89.5c-6.8-2.3-4.7-8-4.7-8"/>
		<path class="st3" d="M538.6,135.7c-7.1-0.9-6.3-6.9-6.3-6.9"/>
	</g>
</g>
<path class="st3" d="M666.3,251.7c2.6-4.6,10.8-5.8,14.3-1.2"/>
<path class="st3" d="M636.9,262c8.9-4.8,6.4-13.4,6.4-13.4"/>
<path class="st3" d="M649.6,251.3c4,3.8,2.3,9,2.3,9"/>
<path class="st3" d="M645.2,242.4c-5.9-1.4-8.2-4.5-8.2-4.5"/>
<path class="st3" d="M636.3,247.7c0.2,6.4-5.2,8.1-5.2,8.1"/>
<path class="st3" d="M664.4,256.6c-5.8,0-8-9.3-3.2-12.6"/>
<path class="st3" d="M617.2,265.6c3.4-5.1,11.7-3.1,12.7,2.5"/>
<path class="st3" d="M663.7,233.9c-1.6,5.6-11.1,5.1-13-0.3"/>
<path class="st3" d="M614.9,245.5c4.3-3.2,12.2-0.9,13.6,4.8"/>
<path class="st3" d="M642.7,271c1-5.9,4.1-8.4,4.1-8.4"/>
<path class="st3" d="M679.1,222.9c1.9,5-2.4,12-8.2,11.8"/>
<path class="st3" d="M713.3,221.8c-8.7,5.1-6,13.6-6,13.6"/>
<path class="st3" d="M701,232.9c-4.1-3.7-2.6-9-2.6-9"/>
<path class="st3" d="M703.7,238.7c5.9,1.2,8.3,4.3,8.3,4.3"/>
<path class="st3" d="M684.1,225c5.8-0.2,8.2,9.1,3.6,12.5"/>
<path class="st3" d="M728.2,222.6c-0.6-6.1,7.1-9.9,11.4-6.2"/>
<path class="st3" d="M685.5,247.6c1.4-5.7,11-5.5,13-0.1"/>
<path class="st3" d="M733.9,234.6c-4.2,3.3-12.2,1.3-13.7-4.4"/>
<path class="st3" d="M681.7,239.8c-5.4,2.8-9.1,1.8-9.1,1.8"/>
<path class="st3" d="M758,226c7.5-6.8,3.1-14.5,3.1-14.5"/>
<path class="st3" d="M767.8,212.6c4.8,2.8,4.4,8.2,4.4,8.2"/>
<path class="st3" d="M754.1,212.3c1.7,6.2-3.2,9.1-3.2,9.1"/>
<path class="st3" d="M741.8,228.1c-6.4-0.7-7.3-6.3-7.3-6.3"/>
<path class="st3" d="M596.5,259.1c-4.1,3.4-12.1,1.7-13.8-3.9"/>
<path class="st3" d="M616.8,275.3c-7.6-6.6-14.8-1.3-14.8-1.3"/>
<path class="st3" d="M605.4,265.2c2.2-5.1,7.7-5.3,7.7-5.3"/>
<path class="st3" d="M606,281c5.9-2.4,9.4,2.1,9.4,2.1"/>
<path class="st3" d="M596.1,264.5c2.1,5.5-5.9,10.7-10.6,7.4"/>
<path class="st3" d="M609,251.7c-5.4,3-11.9-2.6-10.2-8"/>
<path class="st3" d="M422.6,357.4c3.8-3.8,11.9-2.8,14.1,2.7"/>
<path class="st3" d="M391.6,359.6c9.8-2.3,9.7-11.2,9.7-11.2"/>
<path class="st3" d="M406.7,352.6c2.8,4.8-0.2,9.3-0.2,9.3"/>
<path class="st3" d="M404.8,342.8c-5.3-2.9-6.7-6.5-6.7-6.5"/>
<path class="st3" d="M394.8,345.6c-1.5,6.2-7.2,6.4-7.2,6.4"/>
<path class="st3" d="M419.6,361.7c-5.6-1.5-5.2-11.1,0.2-13"/>
<path class="st3" d="M371.7,357.8c4.7-4,12.2,0.1,11.6,5.7"/>
<path class="st3" d="M424.9,339.6c-3,5-12.1,2-12.4-3.8"/>
<path class="st3" d="M374.8,337.8c5-1.9,12,2.3,11.8,8.2"/>
<path class="st3" d="M442.7,333c0.5,5.3-5.5,11-11,9.2"/>
<path class="st3" d="M476,341c-9.7,2.6-9.4,11.5-9.4,11.5"/>
<path class="st3" d="M461.1,348.4c-2.9-4.7-0.1-9.3-0.1-9.3"/>
<path class="st3" d="M446.9,336.3c5.7,1.4,5.5,10.9,0.2,13"/>
<path class="st3" d="M442.2,358.6c2.9-5.1,11.7-3.9,12.2,1.9"/>
<path class="st3" d="M440.7,350c-5.9,1.2-9.3-0.6-9.3-0.6"/>
<path class="st3" d="M360.4,354.3c3.5-4.3,8.8-3.1,8.8-3.1"/>
<path class="st3" d="M367.4,342.2c-6,1.4-10.8-5.6-7.7-10.4"/>
<path class="st3" d="M375.2,388.8c9.8-2.3,9.7-11.2,9.7-11.2"/>
<path class="st3" d="M390.3,381.9c2.8,4.8-0.2,9.3-0.2,9.3"/>
<path class="st3" d="M505.4,335c-4.7-2-4.6-6.5-4.6-6.5"/>
<path class="st3" d="M378.4,374.9c-1.5,6.2-7.2,6.4-7.2,6.4"/>
<path class="st3" d="M401.4,387.4c-2.3-2.8-1.3-8.6,1.9-9.5"/>
<path class="st3" d="M355.2,387.1c4.7-4,12.2,0.1,11.6,5.7"/>
<path class="st3" d="M408.4,368.9c-3,5-12.1,2-12.4-3.8"/>
<path class="st3" d="M358.3,367.1c5-1.9,12,2.3,11.8,8.2"/>
<path class="st3" d="M426.2,362.3c0.5,5.3-5.5,11-11,9.2"/>
<path class="st3" d="M343.9,383.6c3.5-4.3,8.8-3.1,8.8-3.1"/>
<path class="st3" d="M353,371.5c-6,1.4-10.5-5.7-8.6-11.6"/>
<path class="st3" d="M332.6,417.5c1.5-5.1,9.1-8.1,13.7-4.4"/>
<path class="st3" d="M307.4,436.2c7.5-6.7,3.2-14.5,3.2-14.5"/>
<path class="st3" d="M316.3,420.9c4.7,2.8,4.3,8.3,4.3,8.3"/>
<path class="st3" d="M474.9,334.3c-6,0-9-2.5-9-2.5"/>
<path class="st3" d="M302.5,420.5c1.6,6.2-3.2,9.1-3.2,9.1"/>
<path class="st3" d="M331.9,423.7c-4.7,0.1-8.7-5.8-6-11.5"/>
<path class="st3" d="M322,406.7c-0.2,5.8-9.7,7.6-12.7,2.7"/>
<path class="st3" d="M338.4,386.5c3,4.4,0.5,12.2-5.3,13.4"/>
<path class="st3" d="M366,396.1c6-0.2,9.1,2.2,9.1,2.2"/>
<path class="st3" d="M343.7,387.3c5.6-1.5,10.1,6.9,6.4,11.3"/>
<path class="st3" d="M350.3,409.1c0.1-5.8,9.4-7.8,12.6-3.1"/>
<path class="st3" d="M344.8,402.3c-4.6,3.9-8.5,3.9-8.5,3.9"/>
<path class="st3" d="M484.8,339.5c-5.6-1.5-5.2-11.1,0.2-13"/>
<path class="st3" d="M354.3,357.3c-2.9-4.7-0.1-9.3-0.1-9.3"/>
<path class="st3" d="M494.3,334.5c-2.9-4.7-0.1-9.3-0.1-9.3"/>
<path class="st3" d="M500.7,323.8c4.2-3.6,9.2-1.4,9.2-1.4"/>
<path class="st3" d="M524.8,318.4c-3,5-12.1,2-12.4-3.8"/>
<path class="st3" d="M530.4,308.1c-4.6,3.9-8.5,3.9-8.5,3.9"/>
<path class="st3" d="M534.5,312.4c0.6,6-1.6,9.2-1.6,9.2"/>
</svg>
