<svg width="400" height="300" viewBox="0 0 400 300" fill="none" xmlns="http://www.w3.org/2000/svg">
<path d="M278.807 152.054C303.137 140.984 363.157 118.797 374.518 114.587C374.896 114.445 375.038 114.066 374.991 113.735C374.944 113.499 374.802 113.309 374.518 113.215C349.572 104.179 309.148 98.8336 275.398 106.261" fill="white"/>
<path d="M278.807 152.054C303.137 140.984 363.157 118.797 374.518 114.587C374.896 114.445 375.038 114.066 374.991 113.735C374.944 113.499 374.802 113.309 374.518 113.215C349.572 104.179 309.148 98.8336 275.398 106.261L255 122.5L256.5 154.5L278.807 152.054Z" fill="white"/>
<path d="M278.807 152.054C303.137 140.984 363.157 118.797 374.518 114.587C374.896 114.445 375.038 114.066 374.991 113.735C374.944 113.499 374.802 113.309 374.518 113.215C349.572 104.179 309.148 98.8336 275.398 106.261" stroke="black" stroke-width="1.41962" stroke-miterlimit="10" stroke-linecap="round"/>
<path d="M278.807 152.054C303.137 140.984 363.157 118.797 374.518 114.587C374.896 114.445 375.038 114.066 374.991 113.735C374.944 113.499 374.802 113.309 374.518 113.215C349.572 104.179 309.148 98.8336 275.398 106.261L255 122.5L256.5 154.5L278.807 152.054Z" stroke="black" stroke-width="1.41962" stroke-miterlimit="10" stroke-linecap="round"/>
<path d="M258.5 163.5L253.5 160.5V142.5L261 144.5L274 149.5L282 154.5L287 158L287.5 156.5L289.5 154.5H291.5L292 156.5L291.5 158H294.5L296.5 159V160.5L289.5 163.5L283.5 166L275 167L266.5 166L258.5 163.5Z" fill="white"/>
<path d="M256.985 162.508C257.79 156.832 259.068 150.776 260.819 144.485C261.103 143.396 261.435 142.308 261.766 141.22C262.287 139.423 262.855 137.578 263.47 135.733C266.594 126.177 270.665 116.195 275.399 106.261C280.132 96.3263 285.623 86.3919 291.54 76.8833C292.392 75.5114 293.244 74.1868 294.143 72.8149C295.516 70.6861 296.936 68.6046 298.356 66.5231C298.593 66.192 298.829 65.8609 299.066 65.5297C299.587 64.7728 299.397 63.8267 298.782 63.3063C298.545 63.1171 298.309 62.9751 297.977 62.9278C295.469 62.5021 291.161 62.1709 285.386 62.1709C283.635 62.1709 281.741 62.1709 279.706 62.2655C277.15 62.3602 274.357 62.4548 271.375 62.644C269.813 62.7386 268.251 62.8805 266.594 63.0225C218.502 66.9962 127.998 87.2435 52.0723 161.373C50.0369 163.36 48.0489 165.347 46.0608 167.381C40.7593 172.821 35.5051 178.545 30.3929 184.553C29.7303 185.31 29.0676 186.114 28.4049 186.919C27.5055 188.338 28.2155 189.662 29.4462 189.757C29.5882 189.757 29.7776 189.757 29.9669 189.71C39.3866 187.628 46.2975 187.297 51.2203 188.243C52.451 188.48 53.5397 188.764 54.5338 189.142C75.5031 197.137 46.2501 237.064 42.132 246.099C41.7533 247.14 42.0373 248.039 42.7 248.559C43.3154 249.08 44.2621 249.174 45.2561 248.654C88.4256 215.965 104.046 212.937 108.874 219.087C109.537 219.939 110.01 220.979 110.294 222.162C111.099 225.379 110.626 229.495 109.821 233.374C109.774 233.516 109.774 233.658 109.726 233.8C109.442 235.739 110.768 236.165 112.093 235.976C112.472 235.928 112.898 235.786 113.229 235.644" fill="white"/>
<path d="M256.985 162.508C257.79 156.832 259.068 150.776 260.819 144.485C261.103 143.396 261.435 142.308 261.766 141.22C262.287 139.423 262.855 137.578 263.47 135.733C266.594 126.177 270.665 116.195 275.399 106.261C280.132 96.3263 285.623 86.3919 291.54 76.8833C292.392 75.5114 293.244 74.1868 294.143 72.8149C295.516 70.6861 296.936 68.6046 298.356 66.5231C298.593 66.192 298.829 65.8609 299.066 65.5297C299.587 64.7728 299.397 63.8267 298.782 63.3063C298.545 63.1171 298.309 62.9751 297.977 62.9278C295.469 62.5021 291.161 62.1709 285.386 62.1709C283.635 62.1709 281.741 62.1709 279.706 62.2655C277.15 62.3602 274.357 62.4548 271.375 62.644C269.813 62.7386 268.251 62.8805 266.594 63.0225C218.502 66.9962 127.998 87.2435 52.0723 161.373C50.0369 163.36 48.0489 165.347 46.0608 167.381C40.7593 172.821 35.5051 178.545 30.3929 184.553C29.7303 185.31 29.0676 186.114 28.4049 186.919C27.5055 188.338 28.2155 189.662 29.4462 189.757C29.5882 189.757 29.7776 189.757 29.9669 189.71C39.3866 187.628 46.2975 187.297 51.2203 188.243C52.451 188.48 53.5397 188.764 54.5338 189.142C75.5031 197.137 46.2501 237.064 42.132 246.099C41.7533 247.14 42.0373 248.039 42.7 248.559C43.3154 249.08 44.2621 249.174 45.2561 248.654C88.4256 215.965 104.046 212.937 108.874 219.087C109.537 219.939 110.01 220.979 110.294 222.162C111.099 225.379 110.626 229.495 109.821 233.374C109.774 233.516 109.774 233.658 109.726 233.8C109.442 235.739 110.768 236.165 112.093 235.976C112.472 235.928 112.898 235.786 113.229 235.644" stroke="black" stroke-width="1.41962" stroke-miterlimit="10" stroke-linecap="round"/>
<path d="M160.611 99.4486C160.611 99.6378 160.611 99.827 160.564 100.016C160.611 99.827 160.611 99.6378 160.611 99.4486Z" fill="#736357"/>
<path d="M160.517 100.111C160.517 100.064 160.564 100.016 160.564 99.969C160.564 100.064 160.564 100.111 160.517 100.111Z" fill="#736357"/>
<path d="M158.481 100.82C158.529 100.868 158.576 100.868 158.671 100.915C158.576 100.868 158.529 100.82 158.481 100.82Z" fill="#736357"/>
<path d="M158.339 100.679C158.387 100.726 158.434 100.773 158.481 100.773C158.434 100.773 158.387 100.726 158.339 100.679Z" fill="#736357"/>
<path d="M158.245 100.584C158.292 100.631 158.339 100.679 158.387 100.726C158.292 100.679 158.245 100.631 158.245 100.584Z" fill="#736357"/>
<path d="M158.103 100.442C158.15 100.489 158.15 100.537 158.197 100.584C158.197 100.537 158.15 100.489 158.103 100.442Z" fill="#736357"/>
<path d="M158.055 100.253C158.055 100.3 158.103 100.347 158.15 100.395C158.103 100.395 158.055 100.347 158.055 100.253Z" fill="#736357"/>
<path d="M269.245 150.161C266.168 150.161 263.707 152.669 263.707 155.696C263.707 158.771 266.168 161.231 269.245 161.231C272.322 161.231 274.783 158.771 274.783 155.696C274.783 152.621 272.322 150.161 269.245 150.161Z" stroke="black" stroke-width="1.41962" stroke-miterlimit="10"/>
<path d="M270.002 153.662L269.955 153.709" stroke="black" stroke-width="1.41962" stroke-miterlimit="10"/>
<path d="M267.872 153.236C267.494 152.385 267.872 151.155 269.103 151.155C269.955 151.155 270.428 151.77 270.476 152.432" stroke="black" stroke-width="1.41962" stroke-miterlimit="10"/>
<path d="M268.914 153.993C268.866 153.993 268.866 153.993 268.819 153.993" stroke="black" stroke-width="1.41962" stroke-miterlimit="10"/>
<path d="M270.428 152.432C270.428 152.621 270.428 152.81 270.381 152.952C270.381 153 270.381 153.047 270.334 153.094C270.239 153.284 270.144 153.473 270.002 153.615L269.955 153.662C269.718 153.851 269.434 153.946 269.056 153.946C269.008 153.946 268.914 153.946 268.866 153.946C268.819 153.946 268.819 153.946 268.772 153.946C268.63 153.946 268.535 153.899 268.44 153.851C268.393 153.804 268.346 153.804 268.251 153.757C268.204 153.709 268.156 153.709 268.109 153.662C268.062 153.615 268.014 153.567 267.967 153.52C267.92 153.473 267.92 153.425 267.872 153.378C267.825 153.331 267.825 153.284 267.778 153.236C267.399 153.662 267.162 154.23 267.162 154.845C267.162 156.264 268.298 157.399 269.671 157.399C271.091 157.399 272.227 156.264 272.227 154.845C272.322 153.709 271.517 152.716 270.428 152.432Z" fill="black" stroke="black" stroke-width="1.41962" stroke-miterlimit="10"/>
<path d="M261.813 141.22C264.796 139.943 269.387 139.044 270.854 139.848C272.227 140.558 267.068 145.383 266.168 146.188C266.074 146.282 266.026 146.329 266.026 146.329" stroke="black" stroke-width="1.41962" stroke-miterlimit="10"/>
<path d="M272.038 148.553C274.783 146.897 278.665 145.951 280.416 146.566C281.836 147.512 277.197 150.729 277.197 150.729" stroke="black" stroke-width="1.41962" stroke-miterlimit="10" stroke-linecap="round"/>
<path d="M162.836 170.172C162.836 170.172 163.357 196.049 132.352 215.918C131.548 216.438 130.696 216.958 129.844 217.479C129.702 217.573 129.56 217.621 129.465 217.715C129.323 217.763 129.228 217.857 129.086 217.904C128.187 218.425 127.193 217.479 127.429 216.675C127.477 216.533 127.571 216.391 127.713 216.249C128.423 215.586 129.134 214.971 129.844 214.356C146.837 198.887 153.558 185.925 153.89 168.469" stroke="black" stroke-width="1.41962" stroke-miterlimit="10" stroke-linecap="round"/>
<path d="M263.707 135.78C274.262 130.34 317.006 114.019 374.991 113.735" stroke="black" stroke-width="1.41962" stroke-miterlimit="10" stroke-linecap="round"/>
<path d="M108.874 219.087C114.602 215.918 123.406 211.329 129.56 214.073" stroke="black" stroke-width="1.41962" stroke-miterlimit="10" stroke-linecap="round"/>
<path d="M110.578 222.067C115.17 219.087 123.785 214.546 127.193 216.627" stroke="black" stroke-width="1.41962" stroke-miterlimit="10" stroke-linecap="round"/>
<path d="M131.074 226.278C132.589 223.487 134.198 219.134 132.4 216.06" stroke="black" stroke-width="1.41962" stroke-miterlimit="10" stroke-linecap="round"/>
<path d="M126.909 228.454C129.512 224.149 131.548 220.128 129.986 217.763" stroke="black" stroke-width="1.41962" stroke-miterlimit="10" stroke-linecap="round"/>
<path d="M112.093 235.928C118.341 231.813 125.915 225.332 129.56 217.904" stroke="black" stroke-width="1.41962" stroke-miterlimit="10" stroke-linecap="round"/>
<path d="M109.726 233.8C116.495 229.684 124.447 221.594 126.909 216.911" stroke="black" stroke-width="1.41962" stroke-miterlimit="10" stroke-linecap="round"/>
<path d="M54.6284 188.858C58.7466 184.033 69.6809 173.058 68.8289 165.82" stroke="black" stroke-width="1.41962" stroke-miterlimit="10" stroke-linecap="round"/>
<path d="M51.2202 188.196C57.1371 181.526 66.036 172.679 66.1307 167.002C66.1307 166.955 66.1307 166.908 66.1307 166.861" stroke="black" stroke-width="1.41962" stroke-miterlimit="10" stroke-linecap="round"/>
<path d="M46.0608 167.381C53.2557 163.975 62.628 161.373 65.2314 164.826" stroke="black" stroke-width="1.41962" stroke-miterlimit="10" stroke-linecap="round"/>
<path d="M28.4048 186.919C39.9072 176.417 54.6283 168.469 65.2314 164.874" stroke="black" stroke-width="1.41962" stroke-miterlimit="10" stroke-linecap="round"/>
<path d="M29.4937 189.331C43.7888 177.741 54.8652 171.733 66.1782 166.955C66.3676 166.861 66.5569 166.813 66.6989 166.719" stroke="black" stroke-width="1.41962" stroke-miterlimit="10" stroke-linecap="round"/>
<path d="M291.587 76.8833C280.7 80.8097 262.239 88.1896 256.796 84.9727" stroke="black" stroke-width="1.41962" stroke-miterlimit="10" stroke-linecap="round"/>
<path d="M294.191 72.8622C284.629 76.3629 263.66 84.9254 259.825 82.7966" stroke="black" stroke-width="1.41962" stroke-miterlimit="10" stroke-linecap="round"/>
<path d="M271.375 62.6913C263.234 69.125 254.855 75.9845 255.897 80.5732" stroke="black" stroke-width="1.41962" stroke-miterlimit="10" stroke-linecap="round"/>
<path d="M298.403 63.8267C286.522 66.9962 276.014 70.7334 262.145 78.9175" stroke="black" stroke-width="1.41962" stroke-miterlimit="10" stroke-linecap="round"/>
<path d="M298.403 66.5704C288.794 69.5508 274.215 75.4641 262.618 81.0936" stroke="black" stroke-width="1.41962" stroke-miterlimit="10" stroke-linecap="round"/>
<path d="M279.706 62.2655C272.369 65.9082 257.08 73.8557 257.08 80.8098" stroke="black" stroke-width="1.41962" stroke-miterlimit="10" stroke-linecap="round"/>
<path d="M279.895 62.2182C279.848 62.2655 279.801 62.2655 279.706 62.3128" stroke="black" stroke-width="1.41962" stroke-miterlimit="10" stroke-linecap="round"/>
<path d="M285.386 62.2182C273.411 68.7938 262.618 74.2341 260.583 79.154" stroke="black" stroke-width="1.41962" stroke-miterlimit="10" stroke-linecap="round"/>
<path d="M212.443 169.841C224.419 167.381 236.3 162.934 248.465 156.027" stroke="black" stroke-width="1.41962" stroke-miterlimit="10" stroke-linecap="round"/>
<path d="M136.281 163.975C139.263 164.779 142.198 165.583 145.086 166.293C148.068 167.003 151.002 167.712 153.89 168.28C156.919 168.895 159.901 169.462 162.836 169.936C180.066 172.774 196.302 173.105 212.443 169.794" stroke="black" stroke-width="1.41962" stroke-miterlimit="10" stroke-linecap="round"/>
<path d="M237.241 139.286C236.853 139.237 236.497 139.512 236.448 139.901C236.398 140.29 236.673 140.645 237.062 140.695L237.241 139.286ZM260.867 144.485L261.064 143.803L261.062 143.802L260.867 144.485ZM266.168 146.188L266.407 145.519L266.403 145.518L266.168 146.188ZM272.085 148.553L272.373 147.904L272.37 147.903L272.085 148.553ZM277.008 151.06L276.662 151.68L276.672 151.685L277.008 151.06ZM278.807 152.101L279.179 151.497L279.161 151.486L279.143 151.476L278.807 152.101ZM286.278 158.583C286.566 158.849 287.015 158.831 287.281 158.543C287.546 158.255 287.528 157.806 287.24 157.54L286.278 158.583ZM243.619 147.737C243.456 147.381 243.035 147.224 242.679 147.387C242.322 147.55 242.166 147.972 242.329 148.328L243.619 147.737ZM248.465 156.075L247.949 156.562L247.953 156.567L248.465 156.075ZM256.749 162.461L257.25 161.959L257.179 161.888L257.092 161.84L256.749 162.461ZM256.938 162.556L257.276 161.932L257.118 161.846H256.938V162.556ZM286.38 164.637L286.159 163.963L286.158 163.963L286.38 164.637ZM296.967 160.564C297.304 160.364 297.415 159.928 297.215 159.591C297.015 159.254 296.579 159.143 296.242 159.344L296.967 160.564ZM237.062 140.695C244.862 141.687 252.961 142.959 260.671 145.167L261.062 143.802C253.246 141.564 245.062 140.281 237.241 139.286L237.062 140.695ZM260.669 145.166C262.454 145.683 264.192 146.246 265.933 146.857L266.403 145.518C264.641 144.899 262.877 144.327 261.064 143.803L260.669 145.166ZM265.93 146.856C267.899 147.559 269.872 148.357 271.8 149.203L272.37 147.903C270.417 147.046 268.413 146.235 266.407 145.519L265.93 146.856ZM271.797 149.202C273.473 149.946 275.061 150.786 276.662 151.68L277.354 150.44C275.736 149.537 274.106 148.674 272.373 147.904L271.797 149.202ZM276.672 151.685C276.962 151.842 277.244 152.011 277.542 152.189C277.836 152.365 278.146 152.551 278.47 152.726L279.143 151.476C278.852 151.319 278.57 151.15 278.272 150.972C277.979 150.796 277.669 150.61 277.344 150.435L276.672 151.685ZM278.434 152.705C281.242 154.436 283.855 156.349 286.278 158.583L287.24 157.54C284.74 155.233 282.051 153.267 279.179 151.497L278.434 152.705ZM242.329 148.328C243.641 151.193 245.532 154.001 247.949 156.562L248.981 155.587C246.665 153.134 244.864 150.454 243.619 147.737L242.329 148.328ZM247.953 156.567C250.318 159.026 253.167 161.295 256.406 163.083L257.092 161.84C253.988 160.126 251.251 157.948 248.977 155.583L247.953 156.567ZM256.247 162.963C256.341 163.057 256.446 163.121 256.526 163.161C256.583 163.19 256.742 163.265 256.938 163.265V161.846C257.029 161.846 257.093 161.866 257.11 161.871C257.135 161.879 257.152 161.887 257.161 161.891C257.17 161.896 257.18 161.901 257.191 161.909C257.201 161.916 257.223 161.932 257.25 161.959L256.247 162.963ZM256.6 163.18C264.53 167.481 274.91 169.158 286.602 165.311L286.158 163.963C274.846 167.685 264.872 166.051 257.276 161.932L256.6 163.18ZM286.602 165.312C289.964 164.207 293.42 162.672 296.967 160.564L296.242 159.344C292.784 161.399 289.423 162.891 286.159 163.963L286.602 165.312Z" fill="black"/>
<path d="M287.327 156.642C287.99 155.318 290.025 153.284 291.54 154.75C292.486 155.602 292.155 157.305 291.871 158.393C293.67 157.683 295.8 158.062 296.605 160.001" stroke="black" stroke-width="1.41962" stroke-miterlimit="10" stroke-linecap="round"/>
<path d="M286.286 164.401C285.718 162.508 286.049 160.048 286.759 158.062C286.901 157.73 286.996 157.399 287.138 157.068" stroke="black" stroke-width="1.41962" stroke-miterlimit="10" stroke-linecap="round"/>
<path d="M152.991 156.075C152.991 156.075 106.034 138.382 68.261 162.745C67.3616 163.313 66.4623 163.928 65.5629 164.543C65.4209 164.637 65.3262 164.779 65.2316 164.874C64.6162 165.82 65.5156 167.286 66.6989 166.766C67.409 166.435 68.1663 166.104 68.8764 165.82C94.5319 154.845 117.158 155.791 136.281 163.975" stroke="black" stroke-width="1.41962" stroke-miterlimit="10" stroke-linecap="round"/>
<path d="M231.188 152.337C227.827 149.404 223.662 144.91 219.496 139.754C212.348 130.813 205.248 119.838 202.313 111.133C211.307 102.807 236.347 89.798 252.772 82.702C253.956 82.1817 255.092 81.7086 256.181 81.2355C256.512 81.0936 256.796 80.999 257.08 80.8571C258.405 80.3367 259.589 79.8636 260.725 79.4379C260.819 79.3906 260.914 79.3906 261.009 79.3433C261.435 79.2013 261.813 79.154 262.097 79.2013C262.997 79.3906 263.281 80.3367 262.618 81.0936C262.523 81.2355 261.482 81.8505 259.825 82.844C258.784 83.4589 257.506 84.1685 256.039 85.0674C243.921 92.0215 218.739 106.403 211.354 113.073C213.106 116.668 218.407 124.568 221.957 127.975L222.005 128.022" stroke="black" stroke-width="1.41962" stroke-miterlimit="10" stroke-linecap="round"/>
<path d="M217.224 127.218C218.928 127.36 220.49 127.596 221.91 127.974C232.939 130.766 236.631 139.848 236.631 139.848V139.896C235.827 144.39 233.744 148.6 231.14 152.385C224.561 161.941 218.691 166.293 212.396 169.888" stroke="black" stroke-width="1.41962" stroke-miterlimit="10" stroke-linecap="round"/>
<path d="M113.229 235.597C117.82 233.232 122.365 230.819 126.956 228.454C128.329 227.744 129.749 226.987 131.122 226.278C172.776 204.517 214.336 182.803 256.796 162.461" stroke="black" stroke-width="1.41962" stroke-miterlimit="10" stroke-linecap="round"/>
<path d="M145.085 166.293C115.122 181.573 82.7926 204.611 42.984 248.37C42.9366 248.417 42.842 248.417 42.7946 248.417C42.7 248.37 42.6526 248.275 42.7 248.133C49.8949 237.537 59.2199 225.474 68.0242 216.154C77.1598 206.504 87.0528 197.563 97.4665 189.331C108.496 180.627 120.235 172.869 132.494 166.009C133.725 165.347 134.956 164.637 136.234 163.975C141.677 161.089 147.263 158.44 152.943 156.027C159.049 153.425 165.297 151.155 171.593 149.073C185.367 144.579 199.568 141.457 214.005 140.132C215.804 139.99 217.603 139.848 219.354 139.707" stroke="black" stroke-width="1.41962" stroke-miterlimit="10" stroke-linecap="round"/>
<path d="M52.0723 161.373C59.4565 159.67 65.042 158.866 67.9768 162.319" stroke="black" stroke-width="1.41962" stroke-miterlimit="10" stroke-linecap="round"/>
<path d="M266.642 62.9751L266.594 63.0224C257.08 70.2131 251.21 77.3091 252.583 82.1343" stroke="black" stroke-width="1.41962" stroke-miterlimit="10" stroke-linecap="round"/>
<path d="M206.716 110.708C208.42 110.755 210.076 111.701 211.165 112.458C211.496 112.694 211.307 113.215 210.881 113.168C209.745 112.978 208.183 112.789 206.952 113.168" stroke="black" stroke-width="1.41962" stroke-miterlimit="10" stroke-linecap="round"/>
<path d="M312.178 133.131C313.408 130.955 317.29 130.387 318.947 132.563" stroke="black" stroke-width="1.41962" stroke-miterlimit="10" stroke-linecap="round"/>
<path d="M298.261 138.004C302.474 135.733 301.291 131.664 301.291 131.664" stroke="black" stroke-width="1.41962" stroke-miterlimit="10" stroke-linecap="round"/>
<path d="M304.273 132.942C306.166 134.739 305.362 137.199 305.362 137.199" stroke="black" stroke-width="1.41962" stroke-miterlimit="10" stroke-linecap="round"/>
<path d="M302.19 128.731C299.397 128.069 298.309 126.603 298.309 126.603" stroke="black" stroke-width="1.41962" stroke-miterlimit="10" stroke-linecap="round"/>
<path d="M297.977 131.239C298.072 134.266 295.516 135.071 295.516 135.071" stroke="black" stroke-width="1.41962" stroke-miterlimit="10" stroke-linecap="round"/>
<path d="M311.278 135.449C308.533 135.449 307.492 131.049 309.764 129.488" stroke="black" stroke-width="1.41962" stroke-miterlimit="10" stroke-linecap="round"/>
<path d="M288.936 139.707C290.546 137.294 294.474 138.24 294.948 140.889" stroke="black" stroke-width="1.41962" stroke-miterlimit="10" stroke-linecap="round"/>
<path d="M310.947 124.71C310.19 127.36 305.693 127.123 304.793 124.568" stroke="black" stroke-width="1.41962" stroke-miterlimit="10" stroke-linecap="round"/>
<path d="M287.848 130.198C289.883 128.684 293.623 129.772 294.285 132.469" stroke="black" stroke-width="1.41962" stroke-miterlimit="10" stroke-linecap="round"/>
<path d="M301.007 142.261C301.48 139.47 302.948 138.287 302.948 138.287" stroke="black" stroke-width="1.41962" stroke-miterlimit="10" stroke-linecap="round"/>
<path d="M318.237 119.507C319.136 121.872 317.101 125.183 314.355 125.089" stroke="black" stroke-width="1.41962" stroke-miterlimit="10" stroke-linecap="round"/>
<path d="M334.425 118.986C330.307 121.399 331.585 125.42 331.585 125.42" stroke="black" stroke-width="1.41962" stroke-miterlimit="10" stroke-linecap="round"/>
<path d="M328.603 124.237C326.662 122.487 327.372 119.98 327.372 119.98" stroke="black" stroke-width="1.41962" stroke-miterlimit="10" stroke-linecap="round"/>
<path d="M329.881 126.981C332.674 127.549 333.81 129.015 333.81 129.015" stroke="black" stroke-width="1.41962" stroke-miterlimit="10" stroke-linecap="round"/>
<path d="M320.603 120.5C323.349 120.405 324.485 124.805 322.307 126.413" stroke="black" stroke-width="1.41962" stroke-miterlimit="10" stroke-linecap="round"/>
<path d="M341.478 119.365C341.194 116.479 344.839 114.681 346.874 116.432" stroke="black" stroke-width="1.41962" stroke-miterlimit="10" stroke-linecap="round"/>
<path d="M321.266 131.191C321.929 128.495 326.473 128.589 327.42 131.144" stroke="black" stroke-width="1.41962" stroke-miterlimit="10" stroke-linecap="round"/>
<path d="M344.176 125.041C342.188 126.603 338.401 125.656 337.691 122.96" stroke="black" stroke-width="1.41962" stroke-miterlimit="10" stroke-linecap="round"/>
<path d="M319.467 127.501C316.911 128.826 315.16 128.353 315.16 128.353" stroke="black" stroke-width="1.41962" stroke-miterlimit="10" stroke-linecap="round"/>
<path d="M355.584 120.973C359.134 117.756 357.051 114.114 357.051 114.114" stroke="black" stroke-width="1.41962" stroke-miterlimit="10" stroke-linecap="round"/>
<path d="M360.223 114.634C362.495 115.959 362.305 118.513 362.305 118.513" stroke="black" stroke-width="1.41962" stroke-miterlimit="10" stroke-linecap="round"/>
<path d="M353.738 114.492C354.543 117.425 352.223 118.797 352.223 118.797" stroke="black" stroke-width="1.41962" stroke-miterlimit="10" stroke-linecap="round"/>
<path d="M347.916 121.967C344.886 121.635 344.46 118.986 344.46 118.986" stroke="black" stroke-width="1.41962" stroke-miterlimit="10" stroke-linecap="round"/>
<path d="M279.138 136.632C277.197 138.24 273.41 137.436 272.606 134.787" stroke="black" stroke-width="1.41962" stroke-miterlimit="10" stroke-linecap="round"/>
<path d="M288.747 144.295C285.15 141.173 281.741 143.68 281.741 143.68" stroke="black" stroke-width="1.41962" stroke-miterlimit="10" stroke-linecap="round"/>
<path d="M283.351 139.517C284.392 137.105 286.996 137.01 286.996 137.01" stroke="black" stroke-width="1.41962" stroke-miterlimit="10" stroke-linecap="round"/>
<path d="M283.635 146.992C286.428 145.856 288.084 147.985 288.084 147.985" stroke="black" stroke-width="1.41962" stroke-miterlimit="10" stroke-linecap="round"/>
<path d="M278.949 139.186C279.943 141.788 276.156 144.248 273.931 142.687" stroke="black" stroke-width="1.41962" stroke-miterlimit="10" stroke-linecap="round"/>
<path d="M285.055 133.131C282.499 134.55 279.422 131.901 280.227 129.346" stroke="black" stroke-width="1.41962" stroke-miterlimit="10" stroke-linecap="round"/>
<path d="M196.823 183.134C198.621 181.336 202.455 181.809 203.497 184.411" stroke="black" stroke-width="1.41962" stroke-miterlimit="10" stroke-linecap="round"/>
<path d="M182.149 184.175C186.788 183.087 186.74 178.876 186.74 178.876" stroke="black" stroke-width="1.41962" stroke-miterlimit="10" stroke-linecap="round"/>
<path d="M189.296 180.863C190.622 183.134 189.202 185.263 189.202 185.263" stroke="black" stroke-width="1.41962" stroke-miterlimit="10" stroke-linecap="round"/>
<path d="M188.397 176.227C185.888 174.855 185.226 173.152 185.226 173.152" stroke="black" stroke-width="1.41962" stroke-miterlimit="10" stroke-linecap="round"/>
<path d="M183.663 177.552C182.953 180.485 180.255 180.58 180.255 180.58" stroke="black" stroke-width="1.41962" stroke-miterlimit="10" stroke-linecap="round"/>
<path d="M195.403 185.168C192.752 184.459 192.941 179.917 195.497 179.018" stroke="black" stroke-width="1.41962" stroke-miterlimit="10" stroke-linecap="round"/>
<path d="M172.729 183.323C174.954 181.431 178.504 183.371 178.22 186.02" stroke="black" stroke-width="1.41962" stroke-miterlimit="10" stroke-linecap="round"/>
<path d="M197.911 174.713C196.491 177.079 192.184 175.66 192.042 172.916" stroke="black" stroke-width="1.41962" stroke-miterlimit="10" stroke-linecap="round"/>
<path d="M174.197 173.862C176.563 172.963 179.877 174.95 179.782 177.741" stroke="black" stroke-width="1.41962" stroke-miterlimit="10" stroke-linecap="round"/>
<path d="M206.337 171.591C206.574 174.098 203.734 176.795 201.13 175.943" stroke="black" stroke-width="1.41962" stroke-miterlimit="10" stroke-linecap="round"/>
<path d="M222.099 175.376C217.508 176.606 217.65 180.816 217.65 180.816" stroke="black" stroke-width="1.41962" stroke-miterlimit="10" stroke-linecap="round"/>
<path d="M215.046 178.876C213.674 176.653 214.999 174.477 214.999 174.477" stroke="black" stroke-width="1.41962" stroke-miterlimit="10" stroke-linecap="round"/>
<path d="M208.325 173.152C211.023 173.815 210.928 178.309 208.42 179.302" stroke="black" stroke-width="1.41962" stroke-miterlimit="10" stroke-linecap="round"/>
<path d="M206.1 183.702C207.473 181.289 211.638 181.857 211.875 184.601" stroke="black" stroke-width="1.41962" stroke-miterlimit="10" stroke-linecap="round"/>
<path d="M205.39 179.633C202.597 180.201 200.988 179.35 200.988 179.35" stroke="black" stroke-width="1.41962" stroke-miterlimit="10" stroke-linecap="round"/>
<path d="M167.38 181.668C169.037 179.633 171.546 180.201 171.546 180.201" stroke="black" stroke-width="1.41962" stroke-miterlimit="10" stroke-linecap="round"/>
<path d="M170.694 175.943C167.853 176.606 165.581 173.294 167.049 171.024" stroke="black" stroke-width="1.41962" stroke-miterlimit="10" stroke-linecap="round"/>
<path d="M174.386 197.988C179.025 196.9 178.977 192.69 178.977 192.69" stroke="black" stroke-width="1.41962" stroke-miterlimit="10" stroke-linecap="round"/>
<path d="M181.533 194.724C182.859 196.995 181.439 199.124 181.439 199.124" stroke="black" stroke-width="1.41962" stroke-miterlimit="10" stroke-linecap="round"/>
<path d="M236.016 172.537C233.791 171.591 233.838 169.462 233.838 169.462" stroke="black" stroke-width="1.41962" stroke-miterlimit="10" stroke-linecap="round"/>
<path d="M175.901 191.413C175.191 194.346 172.492 194.44 172.492 194.44" stroke="black" stroke-width="1.41962" stroke-miterlimit="10" stroke-linecap="round"/>
<path d="M186.788 197.326C185.699 196.002 186.172 193.258 187.687 192.832" stroke="black" stroke-width="1.41962" stroke-miterlimit="10" stroke-linecap="round"/>
<path d="M164.919 197.184C167.144 195.292 170.694 197.231 170.41 199.881" stroke="black" stroke-width="1.41962" stroke-miterlimit="10" stroke-linecap="round"/>
<path d="M190.101 188.574C188.681 190.94 184.373 189.52 184.231 186.777" stroke="black" stroke-width="1.41962" stroke-miterlimit="10" stroke-linecap="round"/>
<path d="M166.386 187.723C168.753 186.824 172.066 188.811 171.972 191.602" stroke="black" stroke-width="1.41962" stroke-miterlimit="10" stroke-linecap="round"/>
<path d="M198.527 185.452C198.763 187.959 195.923 190.656 193.32 189.804" stroke="black" stroke-width="1.41962" stroke-miterlimit="10" stroke-linecap="round"/>
<path d="M159.57 195.528C161.227 193.494 163.735 194.062 163.735 194.062" stroke="black" stroke-width="1.41962" stroke-miterlimit="10" stroke-linecap="round"/>
<path d="M163.878 189.804C161.037 190.467 158.907 187.108 159.807 184.317" stroke="black" stroke-width="1.41962" stroke-miterlimit="10" stroke-linecap="round"/>
<path d="M154.221 211.565C154.931 209.153 158.529 207.734 160.706 209.484" stroke="black" stroke-width="1.41962" stroke-miterlimit="10" stroke-linecap="round"/>
<path d="M142.293 220.412C145.843 217.242 143.807 213.552 143.807 213.552" stroke="black" stroke-width="1.41962" stroke-miterlimit="10" stroke-linecap="round"/>
<path d="M146.506 213.174C148.73 214.498 148.541 217.1 148.541 217.1" stroke="black" stroke-width="1.41962" stroke-miterlimit="10" stroke-linecap="round"/>
<path d="M221.579 172.206C218.739 172.206 217.319 171.024 217.319 171.024" stroke="black" stroke-width="1.41962" stroke-miterlimit="10" stroke-linecap="round"/>
<path d="M139.973 212.985C140.731 215.918 138.458 217.289 138.458 217.289" stroke="black" stroke-width="1.41962" stroke-miterlimit="10" stroke-linecap="round"/>
<path d="M153.89 214.498C151.665 214.546 149.772 211.755 151.05 209.058" stroke="black" stroke-width="1.41962" stroke-miterlimit="10" stroke-linecap="round"/>
<path d="M149.204 206.456C149.109 209.2 144.612 210.052 143.192 207.734" stroke="black" stroke-width="1.41962" stroke-miterlimit="10" stroke-linecap="round"/>
<path d="M156.967 196.9C158.387 198.982 157.203 202.672 154.458 203.239" stroke="black" stroke-width="1.41962" stroke-miterlimit="10" stroke-linecap="round"/>
<path d="M170.031 201.442C172.871 201.347 174.338 202.483 174.338 202.483" stroke="black" stroke-width="1.41962" stroke-miterlimit="10" stroke-linecap="round"/>
<path d="M159.475 197.279C162.126 196.569 164.256 200.543 162.505 202.624" stroke="black" stroke-width="1.41962" stroke-miterlimit="10" stroke-linecap="round"/>
<path d="M162.599 207.592C162.647 204.848 167.049 203.902 168.564 206.125" stroke="black" stroke-width="1.41962" stroke-miterlimit="10" stroke-linecap="round"/>
<path d="M159.996 204.375C157.818 206.22 155.972 206.22 155.972 206.22" stroke="black" stroke-width="1.41962" stroke-miterlimit="10" stroke-linecap="round"/>
<path d="M226.265 174.666C223.614 173.957 223.803 169.415 226.36 168.516" stroke="black" stroke-width="1.41962" stroke-miterlimit="10" stroke-linecap="round"/>
<path d="M164.493 183.087C163.12 180.863 164.445 178.687 164.445 178.687" stroke="black" stroke-width="1.41962" stroke-miterlimit="10" stroke-linecap="round"/>
<path d="M230.762 172.301C229.389 170.077 230.714 167.901 230.714 167.901" stroke="black" stroke-width="1.41962" stroke-miterlimit="10" stroke-linecap="round"/>
<path d="M233.791 167.239C235.779 165.536 238.146 166.577 238.146 166.577" stroke="black" stroke-width="1.41962" stroke-miterlimit="10" stroke-linecap="round"/>
<path d="M245.199 164.684C243.779 167.05 239.471 165.631 239.329 162.887" stroke="black" stroke-width="1.41962" stroke-miterlimit="10" stroke-linecap="round"/>
<path d="M247.85 159.812C245.672 161.657 243.826 161.657 243.826 161.657" stroke="black" stroke-width="1.41962" stroke-miterlimit="10" stroke-linecap="round"/>
<path d="M249.79 161.846C250.074 164.684 249.033 166.198 249.033 166.198" stroke="black" stroke-width="1.41962" stroke-miterlimit="10" stroke-linecap="round"/>
<path d="M159.712 151.533C161.7 149.452 161.795 147.654 161.795 147.654" stroke="black" stroke-width="1.41962" stroke-miterlimit="10" stroke-linecap="round"/>
<path d="M172.026 142.448C172.499 146.658 176.617 147.51 176.617 147.51" stroke="black" stroke-width="1.41962" stroke-miterlimit="10" stroke-linecap="round"/>
<path d="M169.084 144.91C166.339 146.897 164.682 144.579 164.682 144.579" stroke="black" stroke-width="1.41962" stroke-miterlimit="10" stroke-linecap="round"/>
<path d="M155.707 149.494C154.239 151.906 152.44 152.474 152.44 152.474" stroke="black" stroke-width="1.41962" stroke-miterlimit="10" stroke-linecap="round"/>
<path d="M198.479 174.146C195.592 171.024 191.758 172.774 191.758 172.774" stroke="black" stroke-width="1.41962" stroke-miterlimit="10" stroke-linecap="round"/>
<path d="M156.209 92.1634C152.517 92.731 150.008 96.3737 150.624 100.3" stroke="black" stroke-width="1.41962" stroke-miterlimit="10" stroke-linecap="round"/>
<path d="M157.298 111.796C154.458 111.843 153.038 110.708 153.038 110.708" stroke="black" stroke-width="1.41962" stroke-miterlimit="10" stroke-linecap="round"/>
<path d="M149.724 109.903C149.488 112.458 146.837 113.215 146.837 113.215" stroke="black" stroke-width="1.41962" stroke-miterlimit="10" stroke-linecap="round"/>
<path d="M147.784 103.753C147.926 100.489 144.896 100.395 144.896 100.395" stroke="black" stroke-width="1.41962" stroke-miterlimit="10" stroke-linecap="round"/>
<path d="M161.037 99.4486C158.15 96.3263 154.316 98.0767 154.316 98.0767" stroke="black" stroke-width="1.41962" stroke-miterlimit="10" stroke-linecap="round"/>
<path d="M139.547 109.288C140.021 113.499 144.139 114.35 144.139 114.35" stroke="black" stroke-width="1.41962" stroke-miterlimit="10" stroke-linecap="round"/>
<path d="M144.754 107.68C148.92 108.39 150.908 104.7 150.908 104.7" stroke="black" stroke-width="1.41962" stroke-miterlimit="10" stroke-linecap="round"/>
<path d="M155.641 107.396C153.275 104.983 155.31 102.997 155.31 102.997" stroke="black" stroke-width="1.41962" stroke-miterlimit="10" stroke-linecap="round"/>
<path d="M155.736 118.513C153.18 115.769 148.778 115.769 145.843 118.513" stroke="black" stroke-width="1.41962" stroke-miterlimit="10" stroke-linecap="round"/>
<path d="M165.061 101.294C160.895 102.902 160.706 107.822 163.025 110.944" stroke="black" stroke-width="1.41962" stroke-miterlimit="10" stroke-linecap="round"/>
<path d="M164.606 93.7034C161.86 95.6903 160.204 93.3723 160.204 93.3723" stroke="black" stroke-width="1.41962" stroke-miterlimit="10" stroke-linecap="round"/>
<path d="M137.275 102.334C135.808 104.747 134.009 105.315 134.009 105.315" stroke="black" stroke-width="1.41962" stroke-miterlimit="10" stroke-linecap="round"/>
<path d="M169.416 105.267C167.144 107.822 165.061 105.882 165.061 105.882" stroke="black" stroke-width="1.41962" stroke-miterlimit="10" stroke-linecap="round"/>
<path d="M178.22 111.748C174.528 112.316 172.019 115.959 172.634 119.885" stroke="black" stroke-width="1.41962" stroke-miterlimit="10" stroke-linecap="round"/>
<path d="M179.309 131.333C176.469 131.381 175.049 130.245 175.049 130.245" stroke="black" stroke-width="1.41962" stroke-miterlimit="10" stroke-linecap="round"/>
<path d="M171.735 129.441C171.498 131.996 168.848 132.752 168.848 132.752" stroke="black" stroke-width="1.41962" stroke-miterlimit="10" stroke-linecap="round"/>
<path d="M169.747 123.291C169.889 120.027 166.86 119.932 166.86 119.932" stroke="black" stroke-width="1.41962" stroke-miterlimit="10" stroke-linecap="round"/>
<path d="M166.244 115.864C168.232 113.782 168.327 111.985 168.327 111.985" stroke="black" stroke-width="1.41962" stroke-miterlimit="10" stroke-linecap="round"/>
<path d="M183.048 118.986C180.161 115.864 176.327 117.614 176.327 117.614" stroke="black" stroke-width="1.41962" stroke-miterlimit="10" stroke-linecap="round"/>
<path d="M161.558 128.826C162.031 133.036 166.15 133.888 166.15 133.888" stroke="black" stroke-width="1.41962" stroke-miterlimit="10" stroke-linecap="round"/>
<path d="M166.718 127.218C170.883 127.927 172.871 124.237 172.871 124.237" stroke="black" stroke-width="1.41962" stroke-miterlimit="10" stroke-linecap="round"/>
<path d="M177.652 126.934C175.285 124.521 177.321 122.534 177.321 122.534" stroke="black" stroke-width="1.41962" stroke-miterlimit="10" stroke-linecap="round"/>
<path d="M184.752 114.776C186.456 111.039 183.001 106.686 179.687 106.308" stroke="black" stroke-width="1.41962" stroke-miterlimit="10" stroke-linecap="round"/>
<path d="M177.747 138.051C175.19 135.307 170.788 135.307 167.854 138.051" stroke="black" stroke-width="1.41962" stroke-miterlimit="10" stroke-linecap="round"/>
<path d="M187.072 120.878C182.906 122.487 182.717 127.407 185.036 130.529" stroke="black" stroke-width="1.41962" stroke-miterlimit="10" stroke-linecap="round"/>
<path d="M162.41 125.136C164.635 122.298 162.836 116.857 159.712 115.627" stroke="black" stroke-width="1.41962" stroke-miterlimit="10" stroke-linecap="round"/>
<path d="M175.616 109.241C172.871 111.228 171.214 108.91 171.214 108.91" stroke="black" stroke-width="1.41962" stroke-miterlimit="10" stroke-linecap="round"/>
<path d="M159.239 121.872C157.771 124.285 155.973 124.852 155.973 124.852" stroke="black" stroke-width="1.41962" stroke-miterlimit="10" stroke-linecap="round"/>
<path d="M191.426 124.805C189.154 127.36 187.072 125.42 187.072 125.42" stroke="black" stroke-width="1.41962" stroke-miterlimit="10" stroke-linecap="round"/>
<path d="M140.683 148.931C144.375 148.411 146.932 144.816 146.411 140.889" stroke="black" stroke-width="1.41962" stroke-miterlimit="10" stroke-linecap="round"/>
<path d="M139.879 129.299C142.719 129.299 144.139 130.482 144.139 130.482" stroke="black" stroke-width="1.41962" stroke-miterlimit="10" stroke-linecap="round"/>
<path d="M147.452 131.333C147.736 128.779 150.387 128.069 150.387 128.069" stroke="black" stroke-width="1.41962" stroke-miterlimit="10" stroke-linecap="round"/>
<path d="M149.298 137.53C149.109 140.795 152.138 140.937 152.138 140.937" stroke="black" stroke-width="1.41962" stroke-miterlimit="10" stroke-linecap="round"/>
<path d="M152.706 144.958C150.718 146.992 150.576 148.837 150.576 148.837" stroke="black" stroke-width="1.41962" stroke-miterlimit="10" stroke-linecap="round"/>
<path d="M135.95 141.646C138.79 144.816 142.624 143.113 142.624 143.113" stroke="black" stroke-width="1.41962" stroke-miterlimit="10" stroke-linecap="round"/>
<path d="M157.629 132.137C157.203 127.927 153.133 126.981 153.133 126.981" stroke="black" stroke-width="1.41962" stroke-miterlimit="10" stroke-linecap="round"/>
<path d="M152.423 133.604C148.257 132.847 146.222 136.49 146.222 136.49" stroke="black" stroke-width="1.41962" stroke-miterlimit="10" stroke-linecap="round"/>
<path d="M141.488 133.746C143.855 136.206 141.772 138.145 141.772 138.145" stroke="black" stroke-width="1.41962" stroke-miterlimit="10" stroke-linecap="round"/>
<path d="M141.583 122.629C144.092 125.373 148.494 125.467 151.476 122.818" stroke="black" stroke-width="1.41962" stroke-miterlimit="10" stroke-linecap="round"/>
<path d="M131.974 139.659C136.139 138.145 136.47 133.226 134.151 130.056" stroke="black" stroke-width="1.41962" stroke-miterlimit="10" stroke-linecap="round"/>
<path d="M156.683 135.827C154.411 138.666 156.115 144.059 159.239 145.383" stroke="black" stroke-width="1.41962" stroke-miterlimit="10" stroke-linecap="round"/>
<path d="M143.24 151.486C145.985 149.546 147.642 151.864 147.642 151.864" stroke="black" stroke-width="1.41962" stroke-miterlimit="10" stroke-linecap="round"/>
<path d="M159.807 139.139C161.321 136.726 163.12 136.206 163.12 136.206" stroke="black" stroke-width="1.41962" stroke-miterlimit="10" stroke-linecap="round"/>
<path d="M127.666 135.685C129.938 133.178 132.068 135.118 132.068 135.118" stroke="black" stroke-width="1.41962" stroke-miterlimit="10" stroke-linecap="round"/>
<path d="M119.004 129.063C122.696 128.542 125.252 124.947 124.731 121.02" stroke="black" stroke-width="1.41962" stroke-miterlimit="10" stroke-linecap="round"/>
<path d="M140.199 103.43C143.039 103.43 144.459 104.613 144.459 104.613" stroke="black" stroke-width="1.41962" stroke-miterlimit="10" stroke-linecap="round"/>
<path d="M125.773 111.417C126.057 108.863 128.708 108.153 128.708 108.153" stroke="black" stroke-width="1.41962" stroke-miterlimit="10" stroke-linecap="round"/>
<path d="M127.666 117.614C127.477 120.879 130.506 121.02 130.506 121.02" stroke="black" stroke-width="1.41962" stroke-miterlimit="10" stroke-linecap="round"/>
<path d="M131.027 125.089C129.039 127.123 128.897 128.968 128.897 128.968" stroke="black" stroke-width="1.41962" stroke-miterlimit="10" stroke-linecap="round"/>
<path d="M114.271 121.73C117.111 124.9 120.945 123.197 120.945 123.197" stroke="black" stroke-width="1.41962" stroke-miterlimit="10" stroke-linecap="round"/>
<path d="M135.95 112.221C135.524 108.011 131.453 107.065 131.453 107.065" stroke="black" stroke-width="1.41962" stroke-miterlimit="10" stroke-linecap="round"/>
<path d="M130.743 113.735C126.578 112.978 124.542 116.621 124.542 116.621" stroke="black" stroke-width="1.41962" stroke-miterlimit="10" stroke-linecap="round"/>
<path d="M119.809 113.877C122.175 116.337 120.093 118.277 120.093 118.277" stroke="black" stroke-width="1.41962" stroke-miterlimit="10" stroke-linecap="round"/>
<path d="M112.519 125.94C110.72 129.63 114.128 134.03 117.442 134.503" stroke="black" stroke-width="1.41962" stroke-miterlimit="10" stroke-linecap="round"/>
<path d="M135.003 115.911C132.731 118.75 134.435 124.143 137.559 125.467" stroke="black" stroke-width="1.41962" stroke-miterlimit="10" stroke-linecap="round"/>
<path d="M121.56 131.57C124.305 129.63 125.962 131.948 125.962 131.948" stroke="black" stroke-width="1.41962" stroke-miterlimit="10" stroke-linecap="round"/>
<path d="M138.127 119.223C139.642 116.81 141.441 116.29 141.441 116.29" stroke="black" stroke-width="1.41962" stroke-miterlimit="10" stroke-linecap="round"/>
<path d="M110.987 118.769C113.259 116.262 115.389 118.202 115.389 118.202" stroke="black" stroke-width="1.41962" stroke-miterlimit="10" stroke-linecap="round"/>
<path d="M212.917 134.456C213.39 138.666 217.508 139.517 217.508 139.517" stroke="black" stroke-width="1.41962" stroke-miterlimit="10" stroke-linecap="round"/>
<path d="M210.597 127.501C209.13 129.914 207.331 130.482 207.331 130.482" stroke="black" stroke-width="1.41962" stroke-miterlimit="10" stroke-linecap="round"/>
<path d="M191.568 134.597C194.408 134.597 195.829 135.78 195.829 135.78" stroke="black" stroke-width="1.41962" stroke-miterlimit="10" stroke-linecap="round"/>
<path d="M199.095 136.632C199.379 134.077 202.029 133.367 202.029 133.367" stroke="black" stroke-width="1.41962" stroke-miterlimit="10" stroke-linecap="round"/>
<path d="M209.272 137.389C208.846 133.178 204.775 132.232 204.775 132.232" stroke="black" stroke-width="1.41962" stroke-miterlimit="10" stroke-linecap="round"/>
<path d="M204.065 138.902C199.899 138.145 197.864 141.788 197.864 141.788" stroke="black" stroke-width="1.41962" stroke-miterlimit="10" stroke-linecap="round"/>
<path d="M192.178 138.044C194.544 140.504 192.462 142.444 192.462 142.444" stroke="black" stroke-width="1.41962" stroke-miterlimit="10" stroke-linecap="round"/>
<path d="M193.272 127.927C195.781 130.671 200.183 130.766 203.165 128.116" stroke="black" stroke-width="1.41962" stroke-miterlimit="10" stroke-linecap="round"/>
<path d="M183.664 144.958C187.829 143.444 188.16 138.524 185.841 135.354" stroke="black" stroke-width="1.41962" stroke-miterlimit="10" stroke-linecap="round"/>
<path d="M179.356 140.937C181.628 138.429 183.758 140.369 183.758 140.369" stroke="black" stroke-width="1.41962" stroke-miterlimit="10" stroke-linecap="round"/>
<path d="M216.419 80.9044C213.579 80.9517 212.159 79.8163 212.159 79.8163" stroke="black" stroke-width="1.41962" stroke-miterlimit="10" stroke-linecap="round"/>
<path d="M208.798 79.0121C208.562 81.5666 205.911 82.3236 205.911 82.3236" stroke="black" stroke-width="1.41962" stroke-miterlimit="10" stroke-linecap="round"/>
<path d="M198.621 78.3971C199.095 82.6074 203.213 83.4589 203.213 83.4589" stroke="black" stroke-width="1.41962" stroke-miterlimit="10" stroke-linecap="round"/>
<path d="M203.828 76.7887C207.994 77.4983 209.982 73.8083 209.982 73.8083" stroke="black" stroke-width="1.41962" stroke-miterlimit="10" stroke-linecap="round"/>
<path d="M214.715 76.5048C212.349 74.0922 214.384 72.1053 214.384 72.1053" stroke="black" stroke-width="1.41962" stroke-miterlimit="10" stroke-linecap="round"/>
<path d="M214.81 87.6219C212.254 84.8781 207.852 84.8781 204.917 87.6219" stroke="black" stroke-width="1.41962" stroke-miterlimit="10" stroke-linecap="round"/>
<path d="M224.135 70.4023C219.969 72.0107 219.78 76.9306 222.099 80.0529" stroke="black" stroke-width="1.41962" stroke-miterlimit="10" stroke-linecap="round"/>
<path d="M228.537 74.376C226.265 76.9306 224.182 74.991 224.182 74.991" stroke="black" stroke-width="1.41962" stroke-miterlimit="10" stroke-linecap="round"/>
<path d="M237.294 80.8098C233.602 81.3774 231.093 85.0201 231.709 88.9465" stroke="black" stroke-width="1.41962" stroke-miterlimit="10" stroke-linecap="round"/>
<path d="M228.821 92.3999C228.963 89.1357 225.934 89.0411 225.934 89.0411" stroke="black" stroke-width="1.41962" stroke-miterlimit="10" stroke-linecap="round"/>
<path d="M225.365 84.9727C227.354 82.8912 227.448 81.0936 227.448 81.0936" stroke="black" stroke-width="1.41962" stroke-miterlimit="10" stroke-linecap="round"/>
<path d="M242.122 87.095C239.235 83.9727 235.401 85.7231 235.401 85.7231" stroke="black" stroke-width="1.41962" stroke-miterlimit="10" stroke-linecap="round"/>
<path d="M245.826 85.8847C247.53 82.1475 244.075 77.7952 240.761 77.4168" stroke="black" stroke-width="1.41962" stroke-miterlimit="10" stroke-linecap="round"/>
<path d="M221.484 94.1975C223.709 91.3591 221.91 85.9189 218.786 84.6889" stroke="black" stroke-width="1.41962" stroke-miterlimit="10" stroke-linecap="round"/>
<path d="M234.69 78.3498C231.945 80.3367 230.288 78.0187 230.288 78.0187" stroke="black" stroke-width="1.41962" stroke-miterlimit="10" stroke-linecap="round"/>
<path d="M218.36 90.9807C216.893 93.3933 215.094 93.961 215.094 93.961" stroke="black" stroke-width="1.41962" stroke-miterlimit="10" stroke-linecap="round"/>
<path d="M199 98.4078C201.84 98.4078 203.26 99.5905 203.26 99.5905" stroke="black" stroke-width="1.41962" stroke-miterlimit="10" stroke-linecap="round"/>
<path d="M206.526 100.442C206.81 97.8875 209.461 97.1779 209.461 97.1779" stroke="black" stroke-width="1.41962" stroke-miterlimit="10" stroke-linecap="round"/>
<path d="M211.78 114.066C209.792 116.101 209.65 117.945 209.65 117.945" stroke="black" stroke-width="1.41962" stroke-miterlimit="10" stroke-linecap="round"/>
<path d="M195.024 110.708C197.864 113.877 201.698 112.174 201.698 112.174" stroke="black" stroke-width="1.41962" stroke-miterlimit="10" stroke-linecap="round"/>
<path d="M215.703 100.246C215.277 96.036 211.207 95.0898 211.207 95.0898" stroke="black" stroke-width="1.41962" stroke-miterlimit="10" stroke-linecap="round"/>
<path d="M211.497 102.713C207.331 101.956 205.296 105.598 205.296 105.598" stroke="black" stroke-width="1.41962" stroke-miterlimit="10" stroke-linecap="round"/>
<path d="M200.562 102.855C202.929 105.315 200.846 107.254 200.846 107.254" stroke="black" stroke-width="1.41962" stroke-miterlimit="10" stroke-linecap="round"/>
<path d="M193.272 114.918C191.474 118.608 194.882 123.007 198.195 123.48" stroke="black" stroke-width="1.41962" stroke-miterlimit="10" stroke-linecap="round"/>
<path d="M200.657 91.7376C203.165 94.4814 207.568 94.576 210.55 91.9268" stroke="black" stroke-width="1.41962" stroke-miterlimit="10" stroke-linecap="round"/>
<path d="M191.048 108.768C195.213 107.254 195.545 102.334 193.225 99.1647" stroke="black" stroke-width="1.41962" stroke-miterlimit="10" stroke-linecap="round"/>
<path d="M202.313 120.595C205.059 118.655 206.716 120.973 206.716 120.973" stroke="black" stroke-width="1.41962" stroke-miterlimit="10" stroke-linecap="round"/>
<path d="M186.74 104.747C189.012 102.24 191.142 104.179 191.142 104.179" stroke="black" stroke-width="1.41962" stroke-miterlimit="10" stroke-linecap="round"/>
<path d="M178.078 98.1713C181.77 97.6509 184.326 94.0556 183.805 90.1292" stroke="black" stroke-width="1.41962" stroke-miterlimit="10" stroke-linecap="round"/>
<path d="M191 79C193.84 79 195.26 80.1827 195.26 80.1827" stroke="black" stroke-width="1.41962" stroke-miterlimit="10" stroke-linecap="round"/>
<path d="M186.74 86.7231C186.551 89.9873 189.58 90.1292 189.58 90.1292" stroke="black" stroke-width="1.41962" stroke-miterlimit="10" stroke-linecap="round"/>
<path d="M190.101 94.1975C188.113 96.2317 187.971 98.0767 187.971 98.0767" stroke="black" stroke-width="1.41962" stroke-miterlimit="10" stroke-linecap="round"/>
<path d="M173.392 90.8388C176.232 94.0083 180.066 92.3053 180.066 92.3053" stroke="black" stroke-width="1.41962" stroke-miterlimit="10" stroke-linecap="round"/>
<path d="M189.817 82.8439C185.652 82.087 183.616 85.7296 183.616 85.7296" stroke="black" stroke-width="1.41962" stroke-miterlimit="10" stroke-linecap="round"/>
<path d="M178.883 82.9859C181.249 85.4458 179.167 87.3854 179.167 87.3854" stroke="black" stroke-width="1.41962" stroke-miterlimit="10" stroke-linecap="round"/>
<path d="M171.593 95.0018C169.794 98.6917 173.202 103.091 176.516 103.564" stroke="black" stroke-width="1.41962" stroke-miterlimit="10" stroke-linecap="round"/>
<path d="M194.125 85.02C191.852 87.8584 193.557 93.2514 196.681 94.576" stroke="black" stroke-width="1.41962" stroke-miterlimit="10" stroke-linecap="round"/>
<path d="M180.681 100.679C183.427 98.739 185.084 101.057 185.084 101.057" stroke="black" stroke-width="1.41962" stroke-miterlimit="10" stroke-linecap="round"/>
<path d="M197.201 88.3315C198.716 85.9189 200.515 85.3985 200.515 85.3985" stroke="black" stroke-width="1.41962" stroke-miterlimit="10" stroke-linecap="round"/>
<path d="M166.061 90.8781C168.333 88.3709 170.463 90.3105 170.463 90.3105" stroke="black" stroke-width="1.41962" stroke-miterlimit="10" stroke-linecap="round"/>
<path d="M99.1234 141.362C96.2833 141.41 94.8633 140.274 94.8633 140.274" stroke="black" stroke-width="1.41962" stroke-miterlimit="10" stroke-linecap="round"/>
<path d="M91.5498 139.47C91.3131 142.025 88.6624 142.781 88.6624 142.781" stroke="black" stroke-width="1.41962" stroke-miterlimit="10" stroke-linecap="round"/>
<path d="M93.5617 131.32C93.6307 129.735 92.9515 128.897 92.2346 128.455" stroke="black" stroke-width="1.41962" stroke-miterlimit="10" stroke-linecap="round"/>
<path d="M102.863 128.968C99.9752 125.846 96.1411 127.596 96.1411 127.596" stroke="black" stroke-width="1.41962" stroke-miterlimit="10" stroke-linecap="round"/>
<path d="M81.3728 138.808C81.8462 143.018 85.9643 143.87 85.9643 143.87" stroke="black" stroke-width="1.41962" stroke-miterlimit="10" stroke-linecap="round"/>
<path d="M86.5322 137.247C90.6977 137.956 92.6858 134.266 92.6858 134.266" stroke="black" stroke-width="1.41962" stroke-miterlimit="10" stroke-linecap="round"/>
<path d="M97.4665 136.915C95.0998 134.503 97.1352 132.516 97.1352 132.516" stroke="black" stroke-width="1.41962" stroke-miterlimit="10" stroke-linecap="round"/>
<path d="M97.5612 148.08C95.0051 145.336 90.603 145.336 87.6682 148.08" stroke="black" stroke-width="1.41962" stroke-miterlimit="10" stroke-linecap="round"/>
<path d="M106.886 130.86C102.721 132.469 102.531 137.389 104.851 140.511" stroke="black" stroke-width="1.41962" stroke-miterlimit="10" stroke-linecap="round"/>
<path d="M108.431 123.223C105.686 125.21 104.029 122.892 104.029 122.892" stroke="black" stroke-width="1.41962" stroke-miterlimit="10" stroke-linecap="round"/>
<path d="M111.241 134.787C108.969 137.341 106.886 135.402 106.886 135.402" stroke="black" stroke-width="1.41962" stroke-miterlimit="10" stroke-linecap="round"/>
<path d="M119.998 141.268C116.306 141.835 113.797 145.478 114.412 149.404" stroke="black" stroke-width="1.41962" stroke-miterlimit="10" stroke-linecap="round"/>
<path d="M108.07 145.431C110.058 143.349 110.152 141.552 110.152 141.552" stroke="black" stroke-width="1.41962" stroke-miterlimit="10" stroke-linecap="round"/>
<path d="M124.873 148.506C121.986 145.383 118.152 147.134 118.152 147.134" stroke="black" stroke-width="1.41962" stroke-miterlimit="10" stroke-linecap="round"/>
<path d="M126.578 144.295C128.282 140.558 124.826 136.206 121.513 135.827" stroke="black" stroke-width="1.41962" stroke-miterlimit="10" stroke-linecap="round"/>
<path d="M117.395 138.808C114.649 140.795 112.992 138.477 112.992 138.477" stroke="black" stroke-width="1.41962" stroke-miterlimit="10" stroke-linecap="round"/>
<path d="M60.8293 156.629C64.5215 156.109 67.0776 152.514 66.5569 148.587" stroke="black" stroke-width="1.41962" stroke-miterlimit="10" stroke-linecap="round"/>
<path d="M70.4443 147.181C70.255 150.445 73.2844 150.587 73.2844 150.587" stroke="black" stroke-width="1.41962" stroke-miterlimit="10" stroke-linecap="round"/>
<path d="M72.8051 154.655C70.8171 156.69 70.675 158.535 70.675 158.535" stroke="black" stroke-width="1.41962" stroke-miterlimit="10" stroke-linecap="round"/>
<path d="M76.8287 145.478C74.5566 148.316 76.2606 153.709 79.3848 155.034" stroke="black" stroke-width="1.41962" stroke-miterlimit="10" stroke-linecap="round"/>
<path d="M79.9053 148.789C81.42 146.377 83.2187 145.856 83.2187 145.856" stroke="black" stroke-width="1.41962" stroke-miterlimit="10" stroke-linecap="round"/>
<path d="M239.471 72.0107C237.815 69.6927 237.957 67.8477 237.957 67.8477" stroke="black" stroke-width="1.41962" stroke-miterlimit="10" stroke-linecap="round"/>
<path d="M254.655 68.5691C257.4 66.8187 255.791 64.3115 255.791 64.3115" stroke="black" stroke-width="1.41962" stroke-miterlimit="10" stroke-linecap="round"/>
<path d="M250.358 71.5035C251.258 67.3405 247.708 65.2117 247.708 65.2117" stroke="black" stroke-width="1.41962" stroke-miterlimit="10" stroke-linecap="round"/>
<path d="M242.643 72.3892C243.258 69.0777 246.098 69.5981 246.098 69.5981" stroke="black" stroke-width="1.41962" stroke-miterlimit="10" stroke-linecap="round"/>
<path d="M233.034 74.518C233.55 72.1794 232.701 69.8408 231 68.2408" stroke="black" stroke-width="1.41962" stroke-miterlimit="10" stroke-linecap="round"/>
<path d="M251.731 78.2552C248.37 77.8294 248.749 74.991 248.749 74.991" stroke="black" stroke-width="1.41962" stroke-miterlimit="10" stroke-linecap="round"/>
</svg>
