<svg width="400" height="300" viewBox="0 0 400 300" fill="none" xmlns="http://www.w3.org/2000/svg">
<path d="M238.5 14.5L232.5 23L273.5 53.5L279.5 55H284L288.5 53.5L290.5 50V45.5L288.5 42L285.5 38.5L284 36.5L282.5 31L280.5 24.5L277 19L273.5 14.5L269.5 11L264.5 8L257.5 6.5H251L243.5 9.5L238.5 14.5Z" fill="white"/>
<path d="M154.153 189.668C133.64 189.149 112.561 189.054 92.0001 189.432C99.8282 197.504 96.48 207.18 95.0653 212.373C92.4717 221.955 92.4245 229.366 96.7158 234.747C113.739 234.322 131.706 234.606 148.683 234.983H240.403C257.427 234.606 275.393 234.369 292.37 234.747C296.614 229.366 296.614 221.955 294.02 212.373C292.606 207.18 289.257 197.504 297.086 189.432C276.572 189.054 255.493 189.149 234.933 189.668H154.153Z" fill="white" stroke="black" stroke-width="1.4154" stroke-linecap="round"/>
<path d="M213.618 266.609C215.834 266.94 218.899 269.394 220.408 272.274C221.965 275.72 217.06 277.372 216.117 273.643C215.693 272.179 213.476 270.999 211.684 270.622C211.684 268.875 212.297 267.365 213.618 266.609Z" fill="white" stroke="black" stroke-width="1.4154" stroke-linecap="round" stroke-linejoin="round"/>
<path d="M187.587 273.595C192.397 274.492 198.48 278.741 199.471 280.251C200.32 281.384 200.555 282.611 199.659 283.744C198.763 284.877 197.207 285.16 195.745 284.169C195.745 284.169 195.698 284.122 195.651 284.122C194.944 283.555 192.303 280.723 189.19 280.015" fill="white"/>
<path d="M187.587 273.595C192.397 274.492 198.48 278.741 199.471 280.251C200.32 281.384 200.555 282.611 199.659 283.744C198.763 284.877 197.207 285.16 195.745 284.169C195.745 284.169 195.698 284.122 195.651 284.122C194.944 283.555 192.303 280.723 189.19 280.015" stroke="black" stroke-width="1.4154" stroke-linecap="round"/>
<path d="M188.294 276.758C192.067 278.929 195.84 284.311 196.217 285.868C196.594 287.096 196.405 288.181 195.321 288.842C194.236 289.503 192.821 289.267 191.925 288.04C191.925 288.04 191.878 287.992 191.878 287.945C191.454 287.284 190.086 284.075 187.729 282.564" fill="white"/>
<path d="M188.294 276.758C192.067 278.929 195.84 284.311 196.217 285.868C196.594 287.096 196.405 288.181 195.321 288.842C194.236 289.503 192.821 289.267 191.925 288.04C191.925 288.04 191.878 287.992 191.878 287.945C191.454 287.284 190.086 284.075 187.729 282.564" stroke="black" stroke-width="1.4154" stroke-linecap="round"/>
<path d="M210.317 253.581C204.894 244.329 195.604 239.562 188.907 242.394C188.577 242.488 188.294 242.63 188.011 242.819C187.964 242.819 187.917 242.866 187.917 242.913C187.87 242.961 187.823 242.961 187.776 243.008C185.182 244.707 184.333 248.153 185.936 250.891C186.785 252.354 188.2 253.298 189.756 253.676L199.989 271.094L200.178 271.282C199.518 272.935 199.612 274.823 200.555 276.475C202.206 279.26 205.789 280.204 208.619 278.552C215.268 274.54 216.07 263.352 210.317 253.581Z" fill="white" stroke="black" stroke-width="1.4154" stroke-linecap="round"/>
<path d="M166.744 187.733C177.354 183.72 222.389 185.136 222.389 185.136C225.973 182.729 230.076 180.605 235.216 179.047C204.8 187.874 214.231 216.857 200.037 236.73C197.962 237.815 196.311 239.703 195.557 242.111C194.095 246.784 196.594 251.929 201.168 253.628C206.214 255.469 211.684 252.732 213.241 247.681C213.524 246.784 213.665 245.887 213.665 244.99L268.461 184.192C272.517 179.85 272.564 173.1 268.603 168.663C256.389 155.21 229.227 132.505 186.078 142.181" fill="white"/>
<path d="M166.744 187.733C177.354 183.72 222.389 185.136 222.389 185.136C225.973 182.729 230.076 180.605 235.216 179.047C204.8 187.874 214.231 216.857 200.037 236.73C197.962 237.815 196.311 239.703 195.557 242.111C194.095 246.784 196.594 251.929 201.168 253.628C206.214 255.469 211.684 252.732 213.241 247.681C213.524 246.784 213.665 245.887 213.665 244.99L268.461 184.192C272.517 179.85 272.564 173.1 268.603 168.663C256.389 155.21 229.227 132.505 186.078 142.181" stroke="black" stroke-width="1.4154" stroke-linecap="round" stroke-linejoin="round"/>
<path d="M270.63 177.112C271.856 181.879 268.838 192.453 262.849 195.71C261.482 196.89 261.34 198.589 262.284 199.77C263.18 200.997 264.5 201.091 265.868 200.478C272.941 197.504 277.562 184.712 276.195 179.236" fill="white"/>
<path d="M270.63 177.112C271.856 181.879 268.838 192.453 262.849 195.71C261.482 196.89 261.34 198.589 262.284 199.77C263.18 200.997 264.5 201.091 265.868 200.478C272.941 197.504 277.562 184.712 276.195 179.236" stroke="black" stroke-width="1.4154" stroke-linecap="round"/>
<path d="M268.225 186.033C266.952 190.14 263.463 195.238 259.266 196.465C257.945 197.221 257.568 198.542 258.087 199.675C258.605 200.808 259.643 201.091 260.869 200.855C267.094 199.675 273.507 189.81 272.894 184.664" fill="white"/>
<path d="M268.225 186.033C266.952 190.14 263.463 195.238 259.266 196.465C257.945 197.221 257.568 198.542 258.087 199.675C258.605 200.808 259.643 201.091 260.869 200.855C267.094 199.675 273.507 189.81 272.894 184.664" stroke="black" stroke-width="1.4154" stroke-linecap="round"/>
<path d="M264.406 183.012C264.641 186.222 261.576 192.642 257.379 194.058C256.389 194.672 256.106 195.71 256.53 196.607C256.955 197.504 257.804 197.693 258.747 197.457C264.028 196.654 269.121 188.724 268.32 184.523" fill="white"/>
<path d="M264.406 183.012C264.641 186.222 261.576 192.642 257.379 194.058C256.389 194.672 256.106 195.71 256.53 196.607C256.955 197.504 257.804 197.693 258.747 197.457C264.028 196.654 269.121 188.724 268.32 184.523" stroke="black" stroke-width="1.4154" stroke-linecap="round"/>
<path d="M278.506 170.315C278.364 168.379 277.374 163.045 275.393 160.071C273.884 143.975 260.822 131.797 248.938 127.36C249.881 116.975 245.826 101.587 237.715 96.2054C239.224 92.6652 240.073 88.7945 240.073 84.735C240.073 68.6387 227.058 55.5634 210.93 55.5634C194.802 55.5634 181.787 68.5915 181.787 84.735C181.787 100.879 194.802 113.907 210.93 113.907C216.919 113.907 222.436 112.113 227.058 108.998L222.342 115.323C232.575 118.533 239.648 147.987 239.648 147.987C250.683 148.318 259.596 155.398 263.085 160.166C261.812 161.629 261.058 163.517 261.058 165.594C261.058 168.426 262.472 170.881 264.594 172.392L265.019 178.953L265.113 179.142C264.076 180.038 263.463 181.455 263.557 182.918C263.746 185.467 265.915 187.402 268.508 187.261C274.592 186.836 279.072 179.236 278.506 170.315Z" fill="white" stroke="black" stroke-width="1.4154"/>
<path d="M271.668 57.9236L267.99 72.6511C267.707 73.8311 266.292 74.3976 265.254 73.6895L259.171 69.5357L271.668 57.9236Z" fill="white" stroke="black" stroke-width="1.4154" stroke-linecap="round"/>
<path d="M244.93 60.7558L231.066 28.0911L208.572 38.4758C185.607 39.7503 143.307 55.1858 133.593 105.363C133.545 105.741 123.595 124.952 123.595 124.952C121.898 126.604 120.389 128.398 119.068 130.239C111.853 136.8 107.326 146.288 107.326 156.814C107.326 170.456 114.918 182.823 126.095 188.913C126.802 189.29 153.823 189.196 153.823 189.196C153.823 189.196 183.815 147.468 185.041 144.353C186.314 142.465 186.597 140.104 186.125 138.83C212.769 126.793 248.09 103.097 230.359 68.4971L221.965 72.9814L244.93 60.7558ZM173.346 137.461C176.364 138.688 183.154 139.963 185.937 138.924C182.919 140.057 176.364 138.783 173.346 137.461Z" fill="white" stroke="black" stroke-width="1.4154" stroke-linecap="round" stroke-linejoin="round"/>
<path d="M177.59 261.511C168.677 254.997 157.925 254.289 152.738 259.718C152.502 259.954 152.267 260.19 152.031 260.52C151.984 260.567 151.984 260.615 151.937 260.615C151.889 260.662 151.842 260.709 151.842 260.756C150.097 263.447 150.71 267.034 153.351 268.97C154.766 270.008 156.511 270.338 158.114 270.008L174.902 282.281L175.138 282.375C175.185 284.169 176.034 285.963 177.637 287.096C180.325 289.078 184.145 288.464 186.125 285.774C190.888 279.307 187.068 268.403 177.59 261.511Z" fill="white" stroke="black" stroke-width="1.4154" stroke-linecap="round"/>
<path d="M184.192 282.894C186.455 283.839 189.473 287.332 190.181 289.597C190.888 290.966 192.256 291.391 193.435 290.919C194.614 290.4 194.944 289.361 194.755 288.087C194.755 286.671 190.134 281.101 187.493 279.637" fill="white"/>
<path d="M184.192 282.894C186.455 283.839 189.473 287.332 190.181 289.597C190.888 290.966 192.256 291.391 193.435 290.919C194.614 290.4 194.944 289.361 194.755 288.087C194.755 286.671 190.134 281.101 187.493 279.637" stroke="black" stroke-width="1.4154" stroke-linecap="round"/>
<path d="M266.009 15.6295C253.277 9.16264 237.715 14.2134 231.207 26.9583C225.737 36.5877 231.396 48.4358 236.253 50.7487L235.216 53.9585C234.697 55.6107 234.791 57.3572 235.546 58.9149L239.177 69.2524C240.167 72.1318 242.902 74.0672 245.92 73.9727C257.432 73.6363 269.729 63.4463 275.51 53.9171C276.218 52.7502 276.828 51.5933 277.327 50.4655C283.127 37.3902 278.741 22.1435 266.009 15.6295Z" fill="white"/>
<path d="M277.327 50.4655C283.127 37.3902 278.741 22.1435 266.009 15.6295C253.277 9.16264 237.715 14.2134 231.207 26.9583C225.737 36.5877 231.396 48.4358 236.253 50.7487L235.216 53.9585C234.697 55.6107 234.791 57.3572 235.546 58.9149L239.177 69.2524C240.167 72.1318 242.902 74.0672 245.92 73.9727C257.432 73.6363 269.729 63.4463 275.51 53.9171M277.327 50.4655C276.828 51.5933 276.218 52.7502 275.51 53.9171M277.327 50.4655L275.51 53.9171" stroke="black" stroke-width="1.4154" stroke-linecap="round" stroke-linejoin="round"/>
<path d="M231.544 28.1369C235.515 16.2171 249.129 9.06513 262.743 14.5142C279.76 21.3256 284.866 38.3539 275.222 53.6795" stroke="white" stroke-width="2.26973"/>
<path d="M259.03 59.4814C258.983 59.4814 258.935 59.4814 258.888 59.4814C258.7 59.4342 258.511 59.3398 258.417 59.1981C258.322 59.0565 258.275 58.8205 258.275 58.6317C258.322 58.2541 258.652 58.0181 258.983 58.0181C259.03 58.0181 259.077 58.0181 259.124 58.0181C259.313 58.0653 259.501 58.1597 259.596 58.3013C259.69 58.4429 259.737 58.6789 259.737 58.8677C259.69 59.2454 259.36 59.4814 259.03 59.4814Z" fill="black"/>
<path d="M259.03 57.31C258.323 57.31 257.71 57.782 257.615 58.4901C257.474 59.2925 257.993 60.0478 258.794 60.1894C258.889 60.1894 258.983 60.1894 259.03 60.1894C259.737 60.1894 260.35 59.7174 260.445 59.0093C260.586 58.2069 260.067 57.4516 259.266 57.31C259.171 57.31 259.124 57.31 259.03 57.31Z" fill="black"/>
<path d="M248.797 79.3067C244.317 77.2298 233.376 78.3154 229.132 83.6494C227.718 84.7823 226.067 84.5935 225.03 83.5078C223.992 82.4221 224.134 81.1004 224.983 79.8259C229.179 73.4063 242.572 71.0933 247.712 73.4063" fill="white"/>
<path d="M248.797 79.3067C244.317 77.2298 233.376 78.3154 229.132 83.6494C227.718 84.7823 226.067 84.5935 225.03 83.5078C223.992 82.4221 224.134 81.1004 224.983 79.8259C229.179 73.4063 242.572 71.0933 247.712 73.4063" stroke="black" stroke-width="1.4154" stroke-linecap="round"/>
<path d="M262.261 60.0006C262.513 58.5626 261.552 57.1924 260.116 56.9401C258.679 56.6878 257.31 57.6491 257.058 59.0871C256.806 60.5251 257.767 61.8953 259.203 62.1476C260.64 62.3998 262.009 61.4386 262.261 60.0006Z" stroke="black" stroke-width="1.41546" stroke-linecap="round"/>
<path d="M239.601 80.1091C235.31 80.6284 229.698 83.1774 227.765 87.0952C226.822 88.2753 225.454 88.4169 224.417 87.7089C223.379 87.0008 223.285 85.9151 223.71 84.7351C225.973 78.8347 236.819 74.2559 241.771 75.7664" fill="white"/>
<path d="M239.601 80.1091C235.31 80.6284 229.698 83.1774 227.765 87.0952C226.822 88.2753 225.454 88.4169 224.417 87.7089C223.379 87.0008 223.285 85.9151 223.71 84.7351C225.973 78.8347 236.819 74.2559 241.771 75.7664" stroke="black" stroke-width="1.4154" stroke-linecap="round"/>
<path d="M241.016 83.9798C237.903 83.1301 231.019 85.0655 228.896 88.9361C228.095 89.833 227.01 89.8802 226.256 89.3138C225.454 88.7001 225.407 87.8505 225.831 86.9536C227.576 81.9028 236.3 78.3154 240.214 79.8259" fill="white"/>
<path d="M241.016 83.9798C237.903 83.1301 231.019 85.0655 228.896 88.9361C228.095 89.833 227.01 89.8802 226.256 89.3138C225.454 88.7001 225.407 87.8505 225.831 86.9536C227.576 81.9028 236.3 78.3154 240.214 79.8259" stroke="black" stroke-width="1.4154" stroke-linecap="round"/>
<path d="M258.982 58.4204C259.027 58.1636 258.855 57.919 258.599 57.8739C258.342 57.8289 258.098 58.0005 258.053 58.2573C258.008 58.5141 258.179 58.7587 258.436 58.8038C258.692 58.8488 258.937 58.6772 258.982 58.4204Z" fill="white"/>
<path d="M260.775 62.7383C258.37 63.6352 255.682 62.4079 254.786 60.0005" stroke="black" stroke-width="1.4154" stroke-linecap="round" stroke-linejoin="round"/>
<path d="M266.056 58.254C262.472 59.2453 258.653 56.3659 256.813 54.4305Z" fill="white"/>
<path d="M266.056 58.254C262.472 59.2453 258.653 56.3659 256.813 54.4305" stroke="black" stroke-width="1.4154" stroke-linecap="round" stroke-linejoin="round"/>
<path d="M265.349 57.546C266.481 59.2925 269.216 58.4429 269.169 56.3659C269.122 53.6281 267.707 50.9375 265.255 49.3326C262.755 47.7277 259.69 47.5861 257.144 48.6718C255.258 49.4742 255.588 52.2592 257.615 52.5425C258.794 52.3064 260.539 52.1176 262.567 53.4393C264.547 54.761 264.972 56.4603 265.349 57.546Z" fill="white" stroke="black" stroke-width="1.4154" stroke-linecap="round"/>
<path d="M270.159 82.0917C268.697 77.6074 263.793 73.5479 257.332 71.8958C248.608 69.7245 240.356 72.7927 238.847 78.7875C238.234 81.2893 239.743 83.791 242.242 84.4047C243.704 84.7823 245.166 84.4047 246.25 83.555L255.87 86.0096C251.438 98.7073 244.081 109.8 232.858 117.777C232.009 105.882 230.264 99.1793 222.86 88.653L222.813 88.7002C223.285 86.8593 223.521 84.9239 223.521 82.8942C223.521 69.4884 212.675 58.6789 199.329 58.6789C185.984 58.6789 175.138 69.5356 175.138 82.8942C175.138 93.7981 182.353 103.003 192.208 106.071C200.98 120.798 202.159 133.638 228.661 152.897C230.689 154.36 233.424 154.218 235.31 152.661C250.589 139.821 264.17 110.225 268.933 90.4467C270.206 89.1722 271.008 87.3785 271.008 85.3959C270.961 84.2159 270.678 83.083 270.159 82.0917Z" fill="white" stroke="black" stroke-width="1.4154" stroke-linecap="round" stroke-linejoin="round"/>
<path d="M232.669 116.172C232.716 118.957 232.622 121.79 232.245 123.583" stroke="black" stroke-width="1.4154" stroke-linecap="round" stroke-linejoin="round"/>
<path d="M125.387 188.677L170.469 189.149C172.119 187.355 174.383 185.656 176.882 183.956C150.474 201.422 168.064 226.298 160.425 249.522C158.774 251.174 157.784 253.487 157.784 255.989C157.784 260.898 161.651 265.052 166.555 265.288C171.884 265.571 176.316 261.323 176.316 256.036C176.316 255.092 176.175 254.195 175.892 253.345L219.135 169.795C221.729 164.414 219.748 157.947 214.655 154.926C198.999 145.722 173.487 140.293 145.995 142.182" fill="white"/>
<path d="M125.387 188.677L170.469 189.149C172.119 187.355 174.383 185.656 176.882 183.956C150.474 201.422 168.064 226.298 160.425 249.522C158.774 251.174 157.784 253.487 157.784 255.989C157.784 260.898 161.651 265.052 166.555 265.288C171.884 265.571 176.316 261.323 176.316 256.036C176.316 255.092 176.175 254.195 175.892 253.345L219.135 169.795C221.729 164.414 219.748 157.947 214.655 154.926C198.999 145.722 173.487 140.293 145.995 142.182" stroke="black" stroke-width="1.4154" stroke-linecap="round" stroke-linejoin="round"/>
<path d="M258.794 163.329C253.088 168.379 252.051 182.068 255.163 186.458C255.918 187.497 257.474 187.733 258.559 186.93C259.455 186.269 259.737 185.136 259.407 184.145C258.181 181.124 258.841 172.58 261.577 169.795C262.803 170.079 264.17 169.843 265.255 168.993C267.141 167.53 267.518 164.745 266.009 162.857C264.5 160.968 261.388 160.213 258.794 163.329Z" fill="white" stroke="black" stroke-width="1.4154" stroke-linecap="round" stroke-linejoin="round"/>
<path d="M255.682 86.4344C255.965 85.4432 256.436 84.5935 257.097 83.9799" stroke="black" stroke-width="1.4154" stroke-linecap="round" stroke-linejoin="round"/>
<path d="M263.415 160.874C264.028 160.024 264.783 159.411 265.585 159.033" stroke="black" stroke-width="1.4154" stroke-linecap="round" stroke-linejoin="round"/>
<path d="M181.315 284.594C183.579 285.302 186.55 288.465 187.304 291.297C188.011 292.666 189.379 293.09 190.558 292.618C191.737 292.099 192.067 291.061 191.878 289.786C191.878 288.37 187.257 282.8 184.616 281.337" fill="white"/>
<path d="M181.315 284.594C183.579 285.302 186.55 288.465 187.304 291.297C188.011 292.666 189.379 293.09 190.558 292.618C191.737 292.099 192.067 291.061 191.878 289.786C191.878 288.37 187.257 282.8 184.616 281.337" stroke="black" stroke-width="1.4154" stroke-linecap="round"/>
<path d="M181.268 283.461C183.437 284.216 186.078 287.284 187.116 290.494C188.106 294.27 182.777 295.073 182.494 291.108C182.306 289.55 180.325 287.945 178.58 287.19C178.863 285.396 179.806 283.98 181.268 283.461Z" fill="white" stroke="black" stroke-width="1.4154" stroke-linecap="round" stroke-linejoin="round"/>
<path d="M211.307 273.076C211.967 274.398 213.052 276.758 213.099 277.797C213.476 279.26 214.655 279.968 215.881 279.779C217.107 279.59 217.673 278.646 217.768 277.419C218.051 276.05 214.985 269.819 212.816 267.789" fill="white"/>
<path d="M211.307 273.076C211.967 274.398 213.052 276.758 213.099 277.797C213.476 279.26 214.655 279.968 215.881 279.779C217.107 279.59 217.673 278.646 217.768 277.419C218.051 276.05 214.985 269.819 212.816 267.789" stroke="black" stroke-width="1.4154" stroke-linecap="round"/>
<path d="M211.024 270.008C213.948 273.076 215.976 279.118 215.928 280.676C215.976 281.903 215.504 282.894 214.278 283.225C213.099 283.555 211.826 282.942 211.354 281.526C211.354 281.526 211.354 281.478 211.354 281.431C211.166 280.676 210.741 277.372 208.949 275.295" fill="white"/>
<path d="M211.024 270.008C213.948 273.076 215.976 279.118 215.928 280.676C215.976 281.903 215.504 282.894 214.278 283.225C213.099 283.555 211.826 282.942 211.354 281.526C211.354 281.526 211.354 281.478 211.354 281.431C211.166 280.676 210.741 277.372 208.949 275.295" stroke="black" stroke-width="1.4154" stroke-linecap="round"/>
<path d="M206.025 277.183C206.591 278.127 207.063 279.213 207.346 280.298C207.582 281.101 207.676 281.903 207.676 282.658C207.959 284.122 209.091 284.924 210.317 284.783C211.543 284.641 212.156 283.744 212.297 282.517C212.675 281.195 209.939 274.776 207.865 272.651" fill="white"/>
<path d="M206.025 277.183C206.591 278.127 207.063 279.213 207.346 280.298C207.582 281.101 207.676 281.903 207.676 282.658C207.959 284.122 209.091 284.924 210.317 284.783C211.543 284.641 212.156 283.744 212.297 282.517C212.675 281.195 209.939 274.776 207.865 272.651" stroke="black" stroke-width="1.4154" stroke-linecap="round"/>
<path d="M206.591 275.767C208.289 279.496 207.77 283.272 207.393 284.452C207.063 285.821 206.308 286.765 204.894 286.765C203.479 286.812 202.3 285.821 202.158 284.122V284.027C202.158 283.178 202.63 279.401 201.215 276.664C202.819 275.011 204.611 274.775 206.591 275.767Z" fill="white" stroke="black" stroke-width="1.4154" stroke-linecap="round"/>
<path d="M263.84 35.2188C264.547 35.1244 265.255 34.9828 265.962 34.794L267.235 34.4636L263.84 35.2188ZM262.85 15.0158C263.699 13.0333 267.188 13.6469 267.613 15.7711C267.188 13.6469 263.699 12.9861 262.85 15.0158ZM277.61 52.7784C276.431 50.8431 278.412 48.3413 280.439 48.8606C278.412 48.2941 276.431 50.7959 277.61 52.7784ZM284.353 49.3798C286.24 48.5774 287.796 49.9463 287.796 49.9463Z" fill="white"/>
<path d="M252.475 33.3779L251.249 40.6C251.061 41.6385 250.683 42.6297 250.07 43.4794L247.901 46.2172L246.864 47.5389L243.657 41.3081M252.475 33.3779L255.493 34.4164C255.54 34.4164 255.54 34.4164 255.588 34.4636M252.475 33.3779L257.898 35.0772M243.657 41.3081C244.034 41.2136 246.345 40.0808 247.665 41.4969C246.392 40.0808 244.081 41.2136 243.657 41.3081ZM255.588 34.4636C256.578 33.3307 256.814 31.4898 255.965 30.3569C256.767 31.537 256.578 33.3779 255.588 34.4636ZM255.588 34.4636C256.342 34.6996 257.144 34.9356 257.898 35.0772M257.898 35.0772C259.832 35.4548 261.86 35.502 263.84 35.2188M283.929 36.8709C283.787 36.7293 283.269 33.8971 282.939 32.3866M282.939 32.3866C282.561 32.5754 280.722 32.3866 280.958 34.3692C280.769 32.6226 282.609 32.5754 282.939 32.3866ZM282.939 32.3866C282.467 30.1681 281.713 27.7135 280.628 25.2117M280.628 25.2117C278.789 25.5422 277.563 28.2327 279.025 29.5072C277.516 28.2327 278.789 25.495 280.628 25.2117ZM280.628 25.2117C276.855 16.4791 269.122 7.32169 256.436 6.14161M256.436 6.14161C256.767 8.07694 254.786 10.3427 252.664 9.91787M256.436 6.14161C255.352 6.0472 254.267 6 253.088 6C251.626 6.18881 250.259 6.42483 248.939 6.80246M248.939 6.80246C250.259 7.4161 250.542 10.2483 249.221 11.4284C250.495 10.2955 250.117 7.4161 248.939 6.80246ZM248.939 6.80246C241.676 8.78499 233.33 19.5945 230.359 28.2799C228.708 33.4723 228.708 38.4759 230.217 41.4969L240.686 35.5965M267.235 34.4164L267.565 34.322C271.244 39.9864 274.262 46.0284 275.111 54.0057C275.394 54.1001 275.394 54.1001 275.912 54.289C279.638 55.469 283.033 55.6578 286.004 54.5722M286.004 54.5722C285.344 51.5512 282.514 51.1735 282.514 51.1735M286.004 54.5722C286.806 54.289 287.56 53.8641 288.315 53.3921C292.559 50.6543 291.238 43.9042 285.768 38.5703M285.768 38.5703C285.532 38.9007 284.966 39.9864 285.014 41.8273M285.768 38.5703C285.202 38.0038 284.542 37.4374 283.882 36.9181M263.84 35.2188C264.547 35.1244 265.255 34.9828 265.962 34.794L267.235 34.4636L263.84 35.2188ZM250.825 13.3637C250.825 13.3637 250.542 15.4407 252.711 16.3847M251.296 18.6033C251.296 18.6033 247.995 18.084 247.807 14.355M247.618 25.1645C248.608 23.2292 246.911 20.6802 244.93 20.5386M246.675 9.77626C244.553 9.58745 243.515 12.7501 245.213 14.119M243.421 15.8183C241.299 16.2903 240.403 19.2169 241.582 20.8218M239.036 15.7239C239.13 17.9896 238.234 19.1225 238.234 19.1225M236.913 28.0911C236.913 28.0911 239.601 27.8079 240.545 29.8377M238.8 26.3918C240.733 25.6838 242.195 27.0527 242.195 27.0527M238.187 21.3411C238.517 23.4652 242.006 24.2205 242.95 22.2379M242.714 31.1121C244.836 31.3482 246.534 28.1855 244.883 26.7694M248.043 39.2311C248.043 39.2311 247.854 36.9181 245.449 36.7765M246.864 34.558C246.864 34.558 250.165 35.0772 250.353 38.8063M248.043 28.2327C248.373 30.4041 251.249 31.4426 252.947 30.4041M252.805 26.3446C251.155 24.9285 252.853 21.7659 254.975 22.0019M278.789 22.9932C278.789 22.9932 275.488 22.4739 275.299 18.7449M275.063 29.5544C276.054 27.6191 274.356 25.0701 272.375 24.9285M272.14 13.7413C270.018 13.5525 268.98 16.7151 270.678 18.084M270.914 20.2082C268.792 20.6802 267.896 23.6068 269.075 25.2117M268.179 10.5315C266.717 11.9004 264.595 10.8147 264.595 10.8147M261.058 17.9424C261.058 17.9424 260.775 20.0194 262.944 20.9634M262.001 27.1943C260.068 27.9023 258.606 26.5334 258.606 26.5334M261.624 11.098C261.624 11.098 262.378 9.20982 261.011 7.65211M256.201 15.4879C258.228 16.0543 260.209 13.5525 259.03 11.57M261.577 25.1173C261.577 25.1173 258.276 24.5981 258.087 20.869M258.794 31.9146C259.69 29.9321 263.18 30.6873 263.557 32.8115M267.471 18.1312C267.565 20.397 266.67 21.5299 266.67 21.5299M266.292 30.7817C268.226 30.0737 269.688 31.4426 269.688 31.4426M265.679 25.731C266.009 27.8551 269.499 28.6104 270.442 26.6278M270.206 35.502C272.328 35.7381 274.026 32.5754 272.375 31.1593M274.356 38.9479C274.356 38.9479 277.657 39.4671 277.846 43.1962M277.138 32.1978C276.148 34.1332 277.846 36.6821 279.826 36.8237M280.392 46.17C282.467 45.7452 283.174 43.5266 281.854 41.8273M284.353 49.3798C286.24 48.5774 287.796 49.9463 287.796 49.9463M262.85 15.0158C263.699 13.0333 267.188 13.6469 267.613 15.7711C267.188 13.6469 263.699 12.9861 262.85 15.0158ZM277.61 52.7784C276.431 50.8431 278.412 48.3413 280.439 48.8606C278.412 48.2941 276.431 50.7959 277.61 52.7784Z" stroke="black" stroke-width="1.4154" stroke-linecap="round" stroke-linejoin="round"/>
<path d="M286.428 44.9427C288.361 44.2347 289.823 45.6036 289.823 45.6036C289.823 45.6036 288.314 44.1875 286.428 44.9427Z" fill="white" stroke="black" stroke-width="1.4154" stroke-linecap="round" stroke-linejoin="round"/>
<path d="M273.035 44.2818C274.969 43.5738 276.431 44.9427 276.431 44.9427C276.431 44.9427 274.969 43.5738 273.035 44.2818Z" fill="white" stroke="black" stroke-width="1.4154" stroke-linecap="round" stroke-linejoin="round"/>
<path d="M237.385 48.719C237.243 48.6718 237.149 48.5774 237.007 48.483C235.451 47.3501 235.074 45.1787 236.206 43.5738C237.337 42.0161 239.507 41.6385 241.11 42.7714C241.817 43.2906 242.289 43.9515 242.478 44.7539C242.902 44.8011 243.326 44.9427 243.751 45.1315C243.892 45.1787 243.987 45.2259 244.081 45.3204C245.826 41.7801 245.213 37.7678 242.43 35.7853C239.271 33.5195 234.555 34.794 231.82 38.6175C229.132 42.3937 229.509 47.3029 232.622 49.5686C234.037 50.6071 235.781 50.8903 237.526 50.5599C237.337 49.9463 237.29 49.3326 237.385 48.719Z" fill="white" stroke="black" stroke-width="1.4154" stroke-linecap="round" stroke-linejoin="round"/>
<path d="M239.177 34.3219C237.621 32.953 238.139 31.0177 238.139 31.0177C238.139 31.0177 237.621 33.0002 239.177 34.3219Z" fill="white" stroke="black" stroke-width="1.4154" stroke-linecap="round" stroke-linejoin="round"/>
<path d="M236.772 23.89C234.744 23.654 234.037 21.7659 234.037 21.7659Z" fill="white"/>
<path d="M236.772 23.89C234.744 23.654 234.037 21.7659 234.037 21.7659" stroke="black" stroke-width="1.4154" stroke-linecap="round" stroke-linejoin="round"/>
<path d="M235.499 31.1594C234.037 27.7607 230.83 28.3744 230.83 28.3744" stroke="black" stroke-width="1.4154" stroke-linecap="round"/>
<path d="M230.264 30.9233C232.622 31.0649 233.046 33.0947 233.046 33.0947" stroke="black" stroke-width="1.4154" stroke-linecap="round"/>
<path d="M199.188 119.902C184.003 125.283 167.31 117.353 161.934 102.153" stroke="black" stroke-width="1.4154" stroke-linecap="round"/>
</svg>
