<?xml version="1.0" encoding="UTF-8"?>
<svg width="917px" height="648px" viewBox="0 0 917 648" version="1.1" xmlns="http://www.w3.org/2000/svg" xmlns:xlink="http://www.w3.org/1999/xlink">
    <!-- Generator: Sketch 51.3 (57544) - http://www.bohemiancoding.com/sketch -->
    <title>homo_sapiens</title>
    <desc>Created with Sketch.</desc>
    <defs></defs>
    <g id="homo_sapiens" stroke="none" stroke-width="1" fill="none" fill-rule="evenodd">
        <g transform="translate(199.000000, 25.000000)">
            <path d="M132.3,389.6 C88.8,388.5 44.1,388.3 0.5,389.1 C17.1,406.2 10,426.7 7,437.7 C1.5,458 1.4,473.7 10.5,485.1 C46.6,484.2 84.7,484.8 120.7,485.6 L315.2,485.6 C351.3,484.8 389.4,484.3 425.4,485.1 C434.4,473.7 434.4,458 428.9,437.7 C425.9,426.7 418.8,406.2 435.4,389.1 C391.9,388.3 347.2,388.5 303.6,389.6 L132.3,389.6 Z" id="Shape" stroke="#000000" stroke-width="3" fill="#FFFFFF" fill-rule="nonzero" stroke-linecap="round"></path>
            <path d="M258.4,552.6 C263.1,553.3 269.6,558.5 272.8,564.6 C276.1,571.9 265.7,575.4 263.7,567.5 C262.8,564.4 258.1,561.9 254.3,561.1 C254.3,557.4 255.6,554.2 258.4,552.6 Z" id="Shape" stroke="#000000" stroke-width="3" fill="#FFFFFF" fill-rule="nonzero" stroke-linecap="round" stroke-linejoin="round"></path>
            <path d="M203.2,567.4 C213.4,569.3 226.3,578.3 228.4,581.5 C230.2,583.9 230.7,586.5 228.8,588.9 C226.9,591.3 223.6,591.9 220.5,589.8 C220.5,589.8 220.4,589.7 220.3,589.7 C218.8,588.5 213.2,582.5 206.6,581" id="Shape" stroke="#000000" stroke-width="3" fill="#FFFFFF" fill-rule="nonzero" stroke-linecap="round"></path>
            <path d="M204.7,574.1 C212.7,578.7 220.7,590.1 221.5,593.4 C222.3,596 221.9,598.3 219.6,599.7 C217.3,601.1 214.3,600.6 212.4,598 C212.4,598 212.3,597.9 212.3,597.8 C211.4,596.4 208.5,589.6 203.5,586.4" id="Shape" stroke="#000000" stroke-width="3" fill="#FFFFFF" fill-rule="nonzero" stroke-linecap="round"></path>
            <path d="M251.4,525 C239.9,505.4 220.2,495.3 206,501.3 C205.3,501.5 204.7,501.8 204.1,502.2 C204,502.2 203.9,502.3 203.9,502.4 C203.8,502.5 203.7,502.5 203.6,502.6 C198.1,506.2 196.3,513.5 199.7,519.3 C201.5,522.4 204.5,524.4 207.8,525.2 L229.5,562.1 L229.9,562.5 C228.5,566 228.7,570 230.7,573.5 C234.2,579.4 241.8,581.4 247.8,577.9 C261.9,569.4 263.6,545.7 251.4,525 Z" id="Shape" stroke="#000000" stroke-width="3" fill="#FFFFFF" fill-rule="nonzero" stroke-linecap="round"></path>
            <path d="M159,385.5 C181.5,377 277,380 277,380 C284.6,374.9 293.3,370.4 304.2,367.1 C239.7,385.8 259.7,447.2 229.6,489.3 C225.2,491.6 221.7,495.6 220.1,500.7 C217,510.6 222.3,521.5 232,525.1 C242.7,529 254.3,523.2 257.6,512.5 C258.2,510.6 258.5,508.7 258.5,506.8 L374.7,378 C383.3,368.8 383.4,354.5 375,345.1 C349.1,316.6 291.5,268.5 200,289" id="Shape" stroke="#000000" stroke-width="3" fill="#FFFFFF" fill-rule="nonzero" stroke-linecap="round" stroke-linejoin="round"></path>
            <path d="M379.3,363 C381.9,373.1 375.5,395.5 362.8,402.4 C359.9,404.9 359.6,408.5 361.6,411 C363.5,413.6 366.3,413.8 369.2,412.5 C384.2,406.2 394,379.1 391.1,367.5" id="Shape" stroke="#000000" stroke-width="3" fill="#FFFFFF" fill-rule="nonzero" stroke-linecap="round"></path>
            <path d="M374.2,381.9 C371.5,390.6 364.1,401.4 355.2,404 C352.4,405.6 351.6,408.4 352.7,410.8 C353.8,413.2 356,413.8 358.6,413.3 C371.8,410.8 385.4,389.9 384.1,379" id="Shape" stroke="#000000" stroke-width="3" fill="#FFFFFF" fill-rule="nonzero" stroke-linecap="round"></path>
            <path d="M366.1,375.5 C366.6,382.3 360.1,395.9 351.2,398.9 C349.1,400.2 348.5,402.4 349.4,404.3 C350.3,406.2 352.1,406.6 354.1,406.1 C365.3,404.4 376.1,387.6 374.4,378.7" id="Shape" stroke="#000000" stroke-width="3" fill="#FFFFFF" fill-rule="nonzero" stroke-linecap="round"></path>
            <path d="M396,348.6 C395.7,344.5 393.6,333.2 389.4,326.9 C386.2,292.8 358.5,267 333.3,257.6 C335.3,235.6 326.7,203 309.5,191.6 C312.7,184.1 314.5,175.9 314.5,167.3 C314.5,133.2 286.9,105.5 252.7,105.5 C218.5,105.5 190.9,133.1 190.9,167.3 C190.9,201.5 218.5,229.1 252.7,229.1 C265.4,229.1 277.1,225.3 286.9,218.7 L276.9,232.1 C298.6,238.9 313.6,301.3 313.6,301.3 C337,302 355.9,317 363.3,327.1 C360.6,330.2 359,334.2 359,338.6 C359,344.6 362,349.8 366.5,353 L367.4,366.9 L367.6,367.3 C365.4,369.2 364.1,372.2 364.3,375.3 C364.7,380.7 369.3,384.8 374.8,384.5 C387.7,383.6 397.2,367.5 396,348.6 Z" id="Shape" stroke="#000000" stroke-width="3" fill="#FFFFFF" fill-rule="nonzero"></path>
            <path d="M381.5,110.5 L373.7,141.7 C373.1,144.2 370.1,145.4 367.9,143.9 L355,135.1 L381.5,110.5 Z" id="Shape" stroke="#000000" stroke-width="3" fill="#FFFFFF" fill-rule="nonzero" stroke-linecap="round"></path>
            <path d="M324.8,116.5 L295.4,47.3 L247.7,69.3 C199,72 109.3,104.7 88.7,211 C88.6,211.8 67.5,252.5 67.5,252.5 C63.9,256 60.7,259.8 57.9,263.7 C42.6,277.6 33,297.7 33,320 C33,348.9 49.1,375.1 72.8,388 C74.3,388.8 131.6,388.6 131.6,388.6 C131.6,388.6 195.2,300.2 197.8,293.6 C200.5,289.6 201.1,284.6 200.1,281.9 C256.6,256.4 331.5,206.2 293.9,132.9 L276.1,142.4 L324.8,116.5 Z M173,279 C173,279 173,279 173,279 C179.4,281.6 193.8,284.3 199.7,282.1 C193.3,284.5 179.4,281.8 173,279 Z" id="Shape" stroke="#000000" stroke-width="3" fill="#FFFFFF" fill-rule="nonzero" stroke-linecap="round" stroke-linejoin="round"></path>
            <path d="M182,541.8 C163.1,528 140.3,526.5 129.3,538 C128.8,538.5 128.3,539 127.8,539.7 C127.7,539.8 127.7,539.9 127.6,539.9 C127.5,540 127.4,540.1 127.4,540.2 C123.7,545.9 125,553.5 130.6,557.6 C133.6,559.8 137.3,560.5 140.7,559.8 L176.3,585.8 L176.8,586 C176.9,589.8 178.7,593.6 182.1,596 C187.8,600.2 195.9,598.9 200.1,593.2 C210.2,579.5 202.1,556.4 182,541.8 Z" id="Shape" stroke="#000000" stroke-width="3" fill="#FFFFFF" fill-rule="nonzero" stroke-linecap="round"></path>
            <path d="M196,587.1 C200.8,589.1 207.2,596.5 208.7,601.3 C210.2,604.2 213.1,605.1 215.6,604.1 C218.1,603 218.8,600.8 218.4,598.1 C218.4,595.1 208.6,583.3 203,580.2" id="Shape" stroke="#000000" stroke-width="3" fill="#FFFFFF" fill-rule="nonzero" stroke-linecap="round"></path>
            <path d="M369.5,20.9 C342.5,7.2 309.5,17.9 295.7,44.9 C284.1,65.3 296.1,90.4 306.4,95.3 L304.2,102.1 C303.1,105.6 303.3,109.3 304.9,112.6 L312.6,134.5 C314.7,140.6 320.5,144.7 326.9,144.5 C354.3,143.7 383.8,116.6 393.5,94.7 C405.8,67 396.5,34.7 369.5,20.9 Z" id="Shape" stroke="#000000" stroke-width="3" fill="#FFFFFF" fill-rule="nonzero" stroke-linecap="round" stroke-linejoin="round"></path>
            <g id="Group" transform="translate(351.000000, 109.000000)" fill="#000000" fill-rule="nonzero">
                <path d="M3.7,4.8 C3.6,4.8 3.5,4.8 3.4,4.8 C3,4.7 2.6,4.5 2.4,4.2 C2.2,3.9 2.1,3.4 2.1,3 C2.2,2.2 2.9,1.7 3.6,1.7 C3.7,1.7 3.8,1.7 3.9,1.7 C4.3,1.8 4.7,2 4.9,2.3 C5.1,2.6 5.2,3.1 5.2,3.5 C5.1,4.3 4.4,4.8 3.7,4.8 Z" id="Shape"></path>
                <path d="M3.7,0.2 C2.2,0.2 0.9,1.2 0.7,2.7 C0.4,4.4 1.5,6 3.2,6.3 C3.4,6.3 3.6,6.3 3.7,6.3 C5.2,6.3 6.5,5.3 6.7,3.8 C7,2.1 5.9,0.5 4.2,0.2 C4,0.2 3.9,0.2 3.7,0.2 Z" id="Shape"></path>
            </g>
            <path d="M333,155.8 C323.5,151.4 300.3,153.7 291.3,165 C288.3,167.4 284.8,167 282.6,164.7 C280.4,162.4 280.7,159.6 282.5,156.9 C291.4,143.3 319.8,138.4 330.7,143.3" id="Shape" stroke="#000000" stroke-width="3" fill="#FFFFFF" fill-rule="nonzero" stroke-linecap="round"></path>
            <circle id="Oval" stroke="#000000" stroke-width="3.00012726" stroke-linecap="round" transform="translate(356.035600, 113.932300) rotate(-80.049769) translate(-356.035600, -113.932300) " cx="356.0356" cy="113.9323" r="5.60023755"></circle>
            <path d="M313.5,157.5 C304.4,158.6 292.5,164 288.4,172.3 C286.4,174.8 283.5,175.1 281.3,173.6 C279.1,172.1 278.9,169.8 279.8,167.3 C284.6,154.8 307.6,145.1 318.1,148.3" id="Shape" stroke="#000000" stroke-width="3" fill="#FFFFFF" fill-rule="nonzero" stroke-linecap="round"></path>
            <path d="M316.5,165.7 C309.9,163.9 295.3,168 290.8,176.2 C289.1,178.1 286.8,178.2 285.2,177 C283.5,175.7 283.4,173.9 284.3,172 C288,161.3 306.5,153.7 314.8,156.9" id="Shape" stroke="#000000" stroke-width="3" fill="#FFFFFF" fill-rule="nonzero" stroke-linecap="round"></path>
            <circle id="Oval" fill="#FFFFFF" fill-rule="nonzero" transform="translate(353.612280, 111.379620) rotate(-80.049769) translate(-353.612280, -111.379620) " cx="353.61228" cy="111.37962" r="1"></circle>
            <path d="M358.4,120.7 C353.3,122.6 347.6,120 345.7,114.9" id="Shape" stroke="#000000" stroke-width="3" stroke-linecap="round" stroke-linejoin="round"></path>
            <path d="M369.6,111.2 C362,113.3 353.9,107.2 350,103.1" id="Shape" stroke="#000000" stroke-width="3" fill="#FFFFFF" fill-rule="nonzero" stroke-linecap="round" stroke-linejoin="round"></path>
            <path d="M368.1,109.7 C370.5,113.4 376.3,111.6 376.2,107.2 C376.1,101.4 373.1,95.7 367.9,92.3 C362.6,88.9 356.1,88.6 350.7,90.9 C346.7,92.6 347.4,98.5 351.7,99.1 C354.2,98.6 357.9,98.2 362.2,101 C366.4,103.8 367.3,107.4 368.1,109.7 Z" id="Shape" stroke="#000000" stroke-width="3" fill="#FFFFFF" fill-rule="nonzero" stroke-linecap="round"></path>
            <path d="M378.3,161.7 C375.2,152.2 364.8,143.6 351.1,140.1 C332.6,135.5 315.1,142 311.9,154.7 C310.6,160 313.8,165.3 319.1,166.6 C322.2,167.4 325.3,166.6 327.6,164.8 L348,170 C338.6,196.9 323,220.4 299.2,237.3 C297.4,212.1 293.7,197.9 278,175.6 L277.9,175.7 C278.9,171.8 279.4,167.7 279.4,163.4 C279.4,135 256.4,112.1 228.1,112.1 C199.8,112.1 176.8,135.1 176.8,163.4 C176.8,186.5 192.1,206 213,212.5 C231.6,243.7 234.1,270.9 290.3,311.7 C294.6,314.8 300.4,314.5 304.4,311.2 C336.8,284 365.6,221.3 375.7,179.4 C378.4,176.7 380.1,172.9 380.1,168.7 C380,166.2 379.4,163.8 378.3,161.7 Z" id="Shape" stroke="#000000" stroke-width="3" fill="#FFFFFF" fill-rule="nonzero" stroke-linecap="round" stroke-linejoin="round"></path>
            <path d="M298.8,233.9 C298.9,239.8 298.7,245.8 297.9,249.6" id="Shape" stroke="#000000" stroke-width="3" stroke-linecap="round" stroke-linejoin="round"></path>
            <path d="M71.3,387.5 L166.9,388.5 C170.4,384.7 175.2,381.1 180.5,377.5 C124.5,414.5 161.8,467.2 145.6,516.4 C142.1,519.9 140,524.8 140,530.1 C140,540.5 148.2,549.3 158.6,549.8 C169.9,550.4 179.3,541.4 179.3,530.2 C179.3,528.2 179,526.3 178.4,524.5 L270.1,347.5 C275.6,336.1 271.4,322.4 260.6,316 C227.4,296.5 173.3,285 115,289" id="Shape" stroke="#000000" stroke-width="3" fill="#FFFFFF" fill-rule="nonzero" stroke-linecap="round" stroke-linejoin="round"></path>
            <path d="M354.2,333.8 C342.1,344.5 339.9,373.5 346.5,382.8 C348.1,385 351.4,385.5 353.7,383.8 C355.6,382.4 356.2,380 355.5,377.9 C352.9,371.5 354.3,353.4 360.1,347.5 C362.7,348.1 365.6,347.6 367.9,345.8 C371.9,342.7 372.7,336.8 369.5,332.8 C366.3,328.8 359.7,327.2 354.2,333.8 Z" id="Shape" stroke="#000000" stroke-width="3" fill="#FFFFFF" fill-rule="nonzero" stroke-linecap="round" stroke-linejoin="round"></path>
            <path d="M347.6,170.9 C348.2,168.8 349.2,167 350.6,165.7" id="Shape" stroke="#000000" stroke-width="3" stroke-linecap="round" stroke-linejoin="round"></path>
            <path d="M364,328.6 C365.3,326.8 366.9,325.5 368.6,324.7" id="Shape" stroke="#000000" stroke-width="3" stroke-linecap="round" stroke-linejoin="round"></path>
            <path d="M189.9,590.7 C194.7,592.2 201,598.9 202.6,604.9 C204.1,607.8 207,608.7 209.5,607.7 C212,606.6 212.7,604.4 212.3,601.7 C212.3,598.7 202.5,586.9 196.9,583.8" id="Shape" stroke="#000000" stroke-width="3" fill="#FFFFFF" fill-rule="nonzero" stroke-linecap="round"></path>
            <path d="M189.8,588.3 C194.4,589.9 200,596.4 202.2,603.2 C204.3,611.2 193,612.9 192.4,604.5 C192,601.2 187.8,597.8 184.1,596.2 C184.7,592.4 186.7,589.4 189.8,588.3 Z" id="Shape" stroke="#000000" stroke-width="3" fill="#FFFFFF" fill-rule="nonzero" stroke-linecap="round" stroke-linejoin="round"></path>
            <path d="M253.5,566.3 C254.9,569.1 257.2,574.1 257.3,576.3 C258.1,579.4 260.6,580.9 263.2,580.5 C265.8,580.1 267,578.1 267.2,575.5 C267.8,572.6 261.3,559.4 256.7,555.1" id="Shape" stroke="#000000" stroke-width="3" fill="#FFFFFF" fill-rule="nonzero" stroke-linecap="round"></path>
            <path d="M252.9,559.8 C259.1,566.3 263.4,579.1 263.3,582.4 C263.4,585 262.4,587.1 259.8,587.8 C257.3,588.5 254.6,587.2 253.6,584.2 C253.6,584.2 253.6,584.1 253.6,584 C253.2,582.4 252.3,575.4 248.5,571" id="Shape" stroke="#000000" stroke-width="3" fill="#FFFFFF" fill-rule="nonzero" stroke-linecap="round"></path>
            <path d="M242.3,575 C243.5,577 244.5,579.3 245.1,581.6 C245.6,583.3 245.8,585 245.8,586.6 C246.4,589.7 248.8,591.4 251.4,591.1 C254,590.8 255.3,588.9 255.6,586.3 C256.4,583.5 250.6,569.9 246.2,565.4" id="Shape" stroke="#000000" stroke-width="3" fill="#FFFFFF" fill-rule="nonzero" stroke-linecap="round"></path>
            <path d="M243.5,572 C247.1,579.9 246,587.9 245.2,590.4 C244.5,593.3 242.9,595.3 239.9,595.3 C236.9,595.4 234.4,593.3 234.1,589.7 C234.1,589.7 234.1,589.5 234.1,589.5 C234.1,587.7 235.1,579.7 232.1,573.9 C235.5,570.4 239.3,569.9 243.5,572 Z" id="Shape" stroke="#000000" stroke-width="3" fill="#FFFFFF" fill-rule="nonzero" stroke-linecap="round"></path>
            <g id="Group" transform="translate(291.000000, 0.000000)" fill="#FFFFFF" fill-rule="nonzero" stroke="#000000" stroke-linecap="round" stroke-linejoin="round" stroke-width="3">
                <path d="M24.9,63.2 L31.1,75.3 C31.9,75.1 36.8,72.7 39.6,75.7 C36.9,72.7 32,75.1 31.1,75.3 L37.9,88.5 L40.1,85.7 L44.7,79.9 C46,78.1 46.8,76 47.2,73.8 L49.8,58.5 L56.2,60.7 C56.3,60.7 56.3,60.7 56.4,60.8 C58.5,58.4 59,54.5 57.2,52.1 C58.9,54.6 58.5,58.5 56.4,60.8 C58,61.3 59.7,61.8 61.3,62.1 M116.5,65.9 C116.2,65.6 115.1,59.6 114.4,56.4 C113.6,56.8 109.7,56.4 110.2,60.6 C109.8,56.9 113.7,56.8 114.4,56.4 C113.4,51.7 111.8,46.5 109.5,41.2 C105.6,41.9 103,47.6 106.1,50.3 C102.9,47.6 105.6,41.8 109.5,41.2 C101.5,22.7 85.1,3.3 58.2,0.8 C58.9,4.9 54.7,9.7 50.2,8.8 C54.7,9.7 58.9,4.9 58.2,0.8 C55.9,0.6 53.6,0.5 51.1,0.5 C48,0.9 45.1,1.4 42.3,2.2 C45.1,3.5 45.7,9.5 42.9,12 C45.6,9.6 44.8,3.5 42.3,2.2 C26.9,6.4 9.2,29.3 2.9,47.7 C-0.6,58.7 -0.6,69.3 2.6,75.7 L24.8,63.2 M81.1,60.7 L81.8,60.5 C89.6,72.5 96,85.3 97.8,102.2 C98.4,102.4 98.4,102.4 99.5,102.8 C107.4,105.3 114.6,105.7 120.9,103.4 C119.5,97 113.5,96.2 113.5,96.2 C113.5,96.2 119.5,97 120.9,103.4 C122.6,102.8 124.2,101.9 125.8,100.9 C134.8,95.1 132,80.8 120.4,69.5 C119.9,70.2 118.7,72.5 118.8,76.4 C118.7,72.5 119.9,70.2 120.4,69.5 C119.2,68.3 117.8,67.1 116.4,66 M73.9,62.4 C75.4,62.2 76.9,61.9 78.4,61.5 L81.1,60.8 M61.3,62.1 C65.4,62.9 69.7,63 73.9,62.4 M46.3,16.1 C46.3,16.1 45.7,20.5 50.3,22.5 M47.3,27.2 C47.3,27.2 40.3,26.1 39.9,18.2 M39.5,41.1 C41.6,37 38,31.6 33.8,31.3 M37.5,8.5 C33,8.1 30.8,14.8 34.4,17.7 M30.6,21.3 C26.1,22.3 24.2,28.5 26.7,31.9 M21.3,21.1 C21.5,25.9 19.6,28.3 19.6,28.3 M16.8,47.3 C16.8,47.3 22.5,46.7 24.5,51 M20.8,43.7 C24.9,42.2 28,45.1 28,45.1 M19.5,33 C20.2,37.5 27.6,39.1 29.6,34.9 M29.1,53.7 C33.6,54.2 37.2,47.5 33.7,44.5 M40.4,70.9 C40.4,70.9 40,66 34.9,65.7 M37.9,61 C37.9,61 44.9,62.1 45.3,70 M40.4,47.6 C41.1,52.2 47.2,54.4 50.8,52.2 M50.5,43.6 C47,40.6 50.6,33.9 55.1,34.4 M105.6,36.5 C105.6,36.5 98.6,35.4 98.2,27.5 M97.7,50.4 C99.8,46.3 96.2,40.9 92,40.6 M91.5,16.9 C87,16.5 84.8,23.2 88.4,26.1 M88.9,30.6 C84.4,31.6 82.5,37.8 85,41.2 M83.1,10.1 C80,13 75.5,10.7 75.5,10.7 M68,25.8 C68,25.8 67.4,30.2 72,32.2 M70,45.4 C65.9,46.9 62.8,44 62.8,44 M69.2,11.3 C69.2,11.3 70.8,7.3 67.9,4 M57.7,20.6 C62,21.8 66.2,16.5 63.7,12.3 M69.1,41 C69.1,41 62.1,39.9 61.7,32 M63.2,55.4 C65.1,51.2 72.5,52.8 73.3,57.3 M71.8,19.6 C73.6,15.4 81,16.7 81.9,21.2 C81,16.7 73.6,15.3 71.8,19.6 Z M81.6,26.2 C81.8,31 79.9,33.4 79.9,33.4 M79.1,53 C83.2,51.5 86.3,54.4 86.3,54.4 M77.8,42.3 C78.5,46.8 85.9,48.4 87.9,44.2 M87.4,63 C91.9,63.5 95.5,56.8 92,53.8 M96.2,70.3 C96.2,70.3 103.2,71.4 103.6,79.3 M103.1,99.6 C100.6,95.5 104.8,90.2 109.1,91.3 C104.8,90.1 100.6,95.4 103.1,99.6 Z M102.1,56 C100,60.1 103.6,65.5 107.8,65.8 M109,85.6 C113.4,84.7 114.9,80 112.1,76.4 M117.4,92.4 C121.4,90.7 124.7,93.6 124.7,93.6" id="Shape"></path>
            </g>
            <path d="M412.8,83 C416.9,81.5 420,84.4 420,84.4 C420,84.4 416.8,81.4 412.8,83 Z" id="Shape" stroke="#000000" stroke-width="3" fill="#FFFFFF" fill-rule="nonzero" stroke-linecap="round" stroke-linejoin="round"></path>
            <path d="M384.4,81.6 C388.5,80.1 391.6,83 391.6,83 C391.6,83 388.5,80.1 384.4,81.6 Z" id="Shape" stroke="#000000" stroke-width="3" fill="#FFFFFF" fill-rule="nonzero" stroke-linecap="round" stroke-linejoin="round"></path>
            <path d="M308.8,91 C308.5,90.9 308.3,90.7 308,90.5 C304.7,88.1 303.9,83.5 306.3,80.1 C308.7,76.8 313.3,76 316.7,78.4 C318.2,79.5 319.2,80.9 319.6,82.6 C320.5,82.7 321.4,83 322.3,83.4 C322.6,83.5 322.8,83.6 323,83.8 C326.7,76.3 325.4,67.8 319.5,63.6 C312.8,58.8 302.8,61.5 297,69.6 C291.3,77.6 292.1,88 298.7,92.8 C301.7,95 305.4,95.6 309.1,94.9 C308.7,93.6 308.6,92.3 308.8,91 Z" id="Shape" stroke="#000000" stroke-width="3" fill="#FFFFFF" fill-rule="nonzero" stroke-linecap="round" stroke-linejoin="round"></path>
            <path d="M312.6,60.5 C309.3,57.6 310.4,53.5 310.4,53.5 C310.4,53.5 309.3,57.7 312.6,60.5 Z" id="Shape" stroke="#000000" stroke-width="3" fill="#FFFFFF" fill-rule="nonzero" stroke-linecap="round" stroke-linejoin="round"></path>
            <path d="M307.5,38.4 C303.2,37.9 301.7,33.9 301.7,33.9" id="Shape" stroke="#000000" stroke-width="3" fill="#FFFFFF" fill-rule="nonzero" stroke-linecap="round" stroke-linejoin="round"></path>
            <path d="M304.8,53.8 C301.7,46.6 294.9,47.9 294.9,47.9" id="Shape" stroke="#000000" stroke-width="3" stroke-linecap="round"></path>
            <path d="M293.7,53.3 C298.7,53.6 299.6,57.9 299.6,57.9" id="Shape" stroke="#000000" stroke-width="3" stroke-linecap="round"></path>
            <path d="M227.8,241.8 C195.6,253.2 160.2,236.4 148.8,204.2" id="Shape" stroke="#000000" stroke-width="3" stroke-linecap="round"></path>
        </g>
    </g>
</svg>