<svg width="400" height="300" viewBox="0 0 400 300" fill="none" xmlns="http://www.w3.org/2000/svg">
<path d="M295.5 156L285.5 160.5L253.5 143L247 103L262.5 88.5L268.5 86V81.5L265.5 70.5L272.5 64.5L316.5 63.5L324 70.5L322 81.5L321 88.5L319 93.5L316.5 97L313 99.5L309 119.5L295.5 156Z" fill="white"/>
<path d="M282.225 84.0417C283.004 83.9813 283.587 83.3003 283.526 82.5206C283.466 81.7408 282.786 81.1576 282.007 81.218C281.228 81.2784 280.645 81.9594 280.705 82.7392C280.766 83.5189 281.446 84.1021 282.225 84.0417Z" fill="black" stroke="black" stroke-width="1.4154" stroke-miterlimit="10" stroke-linecap="round"/>
<path d="M289.807 216.17L295.984 233.069L284.902 237.128L278.725 220.23" fill="white"/>
<path d="M289.807 216.17L295.984 233.069L284.902 237.128L278.725 220.23" stroke="black" stroke-width="1.4154" stroke-miterlimit="10" stroke-linecap="round"/>
<path d="M254.628 60.6826C254.25 56.0566 257.033 51.8083 261.607 51.1003C266.181 50.3922 270.472 53.5077 271.18 58.0864C271.463 59.7857 271.463 72.5306 271.463 72.5306C271.463 72.5306 255.335 69.3208 254.628 60.6826Z" fill="white" stroke="black" stroke-width="1.4154" stroke-miterlimit="10" stroke-linecap="round"/>
<path d="M288.203 103.26C276.98 102.835 268.209 93.3472 268.68 82.1129L265.096 70.5953C265.096 70.5953 267.171 65.4029 265.144 59.0305" stroke="black" stroke-width="1.4154" stroke-miterlimit="10" stroke-linecap="round"/>
<path d="M241.848 222.967C229.823 223.015 219.92 229.34 218.883 237.459C218.835 237.836 218.788 238.214 218.788 238.592C218.788 238.639 218.788 238.686 218.788 238.733C218.788 238.78 218.788 238.875 218.788 238.922C218.977 242.415 221.854 245.153 225.39 245.153C227.324 245.153 229.021 244.303 230.247 243.029L252.93 242.982L253.213 242.887C254.439 244.445 256.325 245.436 258.447 245.436C262.078 245.436 265.049 242.462 265.049 238.828C265.002 230.001 254.628 222.92 241.848 222.967Z" fill="white" stroke="black" stroke-width="1.4154" stroke-miterlimit="10" stroke-linecap="round"/>
<path d="M258.73 228.821C262.88 228.821 272.594 231.181 273.962 232.314C275.094 233.116 275.66 234.202 275.094 235.523C274.575 236.798 273.207 237.506 271.604 236.987L271.51 236.94C270.708 236.609 267.454 234.721 264.389 234.91" fill="white"/>
<path d="M258.73 228.821C262.88 228.821 272.594 231.181 273.962 232.314C275.094 233.116 275.66 234.202 275.094 235.523C274.575 236.798 273.207 237.506 271.604 236.987L271.51 236.94C270.708 236.609 267.454 234.721 264.389 234.91" stroke="black" stroke-width="1.4154" stroke-miterlimit="10" stroke-linecap="round"/>
<path d="M264.813 238.214C267.879 238.45 273.726 241.282 274.433 241.754L274.528 241.802C276.037 242.557 277.499 242.038 278.206 240.857C278.913 239.677 278.536 238.497 277.546 237.506C276.697 236.798 265.143 232.597 262.173 232.314" fill="white"/>
<path d="M264.813 238.214C267.879 238.45 273.726 241.282 274.433 241.754L274.528 241.802C276.037 242.557 277.499 242.038 278.206 240.857C278.913 239.677 278.536 238.497 277.546 237.506C276.697 236.798 265.143 232.597 262.173 232.314" stroke="black" stroke-width="1.4154" stroke-miterlimit="10" stroke-linecap="round"/>
<path d="M262.974 240.527C266.04 240.763 274.669 245.814 275.424 246.239L275.518 246.286C277.027 247.041 278.489 246.522 279.196 245.342C279.904 244.162 279.527 242.982 278.536 241.99C277.687 241.282 266.558 236.326 262.503 236.184" fill="white"/>
<path d="M262.974 240.527C266.04 240.763 274.669 245.814 275.424 246.239L275.518 246.286C277.027 247.041 278.489 246.522 279.196 245.342C279.904 244.162 279.527 242.982 278.536 241.99C277.687 241.282 266.558 236.326 262.503 236.184" stroke="black" stroke-width="1.4154" stroke-miterlimit="10" stroke-linecap="round"/>
<path d="M260.286 244.87C263.352 245.106 268.963 248.504 269.671 248.929L269.765 248.976C271.274 249.732 272.736 249.212 273.443 248.032C274.151 246.852 273.773 245.672 272.783 244.681C272.028 244.067 267.313 241.471 264.153 240.716C263.729 240.621 263.352 240.527 262.974 240.527" fill="white"/>
<path d="M260.286 244.87C263.352 245.106 268.963 248.504 269.671 248.929L269.765 248.976C271.274 249.732 272.736 249.212 273.443 248.032C274.151 246.852 273.773 245.672 272.783 244.681C272.028 244.067 267.313 241.471 264.153 240.716C263.729 240.621 263.352 240.527 262.974 240.527" stroke="black" stroke-width="1.4154" stroke-miterlimit="10" stroke-linecap="round"/>
<path d="M307.16 241.377C307.632 234.863 302.02 229.481 295.937 229.198C289.948 228.915 284.242 231.936 283.629 240.385C283.629 240.857 283.629 239.913 283.629 240.385C283.488 243.548 285.94 246.239 289.099 246.38C291.363 246.475 293.391 245.2 294.381 243.312H299.568C300.228 244.445 301.454 245.2 302.869 245.295C305.18 245.342 306.972 243.595 307.16 241.377Z" fill="white" stroke="black" stroke-width="1.4154" stroke-miterlimit="10" stroke-linecap="round"/>
<path d="M302.916 231.134C309.047 228.207 317.393 228.632 320.6 232.975C321.355 233.966 321.072 235.476 320.034 236.232C319.185 236.845 318.054 236.751 317.252 236.137C317.252 236.137 312.819 234.202 308.151 235.335C307.538 235.476 306.925 235.665 306.312 235.948" stroke="black" stroke-width="1.4154" stroke-miterlimit="10" stroke-linecap="round"/>
<path d="M304.001 234.485C310.273 231.936 318.62 232.786 321.543 237.317C322.204 238.356 321.873 239.866 320.789 240.527C319.893 241.093 318.761 240.952 318.007 240.291C318.007 240.291 312.489 237.506 307.113 239.489" fill="white"/>
<path d="M304.001 234.485C310.273 231.936 318.62 232.786 321.543 237.317C322.204 238.356 321.873 239.866 320.789 240.527C319.893 241.093 318.761 240.952 318.007 240.291C318.007 240.291 312.489 237.506 307.113 239.489" stroke="black" stroke-width="1.4154" stroke-miterlimit="10" stroke-linecap="round"/>
<path d="M306.406 243.406C311.688 241.141 317.346 243.595 317.346 243.595C318.148 244.209 319.28 244.256 320.129 243.69C321.166 242.934 321.449 241.424 320.695 240.433C317.488 236.09 309.094 235.665 303.011 238.592" fill="white"/>
<path d="M306.406 243.406C311.688 241.141 317.346 243.595 317.346 243.595C318.148 244.209 319.28 244.256 320.129 243.69C321.166 242.934 321.449 241.424 320.695 240.433C317.488 236.09 309.094 235.665 303.011 238.592" stroke="black" stroke-width="1.4154" stroke-miterlimit="10" stroke-linecap="round"/>
<path d="M186.392 236.232C179.035 241.849 160.927 242.274 160.927 242.274C108.488 242.274 66 199.743 66 147.253C66 94.7634 108.488 52.2332 160.927 52.2332L160.927 52.2804C167.953 53.3189 169.651 62.7123 163.426 66.1582L160.927 67.5271C55.3425 110.624 97.3593 217.87 161.964 212.583H174L186.392 236.232Z" fill="white"/>
<path d="M186.392 236.232L186.821 236.794L187.295 236.432L187.018 235.903L186.392 236.232ZM160.927 242.274V242.981H160.935L160.943 242.981L160.927 242.274ZM160.927 52.2332L161.635 52.2337L161.635 51.5255H160.927V52.2332ZM161.964 212.583V211.875H161.935L161.907 211.877L161.964 212.583ZM160.927 67.5271L161.194 68.1823L161.232 68.1671L161.267 68.1478L160.927 67.5271ZM163.426 66.1582L163.766 66.7789L163.769 66.7773L163.426 66.1582ZM160.927 52.2804L160.219 52.2799L160.219 52.8911L160.823 52.9805L160.927 52.2804ZM174 212.583L174.627 212.254L174.428 211.875H174V212.583ZM185.962 235.669C184.22 237 181.8 238.049 179.104 238.868C176.416 239.684 173.499 240.258 170.797 240.659C168.096 241.06 165.621 241.287 163.822 241.414C162.922 241.477 162.192 241.515 161.688 241.537C161.436 241.549 161.24 241.556 161.108 241.56C161.042 241.562 160.992 241.564 160.959 241.565C160.942 241.565 160.93 241.566 160.922 241.566C160.918 241.566 160.915 241.566 160.913 241.566C160.912 241.566 160.911 241.566 160.911 241.566C160.91 241.566 160.91 241.566 160.91 241.566C160.91 241.566 160.91 241.566 160.927 242.274C160.943 242.981 160.944 242.981 160.944 242.981C160.944 242.981 160.944 242.981 160.945 242.981C160.945 242.981 160.946 242.981 160.948 242.981C160.95 242.981 160.954 242.981 160.958 242.981C160.968 242.981 160.981 242.98 160.999 242.98C161.035 242.979 161.087 242.977 161.156 242.975C161.292 242.97 161.493 242.963 161.751 242.951C162.266 242.929 163.008 242.89 163.921 242.825C165.746 242.697 168.259 242.467 171.004 242.059C173.748 241.652 176.738 241.066 179.515 240.223C182.283 239.382 184.885 238.272 186.821 236.794L185.962 235.669ZM160.927 241.566C108.88 241.566 66.7077 199.353 66.7077 147.253H65.2923C65.2923 200.134 108.097 242.981 160.927 242.981V241.566ZM66.7077 147.253C66.7077 95.1536 108.88 52.9409 160.927 52.9409V51.5255C108.097 51.5255 65.2923 94.3732 65.2923 147.253H66.7077ZM161.907 211.877C130.044 214.485 103.656 189.334 98.3222 158.08C93.0053 126.922 108.656 89.6269 161.194 68.1823L160.659 66.8718C107.613 88.5239 91.4803 126.4 96.9269 158.318C102.357 190.139 129.279 215.967 162.022 213.288L161.907 211.877ZM161.267 68.1478L163.766 66.7789L163.086 65.5375L160.587 66.9064L161.267 68.1478ZM163.769 66.7773C170.583 63.005 168.729 52.7182 161.03 51.5803L160.823 52.9805C167.177 53.9196 168.718 62.4196 163.083 65.539L163.769 66.7773ZM160.219 52.2328L160.219 52.2799L161.635 52.2809L161.635 52.2337L160.219 52.2328ZM161.964 213.29H174V211.875H161.964V213.29ZM173.373 212.911L185.765 236.56L187.018 235.903L174.627 212.254L173.373 212.911Z" fill="black"/>
<path d="M275.754 88.8157C271.51 86.1723 270.189 80.6023 272.83 76.354C275.471 72.1057 281.035 70.784 285.28 73.4274C288.392 75.3628 290.986 82.6321 291.599 86.0779C291.834 87.3052 291.08 88.4853 289.901 88.8629C286.506 89.807 278.866 90.7038 275.754 88.8157Z" stroke="black" stroke-width="1.4154" stroke-miterlimit="10" stroke-linecap="round"/>
<path d="M296.975 93.7721C295.984 93.7721 295.136 94.5746 295.136 95.613C295.136 94.6218 294.334 93.7721 293.296 93.7721C291.504 93.8193 291.457 95.6602 291.457 95.6602C291.457 97.69 293.108 99.3421 295.136 99.3421C297.163 99.3421 298.814 97.7372 298.814 95.7074C298.767 95.7074 298.767 93.7721 296.975 93.7721Z" stroke="black" stroke-width="1.4154" stroke-miterlimit="10" stroke-linecap="round"/>
<path d="M302.728 99.7197C302.728 103.921 299.332 105.951 295.135 105.951C290.939 105.951 287.543 103.921 287.543 99.7197C287.543 96.6043 291.74 92.4032 293.909 90.9399C294.664 90.4207 295.654 90.4207 296.362 90.9399C298.531 92.4032 302.728 96.5571 302.728 99.7197Z" stroke="black" stroke-width="1.4154" stroke-miterlimit="10" stroke-linecap="round"/>
<path d="M292.636 105.054C293.768 103.826 294.475 102.93 295.182 100.805C295.796 102.93 296.503 103.826 297.729 105.054" stroke="black" stroke-width="1.4154" stroke-miterlimit="10" stroke-linecap="round" stroke-linejoin="round"/>
<path d="M334.464 60.6826C334.842 56.0566 332.059 51.8083 327.485 51.1003C322.911 50.3922 318.62 53.5077 317.912 58.0864C317.629 59.7857 317.629 72.5306 317.629 72.5306C317.629 72.5306 333.71 69.3208 334.464 60.6826Z" fill="white" stroke="black" stroke-width="1.4154" stroke-miterlimit="10" stroke-linecap="round"/>
<path d="M321.591 81.4048L323.996 70.5953C323.996 70.5953 321.921 65.4029 323.948 59.0305" stroke="black" stroke-width="1.4154" stroke-miterlimit="10" stroke-linecap="round"/>
<path d="M249.723 100.711C254.581 92.6864 259.815 88.6741 268.869 85.7947Z" fill="white"/>
<path d="M249.723 100.711C254.581 92.6864 259.815 88.6741 268.869 85.7947" stroke="black" stroke-width="1.4154" stroke-miterlimit="10" stroke-linecap="round"/>
<path d="M321.59 82.1129C322.015 93.3472 313.291 102.835 302.067 103.26" stroke="black" stroke-width="1.4154" stroke-miterlimit="10" stroke-linecap="round"/>
<path d="M271.651 65.0725C284.195 52.3276 304.708 52.186 317.441 64.7892Z" fill="white"/>
<path d="M271.651 65.0725C284.195 52.3276 304.708 52.186 317.441 64.7892" stroke="black" stroke-width="1.4154" stroke-miterlimit="10" stroke-linecap="round"/>
<path d="M313.291 99.3421L308.669 121.858" stroke="black" stroke-width="1.4154" stroke-miterlimit="10" stroke-linecap="round"/>
<path d="M259.815 182.986C262.88 211.591 242.225 237.317 213.648 240.385C185.071 243.406 160.502 224.478 156.353 194.079C151.59 138.285 198.039 100.711 249.535 100.711" fill="white"/>
<path d="M259.815 182.986C262.88 211.591 242.225 237.317 213.648 240.385C185.071 243.406 160.502 224.478 156.353 194.079C151.59 138.285 198.039 100.711 249.535 100.711" stroke="black" stroke-width="1.4154" stroke-miterlimit="10" stroke-linecap="round"/>
<path d="M255.618 135.783C245.621 170.383 254.533 200.215 270.236 219.427C282.827 236.232 295.984 225.516 294.522 210.742C291.834 191.813 292.872 182.137 298.814 156.552" fill="white"/>
<path d="M255.618 135.783C245.621 170.383 254.533 200.215 270.236 219.427C282.827 236.232 295.984 225.516 294.522 210.742C291.834 191.813 292.872 182.137 298.814 156.552" stroke="black" stroke-width="1.4154" stroke-miterlimit="10" stroke-linecap="round"/>
<path d="M305.274 112.04C314.989 131.251 307.302 154.759 288.109 164.53Z" fill="white"/>
<path d="M305.274 112.04C314.989 131.251 307.302 154.759 288.109 164.53" stroke="black" stroke-width="1.4154" stroke-miterlimit="10" stroke-linecap="round"/>
<path d="M282.12 86.5028C284.256 86.5028 285.987 84.7698 285.987 82.6321C285.987 80.4944 284.256 78.7614 282.12 78.7614C279.984 78.7614 278.253 80.4944 278.253 82.6321C278.253 84.7698 279.984 86.5028 282.12 86.5028Z" stroke="black" stroke-width="1.4154" stroke-miterlimit="10" stroke-linecap="round"/>
<path d="M283.016 82.2544C283.511 82.2544 283.912 81.8529 283.912 81.3576C283.912 80.8622 283.511 80.4607 283.016 80.4607C282.521 80.4607 282.12 80.8622 282.12 81.3576C282.12 81.8529 282.521 82.2544 283.016 82.2544Z" fill="white"/>
<path d="M99.4813 126.673C96.699 131.912 88.3523 132.998 80.9486 128.986C73.4978 125.021 70.527 118.271 72.649 112.229" stroke="black" stroke-width="1.4154" stroke-miterlimit="10" stroke-linecap="round"/>
<path d="M308.257 83.9947C309.036 83.9343 309.618 83.2533 309.558 82.4736C309.498 81.6938 308.817 81.1106 308.038 81.171C307.259 81.2314 306.677 81.9124 306.737 82.6922C306.797 83.4719 307.478 84.0551 308.257 83.9947Z" fill="black" stroke="black" stroke-width="1.4154" stroke-miterlimit="10" stroke-linecap="round"/>
<path d="M309.047 82.1128C309.541 82.1128 309.943 81.7113 309.943 81.216C309.943 80.7206 309.541 80.3191 309.047 80.3191C308.552 80.3191 308.151 80.7206 308.151 81.216C308.151 81.7113 308.552 82.1128 309.047 82.1128Z" fill="white"/>
<path d="M308.151 86.4556C310.286 86.4556 312.018 84.7226 312.018 82.5849C312.018 80.4472 310.286 78.7142 308.151 78.7142C306.015 78.7142 304.284 80.4472 304.284 82.5849C304.284 84.7226 306.015 86.4556 308.151 86.4556Z" stroke="black" stroke-width="1.4154" stroke-miterlimit="10" stroke-linecap="round"/>
<path d="M314.47 88.8629C318.714 86.2195 320.034 80.6495 317.394 76.4012C314.753 72.1529 309.188 70.8312 304.944 73.4746C301.832 75.4099 299.238 82.6793 298.625 86.1251C298.389 87.3524 299.144 88.5325 300.323 88.9101C303.718 89.8541 311.358 90.7982 314.47 88.8629Z" stroke="black" stroke-width="1.4154" stroke-miterlimit="10" stroke-linecap="round"/>
<path d="M97.6895 158.441C98.0667 164.435 91.5119 169.769 83.0237 170.336C74.5354 170.902 67.2733 166.512 66.896 160.47" stroke="black" stroke-width="1.4154" stroke-miterlimit="10" stroke-linecap="round"/>
<path d="M116.788 96.7931C113.062 100.711 105.517 99.6253 99.9527 94.2913C94.3882 89.0045 92.7849 81.3104 96.5574 77.3925" stroke="black" stroke-width="1.4154" stroke-miterlimit="10" stroke-linecap="round"/>
<path d="M115.703 194.457C118.627 199.602 115.138 207.154 107.875 211.308C100.613 215.462 92.9267 213.999 89.3899 209.562" stroke="black" stroke-width="1.4154" stroke-miterlimit="10" stroke-linecap="round"/>
<path d="M144.516 211.261C149.562 214.046 150.458 222.165 146.497 229.293C142.536 236.468 135.886 239.347 130.18 237.176" stroke="black" stroke-width="1.4154" stroke-miterlimit="10" stroke-linecap="round"/>
<path d="M143.526 75.8821C139.565 77.723 134.283 74.7964 131.69 69.2264C129.096 63.6564 130.463 57.756 134.425 55.9623" stroke="black" stroke-width="1.4154" stroke-miterlimit="10" stroke-linecap="round"/>
<path d="M98.9626 93.2529C98.774 96.6043 95.6616 97.926 95.6616 97.926" stroke="black" stroke-width="1.4154" stroke-miterlimit="10" stroke-linecap="round"/>
<path d="M168 232.597C166.727 236.043 164.652 237.223 164.652 237.223" stroke="black" stroke-width="1.4154" stroke-miterlimit="10" stroke-linecap="round"/>
<path d="M102.594 105.384C103.678 109.16 100.708 110.954 100.708 110.954" stroke="black" stroke-width="1.4154" stroke-miterlimit="10" stroke-linecap="round"/>
<path d="M92.9268 116.666C94.2 113.125 99.3872 113.031 100.849 116.194" stroke="black" stroke-width="1.4154" stroke-miterlimit="10" stroke-linecap="round"/>
<path d="M145.978 236.609C148.666 234.296 153.382 237.789 152.486 241.188" stroke="black" stroke-width="1.4154" stroke-miterlimit="10" stroke-linecap="round"/>
<path d="M88.4939 105.101C90.5688 102.599 95.5674 102.694 97.2651 105.856" stroke="black" stroke-width="1.4154" stroke-miterlimit="10" stroke-linecap="round"/>
<path d="M154.749 57.756C157.013 55.2542 160.219 56.1983 160.219 56.1983" stroke="black" stroke-width="1.4154" stroke-miterlimit="10" stroke-linecap="round"/>
<path d="M85.853 118.223C86.3718 114.872 89.5784 113.928 89.5784 113.928" stroke="black" stroke-width="1.4154" stroke-miterlimit="10" stroke-linecap="round"/>
<path d="M85.9474 109.632C83.2123 112.181 78.5438 109.916 78.6853 106.47" stroke="black" stroke-width="1.4154" stroke-miterlimit="10" stroke-linecap="round"/>
<path d="M162.719 57.992C164.416 60.9186 162.625 63.7036 162.625 63.7036" stroke="black" stroke-width="1.4154" stroke-miterlimit="10" stroke-linecap="round"/>
<path d="M78.921 184.072C76.0916 182.845 76.0916 180.107 76.0916 180.107" stroke="black" stroke-width="1.4154" stroke-miterlimit="10" stroke-linecap="round"/>
<path d="M100.613 123.227C99.1513 126.484 93.4454 125.351 92.7852 121.858" stroke="black" stroke-width="1.4154" stroke-miterlimit="10" stroke-linecap="round"/>
<path d="M83.7309 100.192C82.3162 102.505 80.1941 103.543 76.7988 103.118" stroke="black" stroke-width="1.4154" stroke-miterlimit="10" stroke-linecap="round"/>
<path d="M87.7394 125.068C85.0043 127.617 80.4772 125.209 79.6755 121.528" stroke="black" stroke-width="1.4154" stroke-miterlimit="10" stroke-linecap="round"/>
<path d="M75.1482 112.937C78.0248 114.683 77.789 117.987 77.789 117.987" stroke="black" stroke-width="1.4154" stroke-miterlimit="10" stroke-linecap="round"/>
<path d="M141.168 72.625C139.801 69.5568 141.923 66.9606 141.923 66.9606" stroke="black" stroke-width="1.4154" stroke-miterlimit="10" stroke-linecap="round"/>
<path d="M137.207 67.1022C133.293 65.0725 135.509 58.7001 139.942 58.3696" stroke="black" stroke-width="1.4154" stroke-miterlimit="10" stroke-linecap="round"/>
<path d="M147.11 53.5549C146.072 57.8504 143.809 59.3137 143.809 59.3137" stroke="black" stroke-width="1.4154" stroke-miterlimit="10" stroke-linecap="round"/>
<path d="M151.448 62.9955C150.411 59.0305 151.401 56.6703 151.401 56.6703" stroke="black" stroke-width="1.4154" stroke-miterlimit="10" stroke-linecap="round"/>
<path d="M157.06 212.771C157.202 216.453 158.852 218.2 158.852 218.2" stroke="black" stroke-width="1.4154" stroke-miterlimit="10" stroke-linecap="round"/>
<path d="M90.2388 94.3857C88.6826 91.5063 90.7104 86.9276 94.2471 86.5499" stroke="black" stroke-width="1.4154" stroke-miterlimit="10" stroke-linecap="round"/>
<path d="M84.627 200.357C87.4564 198.563 90.3329 200.263 90.3329 200.263" stroke="black" stroke-width="1.4154" stroke-miterlimit="10" stroke-linecap="round"/>
<path d="M91.5119 99.106C88.3995 100.853 84.4855 96.5098 86.0417 93.3472" stroke="black" stroke-width="1.4154" stroke-miterlimit="10" stroke-linecap="round"/>
<path d="M151.071 221.174C154.655 221.127 155.975 226.838 153.099 228.821" stroke="black" stroke-width="1.4154" stroke-miterlimit="10" stroke-linecap="round"/>
<path d="M111.459 202.387C107.97 201.679 107.828 195.826 111.082 194.457" stroke="black" stroke-width="1.4154" stroke-miterlimit="10" stroke-linecap="round"/>
<path d="M75.4785 169.486C75.7143 173.168 73.3564 174.631 73.3564 174.631" stroke="black" stroke-width="1.4154" stroke-miterlimit="10" stroke-linecap="round"/>
<path d="M159.653 236.468C156.305 236.043 155.221 232.88 155.221 232.88" stroke="black" stroke-width="1.4154" stroke-miterlimit="10" stroke-linecap="round"/>
<path d="M160.503 229.434C159.984 225.705 164.558 223.203 167.293 225.328" stroke="black" stroke-width="1.4154" stroke-miterlimit="10" stroke-linecap="round"/>
<path d="M143.102 62.3347C146.214 61.8627 148.902 66.583 147.393 69.368" stroke="black" stroke-width="1.4154" stroke-miterlimit="10" stroke-linecap="round"/>
<path d="M102.688 191.388C99.5285 190.586 97.5007 186.007 99.6699 183.128" stroke="black" stroke-width="1.4154" stroke-miterlimit="10" stroke-linecap="round"/>
<path d="M111.035 207.485C106.791 203.048 102.122 205.88 102.122 205.88" stroke="black" stroke-width="1.4154" stroke-miterlimit="10" stroke-linecap="round"/>
<path d="M100.33 213.149C97.7363 210.223 99.6226 207.296 99.6226 207.296" stroke="black" stroke-width="1.4154" stroke-miterlimit="10" stroke-linecap="round"/>
<path d="M106.508 191.53C106.697 194.409 103.207 197.006 99.623 195.448" stroke="black" stroke-width="1.4154" stroke-miterlimit="10" stroke-linecap="round"/>
<path d="M93.917 197.383C97.5009 197.43 98.727 203.142 95.8033 205.077" stroke="black" stroke-width="1.4154" stroke-miterlimit="10" stroke-linecap="round"/>
<path d="M81.043 190.964C83.6838 189.028 88.4938 190.397 89.3426 193.89" stroke="black" stroke-width="1.4154" stroke-miterlimit="10" stroke-linecap="round"/>
<path d="M157.154 68.2351C156.918 64.5532 158.333 62.6651 158.333 62.6651" stroke="black" stroke-width="1.4154" stroke-miterlimit="10" stroke-linecap="round"/>
<path d="M84.0139 185.252C82.9765 181.853 88.0223 178.927 90.7574 181.098" stroke="black" stroke-width="1.4154" stroke-miterlimit="10" stroke-linecap="round"/>
<path d="M97.1709 180.768C93.5869 180.862 92.1722 175.198 95.0488 173.121" stroke="black" stroke-width="1.4154" stroke-miterlimit="10" stroke-linecap="round"/>
<path d="M91.9363 185.016C94.4356 187.754 94.4827 190.114 94.4827 190.114" stroke="black" stroke-width="1.4154" stroke-miterlimit="10" stroke-linecap="round"/>
<path d="M168.566 239.111C171.301 236.09 173.848 235.618 173.848 235.618" stroke="black" stroke-width="1.4154" stroke-miterlimit="10" stroke-linecap="round"/>
<path d="M95.4259 165.191C94.9544 168.967 97.1708 170.949 97.1708 170.949" stroke="black" stroke-width="1.4154" stroke-miterlimit="10" stroke-linecap="round"/>
<path d="M100 101.608C103.631 101.089 105.659 102.363 105.659 102.363" stroke="black" stroke-width="1.4154" stroke-miterlimit="10" stroke-linecap="round"/>
<path d="M79.7698 175.906C82.4577 173.404 84.8156 173.262 84.8156 173.262" stroke="black" stroke-width="1.4154" stroke-miterlimit="10" stroke-linecap="round"/>
</svg>
