<svg width="400" height="300" viewBox="0 0 400 300" fill="none" xmlns="http://www.w3.org/2000/svg">
<path d="M303.338 188.387C316.872 188.529 330.783 189.001 344.317 189.756C339.031 194.908 340.128 199.74 340.929 203.266C340.942 203.326 340.956 203.386 340.969 203.445C342.478 209.959 342.29 214.915 339.366 218.455C328.143 217.747 316.306 217.511 305.083 217.37" fill="white"/>
<path d="M303.338 188.387C230.056 183.619 165.875 190.889 96.6963 200.565Z" fill="white"/>
<path d="M303.338 188.387C316.872 188.529 330.783 189.001 344.317 189.756C339.031 194.908 340.128 199.74 340.929 203.266L340.969 203.445C342.478 209.959 342.29 214.915 339.366 218.455C328.143 217.747 316.306 217.511 305.083 217.37L305.083 217.323C234.583 216.851 166.253 222.09 96.5076 231.248L96.6493 231.2C85.4731 232.38 73.6838 233.702 62.5548 235.401C59.3953 232.192 58.8294 227.235 59.7726 220.627C60.2913 217.039 61.7531 210.289 56 205.569C69.4397 203.586 83.2567 201.887 96.7436 200.518L96.6963 200.565C165.875 190.889 230.056 183.619 303.338 188.387Z" fill="white"/>
<path d="M303.338 188.387L303.292 189.093L303.311 189.094L303.331 189.095L303.338 188.387ZM344.317 189.756L344.811 190.263L345.964 189.139L344.357 189.049L344.317 189.756ZM340.969 203.445L340.279 203.601L340.28 203.605L340.969 203.445ZM339.366 218.455L339.321 219.162L339.682 219.184L339.912 218.906L339.366 218.455ZM305.083 217.37L304.375 217.373L304.379 218.069L305.074 218.077L305.083 217.37ZM96.6963 200.565L96.1962 200.065L94.6993 201.559L96.7943 201.266L96.6963 200.565ZM96.5076 231.248L96.2838 230.576L96.5997 231.949L96.5076 231.248ZM305.083 217.323L305.79 217.319L305.787 216.62L305.087 216.615L305.083 217.323ZM96.7436 200.518L97.2436 201.019L98.6515 199.613L96.6721 199.814L96.7436 200.518ZM56 205.569L55.8967 204.869L54.3153 205.102L55.5511 206.116L56 205.569ZM59.7726 220.627L59.0721 220.526L59.072 220.527L59.7726 220.627ZM62.5548 235.401L62.0505 235.898L62.3041 236.156L62.6616 236.101L62.5548 235.401ZM96.6493 231.2L96.873 231.872L103.052 229.813L96.5749 230.497L96.6493 231.2ZM303.331 189.095C316.854 189.236 330.754 189.708 344.278 190.462L344.357 189.049C330.812 188.293 316.891 187.821 303.345 187.679L303.331 189.095ZM340.28 203.605C341.777 210.07 341.522 214.733 338.82 218.005L339.912 218.906C343.057 215.098 343.179 209.848 341.659 203.285L340.28 203.605ZM339.41 217.749C328.168 217.04 316.317 216.804 305.092 216.662L305.074 218.077C316.296 218.219 328.117 218.455 339.321 219.162L339.41 217.749ZM303.384 187.681C230.027 182.908 165.787 190.187 96.5983 199.865L96.7943 201.266C165.964 191.591 230.086 184.331 303.292 189.093L303.384 187.681ZM96.5997 231.949C166.32 222.795 234.617 217.559 305.078 218.03L305.087 216.615C234.549 216.143 166.186 221.385 96.4154 230.546L96.5997 231.949ZM96.6721 199.814C83.1753 201.184 69.3477 202.885 55.8967 204.869L56.1033 206.269C69.5318 204.288 83.3381 202.59 96.815 201.222L96.6721 199.814ZM55.5511 206.116C60.9453 210.542 59.6055 216.837 59.0721 220.526L60.473 220.728C60.9771 217.242 62.5609 210.037 56.4489 205.022L55.5511 206.116ZM59.072 220.527C58.1232 227.175 58.6426 232.436 62.0505 235.898L63.0592 234.905C60.148 231.947 59.5356 227.296 60.4732 220.727L59.072 220.527ZM62.6616 236.101C73.7733 234.404 85.5487 233.084 96.7236 231.904L96.5749 230.497C85.3974 231.677 73.5943 233 62.448 234.702L62.6616 236.101ZM305.791 217.366L305.79 217.319L304.375 217.326L304.375 217.373L305.791 217.366ZM97.1963 201.066L97.2436 201.019L96.2435 200.017L96.1962 200.065L97.1963 201.066ZM96.7313 231.919L96.873 231.872L96.4255 230.529L96.2838 230.576L96.7313 231.919ZM343.823 189.249C341.073 191.93 339.946 194.571 339.638 197.033C339.334 199.465 339.841 201.67 340.238 203.423L341.619 203.109C341.216 201.336 340.774 199.362 341.043 197.208C341.308 195.085 342.276 192.734 344.811 190.263L343.823 189.249ZM340.238 203.422L340.279 203.601L341.659 203.288L341.619 203.109L340.238 203.422ZM340.238 203.423C340.252 203.483 340.266 203.542 340.279 203.601L341.659 203.289C341.646 203.229 341.632 203.169 341.619 203.109L340.238 203.423Z" fill="black"/>
<path d="M288.389 192.966C287.163 185.272 258.633 173.282 249.485 138.54L241.421 123.058L220.908 152.796C245.476 192.966 278.156 201.226 284.381 199.149C287.493 198.111 288.908 196.317 288.389 192.966Z" fill="white" stroke="black" stroke-width="1.4154" stroke-miterlimit="10" stroke-linecap="round"/>
<path d="M117.681 192.824C107.637 186.121 95.8945 185.932 90.5186 192.069C90.2828 192.352 89.9999 192.635 89.8113 192.966C89.7641 193.013 89.7641 193.06 89.7169 193.107C89.6698 193.155 89.6226 193.202 89.6226 193.249C87.8307 196.27 88.7267 200.141 91.6504 202.123C93.2537 203.209 95.14 203.445 96.8848 203.02L115.748 215.623L116.031 215.718C116.172 217.7 117.162 219.588 118.954 220.768C121.972 222.798 126.075 221.949 128.103 218.928C133.007 211.564 128.291 199.905 117.681 192.824Z" fill="white" stroke="black" stroke-width="1.4154" stroke-miterlimit="10" stroke-linecap="round"/>
<path d="M128.433 207.08C131.875 209.392 138.666 216.803 139.137 218.456C139.609 219.777 139.467 220.957 138.336 221.76C137.157 222.562 135.648 222.373 134.61 221.052C134.61 221.052 134.563 221.004 134.563 220.957C134.092 220.249 132.441 216.851 129.753 215.293" fill="white"/>
<path d="M128.433 207.08C131.875 209.392 138.666 216.803 139.137 218.456C139.609 219.777 139.467 220.957 138.336 221.76C137.157 222.562 135.648 222.373 134.61 221.052C134.61 221.052 134.563 221.004 134.563 220.957C134.092 220.249 132.441 216.851 129.753 215.293" stroke="black" stroke-width="1.4154" stroke-miterlimit="10" stroke-linecap="round"/>
<path d="M128.291 218.267C130.696 220.202 133.95 225.772 134.327 226.575L134.374 226.669C135.223 228.132 136.685 228.557 137.958 227.943C139.232 227.33 139.515 226.15 139.279 224.781C138.949 223.742 131.734 213.782 129.376 211.942" fill="white"/>
<path d="M128.291 218.267C130.696 220.202 133.95 225.772 134.327 226.575L134.374 226.669C135.223 228.132 136.685 228.557 137.958 227.943C139.232 227.33 139.515 226.15 139.279 224.781C138.949 223.742 131.734 213.782 129.376 211.942" stroke="black" stroke-width="1.4154" stroke-miterlimit="10" stroke-linecap="round"/>
<path d="M125.462 219.164C127.867 221.099 132.252 230.068 132.63 230.823L132.677 230.917C133.526 232.381 134.987 232.805 136.261 232.192C137.534 231.578 137.817 230.398 137.581 229.029C137.251 227.991 130.791 217.653 127.49 215.293" fill="white"/>
<path d="M125.462 219.164C127.867 221.099 132.252 230.068 132.63 230.823L132.677 230.917C133.526 232.381 134.987 232.805 136.261 232.192C137.534 231.578 137.817 230.398 137.581 229.029C137.251 227.991 130.791 217.653 127.49 215.293" stroke="black" stroke-width="1.4154" stroke-miterlimit="10" stroke-linecap="round"/>
<path d="M120.793 221.288C123.198 223.223 125.98 229.123 126.358 229.879L126.405 229.973C127.254 231.436 128.716 231.861 129.989 231.248C131.262 230.634 131.545 229.454 131.309 228.085C131.026 227.188 128.527 222.373 126.358 219.966C126.075 219.636 125.792 219.352 125.509 219.164" fill="white"/>
<path d="M120.793 221.288C123.198 223.223 125.98 229.123 126.358 229.879L126.405 229.973C127.254 231.436 128.716 231.861 129.989 231.248C131.262 230.634 131.545 229.454 131.309 228.085C131.026 227.188 128.527 222.373 126.358 219.966C126.075 219.636 125.792 219.352 125.509 219.164" stroke="black" stroke-width="1.4154" stroke-miterlimit="10" stroke-linecap="round"/>
<path d="M297.396 103.232C296.972 98.8896 296.972 93.2252 289.898 85.8143C279.665 75.0991 245.948 60.5605 219.54 72.3613C207.279 63.0151 193.274 62.6847 179.457 70.7092C127.961 60.2773 40.3437 104.696 88.6795 198.111H128.291C145.975 197.686 189.359 185.649 207.515 151.191C221.002 155.581 239.629 151.899 246.467 134.858C250.239 140.853 256.983 144.535 264.245 144.346C266.084 150.719 275.091 151.993 278.91 150.955C283.107 149.822 287.069 145.526 285.748 139.107C294.472 134.906 299.188 124.946 296.5 115.316C296.547 115.269 297.773 107.528 297.396 103.232Z" fill="white" stroke="black" stroke-width="1.4154" stroke-miterlimit="10" stroke-linecap="round" stroke-linejoin="round"/>
<path d="M181.107 97.5679C146.022 117.629 141.448 184.847 195.49 206.749L199.687 206.891C202.658 206.985 205.346 205.144 206.242 202.312L207.232 199.291C196.433 192.824 178.513 174.32 185.681 149.114" fill="white"/>
<path d="M181.107 97.5679C146.022 117.629 141.448 184.847 195.49 206.749L199.687 206.891C202.658 206.985 205.346 205.144 206.242 202.312L207.232 199.291C196.433 192.824 178.513 174.32 185.681 149.114" stroke="black" stroke-width="1.4154" stroke-miterlimit="10" stroke-linecap="round"/>
<path d="M229.82 110.36C228.877 106.961 230.339 103.374 233.687 102.147C237.035 100.919 240.666 102.666 241.892 106.017C242.364 107.245 244.203 116.827 244.203 116.827C244.203 116.827 231.612 116.732 229.82 110.36Z" stroke="black" stroke-width="1.4154" stroke-miterlimit="10" stroke-linecap="round"/>
<path d="M251.984 137.03C247.928 133.442 247.504 127.259 251.088 123.199C254.672 119.14 260.849 118.715 264.905 122.302C267.876 124.899 269.338 133.159 269.385 136.935C269.385 138.304 268.394 139.437 267.074 139.579C263.349 140.051 254.955 139.626 251.984 137.03Z" stroke="black" stroke-width="1.4154" stroke-miterlimit="10" stroke-linecap="round"/>
<path d="M258.742 131.878C259.964 131.812 260.901 130.766 260.835 129.543C260.769 128.319 259.725 127.381 258.503 127.447C257.28 127.513 256.343 128.559 256.409 129.782C256.475 131.006 257.52 131.944 258.742 131.878Z" fill="black" stroke="black" stroke-width="1.4154" stroke-miterlimit="10" stroke-linecap="round"/>
<path d="M264.694 129.825C264.771 126.489 262.132 123.722 258.8 123.644C255.467 123.566 252.703 126.208 252.625 129.544C252.548 132.88 255.186 135.647 258.519 135.724C261.852 135.802 264.616 133.161 264.694 129.825Z" stroke="black" stroke-width="1.4154" stroke-miterlimit="10" stroke-linecap="round"/>
<path d="M261.513 127.733C261.532 126.951 260.913 126.302 260.132 126.284C259.351 126.266 258.703 126.885 258.685 127.667C258.667 128.449 259.285 129.097 260.066 129.115C260.847 129.133 261.495 128.514 261.513 127.733Z" fill="white"/>
<path d="M284.771 125.27C285.993 125.203 286.931 124.158 286.865 122.935C286.799 121.711 285.754 120.773 284.532 120.839C283.31 120.905 282.372 121.951 282.439 123.174C282.505 124.398 283.549 125.336 284.771 125.27Z" fill="black" stroke="black" stroke-width="1.4154" stroke-miterlimit="10" stroke-linecap="round"/>
<path d="M287.536 120.997C287.554 120.215 286.936 119.566 286.155 119.548C285.374 119.53 284.726 120.149 284.707 120.931C284.689 121.713 285.308 122.361 286.089 122.38C286.87 122.398 287.518 121.779 287.536 120.997Z" fill="white"/>
<path d="M290.72 123.226C290.798 119.89 288.159 117.123 284.826 117.045C281.494 116.968 278.729 119.609 278.652 122.945C278.574 126.281 281.213 129.048 284.546 129.126C287.878 129.203 290.643 126.562 290.72 123.226Z" stroke="black" stroke-width="1.4154" stroke-miterlimit="10" stroke-linecap="round"/>
<path d="M303.479 196.129C303.904 189.615 298.245 184.281 292.162 184.045C286.173 183.809 280.467 186.877 279.948 195.28C279.948 195.752 279.948 194.807 279.948 195.28C279.806 198.442 282.306 201.133 285.465 201.227C287.729 201.322 289.757 200.047 290.747 198.159L295.934 198.112C296.641 199.245 297.82 200 299.235 200.047C301.499 200.141 303.338 198.348 303.479 196.129Z" fill="white" stroke="black" stroke-width="1.4154" stroke-miterlimit="10" stroke-linecap="round"/>
<path d="M299.188 185.932C305.271 183.006 313.665 183.336 316.872 187.679C317.626 188.67 317.343 190.181 316.306 190.936C315.457 191.55 314.325 191.502 313.524 190.889C313.524 190.889 309.091 189.001 304.422 190.133C303.809 190.275 303.196 190.511 302.583 190.747" fill="white"/>
<path d="M299.188 185.932C305.271 183.006 313.665 183.336 316.872 187.679C317.626 188.67 317.343 190.181 316.306 190.936C315.457 191.55 314.325 191.502 313.524 190.889C313.524 190.889 309.091 189.001 304.422 190.133C303.809 190.275 303.196 190.511 302.583 190.747" stroke="black" stroke-width="1.4154" stroke-miterlimit="10" stroke-linecap="round"/>
<path d="M300.273 189.237C306.545 186.64 314.891 187.49 317.862 192.022C318.57 193.06 318.192 194.571 317.108 195.231C316.212 195.798 315.08 195.656 314.325 194.995C314.325 194.995 308.761 192.258 303.432 194.24" fill="white"/>
<path d="M300.273 189.237C306.545 186.64 314.891 187.49 317.862 192.022C318.57 193.06 318.192 194.571 317.108 195.231C316.212 195.798 315.08 195.656 314.325 194.995C314.325 194.995 308.761 192.258 303.432 194.24" stroke="black" stroke-width="1.4154" stroke-miterlimit="10" stroke-linecap="round"/>
<path d="M302.772 198.158C308.006 195.845 313.712 198.252 313.712 198.252C314.514 198.866 315.646 198.913 316.495 198.3C317.532 197.544 317.815 196.034 317.06 195.043C313.854 190.7 305.46 190.37 299.377 193.296" fill="white"/>
<path d="M302.772 198.158C308.006 195.845 313.712 198.252 313.712 198.252C314.514 198.866 315.646 198.913 316.495 198.3C317.532 197.544 317.815 196.034 317.06 195.043C313.854 190.7 305.46 190.37 299.377 193.296" stroke="black" stroke-width="1.4154" stroke-miterlimit="10" stroke-linecap="round"/>
<path d="M240.383 116.874C241.421 128.108 246.514 134.811 246.514 134.811" stroke="black" stroke-width="1.4154" stroke-miterlimit="10" stroke-linecap="round"/>
<path d="M278.722 145.621C277.637 145.857 276.93 146.895 277.118 148.028C276.883 146.943 275.798 146.187 274.713 146.423C272.78 146.895 273.11 148.878 273.11 148.878C273.535 151.096 275.704 152.513 277.873 152.04C280.042 151.568 281.504 149.491 281.08 147.32C281.174 147.32 280.75 145.243 278.722 145.621Z" fill="white" stroke="black" stroke-width="1.4154" stroke-miterlimit="10" stroke-linecap="round"/>
<path d="M303.857 96.3406C303.479 92.8003 300.791 90.0153 297.255 90.1569C293.718 90.2514 290.936 93.2252 291.077 96.7654C291.124 98.0871 292.916 107.622 292.916 107.622C292.916 107.622 304.517 102.949 303.857 96.3406Z" fill="white" stroke="black" stroke-width="1.4154" stroke-miterlimit="10" stroke-linecap="round"/>
<path d="M297.443 105.828C297.443 105.828 294.472 101.155 295.227 94.4996" stroke="black" stroke-width="1.4154" stroke-miterlimit="10" stroke-linecap="round"/>
<path d="M237.271 106.112C237.271 106.112 240.619 110.549 240.336 117.252" stroke="black" stroke-width="1.4154" stroke-miterlimit="10" stroke-linecap="round"/>
<path d="M293.529 127.023C295.651 122.066 293.388 116.26 288.389 114.136C283.438 112.012 277.637 114.278 275.515 119.281C273.959 122.916 276.176 130.988 277.732 134.434C278.298 135.661 279.665 136.275 280.985 135.85C284.569 134.575 291.973 130.657 293.529 127.023Z" stroke="black" stroke-width="1.4154" stroke-miterlimit="10" stroke-linecap="round"/>
<path d="M108.155 117.676C130.319 117.676 148.286 135.661 148.286 157.846C148.286 180.032 130.319 198.016 108.155 198.016" stroke="black" stroke-width="1.4154" stroke-miterlimit="10" stroke-linecap="round"/>
<path d="M195.49 217.747C191.482 212.602 193.179 205.003 198.083 201.368C202.941 197.78 209.354 197.12 214.494 203.822C214.777 204.2 214.211 203.445 214.494 203.822C216.38 206.371 215.814 209.959 213.268 211.847C211.429 213.216 209.071 213.263 207.185 212.272L202.846 215.151C202.894 216.473 202.328 217.795 201.196 218.644C199.357 219.966 196.857 219.541 195.49 217.747Z" fill="white" stroke="black" stroke-width="1.4154" stroke-miterlimit="10" stroke-linecap="round"/>
<path d="M193.321 206.938C186.624 207.929 179.881 212.885 179.645 218.314C179.598 219.588 180.636 220.674 181.956 220.721C182.993 220.721 183.937 220.06 184.219 219.116C184.219 219.116 186.813 215.057 191.34 213.405C191.953 213.169 192.566 213.027 193.226 212.885" stroke="black" stroke-width="1.4154" stroke-miterlimit="10" stroke-linecap="round"/>
<path d="M194.311 210.289C187.662 211.658 181.249 217.039 181.296 222.421C181.296 223.695 182.427 224.734 183.748 224.686C184.785 224.639 185.681 223.931 185.917 222.94C185.917 222.94 188.982 217.559 194.547 216.19" fill="white"/>
<path d="M194.311 210.289C187.662 211.658 181.249 217.039 181.296 222.421C181.296 223.695 182.427 224.734 183.748 224.686C184.785 224.639 185.681 223.931 185.917 222.94C185.917 222.94 188.982 217.559 194.547 216.19" stroke="black" stroke-width="1.4154" stroke-miterlimit="10" stroke-linecap="round"/>
<path d="M197.235 219.022C191.576 220.06 188.228 225.253 188.228 225.253C187.898 226.197 187.002 226.905 185.964 226.858C184.691 226.81 183.606 225.725 183.653 224.45C183.889 219.022 190.633 214.066 197.329 213.074" fill="white"/>
<path d="M197.235 219.022C191.576 220.06 188.228 225.253 188.228 225.253C187.898 226.197 187.002 226.905 185.964 226.858C184.691 226.81 183.606 225.725 183.653 224.45C183.889 219.022 190.633 214.066 197.329 213.074" stroke="black" stroke-width="1.4154" stroke-miterlimit="10" stroke-linecap="round"/>
<path d="M282.589 195.468C279.382 201.132 278.958 208.873 282.73 212.461C283.626 213.31 285.182 213.263 286.031 212.272C286.738 211.469 286.833 210.337 286.314 209.487C286.314 209.487 285.088 205.333 286.408 201.085C287.634 201.132 288.861 200.66 289.757 199.621C291.266 197.875 291.077 195.184 289.332 193.674C287.54 192.163 284.475 192.069 282.589 195.468Z" fill="white" stroke="black" stroke-width="1.4154" stroke-miterlimit="10" stroke-linecap="round" stroke-linejoin="round"/>
<path d="M210.816 205.144C217.229 204.059 224.68 206.324 226.708 211.045C227.227 212.177 226.613 213.594 225.435 214.113C224.444 214.49 223.36 214.207 222.747 213.405C222.747 213.405 219.257 210.856 214.824 210.62C214.447 211.8 213.551 212.791 212.325 213.263C210.156 214.113 207.704 213.027 206.902 210.856C206.1 208.684 206.949 205.758 210.816 205.144Z" fill="white" stroke="black" stroke-width="1.4154" stroke-miterlimit="10" stroke-linecap="round" stroke-linejoin="round"/>
</svg>
