<svg width="400" height="300" viewBox="0 0 400 300" fill="none" xmlns="http://www.w3.org/2000/svg">
<path d="M204.364 175.377C206.911 182.08 203.421 197.516 202.242 202.283C202.337 203.463 203.28 204.36 204.459 204.36L219.596 204.266L220.445 194.778H213.183C214.456 184.818 241.147 189.066 236.289 144.223L209.552 137.284L204.364 175.377Z" fill="white" stroke="black" stroke-width="1.4154" stroke-miterlimit="10" stroke-linecap="round" stroke-linejoin="round"/>
<path d="M302.639 187.367C302.403 187.131 302.073 186.895 301.696 186.659C293.066 181.419 278.778 166.409 284.719 146.253L259.915 147.905C260.764 165.606 270.525 183.591 292.123 192.606C293.066 193.031 293.962 193.314 294.858 193.456C294.811 193.881 294.764 194.259 294.764 194.731C294.764 198.79 298.065 202.094 302.12 202.094C306.176 202.094 309.477 198.79 309.477 194.731C309.477 190.813 306.459 187.65 302.639 187.367Z" fill="white" stroke="black" stroke-width="1.4154" stroke-miterlimit="10" stroke-linecap="round" stroke-linejoin="round"/>
<path d="M313.58 93.5268C316.079 93.338 320.464 92.7715 321.643 90.3642C323.53 86.5407 325.84 75.1647 322.021 73.2766C318.201 71.3884 309.713 79.649 307.826 83.4725C306.6 85.8798 308.864 89.6089 310.137 91.8275" fill="white"/>
<path d="M313.58 93.5268C316.079 93.338 320.464 92.7715 321.643 90.3642C323.53 86.5407 325.84 75.1647 322.021 73.2766C318.201 71.3884 309.713 79.649 307.826 83.4725C306.6 85.8798 308.864 89.6089 310.137 91.8275" stroke="black" stroke-width="1.4154" stroke-miterlimit="10" stroke-linecap="round" stroke-linejoin="round"/>
<path d="M329.189 106.555L325.416 101.221H325.463L325.322 99.8992C325.274 99.2856 325.18 98.6247 325.086 98.0111C324.897 96.9254 324.614 95.9341 324.237 94.9429C323.86 93.9044 323.388 92.9603 322.822 92.0635C319.757 87.0599 314.24 83.7085 307.968 83.7085C299.385 83.7085 292.218 89.9393 290.85 98.1527C282.692 98.5303 276.561 101.032 269.959 107.169C244.73 86.0687 150.652 73.2294 156.217 151.162C156.217 179.673 132.921 202.755 104.344 202.33C76.8047 201.953 54.3109 179.437 53.9336 151.87C53.5564 123.265 76.5689 99.9464 105.052 99.9464C112.88 99.8048 112.833 88.9953 105.052 88.9953C66.2416 88.9953 35.7782 124.634 44.5022 164.993C49.0293 185.998 70.2027 207.192 91.1876 211.724C131.507 220.456 167.11 189.963 167.11 151.115C167.063 148.047 168.101 146.158 168.761 145.309C184.134 156.26 183.002 178.068 167.582 200.584C166.969 201.481 167.016 202.614 167.629 203.463L179.182 212.479L187.058 205.021L180.126 200.206C183.709 187.603 234.497 185.054 219.266 144.412C222.52 145.686 225.773 146.158 229.829 146.158L251.285 157.062C288.445 160.65 309.666 136.34 310.043 118.309C311.74 118.12 313.344 117.648 314.806 117.034C317.211 118.875 320.512 119.489 323.577 118.403C328.387 116.704 330.886 111.37 329.189 106.555Z" fill="white" stroke="black" stroke-width="1.4154" stroke-miterlimit="10" stroke-linecap="round" stroke-linejoin="round"/>
<path d="M264.065 112.88C232.14 118.545 210.495 168.108 245.391 199.309C245.532 199.451 245.627 199.545 245.768 199.64C245.297 200.631 245.061 201.764 245.061 202.944C245.061 207.428 248.692 211.11 253.219 211.11C257.699 211.11 261.377 207.475 261.377 202.944C261.377 199.026 258.595 195.722 254.917 194.967C248.786 186.281 242.279 168.91 253.643 153.097" fill="white"/>
<path d="M264.065 112.88C232.14 118.545 210.495 168.108 245.391 199.309C245.532 199.451 245.627 199.545 245.768 199.64C245.297 200.631 245.061 201.764 245.061 202.944C245.061 207.428 248.692 211.11 253.219 211.11C257.699 211.11 261.377 207.475 261.377 202.944C261.377 199.026 258.595 195.722 254.917 194.967C248.786 186.281 242.279 168.91 253.643 153.097" stroke="black" stroke-width="1.4154" stroke-miterlimit="10" stroke-linecap="round" stroke-linejoin="round"/>
<path d="M317.399 201.811C315.56 197.421 310.986 194.825 306.318 195.533C304.856 195.769 303.677 194.259 304.337 192.937C304.337 192.937 304.573 191.993 305.752 191.615C311.788 190.01 318.06 193.409 319.993 199.356C322.445 199.781 322.634 202.33 321.313 203.322C319.852 204.36 317.777 203.699 317.399 201.811Z" fill="white" stroke="black" stroke-width="1.4154" stroke-miterlimit="10" stroke-linecap="round" stroke-linejoin="round"/>
<path d="M296.179 207.617C294.717 203.605 296.226 199.073 299.715 196.666C300.847 195.911 300.706 194.211 299.48 193.739C299.48 193.739 298.725 193.267 297.735 193.739C292.736 196.336 290.614 202.425 292.925 207.57C291.51 209.364 292.972 211.157 294.434 211.016C296.131 210.827 297.075 209.175 296.179 207.617Z" fill="white" stroke="black" stroke-width="1.4154" stroke-miterlimit="10" stroke-linecap="round" stroke-linejoin="round"/>
<path d="M315.985 204.974C314.523 200.442 310.09 197.516 305.422 197.846C303.96 197.94 302.875 196.383 303.63 195.108C303.63 195.108 303.96 194.164 305.139 193.928C311.269 192.748 317.258 196.619 318.767 202.708C321.219 203.322 321.172 205.871 319.804 206.767C318.248 207.711 316.22 206.909 315.985 204.974Z" fill="white" stroke="black" stroke-width="1.4154" stroke-miterlimit="10" stroke-linecap="round" stroke-linejoin="round"/>
<path d="M326.453 110.662C328.01 111.558 328.575 113.541 327.679 115.099" stroke="black" stroke-width="1.4154" stroke-miterlimit="10" stroke-linecap="round" stroke-linejoin="round"/>
<path d="M323.058 110.662L326.501 110.614V107.169" stroke="black" stroke-width="1.4154" stroke-miterlimit="10" stroke-linecap="round" stroke-linejoin="round"/>
<path d="M309.716 106.991C310.557 106.519 310.856 105.455 310.385 104.613C309.914 103.772 308.851 103.472 308.01 103.944C307.17 104.415 306.87 105.48 307.341 106.321C307.812 107.162 308.876 107.462 309.716 106.991Z" fill="black" stroke="black" stroke-width="1.4154" stroke-miterlimit="10" stroke-linecap="round"/>
<path d="M310.881 109.8C313.268 108.694 314.307 105.86 313.202 103.471C312.097 101.081 309.266 100.041 306.879 101.147C304.492 102.253 303.452 105.087 304.557 107.476C305.662 109.866 308.493 110.906 310.881 109.8Z" stroke="black" stroke-width="1.4154" stroke-miterlimit="10" stroke-linecap="round"/>
<path d="M309.654 104.531C310.198 104.279 310.435 103.634 310.183 103.09C309.931 102.545 309.287 102.309 308.743 102.56C308.199 102.812 307.963 103.458 308.214 104.002C308.466 104.546 309.111 104.783 309.654 104.531Z" fill="white"/>
<path d="M303.582 109.67C301.225 106.838 301.555 102.637 304.384 100.23C307.213 97.8695 311.41 98.1999 313.815 101.032" stroke="black" stroke-width="1.4154" stroke-miterlimit="10" stroke-linecap="round"/>
<path d="M296.273 97.2558L298.867 94.3292L297.169 87.2015L285.097 85.219L288.304 94.1404L296.273 97.2558Z" fill="white" stroke="black" stroke-width="1.4154" stroke-miterlimit="10" stroke-linecap="round" stroke-linejoin="round"/>
<path d="M297.876 85.7382C299.904 87.532 299.244 91.8275 298.867 94.3292C296.697 92.6771 290.378 87.2959 289.388 88.5232C288.398 89.7977 293.962 94.8957 296.273 97.2086C293.868 97.9639 289.624 99.0496 287.596 97.303C284.389 94.4709 278.023 84.747 280.853 81.5844C283.729 78.4217 294.67 82.906 297.876 85.7382Z" fill="white" stroke="black" stroke-width="1.4154" stroke-miterlimit="10" stroke-linecap="round" stroke-linejoin="round"/>
<path d="M269.63 210.544C267.79 206.154 263.216 203.558 258.548 204.266C257.086 204.502 255.907 202.991 256.567 201.669C256.567 201.669 256.803 200.725 257.982 200.348C264.018 198.743 270.29 202.141 272.223 208.089C274.675 208.514 274.864 211.063 273.544 212.054C272.082 213.14 270.054 212.479 269.63 210.544Z" fill="white" stroke="black" stroke-width="1.4154" stroke-miterlimit="10" stroke-linecap="round" stroke-linejoin="round"/>
<path d="M268.262 213.754C266.8 209.222 262.367 206.295 257.698 206.626C256.237 206.72 255.152 205.163 255.907 203.888C255.907 203.888 256.237 202.944 257.416 202.708C263.546 201.528 269.535 205.399 271.044 211.488C273.496 212.101 273.449 214.65 272.081 215.547C270.478 216.491 268.497 215.689 268.262 213.754Z" fill="white" stroke="black" stroke-width="1.4154" stroke-miterlimit="10" stroke-linecap="round" stroke-linejoin="round"/>
<path d="M311.552 208.656C311.127 204.407 307.826 200.961 303.629 200.348C302.309 200.159 301.696 198.554 302.592 197.563C302.592 197.563 303.064 196.808 304.148 196.808C309.76 196.996 314.287 201.528 314.428 207.192C316.456 208.184 315.937 210.449 314.523 210.969C313.014 211.535 311.41 210.449 311.552 208.656Z" fill="white" stroke="black" stroke-width="1.4154" stroke-miterlimit="10" stroke-linecap="round" stroke-linejoin="round"/>
<path d="M265.432 215.83C265.008 211.582 261.707 208.136 257.51 207.523C256.19 207.334 255.577 205.729 256.472 204.738C256.472 204.738 256.944 203.982 258.029 203.982C263.64 204.171 268.167 208.703 268.309 214.367C270.337 215.358 269.818 217.624 268.403 218.143C266.894 218.663 265.291 217.577 265.432 215.83Z" fill="white" stroke="black" stroke-width="1.4154" stroke-miterlimit="10" stroke-linecap="round" stroke-linejoin="round"/>
<path d="M257.18 217.341C257.605 213.093 256.378 210.024 253.738 208.892C252.512 208.372 252.181 206.767 253.266 205.965C253.266 205.965 253.879 205.304 254.917 205.54C258.925 206.767 261.236 210.921 260.292 216.491C262.084 217.86 261.141 219.984 259.679 220.22C258.076 220.409 256.709 219.04 257.18 217.341Z" fill="white" stroke="black" stroke-width="1.4154" stroke-miterlimit="10" stroke-linecap="round" stroke-linejoin="round"/>
<path d="M194.367 214.556C192.81 210.544 190.358 208.372 187.482 208.561C186.161 208.656 185.124 207.381 185.737 206.154C185.737 206.154 185.973 205.304 187.01 205.021C191.16 204.313 195.074 206.956 196.724 212.385C198.941 212.809 199.035 215.122 197.856 215.972C196.489 216.916 194.65 216.302 194.367 214.556Z" fill="white" stroke="black" stroke-width="1.4154" stroke-miterlimit="10" stroke-linecap="round" stroke-linejoin="round"/>
<path d="M192.716 218.096C192.292 213.848 188.991 210.402 184.794 209.741C183.473 209.552 182.86 207.947 183.756 206.956C183.756 206.956 184.228 206.201 185.313 206.201C190.924 206.39 195.451 210.968 195.593 216.586C197.621 217.577 197.055 219.843 195.687 220.362C194.178 220.976 192.575 219.89 192.716 218.096Z" fill="white" stroke="black" stroke-width="1.4154" stroke-miterlimit="10" stroke-linecap="round" stroke-linejoin="round"/>
<path d="M190.736 220.504C190.641 216.208 187.67 212.526 183.521 211.535C182.2 211.204 181.729 209.6 182.719 208.703C182.719 208.703 183.238 207.995 184.322 208.089C189.934 208.75 194.037 213.659 193.707 219.276C195.64 220.456 194.933 222.675 193.518 223.052C191.962 223.477 190.453 222.25 190.736 220.504Z" fill="white" stroke="black" stroke-width="1.4154" stroke-miterlimit="10" stroke-linecap="round" stroke-linejoin="round"/>
<path d="M183.473 221.778C183.898 217.53 182.672 214.461 180.031 213.329C178.805 212.809 178.475 211.204 179.559 210.402C179.559 210.402 180.172 209.741 181.21 209.977C185.218 211.204 187.529 215.358 186.586 220.928C188.378 222.297 187.435 224.421 185.973 224.657C184.322 224.846 182.955 223.477 183.473 221.778Z" fill="white" stroke="black" stroke-width="1.4154" stroke-miterlimit="10" stroke-linecap="round" stroke-linejoin="round"/>
<path d="M230.678 197.138C227.424 195.344 224.595 195.25 222.755 196.949C221.907 197.752 220.492 197.468 220.256 196.336C220.256 196.336 219.926 195.627 220.492 194.872C222.897 192.087 227 191.71 231.055 194.4C232.753 193.456 234.12 194.967 233.79 196.194C233.413 197.516 231.857 198.129 230.678 197.138Z" fill="white" stroke="black" stroke-width="1.4154" stroke-miterlimit="10" stroke-linecap="round" stroke-linejoin="round"/>
<path d="M231.621 200.489C229.075 197.752 224.972 197.138 221.765 198.932C220.728 199.498 219.455 198.743 219.596 197.563C219.596 197.563 219.502 196.807 220.256 196.241C224.217 193.409 229.782 194.164 232.847 197.988C234.781 197.61 235.582 199.451 234.922 200.537C234.12 201.669 232.47 201.764 231.621 200.489Z" fill="white" stroke="black" stroke-width="1.4154" stroke-miterlimit="10" stroke-linecap="round" stroke-linejoin="round"/>
<path d="M231.574 203.133C229.169 200.301 225.066 199.498 221.765 201.15C220.728 201.669 219.502 200.867 219.643 199.687C219.643 199.687 219.596 198.932 220.351 198.365C224.453 195.675 229.971 196.666 232.847 200.631C234.781 200.348 235.535 202.236 234.781 203.274C234.026 204.407 232.328 204.454 231.574 203.133Z" fill="white" stroke="black" stroke-width="1.4154" stroke-miterlimit="10" stroke-linecap="round" stroke-linejoin="round"/>
<path d="M227.377 207.995C225.302 204.927 222.803 203.558 220.398 204.266C219.266 204.596 218.181 203.699 218.464 202.566C218.464 202.566 218.511 201.811 219.313 201.339C222.708 199.923 226.528 201.433 228.98 205.682C230.961 205.587 231.479 207.57 230.631 208.514C229.687 209.552 227.99 209.411 227.377 207.995Z" fill="white" stroke="black" stroke-width="1.4154" stroke-miterlimit="10" stroke-linecap="round" stroke-linejoin="round"/>
<path d="M326.111 101.581C328.498 100.475 329.537 97.6408 328.432 95.2513C327.327 92.8618 324.496 91.8214 322.109 92.9276C319.722 94.0337 318.682 96.8675 319.787 99.257C320.892 101.646 323.723 102.687 326.111 101.581Z" fill="white" stroke="black" stroke-width="1.4154" stroke-miterlimit="10" stroke-linecap="round"/>
<path d="M324.945 98.7708C325.785 98.2992 326.085 97.2348 325.614 96.3934C325.143 95.552 324.079 95.2522 323.239 95.7238C322.398 96.1954 322.099 97.2598 322.57 98.1012C323.041 98.9426 324.104 99.2424 324.945 98.7708Z" fill="black" stroke="black" stroke-width="1.4154" stroke-miterlimit="10" stroke-linecap="round"/>
<path d="M324.884 96.3115C325.428 96.0596 325.665 95.4143 325.413 94.8701C325.161 94.326 324.517 94.0891 323.973 94.341C323.429 94.5929 323.193 95.2382 323.444 95.7823C323.696 96.3265 324.341 96.5634 324.884 96.3115Z" fill="white"/>
<path d="M317.399 97.4446C317.305 93.7628 320.181 90.6474 323.86 90.5529C327.538 90.4585 330.65 93.3379 330.745 97.0198" stroke="black" stroke-width="1.4154" stroke-miterlimit="10" stroke-linecap="round"/>
<path d="M318.201 115.099C320.323 115.476 322.068 116.373 323.247 118.073" stroke="black" stroke-width="1.4154" stroke-miterlimit="10" stroke-linecap="round"/>
</svg>
