<svg width="400" height="300" viewBox="0 0 400 300" fill="none" xmlns="http://www.w3.org/2000/svg">
<path d="M263.56 191.407C267.097 202.783 260.731 214.867 249.366 218.408C247.102 218.833 248.234 222.75 251.818 220.013C263.183 216.472 269.549 204.388 266.012 193.012L263.56 191.407Z" fill="white" stroke="black" stroke-width="1.4154" stroke-miterlimit="10" stroke-linecap="round" stroke-linejoin="round"/>
<path d="M264.833 189.755C271.435 199.668 268.747 213.074 258.844 219.682C256.817 220.721 258.986 224.166 261.627 220.532C271.53 213.923 274.217 200.518 267.616 190.605L264.833 189.755Z" fill="white" stroke="black" stroke-width="1.4154" stroke-miterlimit="10" stroke-linecap="round" stroke-linejoin="round"/>
<path d="M262.806 189.614C268.653 199.998 264.928 213.168 254.553 218.974C252.431 219.871 254.317 223.458 257.288 220.013C267.663 214.159 271.341 201.037 265.541 190.652L262.806 189.614Z" fill="white" stroke="black" stroke-width="1.4154" stroke-miterlimit="10" stroke-linecap="round" stroke-linejoin="round"/>
<path d="M307.558 133.914L281.197 125.795C283.177 160.442 268.653 176.35 263.843 183.949C260.967 184.044 258.656 186.404 258.656 189.33C258.656 192.304 261.061 194.712 264.032 194.712C266.814 194.712 269.125 192.588 269.361 189.85C278.415 184.563 302.606 162.425 307.558 133.914Z" fill="white" stroke="black" stroke-width="1.4154" stroke-miterlimit="10" stroke-linecap="round" stroke-linejoin="round"/>
<path d="M251.677 143.59L218.62 149.444C222.251 169.175 214.706 187.631 200.182 194.664C198.107 195.703 198.484 198.582 200.134 199.904L213.055 212.035C213.763 214.773 216.262 216.803 219.186 216.803C222.675 216.803 225.552 213.971 225.552 210.43C225.552 207.268 223.194 204.624 220.176 204.152L213.244 199.054C249.225 186.026 264.504 168.891 251.677 143.59Z" fill="white" stroke="black" stroke-width="1.4154" stroke-miterlimit="10" stroke-linecap="round" stroke-linejoin="round"/>
<path d="M373.908 159.168C372.681 157.846 370.937 155.958 372.021 152.323C297.23 188.386 210.462 213.782 126.004 229.548C128.927 231.625 128.456 234.929 128.314 236.675C128.079 239.885 128.503 242.245 130.153 243.709C210.415 227.518 297.278 203.822 376.878 166.154C377.35 163.888 376.171 161.669 373.908 159.168Z" fill="white" stroke="black" stroke-width="1.4154" stroke-miterlimit="10" stroke-linecap="round"/>
<path d="M184.337 209.297C192.448 211.941 196.928 220.626 194.334 228.745C193.957 230.964 197.871 231.389 197.446 227.329C200.04 219.21 195.607 210.478 187.449 207.881L184.337 209.297Z" fill="white" stroke="black" stroke-width="1.4154" stroke-miterlimit="10" stroke-linecap="round" stroke-linejoin="round"/>
<path d="M178.395 211.752C185.704 216.189 188.062 225.677 183.677 232.993C182.781 235.07 186.506 236.392 187.025 232.333C191.41 225.016 189.1 215.528 181.743 211.091L178.395 211.752Z" fill="white" stroke="black" stroke-width="1.4154" stroke-miterlimit="10" stroke-linecap="round" stroke-linejoin="round"/>
<path d="M178.395 213.971C183.394 219.257 184.054 227.471 179.668 233.607C178.631 235.59 182.215 237.195 183.064 233.229C188.062 226.291 185.846 215.859 178.914 210.855L178.395 213.971Z" fill="white" stroke="black" stroke-width="1.4154" stroke-miterlimit="10" stroke-linecap="round" stroke-linejoin="round"/>
<path d="M181.837 210.289C189.288 214.159 191.646 224.497 187.072 233.324C186.129 235.778 189.948 236.723 190.514 232.097C195.088 223.27 192.778 212.979 185.28 209.061L181.837 210.289Z" fill="white" stroke="black" stroke-width="1.4154" stroke-miterlimit="10" stroke-linecap="round" stroke-linejoin="round"/>
<path d="M332.032 98.889C325.477 82.415 298.881 80.1021 290.958 97.8033C254.27 79.6772 191.269 81.3766 169.718 122.255C168.728 124.143 167.832 126.031 168.162 128.155C170.473 143.921 180.847 160.206 192.966 164.36C189.005 172.432 182.356 177.954 168.303 183.524C166.841 184.091 166.04 185.696 166.7 187.159L175.66 207.079C175.566 207.504 175.518 207.929 175.518 208.401C175.518 212.082 178.489 215.103 182.215 215.103C185.893 215.103 188.911 212.13 188.911 208.401C188.911 205.804 187.449 203.539 185.28 202.453L180.611 192.257C179.951 192.351 179.197 192.399 178.348 192.446C211.028 189.85 237.388 173.234 225.505 151.001C225.505 151.001 225.505 151.001 225.458 151.001C239.227 151.143 254.412 147.933 262.476 141.325C264.551 139.484 333.117 101.627 332.032 98.889Z" fill="white" stroke="black" stroke-width="1.4154" stroke-miterlimit="10" stroke-linecap="round" stroke-linejoin="round"/>
<path d="M297.854 100.691C298.589 97.0632 296.742 93.6267 293.73 93.0158C290.718 92.4048 287.681 94.8508 286.947 98.479C286.212 102.107 288.058 105.544 291.07 106.155C294.083 106.766 297.12 104.32 297.854 100.691Z" fill="white" stroke="black" stroke-width="1.4154" stroke-miterlimit="10" stroke-linecap="round" stroke-linejoin="round"/>
<path d="M297.219 101.828C297.524 100.32 296.551 98.8505 295.045 98.5451C293.539 98.2396 292.07 99.2141 291.765 100.722C291.46 102.229 292.433 103.699 293.939 104.004C295.445 104.31 296.914 103.335 297.219 101.828Z" fill="white" stroke="black" stroke-width="1.4154" stroke-miterlimit="10" stroke-linecap="round" stroke-linejoin="round"/>
<path d="M336.101 106.167C339.113 105.556 340.96 102.119 340.225 98.4909C339.491 94.8626 336.453 92.4167 333.441 93.0276C330.429 93.6385 328.583 97.075 329.318 100.703C330.052 104.331 333.089 106.777 336.101 106.167Z" fill="white" stroke="black" stroke-width="1.4154" stroke-miterlimit="10" stroke-linecap="round" stroke-linejoin="round"/>
<path d="M333.206 104.035C334.712 103.729 335.685 102.259 335.38 100.752C335.075 99.2445 333.606 98.27 332.1 98.5755C330.594 98.881 329.621 100.351 329.926 101.858C330.231 103.366 331.7 104.34 333.206 104.035Z" fill="white" stroke="black" stroke-width="1.4154" stroke-miterlimit="10" stroke-linecap="round" stroke-linejoin="round"/>
<path d="M334.39 112.672C334.39 125.512 329.439 138.634 314.113 132.073C298.74 139.012 293.835 125.512 293.835 112.672C293.835 99.8331 298.74 86.1913 314.113 93.9327C329.533 86.2857 334.39 99.8803 334.39 112.672Z" fill="white" stroke="black" stroke-width="1.4154" stroke-miterlimit="10" stroke-linecap="round" stroke-linejoin="round"/>
<path d="M325.477 167.475C325.902 176.444 333.494 183.383 342.454 182.958C344.812 183.147 344.151 187.301 340.19 185.743C331.23 186.168 323.638 179.229 323.214 170.26L325.477 167.475Z" fill="white" stroke="black" stroke-width="1.4154" stroke-miterlimit="10" stroke-linecap="round" stroke-linejoin="round"/>
<path d="M326.515 167.239C328.354 176.066 336.936 181.731 345.708 179.89C348.066 179.748 348.065 183.902 343.869 183.005C335.097 184.846 326.515 179.135 324.676 170.355L326.515 167.239Z" fill="white" stroke="black" stroke-width="1.4154" stroke-miterlimit="10" stroke-linecap="round" stroke-linejoin="round"/>
<path d="M327.552 165.115C330.099 173.753 339.106 178.71 347.688 176.161C349.999 175.83 350.376 179.984 346.132 179.418C337.549 181.92 327.977 176.114 325.43 167.475L327.552 165.115Z" fill="white" stroke="black" stroke-width="1.4154" stroke-miterlimit="10" stroke-linecap="round" stroke-linejoin="round"/>
<path d="M263.985 107.48C249.932 140.381 275.114 184.044 323.874 173.517C324.534 173.801 325.241 173.942 325.996 173.942C329.155 173.942 331.702 171.393 331.702 168.231C331.702 165.068 329.155 162.519 325.996 162.519C324.628 162.519 323.402 162.991 322.459 163.746C314.16 163.463 306.143 160.725 297.938 149.774C301.804 134.622 298.409 123.293 292.798 113.522" fill="white"/>
<path d="M263.985 107.48C249.932 140.381 275.114 184.044 323.874 173.517C324.534 173.801 325.241 173.942 325.996 173.942C329.155 173.942 331.702 171.393 331.702 168.231C331.702 165.068 329.155 162.519 325.996 162.519C324.628 162.519 323.402 162.991 322.459 163.746C314.16 163.463 306.143 160.725 297.938 149.774C301.804 134.622 298.409 123.293 292.798 113.522" stroke="black" stroke-width="1.4154" stroke-miterlimit="10" stroke-linecap="round" stroke-linejoin="round"/>
<path d="M327.552 162.189C332.692 159.734 338.964 160.3 342.312 163.274C345.236 165.587 342.077 168.891 339.86 165.87C337.974 164.077 335.097 163.085 332.032 164.879C332.409 166.106 331.844 167.853 330.759 168.655C329.108 169.883 326.845 169.552 325.619 167.947C324.393 166.342 324.487 163.652 327.552 162.189Z" fill="white" stroke="black" stroke-width="1.4154" stroke-miterlimit="10" stroke-linecap="round" stroke-linejoin="round"/>
<path d="M257.949 186.782C252.243 189.567 248.423 195.467 248.706 200.518C248.706 204.672 253.799 204.152 252.667 200.14C252.384 197.261 253.516 194.051 257.241 192.588C258.043 193.815 259.977 194.476 261.438 194.098C263.608 193.484 264.928 191.266 264.362 189.094C263.796 186.876 261.391 185.082 257.949 186.782Z" fill="white" stroke="black" stroke-width="1.4154" stroke-miterlimit="10" stroke-linecap="round" stroke-linejoin="round"/>
<path d="M223.336 223.93C220.176 222.798 217.582 220.815 216.073 217.936C214.659 215.198 210.98 218.738 214.706 220.296C216.168 223.128 218.714 225.11 221.827 226.243C223.336 226.857 224.797 225.299 223.336 223.93Z" fill="white" stroke="black" stroke-width="1.4154" stroke-miterlimit="10" stroke-linecap="round" stroke-linejoin="round"/>
<path d="M227.014 222.986C223.854 221.853 221.261 219.871 219.752 216.992C218.337 214.254 214.659 217.794 218.384 219.352C219.846 222.184 222.393 224.166 225.505 225.299C227.014 225.913 228.476 224.355 227.014 222.986Z" fill="white" stroke="black" stroke-width="1.4154" stroke-miterlimit="10" stroke-linecap="round" stroke-linejoin="round"/>
<path d="M230.928 220.957C227.627 220.249 224.845 218.549 222.958 215.906C221.213 213.357 218.007 217.322 221.874 218.408C223.713 221.004 226.448 222.703 229.655 223.411C231.305 223.836 232.531 222.09 230.928 220.957Z" fill="white" stroke="black" stroke-width="1.4154" stroke-miterlimit="10" stroke-linecap="round" stroke-linejoin="round"/>
<path d="M235.125 219.163C231.777 218.691 228.853 217.18 226.825 214.679C224.939 212.271 221.968 216.425 225.929 217.275C227.91 219.729 230.786 221.24 234.04 221.712C235.691 221.995 236.775 220.201 235.125 219.163Z" fill="white" stroke="black" stroke-width="1.4154" stroke-miterlimit="10" stroke-linecap="round" stroke-linejoin="round"/>
<path d="M322.978 120.319C322.978 125.181 319.017 129.146 314.16 129.146C309.302 129.146 305.341 125.181 305.341 120.319C305.341 114.23 311.849 114.041 314.16 100.211C316.47 114.041 322.978 114.23 322.978 120.319Z" stroke="black" stroke-width="1.4154" stroke-miterlimit="10" stroke-linecap="round" stroke-linejoin="round"/>
<path d="M309.019 126.928C311.802 124.001 316.423 123.907 319.347 126.692" stroke="black" stroke-width="1.4154" stroke-miterlimit="10" stroke-linecap="round" stroke-linejoin="round"/>
<path d="M319.488 118.903C319.488 121.877 317.083 122.349 314.16 122.349C311.236 122.349 308.831 121.83 308.831 118.903" stroke="black" stroke-width="1.4154" stroke-miterlimit="10" stroke-linecap="round" stroke-linejoin="round"/>
<path d="M318.091 120.852C318.188 120.766 318.197 120.616 318.11 120.519C318.023 120.422 317.874 120.413 317.777 120.5C317.68 120.587 317.671 120.736 317.758 120.833C317.845 120.931 317.994 120.939 318.091 120.852Z" stroke="black" stroke-width="1.4154" stroke-miterlimit="10" stroke-linecap="round" stroke-linejoin="round"/>
<path d="M310.481 120.886C310.611 120.886 310.717 120.78 310.717 120.65C310.717 120.519 310.611 120.414 310.481 120.414C310.351 120.414 310.245 120.519 310.245 120.65C310.245 120.78 310.351 120.886 310.481 120.886Z" stroke="black" stroke-width="1.4154" stroke-miterlimit="10" stroke-linecap="round" stroke-linejoin="round"/>
<path d="M308.716 107.463C308.726 107.072 308.417 106.748 308.026 106.738C307.636 106.729 307.311 107.038 307.302 107.429C307.293 107.82 307.602 108.145 307.992 108.154C308.383 108.163 308.707 107.854 308.716 107.463Z" fill="black"/>
<path d="M307.982 106.726C307.605 106.726 307.275 107.056 307.275 107.434C307.275 107.812 307.558 108.142 307.982 108.142C308.359 108.142 308.689 107.812 308.689 107.434C308.737 107.056 308.406 106.726 307.982 106.726C308.029 106.726 308.029 106.726 307.982 106.726Z" fill="black"/>
<path d="M309.989 107.494C310.015 106.399 309.15 105.491 308.056 105.464C306.963 105.438 306.055 106.304 306.029 107.398C306.003 108.493 306.868 109.402 307.961 109.428C309.055 109.454 309.963 108.588 309.989 107.494Z" stroke="black" stroke-width="1.4154" stroke-miterlimit="10" stroke-linecap="round"/>
<path d="M308.673 107.02C308.677 106.837 308.533 106.686 308.351 106.681C308.168 106.677 308.017 106.821 308.013 107.004C308.008 107.186 308.152 107.338 308.335 107.342C308.517 107.346 308.668 107.202 308.673 107.02Z" fill="white"/>
<path d="M303.926 107.433C303.926 105.167 305.766 103.326 308.029 103.326C310.293 103.326 312.132 105.167 312.132 107.433" stroke="black" stroke-width="1.4154" stroke-miterlimit="10" stroke-linecap="round"/>
<path d="M320.973 107.344C320.982 106.953 320.673 106.629 320.283 106.62C319.892 106.61 319.568 106.919 319.558 107.31C319.549 107.701 319.858 108.026 320.249 108.035C320.639 108.045 320.963 107.735 320.973 107.344Z" fill="black"/>
<path d="M320.29 106.63C319.912 106.63 319.582 106.961 319.582 107.338C319.582 107.716 319.865 108.046 320.29 108.046C320.667 108.046 320.997 107.716 320.997 107.338C320.997 106.961 320.667 106.63 320.29 106.63Z" fill="black"/>
<path d="M322.246 107.375C322.272 106.281 321.407 105.372 320.313 105.346C319.22 105.319 318.312 106.185 318.286 107.28C318.259 108.374 319.125 109.283 320.218 109.309C321.312 109.336 322.219 108.47 322.246 107.375Z" stroke="black" stroke-width="1.4154" stroke-miterlimit="10" stroke-linecap="round"/>
<path d="M320.928 106.948C320.932 106.766 320.788 106.614 320.606 106.61C320.424 106.605 320.272 106.75 320.268 106.932C320.264 107.115 320.408 107.266 320.59 107.27C320.772 107.275 320.924 107.131 320.928 106.948Z" fill="white"/>
<path d="M316.234 107.338C316.234 105.073 318.074 103.232 320.337 103.232C322.601 103.232 324.44 105.073 324.44 107.338" stroke="black" stroke-width="1.4154" stroke-miterlimit="10" stroke-linecap="round"/>
<path d="M28.2944 129.76C26.9269 133.017 25.7008 136.463 24.5691 140.05L28.2944 129.76ZM24.5691 140.05C20.4664 155.344 39.7536 158.412 43.8562 145.998C46.78 138.209 49.9395 131.554 54.0421 125.842L57.6732 121.311C60.4083 118.242 63.5207 115.505 67.1989 113.097C68.2364 112.389 69.321 111.728 70.4527 111.115C70.0755 110.454 69.8868 109.604 70.1226 108.424C69.8868 109.557 70.1226 110.454 70.4527 111.115C72.2447 110.076 74.131 109.132 76.2059 108.235C75.357 107.15 74.0838 106.442 72.6691 106.678C74.0366 106.442 75.357 107.15 76.2059 108.235C79.9784 106.536 84.2225 105.073 88.9854 103.751C90.683 103.326 92.3807 103.043 94.0312 102.901C95.5402 101.91 96.1061 99.2194 94.6914 97.8977C96.1532 99.2666 95.5402 101.91 94.0312 102.901C99.1713 102.429 104.17 103.232 108.791 104.742C109.687 103.09 108.98 100.683 107.094 100.163C108.98 100.73 109.687 103.09 108.791 104.742C117.893 107.763 125.815 113.758 131.662 119.281C132.7 120.272 133.643 121.216 134.539 122.113C138.547 126.267 141.188 129.76 142.084 131.034C146.14 136.652 150.902 139.531 155.76 140.192C156.278 137.548 155.382 136.038 155.382 136.038C155.382 136.038 156.231 137.548 155.76 140.192C160.051 140.805 164.389 139.625 168.35 137.171C169.058 136.699 169.812 136.227 170.473 135.66C172.595 133.914 174.009 131.931 175 129.902C174.764 129.052 174.245 128.297 173.396 127.966C174.198 128.297 174.764 129.052 175 129.902C178.018 123.34 176.084 115.882 174.104 111.917C174.009 111.728 173.915 111.492 173.773 111.303C172.878 109.557 171.934 107.858 170.944 106.253C170.095 104.884 169.199 103.515 168.303 102.193C169.294 103.704 170.142 104.931 170.944 106.253C168.728 102.571 166.228 99.1722 163.54 96.104C163.399 97.3313 162.597 98.4642 161.277 98.7946C162.597 98.5114 163.352 97.3313 163.54 96.104C161.748 94.0271 159.862 92.1389 157.882 90.3452C157.316 92.0445 158.165 94.1687 159.957 94.5935C158.117 94.1687 157.269 92.0445 157.882 90.3452C152.27 85.2472 145.951 81.1878 139.16 78.214C136.567 77.0811 133.926 76.0898 131.238 75.2873C132.417 76.7034 132.606 78.9692 131.521 80.3381C132.558 78.9692 132.37 76.7034 131.238 75.2873C119.543 71.6999 106.905 71.0391 94.267 73.352C91.4847 73.8713 88.7025 74.5321 85.9674 75.2873C87.0048 77.2227 90.6359 77.1283 91.579 75.0041C90.6359 77.1755 87.0048 77.2227 85.9674 75.2873C83.6567 75.9482 81.346 76.7507 79.0353 77.6003C67.7176 81.8958 56.9658 88.9291 47.6288 99.0306C44.988 101.721 41.4984 105.781 39.4235 109.321C39.5178 110.926 38.669 112.672 37.2543 113.333C38.669 112.672 39.5178 110.973 39.4235 109.321C38.0559 111.303 36.6884 113.38 35.4151 115.552C34.6606 116.779 33.9533 118.054 33.2459 119.375C34.0004 119.328 35.6038 119.422 36.7827 120.839C35.6509 119.422 34.0476 119.328 33.2459 119.375C31.5011 122.679 29.8506 126.125 28.3416 129.807L24.5691 140.05ZM43.9977 143.874C44.375 141.278 40.3666 139.673 38.5747 141.608C40.3666 139.72 44.4221 141.278 43.9977 143.874ZM101.388 98.2753C99.3599 99.7386 99.7372 102.146 99.7372 102.146C99.7372 102.146 99.3128 99.6914 101.388 98.2753ZM110.065 92.7054C107.895 91.1476 104.689 94.027 105.585 96.4816C104.689 94.027 107.942 91.1476 110.065 92.7054ZM77.6206 101.721C77.6206 101.721 80.0256 102.288 80.5915 104.742C79.9784 102.288 77.6206 101.721 77.6206 101.721ZM80.0727 98.3697C82.1948 100.116 85.5429 98.2281 85.26 95.6792C85.5429 98.2281 82.1948 100.163 80.0727 98.3697ZM75.2627 103.893C74.1781 101.344 70.3113 101.532 69.4153 103.94C70.3113 101.532 74.131 101.344 75.2627 103.893ZM57.2959 110.029C58.7578 109.368 59.5123 106.772 58.4277 105.781C59.5123 106.819 58.7578 109.368 57.2959 110.029ZM29.9921 136.935C29.9921 136.935 29.662 139.389 27.3042 140.192C29.662 139.342 29.9921 136.935 29.9921 136.935ZM38.9519 135.66C38.7161 133.253 35.6038 131.27 33.2459 132.498C35.5566 131.27 38.7161 133.253 38.9519 135.66ZM45.884 128.91C45.884 128.91 44.7994 131.223 41.9228 130.704C44.7522 131.223 45.884 128.91 45.884 128.91ZM43.5733 127.4C41.1211 126.408 40.6496 122.727 42.3472 121.027C40.6496 122.679 41.1211 126.361 43.5733 127.4ZM37.6787 123.718C37.6787 123.718 33.9061 122.255 31.4068 126.078C33.9061 122.302 37.6787 123.718 37.6787 123.718ZM54.608 113.616C54.3251 116.354 55.3625 117.77 55.3625 117.77C55.3625 117.77 54.3251 116.307 54.608 113.616ZM42.6301 113.664C45.1766 113.286 47.2044 116.59 45.5067 118.762C47.2044 116.543 45.1295 113.286 42.6301 113.664ZM99.4542 85.7665C99.4542 85.7665 97.0964 84.7752 97.4265 81.8958C97.0492 84.8224 99.4542 85.7665 99.4542 85.7665ZM96.5305 88.3155C92.7579 85.7665 94.2198 82.0374 94.2198 82.0374C94.2198 82.0374 92.7579 85.8137 96.5305 88.3155ZM73.2821 84.02C77.0075 86.6633 75.4042 90.3924 75.4042 90.3924C75.4042 90.3924 76.9604 86.6633 73.2821 84.02ZM65.0768 94.1687C65.0768 94.1687 63.2849 97.7561 66.8216 100.636C63.2377 97.7561 65.0768 94.1687 65.0768 94.1687ZM60.2668 98.653C60.2668 98.653 59.9367 96.1984 62.0588 94.8295C59.9839 96.1984 60.2668 98.653 60.2668 98.653ZM49.9395 106.347C50.2696 103.704 46.1669 102.288 44.4693 104.223C46.1669 102.24 50.2224 103.704 49.9395 106.347ZM52.203 94.9239C50.9298 97.0009 52.2502 100.447 54.8438 100.872C52.2502 100.447 50.9769 96.9537 52.203 94.9239ZM102.897 77.1755C101.576 74.7681 97.7566 75.2873 97.0492 77.7419C97.7566 75.2873 101.576 74.7209 102.897 77.1755ZM116.336 79.8661C118.93 79.394 119.166 75.0985 116.761 74.0129C119.119 75.0985 118.93 79.394 116.336 79.8661ZM122.797 79.0164C122.797 79.0164 121.665 76.8451 123.08 74.8153C121.618 76.8451 122.797 79.0164 122.797 79.0164ZM109.829 85.8609C112.611 86.0497 114.073 82.5095 112.8 80.0549C114.073 82.5567 112.611 86.0497 109.829 85.8609ZM124.023 83.4063C124.212 80.7629 127.607 79.2052 129.729 80.2909C127.607 79.2052 124.259 80.7629 124.023 83.4063ZM119.354 87.3242C118.458 88.5043 115.818 87.9378 115.063 86.5217C115.865 87.9378 118.458 88.5043 119.354 87.3242ZM134.397 85.2944C132.7 87.277 128.597 85.8609 128.927 83.2175C128.644 85.8609 132.7 87.277 134.397 85.2944ZM141.801 85.0584C141.801 85.0584 140.999 83.5007 141.613 80.8573C140.952 83.5007 141.801 85.0584 141.801 85.0584ZM144.913 127.966C147.46 128.627 148.45 132.215 146.988 134.15C148.403 132.215 147.46 128.627 144.913 127.966ZM149.535 123.576C146.658 123.435 145.857 125.889 145.857 125.889C145.857 125.889 146.658 123.482 149.535 123.576ZM136.897 113.522C134.728 114.608 134.02 118.242 136.048 119.989C134.067 118.29 134.775 114.655 136.897 113.522ZM148.403 112.106C148.403 112.106 146.705 110.218 148.214 107.763C146.658 110.218 148.403 112.106 148.403 112.106ZM138.5 115.741C140.717 116.685 143.97 114.938 144.018 112.295C143.97 114.938 140.717 116.732 138.5 115.741ZM143.97 103.137C146.375 104.081 146.422 108.424 143.829 108.99C146.375 108.424 146.375 104.129 143.97 103.137ZM124.919 106.158C124.919 106.158 124.542 108.613 122.137 109.321C124.495 108.613 124.919 106.158 124.919 106.158ZM119.59 101.58C120.203 104.176 117.515 106.678 115.11 106.3C117.468 106.678 120.203 104.176 119.59 101.58ZM127.607 98.2281C127.607 98.2281 128.644 95.868 131.521 96.2928C128.644 95.9152 127.607 98.2281 127.607 98.2281ZM151.987 93.4606C149.441 92.7054 148.592 89.1179 150.148 87.2298C148.592 89.1179 149.441 92.7526 151.987 93.4606ZM146.47 97.4729C143.97 96.9064 143.263 93.083 145.621 91.6669C143.31 93.1302 143.97 96.9064 146.47 97.4729ZM139.538 97.7561C139.538 97.7561 138.689 100.163 135.765 99.9275C138.642 100.163 139.538 97.7561 139.538 97.7561ZM136.001 103.137C136.001 103.137 139.821 104.459 142.178 100.541C139.821 104.412 136.001 103.137 136.001 103.137ZM131.427 106.064C133.077 104.27 132.464 100.636 129.965 99.7386C132.464 100.588 133.077 104.27 131.427 106.064ZM128.409 108.377C126.805 110.643 128.974 113.852 131.474 113.38C128.927 113.852 126.805 110.643 128.409 108.377ZM166.653 121.027C164.154 120.225 163.399 116.59 164.955 114.749C163.446 116.59 164.154 120.225 166.653 121.027ZM174.622 122.349C172.123 121.688 171.557 117.912 173.962 116.543C171.557 117.865 172.123 121.688 174.622 122.349ZM151.374 134.952C153.685 134.008 153.826 131.506 153.826 131.506C153.826 131.506 153.637 133.961 151.374 134.952Z" fill="white"/>
<path d="M24.5691 140.05C25.7008 136.463 26.9269 133.017 28.2944 129.76L24.5691 140.05ZM24.5691 140.05C20.4664 155.344 39.7536 158.412 43.8562 145.998C46.78 138.209 49.9395 131.554 54.0421 125.842L57.6732 121.311C60.4083 118.242 63.5207 115.505 67.1989 113.097M24.5691 140.05L28.3416 129.807C29.8506 126.125 31.5011 122.679 33.2459 119.375M67.1989 113.097C65.6899 110.643 66.916 108.235 66.916 108.235M67.1989 113.097C68.2364 112.389 69.321 111.728 70.4527 111.115M70.4527 111.115C70.0755 110.454 69.8868 109.604 70.1226 108.424C69.8868 109.557 70.1226 110.454 70.4527 111.115ZM70.4527 111.115C72.2447 110.076 74.131 109.132 76.2059 108.235M76.2059 108.235C75.357 107.15 74.0838 106.442 72.6691 106.678C74.0366 106.442 75.357 107.15 76.2059 108.235ZM76.2059 108.235C79.9784 106.536 84.2225 105.073 88.9854 103.751C90.683 103.326 92.3807 103.043 94.0312 102.901M94.0312 102.901C95.5402 101.91 96.1061 99.2194 94.6914 97.8977C96.1532 99.2666 95.5402 101.91 94.0312 102.901ZM94.0312 102.901C99.1713 102.429 104.17 103.232 108.791 104.742M108.791 104.742C109.687 103.09 108.98 100.683 107.094 100.163C108.98 100.73 109.687 103.09 108.791 104.742ZM108.791 104.742C117.893 107.763 125.815 113.758 131.662 119.281M131.662 119.281C132.464 117.393 132.228 116.118 132.228 116.118M131.662 119.281C132.7 120.272 133.643 121.216 134.539 122.113M134.539 122.113C134.586 122.113 134.633 122.066 134.68 122.066M134.539 122.113C138.547 126.267 141.188 129.76 142.084 131.034C146.14 136.652 150.902 139.531 155.76 140.192M155.76 140.192C156.278 137.548 155.382 136.038 155.382 136.038C155.382 136.038 156.231 137.548 155.76 140.192ZM155.76 140.192C160.051 140.805 164.389 139.625 168.35 137.171M168.35 137.171C168.256 134.716 164.342 133.631 162.786 135.566M168.35 137.171C169.058 136.699 169.812 136.227 170.473 135.66C172.595 133.914 174.009 131.931 175 129.902M175 129.902C174.764 129.052 174.245 128.297 173.396 127.966C174.198 128.297 174.764 129.052 175 129.902ZM175 129.902C178.018 123.34 176.084 115.882 174.104 111.917C174.009 111.728 173.915 111.492 173.773 111.303M173.773 111.303C171.84 112.248 171.557 114.372 171.557 114.372M173.773 111.303C172.878 109.557 171.934 107.858 170.944 106.253M170.944 106.253C170.095 104.884 169.199 103.515 168.303 102.193C169.294 103.704 170.142 104.931 170.944 106.253ZM170.944 106.253C168.728 102.571 166.228 99.1722 163.54 96.104M163.54 96.104C163.399 97.3313 162.597 98.4642 161.277 98.7946C162.597 98.5114 163.352 97.3313 163.54 96.104ZM163.54 96.104C161.748 94.0271 159.862 92.1389 157.882 90.3452M157.882 90.3452C157.316 92.0445 158.165 94.1687 159.957 94.5935C158.117 94.1687 157.269 92.0445 157.882 90.3452ZM157.882 90.3452C152.27 85.2472 145.951 81.1878 139.16 78.214M139.16 78.214C138.972 78.9692 138.5 79.6773 137.746 80.1021M139.16 78.214C136.567 77.0811 133.926 76.0898 131.238 75.2873M131.238 75.2873C132.417 76.7034 132.606 78.9692 131.521 80.3381C132.558 78.9692 132.37 76.7034 131.238 75.2873ZM131.238 75.2873C119.543 71.6999 106.905 71.0391 94.267 73.352C91.4847 73.8713 88.7025 74.5321 85.9674 75.2873M85.9674 75.2873C87.0048 77.2227 90.6359 77.1283 91.579 75.0041C90.6359 77.1755 87.0048 77.2227 85.9674 75.2873ZM85.9674 75.2873C83.6567 75.9482 81.346 76.7507 79.0353 77.6003C67.7176 81.8958 56.9658 88.9291 47.6288 99.0306C44.988 101.721 41.4984 105.781 39.4235 109.321M39.4235 109.321C39.5178 110.926 38.669 112.672 37.2543 113.333C38.669 112.672 39.5178 110.973 39.4235 109.321ZM39.4235 109.321C38.0559 111.303 36.6884 113.38 35.4151 115.552M35.4151 115.552C36.4997 117.015 39.2348 117.44 40.5081 115.882M35.4151 115.552C34.6606 116.779 33.9533 118.054 33.2459 119.375M33.2459 119.375C34.0004 119.328 35.6038 119.422 36.7827 120.839C35.6509 119.422 34.0476 119.328 33.2459 119.375ZM42.6301 136.935C44.092 138.965 46.497 138.587 46.497 138.587M123.551 92.5638C121.194 91.4781 121.429 87.1354 124.07 86.7105M126.617 88.6459C126.617 88.6459 129.022 88.1738 130.578 90.1092M116.666 93.0358C115.157 91.0532 112.705 91.5725 112.705 91.5725M85.4958 103.562C85.3543 100.683 88.0423 98.9362 89.9757 99.7858M99.6429 94.4991C98.4639 96.812 94.5499 95.8208 94.2198 93.1774M92.0977 96.5288C89.8342 94.9711 88.0894 95.2071 88.0894 95.2071M51.6371 109.935C51.6371 109.935 52.2502 108.282 54.608 106.961M105.255 90.7228C103.934 88.3155 100.114 88.8347 99.4071 91.2893M107.377 88.3627C107.377 88.3627 109.829 88.6931 110.583 91.1004M62.1059 112.767C62.1059 112.767 61.7759 110.312 63.8979 108.943M60.2197 118.148C61.9173 115.929 59.7953 112.767 57.013 112.436M48.902 121.122C48.902 121.122 49.3736 118.714 51.7786 118.054M41.8285 133.914C41.8285 133.914 45.5067 135.613 48.2418 131.931M51.1655 123.387C48.6662 124.568 48.9963 128.438 51.4013 129.241M37.8201 126.928C34.9436 126.597 33.9533 128.957 33.9533 128.957M46.5442 108.754C45.7425 110.737 47.6288 113.38 50.4582 113.097M92.1921 91.6197C90.3529 93.5078 86.769 92.5165 85.8259 90.298M100.869 83.4063C101.718 80.9045 105.349 80.1965 107.188 81.8014M72.1975 90.3924C72.6219 87.513 70.3112 86.4745 70.3112 86.4745M63.9451 102.052C62.6718 104.317 58.3806 103.751 58.1448 101.108M83.1379 93.4606C81.2045 91.7141 82.6664 87.6546 85.26 87.985M71.5373 96.1512C72.6219 93.7438 76.3002 93.4134 77.9507 95.1599M69.934 98.3697C69.934 98.3697 67.6705 97.1897 68.2835 94.3575M79.8841 85.6249C79.8841 85.6249 80.3557 88.0322 78.3279 89.5427M85.1657 83.0759C87.8065 83.3119 89.3155 86.7105 88.1837 88.8347M43.196 106.819C41.7342 109.132 42.0171 110.879 42.0171 110.879M57.5317 90.6284C59.3709 92.4693 57.626 96.4344 55.0324 95.9624M66.7745 85.6249C67.9534 87.985 65.8313 91.0532 63.4263 91.1949M80.9687 78.5444C83.2794 80.2909 85.3071 78.686 85.3071 78.686M81.8647 83.0287C81.4874 80.4325 77.149 80.1021 76.0172 82.4622M88.9854 79.4412C88.3723 82.2734 90.6359 83.4535 90.6359 83.4535M105.019 74.7681C105.019 74.7681 107.471 75.0985 108.225 77.5059M138.123 87.6546C139.585 85.2944 137.227 82.2262 134.728 82.8399M117.562 95.9624C117.562 95.9624 113.837 94.4519 111.243 98.1809M169.105 122.396C169.105 122.396 168.162 124.804 165.285 124.473M162.644 129.618C162.22 127.258 158.966 125.464 156.75 126.881M157.174 123.34C157.174 123.34 157.976 120.886 160.853 121.027M160.522 117.818C160.522 117.818 156.656 116.637 154.439 120.602M155.288 113.852C155.288 113.852 157.646 113.144 159.343 114.938M144.018 117.818C144.018 117.818 145.055 115.457 147.932 115.882M152.223 108.896C152.176 106.253 155.382 104.365 157.599 105.261M133.549 111.067C135.105 108.99 139.302 110.171 139.16 112.814M141.094 107.244C141.094 107.244 138.736 107.905 137.085 106.017M122.09 98.1337C124.542 98.8418 125.013 102.712 122.561 103.987M117.61 99.1722C114.733 98.7946 113.696 101.108 113.696 101.108M134.303 91.2421C134.633 93.6494 137.84 95.4904 140.103 94.1687M131.474 93.083C131.474 93.083 127.748 91.5725 125.155 95.3015M143.169 89.6371C143.169 89.6371 143.404 87.1826 145.762 86.2857M150.667 96.9537C153.543 97.1897 154.439 94.7823 154.439 94.7823M150.902 100.163C150.902 100.163 154.722 101.485 157.08 97.5673M151.846 103.987C150.148 102.146 147.79 102.901 147.79 102.901M167.973 112.295C169.482 109.982 167.219 106.866 164.719 107.386M140.952 123.199C143.169 119.234 147.036 120.414 147.036 120.414M165.427 127.683C165.427 127.683 169.199 129.099 171.699 125.276M170.378 131.978C170.378 131.978 167.973 132.545 166.37 130.61M160.223 106.896C160.176 104.253 163.382 102.365 165.599 103.261M160.018 111.818C160.018 111.818 161.055 109.457 163.932 109.882M43.9977 143.874C44.375 141.278 40.3666 139.673 38.5747 141.608C40.3666 139.72 44.4221 141.278 43.9977 143.874ZM101.388 98.2753C99.3599 99.7386 99.7372 102.146 99.7372 102.146C99.7372 102.146 99.3128 99.6914 101.388 98.2753ZM110.065 92.7054C107.895 91.1476 104.689 94.027 105.585 96.4816C104.689 94.027 107.942 91.1476 110.065 92.7054ZM77.6206 101.721C77.6206 101.721 80.0256 102.288 80.5915 104.742C79.9784 102.288 77.6206 101.721 77.6206 101.721ZM80.0727 98.3697C82.1948 100.116 85.5429 98.2281 85.26 95.6792C85.5429 98.2281 82.1948 100.163 80.0727 98.3697ZM75.2627 103.893C74.1781 101.344 70.3113 101.532 69.4153 103.94C70.3113 101.532 74.131 101.344 75.2627 103.893ZM57.2959 110.029C58.7578 109.368 59.5123 106.772 58.4277 105.781C59.5123 106.819 58.7578 109.368 57.2959 110.029ZM29.9921 136.935C29.9921 136.935 29.662 139.389 27.3042 140.192C29.662 139.342 29.9921 136.935 29.9921 136.935ZM38.9519 135.66C38.7161 133.253 35.6038 131.27 33.2459 132.498C35.5566 131.27 38.7161 133.253 38.9519 135.66ZM45.884 128.91C45.884 128.91 44.7994 131.223 41.9228 130.704C44.7522 131.223 45.884 128.91 45.884 128.91ZM43.5733 127.4C41.1211 126.408 40.6496 122.727 42.3472 121.027C40.6496 122.679 41.1211 126.361 43.5733 127.4ZM37.6787 123.718C37.6787 123.718 33.9061 122.255 31.4068 126.078C33.9061 122.302 37.6787 123.718 37.6787 123.718ZM54.608 113.616C54.3251 116.354 55.3625 117.77 55.3625 117.77C55.3625 117.77 54.3251 116.307 54.608 113.616ZM42.6301 113.664C45.1766 113.286 47.2044 116.59 45.5067 118.762C47.2044 116.543 45.1295 113.286 42.6301 113.664ZM99.4542 85.7665C99.4542 85.7665 97.0964 84.7752 97.4265 81.8958C97.0492 84.8224 99.4542 85.7665 99.4542 85.7665ZM96.5305 88.3155C92.7579 85.7665 94.2198 82.0374 94.2198 82.0374C94.2198 82.0374 92.7579 85.8137 96.5305 88.3155ZM73.2821 84.02C77.0075 86.6633 75.4042 90.3924 75.4042 90.3924C75.4042 90.3924 76.9604 86.6633 73.2821 84.02ZM65.0768 94.1687C65.0768 94.1687 63.2849 97.7561 66.8216 100.636C63.2377 97.7561 65.0768 94.1687 65.0768 94.1687ZM60.2668 98.653C60.2668 98.653 59.9367 96.1984 62.0588 94.8295C59.9839 96.1984 60.2668 98.653 60.2668 98.653ZM49.9395 106.347C50.2696 103.704 46.1669 102.288 44.4693 104.223C46.1669 102.24 50.2224 103.704 49.9395 106.347ZM52.203 94.9239C50.9298 97.0009 52.2502 100.447 54.8438 100.872C52.2502 100.447 50.9769 96.9537 52.203 94.9239ZM102.897 77.1755C101.576 74.7681 97.7566 75.2873 97.0492 77.7419C97.7566 75.2873 101.576 74.7209 102.897 77.1755ZM116.336 79.8661C118.93 79.394 119.166 75.0985 116.761 74.0129C119.119 75.0985 118.93 79.394 116.336 79.8661ZM122.797 79.0164C122.797 79.0164 121.665 76.8451 123.08 74.8153C121.618 76.8451 122.797 79.0164 122.797 79.0164ZM109.829 85.8609C112.611 86.0497 114.073 82.5095 112.8 80.0549C114.073 82.5567 112.611 86.0497 109.829 85.8609ZM124.023 83.4063C124.212 80.7629 127.607 79.2052 129.729 80.2909C127.607 79.2052 124.259 80.7629 124.023 83.4063ZM119.354 87.3242C118.458 88.5043 115.818 87.9378 115.063 86.5217C115.865 87.9378 118.458 88.5043 119.354 87.3242ZM134.397 85.2944C132.7 87.277 128.597 85.8609 128.927 83.2175C128.644 85.8609 132.7 87.277 134.397 85.2944ZM141.801 85.0584C141.801 85.0584 140.999 83.5007 141.613 80.8573C140.952 83.5007 141.801 85.0584 141.801 85.0584ZM144.913 127.966C147.46 128.627 148.45 132.215 146.988 134.15C148.403 132.215 147.46 128.627 144.913 127.966ZM149.535 123.576C146.658 123.435 145.857 125.889 145.857 125.889C145.857 125.889 146.658 123.482 149.535 123.576ZM136.897 113.522C134.728 114.608 134.02 118.242 136.048 119.989C134.067 118.29 134.775 114.655 136.897 113.522ZM148.403 112.106C148.403 112.106 146.705 110.218 148.214 107.763C146.658 110.218 148.403 112.106 148.403 112.106ZM138.5 115.741C140.717 116.685 143.97 114.938 144.018 112.295C143.97 114.938 140.717 116.732 138.5 115.741ZM143.97 103.137C146.375 104.081 146.422 108.424 143.829 108.99C146.375 108.424 146.375 104.129 143.97 103.137ZM124.919 106.158C124.919 106.158 124.542 108.613 122.137 109.321C124.495 108.613 124.919 106.158 124.919 106.158ZM119.59 101.58C120.203 104.176 117.515 106.678 115.11 106.3C117.468 106.678 120.203 104.176 119.59 101.58ZM127.607 98.2281C127.607 98.2281 128.644 95.868 131.521 96.2928C128.644 95.9152 127.607 98.2281 127.607 98.2281ZM151.987 93.4606C149.441 92.7054 148.592 89.1179 150.148 87.2298C148.592 89.1179 149.441 92.7526 151.987 93.4606ZM146.47 97.4729C143.97 96.9064 143.263 93.083 145.621 91.6669C143.31 93.1302 143.97 96.9064 146.47 97.4729ZM139.538 97.7561C139.538 97.7561 138.689 100.163 135.765 99.9275C138.642 100.163 139.538 97.7561 139.538 97.7561ZM136.001 103.137C136.001 103.137 139.821 104.459 142.178 100.541C139.821 104.412 136.001 103.137 136.001 103.137ZM131.427 106.064C133.077 104.27 132.464 100.636 129.965 99.7386C132.464 100.588 133.077 104.27 131.427 106.064ZM128.409 108.377C126.805 110.643 128.974 113.852 131.474 113.38C128.927 113.852 126.805 110.643 128.409 108.377ZM166.653 121.027C164.154 120.225 163.399 116.59 164.955 114.749C163.446 116.59 164.154 120.225 166.653 121.027ZM174.622 122.349C172.123 121.688 171.557 117.912 173.962 116.543C171.557 117.865 172.123 121.688 174.622 122.349ZM151.374 134.952C153.685 134.008 153.826 131.506 153.826 131.506C153.826 131.506 153.637 133.961 151.374 134.952ZM153.47 117.473C150.97 116.906 150.263 113.083 152.621 111.667C150.31 113.13 150.97 116.906 153.47 117.473ZM153.538 125.756C153.538 125.756 152.689 128.163 149.765 127.927C152.642 128.163 153.538 125.756 153.538 125.756ZM159.801 135.058C159.801 135.058 158.999 133.501 159.613 130.857C158.952 133.501 159.801 135.058 159.801 135.058Z" stroke="black" stroke-width="1.4154" stroke-miterlimit="10" stroke-linecap="round" stroke-linejoin="round"/>
<path d="M37.5845 138.87C33.1046 139.578 32.8217 143.638 32.8217 143.638" stroke="black" stroke-width="1.4154" stroke-miterlimit="10" stroke-linecap="round" stroke-linejoin="round"/>
<path d="M34.4248 149.396C36.594 147.461 38.7632 148.877 38.7632 148.877" stroke="black" stroke-width="1.4154" stroke-miterlimit="10" stroke-linecap="round" stroke-linejoin="round"/>
<path d="M25.6537 144.346C28.4831 145.007 29.7092 142.741 29.7092 142.741" stroke="black" stroke-width="1.4154" stroke-miterlimit="10" stroke-linecap="round" stroke-linejoin="round"/>
<path d="M32.4444 147.178C32.4444 147.178 29.9451 147.697 29.7565 150.576" stroke="black" stroke-width="1.4154" stroke-miterlimit="10" stroke-linecap="round" stroke-linejoin="round"/>
<path d="M30.7939 131.601C27.9173 131.27 26.927 133.631 26.927 133.631Z" fill="white"/>
<path d="M30.7939 131.601C27.9173 131.27 26.927 133.631 26.927 133.631" stroke="black" stroke-width="1.4154" stroke-miterlimit="10" stroke-linecap="round" stroke-linejoin="round"/>
<path d="M225.41 150.954C225.41 150.954 211.829 150.954 205.321 147.744Z" fill="white"/>
<path d="M225.41 150.954C225.41 150.954 211.829 150.954 205.321 147.744" stroke="black" stroke-width="1.4154" stroke-miterlimit="10" stroke-linecap="round" stroke-linejoin="round"/>
</svg>
