<svg width="400" height="300" viewBox="0 0 400 300" fill="none" xmlns="http://www.w3.org/2000/svg">
<path d="M365.799 185.03C360.899 183.003 355.2 184.656 352.111 188.923C351.099 190.256 349.022 190.043 348.489 188.443C348.489 188.443 347.957 187.483 348.543 186.31C352.004 180.23 359.621 177.883 365.905 181.03C368.195 179.376 370.326 181.296 370.113 183.11C369.793 185.083 367.663 186.256 365.799 185.03Z" fill="white" stroke="black" stroke-width="1.4154" stroke-miterlimit="10" stroke-linecap="round" stroke-linejoin="round"/>
<path d="M367.716 189.776C363.508 186.683 357.756 186.896 353.762 190.15C352.484 191.163 350.566 190.47 350.407 188.816C350.407 188.816 350.087 187.803 350.992 186.79C355.732 181.83 363.508 181.456 368.728 185.936C371.284 184.923 372.882 187.27 372.19 188.923C371.444 190.843 369.154 191.376 367.716 189.776Z" fill="white" stroke="black" stroke-width="1.4154" stroke-miterlimit="10" stroke-linecap="round" stroke-linejoin="round"/>
<path d="M365.426 196.069C362.443 192.443 357.33 191.376 353.123 193.349C351.791 193.989 350.246 192.923 350.46 191.483C350.46 191.483 350.406 190.523 351.418 189.829C356.638 186.523 363.561 187.91 367.13 192.923C369.58 192.603 370.485 195.003 369.527 196.283C368.461 197.776 366.331 197.776 365.426 196.069Z" fill="white" stroke="black" stroke-width="1.4154" stroke-miterlimit="10" stroke-linecap="round" stroke-linejoin="round"/>
<path d="M325.055 203.536C321.327 200.389 317.652 199.536 314.882 201.243C313.551 202.043 311.846 201.349 311.846 199.803C311.846 199.803 311.633 198.79 312.539 197.936C316.32 194.95 321.753 195.483 326.333 200.016C328.783 199.216 330.168 201.509 329.422 203.056C328.517 204.763 326.333 205.136 325.055 203.536Z" fill="white" stroke="black" stroke-width="1.4154" stroke-miterlimit="10" stroke-linecap="round" stroke-linejoin="round"/>
<path d="M327.292 208.763C324.682 204.603 319.569 202.736 314.935 204.229C313.497 204.709 312.006 203.376 312.485 201.936C312.485 201.936 312.592 200.923 313.71 200.389C319.569 197.723 326.546 200.123 329.529 205.883C332.085 205.883 332.724 208.496 331.552 209.723C330.221 210.949 328.037 210.629 327.292 208.763Z" fill="white" stroke="black" stroke-width="1.4154" stroke-miterlimit="10" stroke-linecap="round" stroke-linejoin="round"/>
<path d="M325.907 212.123C323.51 207.856 318.451 205.776 313.764 207.056C312.272 207.483 310.888 206.096 311.42 204.656C311.42 204.656 311.58 203.643 312.699 203.163C318.664 200.763 325.534 203.429 328.25 209.296C330.807 209.403 331.34 212.016 330.115 213.189C328.73 214.469 326.546 214.043 325.907 212.123Z" fill="white" stroke="black" stroke-width="1.4154" stroke-miterlimit="10" stroke-linecap="round" stroke-linejoin="round"/>
<path d="M372.722 103.91C367.876 109.83 359.141 110.684 353.229 105.777C347.317 100.924 346.465 92.1771 351.365 86.2572C356.265 80.3372 370.539 72.6573 376.451 77.5639C382.309 82.4172 377.569 97.9904 372.722 103.91Z" fill="white" stroke="black" stroke-width="1.4154" stroke-miterlimit="10" stroke-linecap="round" stroke-linejoin="round"/>
<path d="M362.869 207.323C358.609 203.483 352.217 203.056 347.424 206.203C345.933 207.216 343.856 206.203 343.856 204.389C343.856 204.389 343.642 203.216 344.708 202.256C350.46 197.349 359.141 197.776 364.361 203.269C367.29 202.416 368.781 205.189 367.876 206.949C366.917 208.869 364.307 209.243 362.869 207.323Z" fill="white" stroke="black" stroke-width="1.4154" stroke-miterlimit="10" stroke-linecap="round" stroke-linejoin="round"/>
<path d="M363.295 212.443C359.94 207.749 353.762 205.989 348.436 208.123C346.731 208.816 344.974 207.376 345.347 205.616C345.347 205.616 345.4 204.443 346.625 203.696C353.282 200.07 361.644 202.363 365.639 208.816C368.674 208.603 369.58 211.589 368.302 213.136C366.917 214.789 364.307 214.576 363.295 212.443Z" fill="white" stroke="black" stroke-width="1.4154" stroke-miterlimit="10" stroke-linecap="round" stroke-linejoin="round"/>
<path d="M361.325 218.469C359.993 213.456 355.359 209.989 350.193 210.043C348.542 210.043 347.53 208.283 348.382 206.949C348.382 206.949 348.809 205.936 350.087 205.723C356.851 204.816 363.189 209.456 364.467 216.176C367.077 216.976 366.864 219.803 365.319 220.656C363.562 221.616 361.431 220.656 361.325 218.469Z" fill="white" stroke="black" stroke-width="1.4154" stroke-miterlimit="10" stroke-linecap="round" stroke-linejoin="round"/>
<path d="M351.365 182.843C350.46 182.843 349.607 183.056 348.862 183.483C342.79 179.43 335.44 170.683 335.334 160.39L317.705 169.136C322.338 179.91 331.925 188.976 346.838 191.75C347.051 191.75 347.264 191.803 347.424 191.803C348.383 192.87 349.767 193.51 351.365 193.51C354.294 193.51 356.691 191.11 356.691 188.176C356.691 185.243 354.294 182.843 351.365 182.843Z" fill="white" stroke="black" stroke-width="1.4154" stroke-miterlimit="10" stroke-linecap="round" stroke-linejoin="round"/>
<path d="M323.404 180.23C349.448 176.283 367.662 154.737 363.721 128.657L300.715 104.87L289.53 165.723L323.404 180.23Z" fill="white" stroke="black" stroke-width="1.4154" stroke-miterlimit="10" stroke-linecap="round" stroke-linejoin="round"/>
<path d="M310.887 181.936C311.473 183.75 312.219 185.563 313.071 187.323C317.971 197.243 327.238 205.403 341.246 208.069C341.991 210.576 344.281 212.443 347.051 212.443C350.406 212.443 353.069 209.723 353.069 206.416C353.069 203.056 350.353 200.389 347.051 200.389C346.305 200.389 345.56 200.549 344.867 200.816C328.037 193.136 326.919 175.643 328.037 166.736" fill="white"/>
<path d="M310.887 181.936C311.473 183.75 312.219 185.563 313.071 187.323C317.971 197.243 327.238 205.403 341.246 208.069C341.991 210.576 344.281 212.443 347.051 212.443C350.406 212.443 353.069 209.723 353.069 206.416C353.069 203.056 350.353 200.389 347.051 200.389C346.305 200.389 345.56 200.549 344.867 200.816C328.037 193.136 326.919 175.643 328.037 166.736" stroke="black" stroke-width="1.4154" stroke-miterlimit="10" stroke-linecap="round" stroke-linejoin="round"/>
<path d="M300.768 104.87C265.191 111.697 237.762 139.003 240.265 181.936V181.99C237.868 188.443 226.311 188.443 221.038 188.443H24.5627C20.1954 188.603 20.0889 194.043 24.5627 194.043H220.399C234.406 194.043 246.337 192.923 248.414 179.483C260.291 177.776 274.298 182.896 262.634 198.043C261.676 199.323 261.942 201.136 263.273 201.989L305.029 207.696C306.254 209.243 308.118 210.203 310.195 210.203C313.817 210.203 316.799 207.269 316.799 203.589C316.799 199.963 313.87 196.976 310.195 196.976C308.438 196.976 306.84 197.669 305.668 198.789L297.892 197.669C293.152 198.683 286.335 199.536 278.506 199.376C334.428 199.696 345.293 145.457 299.064 145.617" fill="white"/>
<path d="M300.768 104.87C265.191 111.697 237.762 139.003 240.265 181.936V181.99C237.868 188.443 226.311 188.443 221.038 188.443H24.5627C20.1954 188.603 20.0889 194.043 24.5627 194.043H220.399C234.406 194.043 246.337 192.923 248.414 179.483C260.291 177.776 274.298 182.896 262.634 198.043C261.676 199.323 261.942 201.136 263.273 201.989L305.029 207.696C306.254 209.243 308.118 210.203 310.195 210.203C313.817 210.203 316.799 207.269 316.799 203.589C316.799 199.963 313.87 196.976 310.195 196.976C308.438 196.976 306.84 197.669 305.668 198.789L297.892 197.669C293.152 198.683 286.335 199.536 278.506 199.376C334.428 199.696 345.293 145.457 299.064 145.617" stroke="black" stroke-width="1.4154" stroke-miterlimit="10" stroke-linecap="round" stroke-linejoin="round"/>
<path d="M296.028 103.91C300.875 109.83 309.609 110.684 315.521 105.777C321.433 100.924 322.285 92.1771 317.385 86.2572C312.539 80.3372 298.212 72.6573 292.3 77.5639C286.388 82.4172 291.182 97.9904 296.028 103.91Z" fill="white" stroke="black" stroke-width="1.4154" stroke-miterlimit="10" stroke-linecap="round" stroke-linejoin="round"/>
<path d="M368.142 111.164C368.515 116.337 367.45 121.297 365.319 125.67C361.272 133.937 345.294 142.417 337.784 145.03C335.228 145.883 332.458 145.883 329.902 145.03C322.392 142.417 306.414 133.937 302.366 125.67C300.502 121.83 299.437 117.617 299.437 113.19C299.437 95.3237 316.267 80.9772 336.452 82.3105C353.442 83.4305 367.077 95.857 368.142 111.164Z" fill="white" stroke="black" stroke-width="1.4154" stroke-miterlimit="10" stroke-linecap="round" stroke-linejoin="round"/>
<path d="M319.782 216.123C317.865 211.589 314.989 209.189 311.686 209.509C310.142 209.616 308.97 208.229 309.609 206.843C309.609 206.843 309.876 205.883 311.047 205.509C315.787 204.549 320.368 207.483 322.392 213.563C324.948 213.989 325.108 216.603 323.776 217.616C322.338 218.736 320.208 218.096 319.782 216.123Z" fill="white" stroke="black" stroke-width="1.4154" stroke-miterlimit="10" stroke-linecap="round" stroke-linejoin="round"/>
<path d="M321.83 116.265C321.925 115.773 321.604 115.297 321.114 115.202C320.623 115.107 320.147 115.428 320.052 115.919C319.957 116.411 320.278 116.887 320.769 116.982C321.26 117.077 321.735 116.756 321.83 116.265Z" fill="black" stroke="black" stroke-width="1.4154" stroke-miterlimit="10" stroke-linecap="round"/>
<path d="M328.689 118.371C329.884 114.026 327.336 109.534 322.997 108.337C318.658 107.14 314.172 109.692 312.976 114.037C311.781 118.382 314.329 122.874 318.668 124.071C323.007 125.268 327.493 122.716 328.689 118.371Z" stroke="black" stroke-width="1.4154" stroke-miterlimit="10" stroke-linecap="round"/>
<path d="M324.133 115.118C324.328 114.408 323.911 113.674 323.203 113.479C322.494 113.283 321.761 113.7 321.565 114.41C321.37 115.12 321.786 115.854 322.495 116.05C323.204 116.245 323.937 115.828 324.133 115.118Z" fill="white"/>
<path d="M326.706 122.203L327.718 123.27" stroke="black" stroke-width="1.4154" stroke-miterlimit="10" stroke-linecap="round" stroke-linejoin="round"/>
<path d="M322.392 136.07C322.392 133.883 323.563 130.897 325.96 129.19C328.357 127.483 330.381 124.977 331.765 123.004C332.724 121.67 334.535 121.67 335.547 123.004C336.985 124.977 339.062 127.537 341.299 129.083C343.749 130.79 344.921 133.883 344.921 136.07" stroke="black" stroke-width="1.4154" stroke-miterlimit="10" stroke-linecap="round" stroke-linejoin="round"/>
<path d="M331.286 130.363C330.114 129.03 331.659 128.123 331.659 128.123C331.659 128.123 330.167 129.03 331.286 130.363Z" fill="white" stroke="black" stroke-width="1.4154" stroke-miterlimit="10" stroke-linecap="round" stroke-linejoin="round"/>
<path d="M347.739 116.132C347.835 115.64 347.514 115.165 347.023 115.069C346.532 114.974 346.057 115.295 345.962 115.787C345.866 116.278 346.187 116.754 346.678 116.849C347.169 116.945 347.644 116.624 347.739 116.132Z" fill="black" stroke="black" stroke-width="1.4154" stroke-miterlimit="10" stroke-linecap="round"/>
<path d="M350.032 114.902C350.228 114.192 349.811 113.458 349.102 113.263C348.393 113.067 347.66 113.484 347.465 114.194C347.27 114.904 347.686 115.638 348.395 115.834C349.104 116.029 349.837 115.612 350.032 114.902Z" fill="white"/>
<path d="M354.668 118.357C355.863 114.012 353.315 109.52 348.976 108.323C344.637 107.126 340.151 109.678 338.956 114.022C337.76 118.367 340.309 122.86 344.648 124.057C348.986 125.254 353.473 122.702 354.668 118.357Z" stroke="black" stroke-width="1.4154" stroke-miterlimit="10" stroke-linecap="round"/>
<path d="M340.873 122.203L339.914 123.27" stroke="black" stroke-width="1.4154" stroke-miterlimit="10" stroke-linecap="round" stroke-linejoin="round"/>
<path d="M336.026 130.363C337.198 129.03 335.653 128.123 335.653 128.123C335.653 128.123 337.198 129.03 336.026 130.363Z" fill="white" stroke="black" stroke-width="1.4154" stroke-miterlimit="10" stroke-linecap="round" stroke-linejoin="round"/>
<path d="M352.963 220.709C352.643 215.536 350.566 212.123 347.211 211.216C345.613 210.789 344.921 208.976 346.039 207.803C346.039 207.803 346.625 206.896 347.957 206.949C353.016 207.643 356.585 212.176 356.531 219.003C358.928 220.283 358.182 223.056 356.478 223.589C354.614 224.229 352.697 222.843 352.963 220.709Z" fill="white" stroke="black" stroke-width="1.4154" stroke-miterlimit="10" stroke-linecap="round" stroke-linejoin="round"/>
<path d="M326.706 133.563L330.008 135.643C332.085 136.977 334.695 137.03 336.825 135.75L340.607 133.51" stroke="black" stroke-width="1.4154" stroke-miterlimit="10" stroke-linecap="round" stroke-linejoin="round"/>
<path d="M75.7454 195.803C78.3018 193.403 83.5746 194.256 84.906 197.829" stroke="black" stroke-width="1.4154" stroke-miterlimit="10" stroke-linecap="round"/>
<path d="M55.5067 196.603C61.9512 195.323 62.0577 189.456 62.0577 189.456" stroke="black" stroke-width="1.4154" stroke-miterlimit="10" stroke-linecap="round"/>
<path d="M65.4662 192.336C67.2237 195.483 65.1466 198.416 65.1466 198.416" stroke="black" stroke-width="1.4154" stroke-miterlimit="10" stroke-linecap="round"/>
<path d="M64.4012 185.936C60.9926 183.963 60.1937 181.563 60.1937 181.563" stroke="black" stroke-width="1.4154" stroke-miterlimit="10" stroke-linecap="round"/>
<path d="M57.85 187.59C56.7316 191.643 53.0566 191.643 53.0566 191.643" stroke="black" stroke-width="1.4154" stroke-miterlimit="10" stroke-linecap="round"/>
<path d="M73.6684 198.523C70.0467 197.403 70.4728 191.163 74.0944 190.043" stroke="black" stroke-width="1.4154" stroke-miterlimit="10" stroke-linecap="round"/>
<path d="M39.8484 191.91C43.5233 190.416 47.358 194.47 45.8667 197.83" stroke="black" stroke-width="1.4154" stroke-miterlimit="10" stroke-linecap="round"/>
<path d="M76.5975 184.55C74.5204 187.75 68.6618 185.616 68.5553 181.883" stroke="black" stroke-width="1.4154" stroke-miterlimit="10" stroke-linecap="round"/>
<path d="M47.0917 182.736C44.6418 185.243 45.3342 190.523 48.9026 191.963" stroke="black" stroke-width="1.4154" stroke-miterlimit="10" stroke-linecap="round"/>
<path d="M110.79 184.816C104.399 186.31 104.452 192.123 104.452 192.123" stroke="black" stroke-width="1.4154" stroke-miterlimit="10" stroke-linecap="round"/>
<path d="M100.991 190.683C99.1798 187.59 101.097 184.603 101.097 184.603" stroke="black" stroke-width="1.4154" stroke-miterlimit="10" stroke-linecap="round"/>
<path d="M98.9666 193.509C102.428 195.376 103.334 197.776 103.334 197.776" stroke="black" stroke-width="1.4154" stroke-miterlimit="10" stroke-linecap="round"/>
<path d="M89.5398 184.443C93.1082 183.163 96.4636 188.443 94.2799 191.483" stroke="black" stroke-width="1.4154" stroke-miterlimit="10" stroke-linecap="round"/>
<path d="M114.039 186.576C114.838 190.469 120.324 191.376 122.348 188.229" stroke="black" stroke-width="1.4154" stroke-miterlimit="10" stroke-linecap="round"/>
<path d="M88.4746 196.923C90.4452 193.669 96.3571 195.643 96.5701 199.376" stroke="black" stroke-width="1.4154" stroke-miterlimit="10" stroke-linecap="round"/>
<path d="M116.755 196.923C116.755 193.456 112.495 190.15 108.979 191.643" stroke="black" stroke-width="1.4154" stroke-miterlimit="10" stroke-linecap="round"/>
<path d="M87.6224 191.27C83.7344 191.963 81.5508 190.683 81.5508 190.683" stroke="black" stroke-width="1.4154" stroke-miterlimit="10" stroke-linecap="round"/>
<path d="M129.058 186.736C129.218 190.95 132.787 191.803 132.787 191.803" stroke="black" stroke-width="1.4154" stroke-miterlimit="10" stroke-linecap="round"/>
<path d="M127.461 196.87C123.626 195.163 124.159 191.536 124.159 191.536" stroke="black" stroke-width="1.4154" stroke-miterlimit="10" stroke-linecap="round"/>
<path d="M31.8592 189.51C28.3973 189.776 24.7757 185.83 26.0007 182.203" stroke="black" stroke-width="1.4154" stroke-miterlimit="10" stroke-linecap="round"/>
<path d="M32.3387 195.963C32.7116 192.39 36.0669 191.163 36.0669 191.163" stroke="black" stroke-width="1.4154" stroke-miterlimit="10" stroke-linecap="round"/>
<path d="M27.8647 192.603C25.255 189.83 19.8757 192.976 20.4616 196.656" stroke="black" stroke-width="1.4154" stroke-miterlimit="10" stroke-linecap="round"/>
<path d="M40.0613 188.71C36.1733 189.51 33.1375 184.816 35.2146 181.776" stroke="black" stroke-width="1.4154" stroke-miterlimit="10" stroke-linecap="round"/>
<path d="M22.0063 190.043C18.2781 188.763 16.9999 186.576 16.9999 186.576" stroke="black" stroke-width="1.4154" stroke-miterlimit="10" stroke-linecap="round"/>
<path d="M82.7758 182.896C82.9355 187.11 86.5039 187.963 86.5039 187.963" stroke="black" stroke-width="1.4154" stroke-miterlimit="10" stroke-linecap="round"/>
</svg>
