<svg width="400" height="300" viewBox="0 0 400 300" fill="none" xmlns="http://www.w3.org/2000/svg">
<path d="M214.566 158.91C214.672 159.263 207.314 169.406 192.455 170.961C192.455 170.961 203.67 187.358 205.474 186.899C206.288 186.686 210.568 185.697 211.807 185.874C213.823 186.121 216.76 189.302 216.229 189.302H203.422C203.139 189.302 202.856 189.125 202.785 188.842L187.325 172.374C187.042 172.056 187.006 171.561 187.289 171.243C187.997 170.395 189.164 168.628 188.74 166.049" fill="white"/>
<path d="M214.566 158.91C214.672 159.263 207.314 169.406 192.455 170.961C192.455 170.961 203.67 187.358 205.474 186.899C206.288 186.686 210.568 185.697 211.807 185.874C213.823 186.121 216.76 189.302 216.229 189.302H203.422C203.139 189.302 202.856 189.125 202.785 188.842L187.325 172.374C187.042 172.056 187.006 171.561 187.289 171.243C187.997 170.395 189.164 168.628 188.74 166.049L192.455 148.5L214.566 158.91Z" fill="white"/>
<path d="M214.566 158.91C214.672 159.263 207.314 169.406 192.455 170.961C192.455 170.961 203.67 187.358 205.474 186.899C206.288 186.686 210.568 185.697 211.807 185.874C213.823 186.121 216.76 189.302 216.229 189.302H203.422C203.139 189.302 202.856 189.125 202.785 188.842L187.325 172.374C187.042 172.056 187.006 171.561 187.289 171.243C187.997 170.395 189.164 168.628 188.74 166.049" stroke="black" stroke-width="1.4154" stroke-miterlimit="10" stroke-linecap="round"/>
<path d="M214.566 158.91C214.672 159.263 207.314 169.406 192.455 170.961C192.455 170.961 203.67 187.358 205.474 186.899C206.288 186.686 210.568 185.697 211.807 185.874C213.823 186.121 216.76 189.302 216.229 189.302H203.422C203.139 189.302 202.856 189.125 202.785 188.842L187.325 172.374C187.042 172.056 187.006 171.561 187.289 171.243C187.997 170.395 189.164 168.628 188.74 166.049L192.455 148.5L214.566 158.91Z" stroke="black" stroke-width="1.4154" stroke-miterlimit="10" stroke-linecap="round"/>
<path d="M210 158.5H204.5L177.5 127L183 121.5L189 117L195.5 113.5L202.5 111L211 110L220.5 110.5L229 112L238.5 115L247.5 118.5L258.5 124.5L271.5 133.5L284.5 128L293.5 124.5L300.5 122H305.5L313.5 123L332.5 125.5L336.5 126.5L337 128.5L335.5 129.5L332 131.5L324.5 135.5L316 140L305.5 145L298.5 150L291 155L285.5 159.5L279 163.5L270.5 166L262 166.5H254L236.5 163.5L222 160L210 158.5Z" fill="white"/>
<path d="M271.561 133.466C271.561 133.466 295.619 123.394 296.432 123.112C299.263 122.087 302.234 121.627 305.312 121.839C305.419 121.839 305.56 121.875 305.666 121.91L335.561 125.868C337.224 126.292 337.507 128.554 335.986 129.367L308.39 143.679C308.32 143.714 308.213 143.785 308.143 143.82C303.508 145.658 298.414 142.937 297.423 139.898" stroke="black" stroke-width="1.4154" stroke-miterlimit="10" stroke-linecap="round"/>
<path d="M308.072 134.208C310.573 134.208 312.6 132.183 312.6 129.685C312.6 127.186 310.573 125.161 308.072 125.161C305.571 125.161 303.543 127.186 303.543 129.685C303.543 132.183 305.571 134.208 308.072 134.208Z" stroke="#020202" stroke-width="1.4154" stroke-miterlimit="10" stroke-linecap="round"/>
<path d="M306.338 130.038C307.117 130.073 307.753 129.367 307.753 128.625V128.589C307.753 128.13 307.541 127.776 307.223 127.494C307.93 127.211 308.744 127.317 309.381 127.812C310.336 128.554 310.548 129.967 309.77 130.922C309.027 131.876 307.612 132.088 306.657 131.31C306.197 130.957 305.914 130.462 305.808 129.897C306.02 129.967 306.161 130.003 306.338 130.038Z" fill="black" stroke="black" stroke-width="1.4154" stroke-miterlimit="10" stroke-linecap="round"/>
<path d="M328.945 132.901C318.65 134.031 320.596 134.491 314.546 136.399" stroke="black" stroke-width="1.4154" stroke-miterlimit="10" stroke-linecap="round"/>
<path d="M334.393 130.215C332.978 130.356 331.705 129.296 331.563 127.882" stroke="black" stroke-width="1.4154" stroke-miterlimit="10" stroke-linecap="round" stroke-linejoin="round"/>
<path d="M298.13 128.554L297.989 131.805C291.514 131.028 294.239 138.625 298.626 134.773L300.041 137.636C297.423 141.453 289.604 142.972 287.446 135.94C285.606 127.352 293.637 125.338 298.13 128.554Z" stroke="black" stroke-width="1.4154" stroke-miterlimit="10" stroke-linecap="round" stroke-linejoin="round"/>
<path d="M309.062 138.378C312.848 138.767 315.82 134.491 318.473 133.678" stroke="black" stroke-width="1.4154" stroke-miterlimit="10" stroke-linecap="round"/>
<path d="M271.561 133.466C271.561 133.466 192.702 68.8663 163.232 154.033C163.232 154.033 100.612 186.439 68.8418 139.509C66.7899 136.434 62.0138 138.802 63.1812 142.301C71.3537 166.826 117.664 191.068 164.965 169.406" fill="white"/>
<path d="M271.561 133.466C271.561 133.466 192.702 68.8663 163.232 154.033C163.232 154.033 100.612 186.439 68.8418 139.509C66.7899 136.434 62.0138 138.802 63.1812 142.301C71.3537 166.826 117.664 191.068 164.965 169.406" stroke="black" stroke-width="1.4154" stroke-miterlimit="10" stroke-linecap="round"/>
<path d="M268.589 155.835C268.483 160.288 265.193 162.656 260.275 163.928L250.971 166.402C250.369 166.579 249.98 167.144 250.051 167.745C250.051 167.745 252.598 186.545 252.81 187.004C253.023 187.499 253.589 187.747 254.119 187.641L258.117 186.545C260.417 186.333 262.54 188.807 262.54 188.807C262.716 188.948 262.61 189.266 262.398 189.266H251.537C251.148 189.266 250.794 189.16 250.617 188.701L243.258 166.437C243.046 165.872 243.117 165.236 243.506 164.741L252.315 153.397" fill="white"/>
<path d="M268.589 155.835C268.483 160.288 265.193 162.656 260.275 163.928L250.971 166.402C250.369 166.579 249.98 167.144 250.051 167.745C250.051 167.745 252.598 186.545 252.81 187.004C253.023 187.499 253.589 187.747 254.119 187.641L258.117 186.545C260.417 186.333 262.54 188.807 262.54 188.807C262.716 188.948 262.61 189.266 262.398 189.266H251.537C251.148 189.266 250.794 189.16 250.617 188.701L243.258 166.437C243.046 165.872 243.117 165.236 243.506 164.741L252.315 153.397" stroke="black" stroke-width="1.4154" stroke-miterlimit="10" stroke-linecap="round"/>
<path d="M269.226 166.155C269.226 166.155 276.797 186.333 277.009 186.792C277.222 187.287 277.929 187.994 279.274 187.676L283.095 186.58C284.899 186.156 287.658 188.842 287.658 188.842C287.835 188.983 287.729 189.302 287.517 189.302H276.656C276.302 189.302 275.948 189.125 275.736 188.842C273.259 185.626 260.983 166.72 260.983 166.72" fill="white"/>
<path d="M269.226 166.155C269.226 166.155 276.797 186.333 277.009 186.792C277.222 187.287 277.929 187.994 279.274 187.676L283.095 186.58C284.899 186.156 287.658 188.842 287.658 188.842C287.835 188.983 287.729 189.302 287.517 189.302H276.656C276.302 189.302 275.948 189.125 275.736 188.842C273.259 185.626 260.983 166.72 260.983 166.72" stroke="black" stroke-width="1.4154" stroke-miterlimit="10" stroke-linecap="round"/>
<path d="M307.93 143.891C307.93 143.891 295.477 150.782 288.331 157.143C280.264 164.317 267.174 168.31 251.537 166.26" stroke="black" stroke-width="1.4154" stroke-miterlimit="10" stroke-linecap="round"/>
<path d="M242.905 165.271C242.905 165.271 215.875 157.143 208.198 158.769" stroke="black" stroke-width="1.4154" stroke-miterlimit="10" stroke-linecap="round"/>
<path d="M312.883 132.901C310.867 133.183 308.886 136.646 304.605 135.021" stroke="black" stroke-width="1.4154" stroke-miterlimit="10" stroke-linecap="round"/>
<path d="M212.833 152.62C212.939 152.973 209.472 167.391 169.918 167.391L174.341 185.909C174.341 185.909 174.588 187.747 176.393 187.287C177.206 187.075 180.284 185.732 181.523 185.874C183.539 186.121 186.476 189.302 185.945 189.302H173.138C172.855 189.302 172.572 189.125 172.501 188.842L163.055 163.61C162.772 162.762 163.303 161.843 164.187 161.631C166.911 160.995 172.253 159.193 174.659 154.669" fill="white"/>
<path d="M212.833 152.62C212.939 152.973 209.472 167.391 169.918 167.391L174.341 185.909C174.341 185.909 174.588 187.747 176.393 187.287C177.206 187.075 180.284 185.732 181.523 185.874C183.539 186.121 186.476 189.302 185.945 189.302H173.138C172.855 189.302 172.572 189.125 172.501 188.842L163.055 163.61C162.772 162.762 163.303 161.843 164.187 161.631C166.911 160.995 172.253 159.193 174.659 154.669" stroke="black" stroke-width="1.4154" stroke-miterlimit="10" stroke-linecap="round"/>
<path d="M159.057 161.914C159.057 161.914 153.149 164.034 150.92 161.914" stroke="black" stroke-width="1.4154" stroke-miterlimit="10" stroke-linecap="round"/>
<path d="M156.333 168.452C156.333 166.685 152.76 165.271 148.373 165.271" stroke="black" stroke-width="1.4154" stroke-miterlimit="10" stroke-linecap="round"/>
<path d="M150.354 168.169C150.92 170.713 148.514 173.364 144.977 174.141" stroke="black" stroke-width="1.4154" stroke-miterlimit="10" stroke-linecap="round"/>
<path d="M140.342 171.809C139.458 174.459 136.486 175.837 133.656 174.919" stroke="black" stroke-width="1.4154" stroke-miterlimit="10" stroke-linecap="round"/>
<path d="M148.231 167.391C148.231 167.391 142.252 169.264 140.094 167.038" stroke="black" stroke-width="1.4154" stroke-miterlimit="10" stroke-linecap="round"/>
<path d="M144.658 165.907C144.658 165.907 138.644 165.094 137.123 162.868" stroke="black" stroke-width="1.4154" stroke-miterlimit="10" stroke-linecap="round"/>
<path d="M126.368 170.042C126.368 168.275 122.794 166.861 118.407 166.861" stroke="black" stroke-width="1.4154" stroke-miterlimit="10" stroke-linecap="round"/>
<path d="M120.565 170.395C120.565 172.975 117.629 175.095 114.02 175.095" stroke="black" stroke-width="1.4154" stroke-miterlimit="10" stroke-linecap="round"/>
<path d="M112.11 173.364C112.11 173.328 110.624 175.449 107.263 175.59" stroke="black" stroke-width="1.4154" stroke-miterlimit="10" stroke-linecap="round"/>
<path d="M117.594 170.819C117.594 170.819 111.402 169.865 110.447 166.932" stroke="black" stroke-width="1.4154" stroke-miterlimit="10" stroke-linecap="round"/>
<path d="M110.093 170.925C110.093 170.925 104.574 173.894 102.062 172.127" stroke="black" stroke-width="1.4154" stroke-miterlimit="10" stroke-linecap="round"/>
<path d="M107.334 167.745C107.334 167.745 102.629 168.982 100.506 163.327" stroke="black" stroke-width="1.4154" stroke-miterlimit="10" stroke-linecap="round"/>
<path d="M101.143 170.325C102.098 168.84 99.8691 165.73 96.1897 163.327" stroke="black" stroke-width="1.4154" stroke-miterlimit="10" stroke-linecap="round"/>
<path d="M96.4019 167.674C95.0221 168.84 94.0669 168.982 91.6965 168.558" stroke="black" stroke-width="1.4154" stroke-miterlimit="10" stroke-linecap="round"/>
<path d="M89.4323 164.423C86.5666 165.907 86.5666 165.342 83.7009 165.695" stroke="black" stroke-width="1.4154" stroke-miterlimit="10" stroke-linecap="round"/>
<path d="M93.7132 166.402C92.7226 165.942 89.7862 163.327 89.8216 159.263" stroke="black" stroke-width="1.4154" stroke-miterlimit="10" stroke-linecap="round"/>
<path d="M82.3212 161.136C82.3212 161.136 76.2007 159.723 75.4932 156.719" stroke="black" stroke-width="1.4154" stroke-miterlimit="10" stroke-linecap="round"/>
<path d="M138.679 168.805C138.679 168.805 132.7 170.678 130.542 168.452" stroke="black" stroke-width="1.4154" stroke-miterlimit="10" stroke-linecap="round"/>
<path d="M161.64 166.331C159.942 167.639 159.694 168.982 159.694 168.982" stroke="black" stroke-width="1.4154" stroke-miterlimit="10" stroke-linecap="round"/>
<path d="M122.405 172.657C121.238 174.424 121.415 175.802 121.415 175.802" stroke="black" stroke-width="1.4154" stroke-miterlimit="10" stroke-linecap="round"/>
<path d="M77.4389 150.464C76.8375 152.514 77.4035 153.75 77.4035 153.75" stroke="black" stroke-width="1.4154" stroke-miterlimit="10" stroke-linecap="round"/>
<path d="M84.3025 157.461C84.727 159.546 85.7884 160.394 85.7884 160.394" stroke="black" stroke-width="1.4154" stroke-miterlimit="10" stroke-linecap="round"/>
<path d="M128.49 175.696C129.552 173.858 130.861 173.399 130.861 173.399" stroke="black" stroke-width="1.4154" stroke-miterlimit="10" stroke-linecap="round"/>
<path d="M152.194 170.89C154.317 170.607 155.449 171.385 155.449 171.385" stroke="black" stroke-width="1.4154" stroke-miterlimit="10" stroke-linecap="round"/>
<path d="M135 167.639C131.851 167.321 131.179 164.246 131.179 164.246" stroke="black" stroke-width="1.4154" stroke-miterlimit="10" stroke-linecap="round"/>
<path d="M73.1229 151.312C69.9742 150.994 69.302 147.92 69.302 147.92" stroke="black" stroke-width="1.4154" stroke-miterlimit="10" stroke-linecap="round"/>
<path d="M161.463 158.769C158.421 159.652 156.652 157.072 156.652 157.072" stroke="black" stroke-width="1.4154" stroke-miterlimit="10" stroke-linecap="round"/>
<path d="M124.316 177.322C124.316 174.141 127.287 173.152 127.287 173.152" stroke="black" stroke-width="1.4154" stroke-miterlimit="10" stroke-linecap="round"/>
<path d="M142.712 173.01C144.517 171.879 144.941 170.572 144.941 170.572" stroke="black" stroke-width="1.4154" stroke-miterlimit="10" stroke-linecap="round"/>
<path d="M80.2338 152.62C79.6324 154.669 80.1984 155.906 80.1984 155.906" stroke="black" stroke-width="1.4154" stroke-miterlimit="10" stroke-linecap="round"/>
<path d="M70.894 155.023C72.9814 155.482 74.0427 155.023 74.0427 155.023" stroke="black" stroke-width="1.4154" stroke-miterlimit="10" stroke-linecap="round"/>
<path d="M66.1887 143.75C67.7454 145.198 69.1251 145.269 69.1251 145.269" stroke="black" stroke-width="1.4154" stroke-miterlimit="10" stroke-linecap="round"/>
<path d="M71.5662 146.541C72.0968 148.591 73.2643 149.368 73.2643 149.368" stroke="black" stroke-width="1.4154" stroke-miterlimit="10" stroke-linecap="round"/>
<path d="M210.958 187.535C212.974 188.277 213.399 189.266 213.399 189.266" stroke="black" stroke-width="1.4154" stroke-miterlimit="10" stroke-linecap="round"/>
<path d="M181.523 187.535C182.655 187.817 183.362 189.054 183.362 189.054" stroke="black" stroke-width="1.4154" stroke-miterlimit="10" stroke-linecap="round"/>
<path d="M283.625 188.065C284.651 188.453 285.076 188.983 285.076 188.983" stroke="black" stroke-width="1.4154" stroke-miterlimit="10" stroke-linecap="round"/>
<path d="M258.86 188.065C259.886 188.453 260.311 188.983 260.311 188.983" stroke="black" stroke-width="1.4154" stroke-miterlimit="10" stroke-linecap="round"/>
<path d="M179.86 188.065C180.886 188.453 180.992 188.983 180.992 188.983" stroke="black" stroke-width="1.4154" stroke-miterlimit="10" stroke-linecap="round"/>
</svg>
